# Blender v3.0.0 OBJ File: 'walls_with_doors.blend'
# www.blender.org
mtllib half_wall_horizontal.mtl
o Wall.014_Cube.027
v 2.500000 -0.125000 0.000000
v 2.500000 -0.125000 3.000000
v 0.000000 -0.125000 0.000000
v 0.000000 -0.125000 3.000000
v 2.500000 0.125000 0.000000
v 2.500000 0.125000 3.000000
v 0.000000 0.125000 0.000000
v 0.000000 0.125000 3.000000
vt 0.390213 0.909720
vt 0.400244 0.909720
vt 0.400244 0.899689
vt 0.410275 0.899689
vt 0.410275 0.889658
vt 0.400244 0.929783
vt 0.410275 0.929783
vt 0.410275 0.919751
vt 0.410275 0.909720
vt 0.420307 0.909720
vt 0.420307 0.899689
vt 0.400244 0.919751
vt 0.390213 0.899689
vt 0.400244 0.889658
vn 0.0000 0.0000 -1.0000
vn -1.0000 0.0000 0.0000
vn 0.0000 1.0000 0.0000
vn 0.0000 0.0000 1.0000
vn 0.0000 -1.0000 0.0000
vn 1.0000 0.0000 0.0000
usemtl InteriorPack_01.001
s off
f 5/1/1 1/2/1 3/3/1
f 3/3/2 4/4/2 8/5/2
f 7/6/3 8/7/3 6/8/3
f 2/9/4 6/10/4 8/11/4
f 1/2/5 2/9/5 4/4/5
f 5/12/6 6/8/6 2/9/6
f 5/1/1 3/3/1 7/13/1
f 3/3/2 8/5/2 7/14/2
f 7/6/3 6/8/3 5/12/3
f 2/9/4 8/11/4 4/4/4
f 1/2/5 4/4/5 3/3/5
f 5/12/6 2/9/6 1/2/6
