<?xml version="1.0" encoding="utf-8" standalone="no"?>
<!DOCTYPE svg PUBLIC "-//W3C//DTD SVG 1.1//EN"
  "http://www.w3.org/Graphics/SVG/1.1/DTD/svg11.dtd">
<!-- Created with matplotlib (http://matplotlib.org/) -->
<svg height="345pt" version="1.1" viewBox="0 0 714 345" width="714pt" xmlns="http://www.w3.org/2000/svg" xmlns:xlink="http://www.w3.org/1999/xlink">
 <defs>
  <style type="text/css">
*{stroke-linecap:butt;stroke-linejoin:round;}
  </style>
 </defs>
 <g id="figure_1">
  <g id="patch_1">
   <path d="M 0 345.6 
L 714.96 345.6 
L 714.96 0 
L 0 0 
z
" style="fill:#ffffff;"/>
  </g>
  <g id="axes_1">
   <g id="patch_2">
    <path clip-path="url(#pb208711749)" d="M 108.695322 275.789984 
L 108.695322 283.732101 
L 107.90111 283.732101 
L 107.90111 275.789984 
z
" style="stroke:#000000;stroke-linejoin:miter;"/>
   </g>
   <g id="patch_3">
    <path clip-path="url(#pb208711749)" d="M 148.405904 275.789984 
L 148.405904 283.732101 
L 147.611693 283.732101 
L 147.611693 275.789984 
z
" style="stroke:#000000;stroke-linejoin:miter;"/>
   </g>
   <g id="patch_4">
    <path clip-path="url(#pb208711749)" d="M 121.535077 275.789984 
L 121.426403 275.387074 
L 121.102164 275.010517 
L 120.567684 274.684946 
L 119.831741 274.431656 
L 118.906417 274.267214 
L 117.806907 274.202377 
L 116.551264 274.241386 
L 115.160107 274.381689 
L 113.656277 274.61411 
L 112.064468 274.923444 
L 110.410818 275.289459 
L 108.722479 275.688214 
L 107.027173 276.093625 
L 105.352738 276.479175 
L 103.726667 276.819645 
L 102.175661 277.092765 
L 100.725188 277.280669 
L 99.399063 277.371068 
L 98.219062 277.358047 
L 97.204561 277.242459 
L 96.372217 277.031864 
L 95.735698 276.740037 
L 95.305454 276.386067 
L 95.088552 275.993107 
L 95.088552 275.586861 
L 95.305454 275.193902 
L 95.735698 274.839932 
L 96.372217 274.548105 
L 97.204561 274.33751 
L 98.219062 274.221922 
L 99.399063 274.208901 
L 100.725188 274.299299 
L 102.175661 274.487204 
L 103.726667 274.760323 
L 105.352738 275.100793 
L 107.027173 275.486344 
L 108.722479 275.891755 
L 110.410818 276.29051 
L 112.064468 276.656525 
L 113.656277 276.965859 
L 115.160107 277.198279 
L 116.551264 277.338583 
L 117.806907 277.377592 
L 118.906417 277.312755 
L 119.831741 277.148313 
L 120.567684 276.895023 
L 121.102164 276.569452 
L 121.426403 276.192895 
z
" style="fill:#0000ff;stroke:#000000;stroke-linejoin:miter;"/>
   </g>
   <g id="patch_5">
    <path clip-path="url(#pb208711749)" d="M 161.245659 275.789984 
L 161.136985 275.387074 
L 160.812746 275.010517 
L 160.278266 274.684946 
L 159.542323 274.431656 
L 158.616999 274.267214 
L 157.517489 274.202377 
L 156.261846 274.241386 
L 154.870689 274.381689 
L 153.366859 274.61411 
L 151.77505 274.923444 
L 150.1214 275.289459 
L 148.433061 275.688214 
L 146.737755 276.093625 
L 145.06332 276.479175 
L 143.437249 276.819645 
L 141.886243 277.092765 
L 140.43577 277.280669 
L 139.109645 277.371068 
L 137.929644 277.358047 
L 136.915143 277.242459 
L 136.082799 277.031864 
L 135.44628 276.740037 
L 135.016037 276.386067 
L 134.799134 275.993107 
L 134.799134 275.586861 
L 135.016037 275.193902 
L 135.44628 274.839932 
L 136.082799 274.548105 
L 136.915143 274.33751 
L 137.929644 274.221922 
L 139.109645 274.208901 
L 140.43577 274.299299 
L 141.886243 274.487204 
L 143.437249 274.760323 
L 145.06332 275.100793 
L 146.737755 275.486344 
L 148.433061 275.891755 
L 150.1214 276.29051 
L 151.77505 276.656525 
L 153.366859 276.965859 
L 154.870689 277.198279 
L 156.261846 277.338583 
L 157.517489 277.377592 
L 158.616999 277.312755 
L 159.542323 277.148313 
L 160.278266 276.895023 
L 160.812746 276.569452 
L 161.136985 276.192895 
z
" style="fill:#0000ff;stroke:#000000;stroke-linejoin:miter;"/>
   </g>
   <g id="patch_6">
    <path clip-path="url(#pb208711749)" d="M 152.716539 239.688611 
L 149.992014 247.148784 
L 149.245996 246.876331 
L 151.970522 239.416159 
z
" style="stroke:#000000;stroke-linejoin:miter;"/>
   </g>
   <g id="patch_7">
    <path clip-path="url(#pb208711749)" d="M 190.017402 253.311238 
L 187.292876 260.771411 
L 186.546859 260.498958 
L 189.271385 253.038786 
z
" style="stroke:#000000;stroke-linejoin:miter;"/>
   </g>
   <g id="patch_8">
    <path clip-path="url(#pb208711749)" d="M 164.777151 244.093261 
L 164.813289 243.677519 
L 164.637903 243.212583 
L 164.247543 242.723416 
L 163.643149 242.233032 
L 162.830387 241.761139 
L 161.819839 241.323052 
L 160.62701 240.928949 
L 159.27214 240.583504 
L 157.779834 240.285935 
L 156.178503 240.030432 
L 154.499639 239.806956 
L 152.77696 239.602332 
L 151.045453 239.401572 
L 149.340364 239.189314 
L 147.696169 238.951304 
L 146.145589 238.675781 
L 144.718673 238.354701 
L 143.442009 237.98469 
L 142.33808 237.567663 
L 141.424793 237.111066 
L 140.715201 236.627717 
L 140.217418 236.135242 
L 139.934711 235.655158 
L 139.865775 235.211636 
L 140.005137 234.830042 
L 140.343681 234.535335 
L 140.869245 234.350439 
L 141.567249 234.294678 
L 142.421329 234.382396 
L 143.413921 234.621844 
L 144.526783 235.01441 
L 145.741425 235.554247 
L 147.039421 236.228331 
L 148.402615 237.016946 
L 149.813215 237.894575 
L 151.25378 238.831141 
L 152.707136 239.793522 
L 154.156231 240.74726 
L 155.583974 241.658346 
L 156.973072 242.494976 
L 158.305915 243.229178 
L 159.564523 243.838201 
L 160.730589 244.305588 
L 161.785621 244.62187 
L 162.711205 244.784837 
L 163.489381 244.799381 
L 164.103114 244.676918 
L 164.536854 244.434442 
z
" style="fill:#0000ff;stroke:#000000;stroke-linejoin:miter;"/>
   </g>
   <g id="patch_9">
    <path clip-path="url(#pb208711749)" d="M 202.078014 257.715888 
L 202.114152 257.300146 
L 201.938765 256.835211 
L 201.548406 256.346044 
L 200.944011 255.85566 
L 200.131249 255.383766 
L 199.120702 254.945679 
L 197.927872 254.551576 
L 196.573002 254.206132 
L 195.080697 253.908563 
L 193.479366 253.65306 
L 191.800502 253.429583 
L 190.077823 253.224959 
L 188.346316 253.024199 
L 186.641227 252.811942 
L 184.997032 252.573932 
L 183.446451 252.298409 
L 182.019535 251.977329 
L 180.742872 251.607317 
L 179.638943 251.19029 
L 178.725655 250.733693 
L 178.016064 250.250344 
L 177.51828 249.75787 
L 177.235574 249.277785 
L 177.166638 248.834263 
L 177.305999 248.452669 
L 177.644544 248.157963 
L 178.170107 247.973066 
L 178.868112 247.917305 
L 179.722192 248.005023 
L 180.714783 248.244471 
L 181.827646 248.637037 
L 183.042288 249.176874 
L 184.340284 249.850958 
L 185.703478 250.639573 
L 187.114078 251.517203 
L 188.554643 252.453768 
L 190.007998 253.416149 
L 191.457094 254.369888 
L 192.884837 255.280974 
L 194.273935 256.117603 
L 195.606777 256.851805 
L 196.865386 257.460828 
L 198.031452 257.928215 
L 199.086483 258.244497 
L 200.012068 258.407465 
L 200.790244 258.422008 
L 201.403976 258.299546 
L 201.837717 258.057069 
z
" style="fill:#0000ff;stroke:#000000;stroke-linejoin:miter;"/>
   </g>
   <g id="patch_10">
    <path clip-path="url(#pb208711749)" d="M 266.047882 166.297833 
L 269.633284 173.384589 
L 268.924609 173.743129 
L 265.339207 166.656373 
z
" style="stroke:#000000;stroke-linejoin:miter;"/>
   </g>
   <g id="patch_11">
    <path clip-path="url(#pb208711749)" d="M 301.481661 148.370824 
L 305.067063 155.45758 
L 304.358387 155.81612 
L 300.772986 148.729364 
z
" style="stroke:#000000;stroke-linejoin:miter;"/>
   </g>
   <g id="patch_12">
    <path clip-path="url(#pb208711749)" d="M 277.504804 160.501434 
L 277.225943 160.190976 
L 276.766631 160.00135 
L 276.142739 159.952128 
L 275.37171 160.058353 
L 274.471807 160.329351 
L 273.461443 160.767862 
L 272.358643 161.369519 
L 271.180651 162.122738 
L 269.943707 163.009018 
L 268.662981 164.003646 
L 267.352662 165.076768 
L 266.026171 166.194764 
L 264.696468 167.321844 
L 263.376422 168.42178 
L 262.07918 169.459658 
L 260.818514 170.403551 
L 259.609083 171.226023 
L 258.466591 171.905353 
L 257.407797 172.426436 
L 256.450376 172.781285 
L 255.612603 172.969125 
L 254.912894 172.996079 
L 254.369191 172.874462 
L 253.998251 172.621742 
L 253.814854 172.259248 
L 253.830998 171.810691 
L 254.055107 171.300614 
L 254.491331 170.752866 
L 255.138961 170.189197 
L 255.99202 169.628069 
L 257.039057 169.08375 
L 258.263169 168.565744 
L 259.642255 168.078607 
L 261.149516 167.622123 
L 262.754163 167.191849 
L 264.422316 166.779966 
L 266.118058 166.376384 
L 267.804578 165.970006 
L 269.445366 165.550075 
L 271.005385 165.107486 
L 272.452177 164.635983 
L 273.756846 164.133149 
L 274.894867 163.601108 
L 275.846691 163.046889 
L 276.598122 162.482428 
L 277.140459 161.924181 
L 277.470399 161.392388 
L 277.589725 160.910011 
z
" style="fill:#0000ff;stroke:#000000;stroke-linejoin:miter;"/>
   </g>
   <g id="patch_13">
    <path clip-path="url(#pb208711749)" d="M 312.938583 142.574425 
L 312.659722 142.263967 
L 312.20041 142.074341 
L 311.576518 142.025119 
L 310.805489 142.131344 
L 309.905586 142.402342 
L 308.895222 142.840853 
L 307.792422 143.44251 
L 306.61443 144.195729 
L 305.377486 145.082009 
L 304.09676 146.076637 
L 302.786441 147.149759 
L 301.459949 148.267755 
L 300.130247 149.394835 
L 298.8102 150.494771 
L 297.512959 151.532649 
L 296.252293 152.476542 
L 295.042862 153.299014 
L 293.90037 153.978344 
L 292.841576 154.499427 
L 291.884155 154.854276 
L 291.046382 155.042116 
L 290.346673 155.069071 
L 289.80297 154.947453 
L 289.432029 154.694733 
L 289.248633 154.332239 
L 289.264777 153.883682 
L 289.488886 153.373605 
L 289.92511 152.825857 
L 290.57274 152.262188 
L 291.425799 151.70106 
L 292.472836 151.156741 
L 293.696948 150.638735 
L 295.076034 150.151598 
L 296.583295 149.695114 
L 298.187941 149.26484 
L 299.856094 148.852957 
L 301.551836 148.449375 
L 303.238357 148.042997 
L 304.879145 147.623066 
L 306.439163 147.180477 
L 307.885956 146.708974 
L 309.190625 146.20614 
L 310.328646 145.674099 
L 311.28047 145.11988 
L 312.031901 144.555419 
L 312.574238 143.997172 
L 312.904178 143.465379 
L 313.023503 142.983002 
z
" style="fill:#0000ff;stroke:#000000;stroke-linejoin:miter;"/>
   </g>
   <g id="patch_14">
    <path clip-path="url(#pb208711749)" d="M 346.958815 130.061678 
L 346.958815 138.003794 
L 346.164603 138.003794 
L 346.164603 130.061678 
z
" style="stroke:#000000;stroke-linejoin:miter;"/>
   </g>
   <g id="patch_15">
    <path clip-path="url(#pb208711749)" d="M 386.669397 130.061678 
L 386.669397 138.003794 
L 385.875185 138.003794 
L 385.875185 130.061678 
z
" style="stroke:#000000;stroke-linejoin:miter;"/>
   </g>
   <g id="patch_16">
    <path clip-path="url(#pb208711749)" d="M 359.79857 130.061678 
L 359.689895 129.658767 
L 359.365656 129.282211 
L 358.831177 128.95664 
L 358.095233 128.703349 
L 357.169909 128.538908 
L 356.070399 128.474071 
L 354.814757 128.51308 
L 353.423599 128.653383 
L 351.91977 128.885803 
L 350.327961 129.195138 
L 348.674311 129.561153 
L 346.985971 129.959907 
L 345.290666 130.365319 
L 343.61623 130.750869 
L 341.99016 131.091339 
L 340.439154 131.364459 
L 338.98868 131.552363 
L 337.662556 131.642761 
L 336.482555 131.629741 
L 335.468053 131.514152 
L 334.63571 131.303557 
L 333.99919 131.011731 
L 333.568947 130.657761 
L 333.352045 130.264801 
L 333.352045 129.858555 
L 333.568947 129.465595 
L 333.99919 129.111625 
L 334.63571 128.819799 
L 335.468053 128.609204 
L 336.482555 128.493615 
L 337.662556 128.480595 
L 338.98868 128.570993 
L 340.439154 128.758897 
L 341.99016 129.032017 
L 343.61623 129.372487 
L 345.290666 129.758037 
L 346.985971 130.163449 
L 348.674311 130.562203 
L 350.327961 130.928218 
L 351.91977 131.237553 
L 353.423599 131.469973 
L 354.814757 131.610276 
L 356.070399 131.649285 
L 357.169909 131.584448 
L 358.095233 131.420007 
L 358.831177 131.166716 
L 359.365656 130.841145 
L 359.689895 130.464589 
z
" style="fill:#0000ff;stroke:#000000;stroke-linejoin:miter;"/>
   </g>
   <g id="patch_17">
    <path clip-path="url(#pb208711749)" d="M 399.509152 130.061678 
L 399.400477 129.658767 
L 399.076238 129.282211 
L 398.541759 128.95664 
L 397.805815 128.703349 
L 396.880492 128.538908 
L 395.780981 128.474071 
L 394.525339 128.51308 
L 393.134181 128.653383 
L 391.630352 128.885803 
L 390.038543 129.195138 
L 388.384893 129.561153 
L 386.696553 129.959907 
L 385.001248 130.365319 
L 383.326812 130.750869 
L 381.700742 131.091339 
L 380.149736 131.364459 
L 378.699263 131.552363 
L 377.373138 131.642761 
L 376.193137 131.629741 
L 375.178636 131.514152 
L 374.346292 131.303557 
L 373.709772 131.011731 
L 373.279529 130.657761 
L 373.062627 130.264801 
L 373.062627 129.858555 
L 373.279529 129.465595 
L 373.709772 129.111625 
L 374.346292 128.819799 
L 375.178636 128.609204 
L 376.193137 128.493615 
L 377.373138 128.480595 
L 378.699263 128.570993 
L 380.149736 128.758897 
L 381.700742 129.032017 
L 383.326812 129.372487 
L 385.001248 129.758037 
L 386.696553 130.163449 
L 388.384893 130.562203 
L 390.038543 130.928218 
L 391.630352 131.237553 
L 393.134181 131.469973 
L 394.525339 131.610276 
L 395.780981 131.649285 
L 396.880492 131.584448 
L 397.805815 131.420007 
L 398.541759 131.166716 
L 399.076238 130.841145 
L 399.400477 130.464589 
z
" style="fill:#0000ff;stroke:#000000;stroke-linejoin:miter;"/>
   </g>
   <g id="patch_18">
    <path clip-path="url(#pb208711749)" d="M 429.51844 191.0684 
L 427.215764 198.669379 
L 426.455666 198.439112 
L 428.758342 190.838132 
z
" style="stroke:#000000;stroke-linejoin:miter;"/>
   </g>
   <g id="patch_19">
    <path clip-path="url(#pb208711749)" d="M 467.523339 202.581782 
L 465.220663 210.182761 
L 464.460565 209.952494 
L 466.763241 202.351514 
z
" style="stroke:#000000;stroke-linejoin:miter;"/>
   </g>
   <g id="patch_20">
    <path clip-path="url(#pb208711749)" d="M 441.806691 194.79106 
L 441.819501 194.373947 
L 441.618365 193.919557 
L 441.201237 193.453008 
L 440.570341 192.997223 
L 439.732439 192.571563 
L 438.698955 192.190728 
L 437.485935 191.86401 
L 436.113854 191.594945 
L 434.607232 191.381373 
L 432.99411 191.215904 
L 431.305369 191.086751 
L 429.573937 190.978874 
L 427.833907 190.875348 
L 426.11961 190.758865 
L 424.464671 190.61326 
L 422.901099 190.424962 
L 421.458448 190.184256 
L 420.163075 189.886285 
L 419.037533 189.531703 
L 418.10012 189.126943 
L 417.364586 188.68407 
L 416.840017 188.220231 
L 416.530882 187.756723 
L 416.437228 187.317755 
L 416.555012 186.928959 
L 416.876529 186.615765 
L 417.390919 186.40174 
L 418.084708 186.306996 
L 418.942359 186.34677 
L 419.946797 186.530283 
L 421.079889 186.859942 
L 422.322843 187.330944 
L 423.656536 187.931317 
L 425.061735 188.642392 
L 426.519248 189.439688 
L 428.009978 190.294151 
L 429.514923 191.173672 
L 431.015132 192.044804 
L 432.491634 192.874544 
L 433.925384 193.632108 
L 435.297233 194.290554 
L 436.587958 194.828173 
L 437.778357 195.229557 
L 438.849439 195.486289 
L 439.782694 195.597192 
L 440.560464 195.568155 
L 441.16638 195.411531 
L 441.585867 195.145156 
z
" style="fill:#0000ff;stroke:#000000;stroke-linejoin:miter;"/>
   </g>
   <g id="patch_21">
    <path clip-path="url(#pb208711749)" d="M 479.81159 206.304442 
L 479.8244 205.887329 
L 479.623264 205.432939 
L 479.206136 204.966389 
L 478.57524 204.510605 
L 477.737339 204.084945 
L 476.703854 203.70411 
L 475.490835 203.377392 
L 474.118753 203.108327 
L 472.612131 202.894755 
L 470.999009 202.729286 
L 469.310268 202.600133 
L 467.578836 202.492256 
L 465.838806 202.38873 
L 464.12451 202.272247 
L 462.46957 202.126642 
L 460.905998 201.938344 
L 459.463347 201.697638 
L 458.167974 201.399667 
L 457.042433 201.045085 
L 456.10502 200.640325 
L 455.369486 200.197452 
L 454.844917 199.733612 
L 454.535781 199.270105 
L 454.442127 198.831137 
L 454.559911 198.442341 
L 454.881428 198.129146 
L 455.395819 197.915122 
L 456.089608 197.820378 
L 456.947258 197.860152 
L 457.951697 198.043665 
L 459.084788 198.373324 
L 460.327743 198.844326 
L 461.661435 199.444698 
L 463.066634 200.155774 
L 464.524147 200.95307 
L 466.014877 201.807533 
L 467.519823 202.687054 
L 469.020031 203.558185 
L 470.496533 204.387926 
L 471.930283 205.14549 
L 473.302132 205.803936 
L 474.592857 206.341555 
L 475.783256 206.742939 
L 476.854338 206.999671 
L 477.787593 207.110574 
L 478.565363 207.081537 
L 479.171279 206.924913 
L 479.590767 206.658538 
z
" style="fill:#0000ff;stroke:#000000;stroke-linejoin:miter;"/>
   </g>
   <g id="patch_22">
    <path clip-path="url(#pb208711749)" d="M 543.550467 269.25835 
L 546.437533 276.657138 
L 545.697654 276.945844 
L 542.810588 269.547056 
z
" style="stroke:#000000;stroke-linejoin:miter;"/>
   </g>
   <g id="patch_23">
    <path clip-path="url(#pb208711749)" d="M 580.544407 254.823019 
L 583.431473 262.221807 
L 582.691594 262.510514 
L 579.804528 255.111726 
z
" style="stroke:#000000;stroke-linejoin:miter;"/>
   </g>
   <g id="patch_24">
    <path clip-path="url(#pb208711749)" d="M 555.511841 264.590926 
L 555.264137 264.255084 
L 554.825197 264.022153 
L 554.208932 263.913145 
L 553.431261 263.944708 
L 552.509463 264.127884 
L 551.461602 264.467169 
L 550.306039 264.959952 
L 549.061055 265.596362 
L 547.744592 266.359544 
L 546.374127 267.22636 
L 544.966656 268.16846 
L 543.538771 269.15367 
L 542.106815 270.147613 
L 540.687083 271.115467 
L 539.296019 272.023743 
L 537.950401 272.84199 
L 536.667462 273.544306 
L 535.46492 274.110585 
L 534.360911 274.527401 
L 533.373795 274.788505 
L 532.521838 274.894885 
L 531.822781 274.854406 
L 531.293298 274.681051 
L 530.948388 274.393821 
L 530.800713 274.015366 
L 530.85993 273.570442 
L 531.132067 273.084289 
L 531.618959 272.581043 
L 532.317807 272.082287 
L 533.220887 271.605821 
L 534.31543 271.164745 
L 535.583694 270.766895 
L 537.003245 270.414678 
L 538.547427 270.105302 
L 540.186022 269.831381 
L 541.88606 269.581876 
L 543.612761 269.343286 
L 545.330552 269.101028 
L 547.004126 268.840879 
L 548.599484 268.550408 
L 550.084923 268.220266 
L 551.431912 267.845266 
L 552.615835 267.425164 
L 553.616558 266.965076 
L 554.418802 266.475516 
L 555.012325 265.972028 
L 555.39189 265.474439 
L 555.557064 265.005778 
z
" style="fill:#0000ff;stroke:#000000;stroke-linejoin:miter;"/>
   </g>
   <g id="patch_25">
    <path clip-path="url(#pb208711749)" d="M 592.50578 250.155596 
L 592.258077 249.819753 
L 591.819136 249.586823 
L 591.202872 249.477814 
L 590.4252 249.509377 
L 589.503402 249.692553 
L 588.455542 250.031839 
L 587.299979 250.524622 
L 586.054994 251.161031 
L 584.738531 251.924213 
L 583.368067 252.79103 
L 581.960596 253.73313 
L 580.53271 254.718339 
L 579.100755 255.712282 
L 577.681022 256.680136 
L 576.289958 257.588413 
L 574.944341 258.40666 
L 573.661402 259.108976 
L 572.458859 259.675254 
L 571.35485 260.09207 
L 570.367734 260.353174 
L 569.515778 260.459555 
L 568.816721 260.419076 
L 568.287238 260.24572 
L 567.942328 259.95849 
L 567.794652 259.580036 
L 567.85387 259.135112 
L 568.126007 258.648958 
L 568.612898 258.145713 
L 569.311746 257.646956 
L 570.214827 257.170491 
L 571.309369 256.729415 
L 572.577633 256.331564 
L 573.997184 255.979347 
L 575.541367 255.669971 
L 577.179962 255.396051 
L 578.88 255.146546 
L 580.6067 254.907956 
L 582.324491 254.665697 
L 583.998065 254.405549 
L 585.593424 254.115077 
L 587.078863 253.784935 
L 588.425852 253.409936 
L 589.609775 252.989833 
L 590.610497 252.529745 
L 591.412742 252.040185 
L 592.006264 251.536698 
L 592.38583 251.039109 
L 592.551004 250.570448 
z
" style="fill:#0000ff;stroke:#000000;stroke-linejoin:miter;"/>
   </g>
   <g id="patch_26">
    <path clip-path="url(#pb208711749)" d="M 585.222307 275.789984 
L 585.222307 283.732101 
L 584.428096 283.732101 
L 584.428096 275.789984 
z
" style="stroke:#000000;stroke-linejoin:miter;"/>
   </g>
   <g id="patch_27">
    <path clip-path="url(#pb208711749)" d="M 624.93289 275.789984 
L 624.93289 283.732101 
L 624.138678 283.732101 
L 624.138678 275.789984 
z
" style="stroke:#000000;stroke-linejoin:miter;"/>
   </g>
   <g id="patch_28">
    <path clip-path="url(#pb208711749)" d="M 598.062062 275.789984 
L 597.953388 275.387074 
L 597.629149 275.010517 
L 597.09467 274.684946 
L 596.358726 274.431656 
L 595.433402 274.267214 
L 594.333892 274.202377 
L 593.078249 274.241386 
L 591.687092 274.381689 
L 590.183262 274.61411 
L 588.591454 274.923444 
L 586.937803 275.289459 
L 585.249464 275.688214 
L 583.554158 276.093625 
L 581.879723 276.479175 
L 580.253652 276.819645 
L 578.702647 277.092765 
L 577.252173 277.280669 
L 575.926048 277.371068 
L 574.746048 277.358047 
L 573.731546 277.242459 
L 572.899202 277.031864 
L 572.262683 276.740037 
L 571.83244 276.386067 
L 571.615537 275.993107 
L 571.615537 275.586861 
L 571.83244 275.193902 
L 572.262683 274.839932 
L 572.899202 274.548105 
L 573.731546 274.33751 
L 574.746048 274.221922 
L 575.926048 274.208901 
L 577.252173 274.299299 
L 578.702647 274.487204 
L 580.253652 274.760323 
L 581.879723 275.100793 
L 583.554158 275.486344 
L 585.249464 275.891755 
L 586.937803 276.29051 
L 588.591454 276.656525 
L 590.183262 276.965859 
L 591.687092 277.198279 
L 593.078249 277.338583 
L 594.333892 277.377592 
L 595.433402 277.312755 
L 596.358726 277.148313 
L 597.09467 276.895023 
L 597.629149 276.569452 
L 597.953388 276.192895 
z
" style="fill:#0000ff;stroke:#000000;stroke-linejoin:miter;"/>
   </g>
   <g id="patch_29">
    <path clip-path="url(#pb208711749)" d="M 637.772644 275.789984 
L 637.66397 275.387074 
L 637.339731 275.010517 
L 636.805252 274.684946 
L 636.069308 274.431656 
L 635.143984 274.267214 
L 634.044474 274.202377 
L 632.788831 274.241386 
L 631.397674 274.381689 
L 629.893844 274.61411 
L 628.302036 274.923444 
L 626.648385 275.289459 
L 624.960046 275.688214 
L 623.26474 276.093625 
L 621.590305 276.479175 
L 619.964235 276.819645 
L 618.413229 277.092765 
L 616.962755 277.280669 
L 615.63663 277.371068 
L 614.45663 277.358047 
L 613.442128 277.242459 
L 612.609784 277.031864 
L 611.973265 276.740037 
L 611.543022 276.386067 
L 611.32612 275.993107 
L 611.32612 275.586861 
L 611.543022 275.193902 
L 611.973265 274.839932 
L 612.609784 274.548105 
L 613.442128 274.33751 
L 614.45663 274.221922 
L 615.63663 274.208901 
L 616.962755 274.299299 
L 618.413229 274.487204 
L 619.964235 274.760323 
L 621.590305 275.100793 
L 623.26474 275.486344 
L 624.960046 275.891755 
L 626.648385 276.29051 
L 628.302036 276.656525 
L 629.893844 276.965859 
L 631.397674 277.198279 
L 632.788831 277.338583 
L 634.044474 277.377592 
L 635.143984 277.312755 
L 636.069308 277.148313 
L 636.805252 276.895023 
L 637.339731 276.569452 
L 637.66397 276.192895 
z
" style="fill:#0000ff;stroke:#000000;stroke-linejoin:miter;"/>
   </g>
   <g id="patch_30">
    <path clip-path="url(#pb208711749)" d="M 151.979857 281.746572 
L 104.327158 281.746572 
L 104.327158 285.71763 
L 151.979857 285.71763 
z
" style="fill:#999999;stroke:#000000;stroke-linejoin:miter;"/>
   </g>
   <g id="patch_31">
    <path clip-path="url(#pb208711749)" d="M 191.331085 260.132404 
L 146.57005 243.785252 
L 145.207787 247.515338 
L 189.968823 263.862491 
z
" style="fill:#999999;stroke:#000000;stroke-linejoin:miter;"/>
   </g>
   <g id="patch_32">
    <path clip-path="url(#pb208711749)" d="M 307.359753 152.07246 
L 264.839218 173.584871 
L 266.631919 177.128249 
L 309.152454 155.615838 
z
" style="fill:#999999;stroke:#000000;stroke-linejoin:miter;"/>
   </g>
   <g id="patch_33">
    <path clip-path="url(#pb208711749)" d="M 390.243349 136.018265 
L 342.590651 136.018265 
L 342.590651 139.989324 
L 390.243349 139.989324 
z
" style="fill:#999999;stroke:#000000;stroke-linejoin:miter;"/>
   </g>
   <g id="patch_34">
    <path clip-path="url(#pb208711749)" d="M 469.216773 209.318721 
L 423.610894 195.502662 
L 422.459556 199.303152 
L 468.065435 213.119211 
z
" style="fill:#999999;stroke:#000000;stroke-linejoin:miter;"/>
   </g>
   <g id="patch_35">
    <path clip-path="url(#pb208711749)" d="M 586.039161 259.07293 
L 541.646433 276.395327 
L 543.089966 280.094721 
L 587.482694 262.772324 
z
" style="fill:#999999;stroke:#000000;stroke-linejoin:miter;"/>
   </g>
   <g id="patch_36">
    <path clip-path="url(#pb208711749)" d="M 628.506842 281.746572 
L 580.854143 281.746572 
L 580.854143 285.71763 
L 628.506842 285.71763 
z
" style="fill:#999999;stroke:#000000;stroke-linejoin:miter;"/>
   </g>
   <g id="patch_37">
    <path clip-path="url(#pb208711749)" d="M 279.053719 283.732101 
L 279.053719 184.455646 
L 294.937952 184.455646 
L 294.937952 283.732101 
z
" style="fill:#8b0000;stroke:#000000;stroke-linejoin:miter;"/>
   </g>
   <g id="patch_38">
    <path clip-path="url(#pb208711749)" d="M 279.053719 144.745063 
L 279.053719 45.468608 
L 294.937952 45.468608 
L 294.937952 144.745063 
z
" style="fill:#8b0000;stroke:#000000;stroke-linejoin:miter;"/>
   </g>
   <g id="patch_39">
    <path clip-path="url(#pb208711749)" d="M 437.896048 283.732101 
L 437.896048 224.166228 
L 453.780281 224.166228 
L 453.780281 283.732101 
z
" style="fill:#8b0000;stroke:#000000;stroke-linejoin:miter;"/>
   </g>
   <g id="patch_40">
    <path clip-path="url(#pb208711749)" d="M 437.896048 184.455646 
L 437.896048 45.468608 
L 453.780281 45.468608 
L 453.780281 184.455646 
z
" style="fill:#8b0000;stroke:#000000;stroke-linejoin:miter;"/>
   </g>
   <g id="line2d_1">
    <path clip-path="url(#pb208711749)" d="M 128.153507 283.732101 
L 128.168615 283.721296 
L 128.270724 283.648034 
L 128.53703 283.456279 
L 129.034457 283.096777 
L 129.820131 282.526817 
L 130.941845 281.709989 
L 132.438537 280.615941 
L 134.340755 279.220141 
L 136.671128 277.50363 
L 139.444839 275.452786 
L 142.670095 273.059077 
L 146.348594 270.318827 
L 150.476002 267.232966 
L 155.042417 263.806795 
L 160.032843 260.049739 
L 165.427661 255.975111 
L 171.203096 251.599868 
L 177.331693 246.944367 
L 183.782782 242.032127 
L 190.522952 236.889586 
L 197.51652 231.54586 
L 204.725982 226.032463 
L 212.112442 220.382989 
L 219.63603 214.63277 
L 227.256317 208.818535 
L 234.932737 202.978072 
L 242.625001 197.14989 
L 250.293521 191.372879 
L 257.899822 185.685968 
L 265.406965 180.127788 
L 272.779962 174.736334 
L 279.986195 169.548623 
L 286.995836 164.600354 
L 293.782262 159.925573 
L 300.322478 155.556329 
L 306.597527 151.522336 
L 312.592918 147.850636 
L 318.299038 144.565256 
L 323.711569 141.68687 
L 328.831913 139.232463 
L 333.667555 137.21501 
L 338.23202 135.643392 
L 342.544311 134.522571 
L 346.62827 133.853822 
L 350.511931 133.634952 
L 354.226875 133.860534 
L 357.807584 134.522128 
L 361.290799 135.608514 
L 364.714874 137.105914 
L 368.119126 138.998219 
L 371.543201 141.267219 
L 375.026416 143.892827 
L 378.607125 146.853309 
L 382.322069 150.125505 
L 386.20573 153.685062 
L 390.289689 157.506659 
L 394.60198 161.564231 
L 399.166445 165.831199 
L 404.002087 170.280697 
L 409.122431 174.885794 
L 414.534962 179.619718 
L 420.241082 184.455995 
L 426.236473 189.368551 
L 432.511522 194.331795 
L 439.051738 199.320709 
L 445.838164 204.310937 
L 452.847805 209.278868 
L 460.054038 214.20173 
L 467.427035 219.057676 
L 474.934178 223.825867 
L 482.540479 228.486569 
L 490.208999 233.021232 
L 497.901263 237.412583 
L 505.577683 241.644713 
L 513.19797 245.703164 
L 520.721558 249.575017 
L 528.108018 253.248981 
L 535.31748 256.715479 
L 542.311048 259.966739 
L 549.051218 262.996878 
L 555.502307 265.80197 
L 561.630904 268.380032 
L 567.406339 270.73097 
L 572.801157 272.856509 
L 577.791583 274.760141 
L 582.357998 276.447056 
L 586.485406 277.924085 
L 590.163905 279.199634 
L 593.389161 280.283629 
L 596.162872 281.187447 
L 598.493245 281.923861 
L 600.395463 282.506972 
L 601.892155 282.952155 
L 603.013869 283.275989 
L 603.799543 283.496203 
L 604.29697 283.63161 
L 604.563276 283.702046 
L 604.665385 283.72831 
L 604.680493 283.732101 
" style="fill:none;stroke:#1f77b4;stroke-linecap:square;stroke-width:1.5;"/>
   </g>
  </g>
 </g>
 <defs>
  <clipPath id="pb208711749">
   <rect height="266.112" width="554.094" x="89.37" y="41.472"/>
  </clipPath>
 </defs>
</svg>
