<?xml version="1.0" encoding="utf-8" standalone="no"?>
<!DOCTYPE svg PUBLIC "-//W3C//DTD SVG 1.1//EN"
  "http://www.w3.org/Graphics/SVG/1.1/DTD/svg11.dtd">
<svg xmlns:xlink="http://www.w3.org/1999/xlink" width="460.8pt" height="345.6pt" viewBox="0 0 460.8 345.6" xmlns="http://www.w3.org/2000/svg" version="1.1">
 <metadata>
  <rdf:RDF xmlns:dc="http://purl.org/dc/elements/1.1/" xmlns:cc="http://creativecommons.org/ns#" xmlns:rdf="http://www.w3.org/1999/02/22-rdf-syntax-ns#">
   <cc:Work>
    <dc:type rdf:resource="http://purl.org/dc/dcmitype/StillImage"/>
    <dc:date>2024-04-15T20:52:46.762319</dc:date>
    <dc:format>image/svg+xml</dc:format>
    <dc:creator>
     <cc:Agent>
      <dc:title>Matplotlib v3.5.1, https://matplotlib.org/</dc:title>
     </cc:Agent>
    </dc:creator>
   </cc:Work>
  </rdf:RDF>
 </metadata>
 <defs>
  <style type="text/css">*{stroke-linejoin: round; stroke-linecap: butt}</style>
 </defs>
 <g id="figure_1">
  <g id="patch_1">
   <path d="M 0 345.6 
L 460.8 345.6 
L 460.8 0 
L 0 0 
z
" style="fill: #ffffff"/>
  </g>
  <g id="axes_1">
   <g id="patch_2">
    <path d="M 130.462913 174.691329 
L 130.462913 235.089664 
L 190.861248 235.089664 
L 190.861248 204.890497 
z
" clip-path="url(#p842abf18a5)" style="fill: #d3d3d3; stroke: #000000; stroke-linejoin: miter"/>
   </g>
   <g id="patch_3">
    <path d="M 221.060416 235.089664 
L 251.259584 295.488 
L 190.861248 295.488 
L 160.662081 265.288832 
z
" clip-path="url(#p842abf18a5)" style="fill: #d3d3d3; stroke: #000000; stroke-linejoin: miter"/>
   </g>
   <g id="patch_4">
    <path d="M 160.662081 114.292993 
L 130.462913 84.093825 
L 160.662081 53.894658 
L 221.060416 53.894658 
L 221.060416 84.093825 
z
" clip-path="url(#p842abf18a5)" style="fill: #d3d3d3; stroke: #000000; stroke-linejoin: miter"/>
   </g>
   <g id="patch_5">
    <path d="M 251.259584 144.492161 
L 251.198783 142.576811 
L 251.016626 140.669174 
L 250.713846 138.776931 
L 250.291661 136.907701 
L 249.751773 135.069011 
L 249.096355 133.268264 
L 248.328046 131.512712 
L 247.44994 129.809424 
L 246.465573 128.165258 
L 245.378908 126.586835 
L 244.194321 125.08051 
L 242.916582 123.652349 
L 241.550836 122.308103 
L 240.102582 121.053184 
L 238.577652 119.892645 
L 236.982186 118.83116 
L 235.32261 117.873003 
L 233.605604 117.022032 
L 231.838083 116.281673 
L 230.027164 115.654908 
L 228.18014 115.14426 
L 226.304447 114.751786 
L 224.407638 114.479066 
L 222.49735 114.327199 
L 220.581277 114.296794 
L 218.667133 114.387976 
L 216.762626 114.600377 
L 214.875425 114.933142 
L 213.013129 115.38493 
L 211.183236 115.953923 
L 209.393115 116.637829 
L 207.649974 117.433895 
L 205.960832 118.338915 
L 204.332491 119.349244 
L 202.771508 120.460816 
L 201.284167 121.669153 
L 199.876458 122.96939 
L 198.55405 124.356292 
L 197.322267 125.824274 
L 196.186069 127.367425 
L 195.150031 128.979531 
L 194.218325 130.654101 
L 193.394703 132.384393 
L 192.682481 134.163437 
L 192.084527 135.984072 
L 191.603248 137.838966 
L 191.240583 139.72065 
L 190.997992 141.621548 
L 190.876452 143.534004 
L 190.876452 145.450318 
L 190.997992 147.362774 
L 191.240583 149.263672 
L 191.603248 151.145356 
L 192.084527 153.00025 
L 192.682481 154.820885 
L 193.394703 156.59993 
L 194.218325 158.330221 
L 195.150031 160.004791 
L 196.186069 161.616897 
L 197.322267 163.160048 
L 198.55405 164.62803 
L 199.876458 166.014932 
L 201.284167 167.315169 
L 202.771508 168.523506 
L 204.332491 169.635078 
L 205.960832 170.645408 
L 207.649974 171.550427 
L 209.393115 172.346493 
L 211.183236 173.030399 
L 213.013129 173.599392 
L 214.875425 174.05118 
L 216.762626 174.383945 
L 218.667133 174.596346 
L 220.581277 174.687528 
L 222.49735 174.657123 
L 224.407638 174.505256 
L 226.304447 174.232536 
L 228.18014 173.840062 
L 230.027164 173.329414 
L 231.838083 172.702649 
L 233.605604 171.96229 
L 235.32261 171.111319 
L 236.982186 170.153162 
L 238.577652 169.091677 
L 240.102582 167.931138 
L 241.550836 166.676219 
L 242.916582 165.331973 
L 244.194321 163.903812 
L 245.378908 162.397487 
L 246.465573 160.819064 
L 247.44994 159.174898 
L 248.328046 157.47161 
L 249.096355 155.716058 
L 249.751773 153.915311 
L 250.291661 152.076621 
L 250.713846 150.207391 
L 251.016626 148.315148 
L 251.198783 146.407511 
L 251.259584 144.492161 
z
" clip-path="url(#p842abf18a5)" style="fill: #d3d3d3; stroke: #000000; stroke-linejoin: miter"/>
   </g>
   <g id="patch_6">
    <path d="M 372.056255 235.089664 
L 371.934654 233.174315 
L 371.570339 231.266678 
L 370.964778 229.374434 
L 370.12041 227.505204 
L 369.040634 225.666514 
L 367.729797 223.865768 
L 366.19318 222.110216 
L 364.436967 220.406928 
L 362.468233 218.762762 
L 360.294903 217.184338 
L 357.925729 215.678014 
L 355.370251 214.249853 
L 352.638759 212.905606 
L 349.742251 211.650687 
L 346.692391 210.490149 
L 343.50146 209.428664 
L 340.182306 208.470506 
L 336.748295 207.619535 
L 333.213253 206.879176 
L 329.591416 206.252411 
L 325.897367 205.741764 
L 322.14598 205.34929 
L 318.352362 205.07657 
L 314.531788 204.924702 
L 310.699642 204.894298 
L 306.871354 204.98548 
L 303.06234 205.197881 
L 299.287938 205.530645 
L 295.563345 205.982433 
L 291.903559 206.551426 
L 288.323317 207.235332 
L 284.837035 208.031398 
L 281.458752 208.936418 
L 278.20207 209.946748 
L 275.080102 211.058319 
L 272.105421 212.266656 
L 269.290004 213.566894 
L 266.645187 214.953795 
L 264.181621 216.421777 
L 261.909225 217.964928 
L 259.837149 219.577035 
L 257.973738 221.251605 
L 256.326493 222.981896 
L 254.902049 224.760941 
L 253.706141 226.581576 
L 252.743584 228.43647 
L 252.018254 230.318154 
L 251.533072 232.219051 
L 251.289992 234.131507 
L 251.289992 236.047822 
L 251.533072 237.960278 
L 252.018254 239.861175 
L 252.743584 241.742859 
L 253.706141 243.597753 
L 254.902049 245.418388 
L 256.326493 247.197433 
L 257.973738 248.927724 
L 259.837149 250.602294 
L 261.909225 252.2144 
L 264.181621 253.757551 
L 266.645187 255.225533 
L 269.290004 256.612435 
L 272.105421 257.912673 
L 275.080102 259.12101 
L 278.20207 260.232581 
L 281.458752 261.242911 
L 284.837035 262.147931 
L 288.323317 262.943997 
L 291.903559 263.627903 
L 295.563345 264.196895 
L 299.287938 264.648684 
L 303.06234 264.981448 
L 306.871354 265.193849 
L 310.699642 265.285031 
L 314.531788 265.254627 
L 318.352362 265.102759 
L 322.14598 264.830039 
L 325.897367 264.437565 
L 329.591416 263.926917 
L 333.213253 263.300152 
L 336.748295 262.559794 
L 340.182306 261.708822 
L 343.50146 260.750665 
L 346.692391 259.68918 
L 349.742251 258.528642 
L 352.638759 257.273723 
L 355.370251 255.929476 
L 357.925729 254.501315 
L 360.294903 252.99499 
L 362.468233 251.416567 
L 364.436967 249.772401 
L 366.19318 248.069113 
L 367.729797 246.313561 
L 369.040634 244.512815 
L 370.12041 242.674125 
L 370.964778 240.804894 
L 371.570339 238.912651 
L 371.934654 237.005014 
L 372.056255 235.089664 
z
" clip-path="url(#p842abf18a5)" style="fill: #d3d3d3; stroke: #000000; stroke-linejoin: miter"/>
   </g>
   <g id="patch_7">
    <path d="M 251.259584 53.894658 
L 311.657919 53.894658 
L 281.458752 84.093825 
z
" clip-path="url(#p842abf18a5)" style="fill: #d3d3d3; stroke: #000000; stroke-linejoin: miter"/>
   </g>
   <g id="patch_8">
    <path d="M 311.657919 114.292993 
L 341.857087 114.292993 
L 372.056255 84.093825 
L 341.857087 53.894658 
z
" clip-path="url(#p842abf18a5)" style="fill: #d3d3d3; stroke: #000000; stroke-linejoin: miter"/>
   </g>
   <g id="patch_9">
    <path d="M 102.265472 174.691812 
Q 115.36427 174.694974 127.345034 174.697866 
" clip-path="url(#p842abf18a5)" style="fill: none; stroke: #000000; stroke-linecap: round"/>
    <path d="M 119.346 170.695935 
L 127.345034 174.697866 
L 119.344069 178.695935 
" clip-path="url(#p842abf18a5)" style="fill: none; stroke: #000000; stroke-linecap: round"/>
   </g>
   <g id="patch_10">
    <path d="M 101.371515 176.352983 
Q 130.462215 219.989034 158.932742 262.694824 
" clip-path="url(#p842abf18a5)" style="fill: none; stroke: #000000; stroke-linecap: round"/>
    <path d="M 157.823342 253.819621 
L 158.932742 262.694824 
L 151.166939 258.257223 
" clip-path="url(#p842abf18a5)" style="fill: none; stroke: #000000; stroke-linecap: round"/>
   </g>
   <g id="patch_11">
    <path d="M 101.677332 173.277431 
Q 130.459937 144.488496 158.45206 116.490218 
" clip-path="url(#p842abf18a5)" style="fill: none; stroke: #000000; stroke-linecap: round"/>
    <path d="M 149.96709 119.319578 
L 158.45206 116.490218 
L 155.624566 124.97581 
" clip-path="url(#p842abf18a5)" style="fill: none; stroke: #000000; stroke-linecap: round"/>
   </g>
   <g id="patch_12">
    <path d="M 192.862978 235.07723 
Q 221.06151 235.082164 248.142008 235.086903 
" clip-path="url(#p842abf18a5)" style="fill: none; stroke: #000000; stroke-linecap: round"/>
    <path d="M 240.142709 231.085503 
L 248.142008 235.086903 
L 240.141309 239.085503 
" clip-path="url(#p842abf18a5)" style="fill: none; stroke: #000000; stroke-linecap: round"/>
   </g>
   <g id="patch_13">
    <path d="M 220.159474 233.30524 
Q 190.861909 174.692617 162.064225 117.080054 
" clip-path="url(#p842abf18a5)" style="fill: none; stroke: #000000; stroke-linecap: round"/>
    <path d="M 162.063157 126.024326 
L 162.064225 117.080054 
L 169.219002 122.447472 
" clip-path="url(#p842abf18a5)" style="fill: none; stroke: #000000; stroke-linecap: round"/>
   </g>
   <g id="patch_14">
    <path d="M 221.060475 233.087937 
Q 221.061319 204.889404 221.062128 177.808905 
" clip-path="url(#p842abf18a5)" style="fill: none; stroke: #000000; stroke-linecap: round"/>
    <path d="M 217.061889 185.808785 
L 221.062128 177.808905 
L 225.061889 185.809024 
" clip-path="url(#p842abf18a5)" style="fill: none; stroke: #000000; stroke-linecap: round"/>
   </g>
   <g id="patch_15">
    <path d="M 232.181186 252.854596 
Q 241.728589 248.080965 250.275988 243.807328 
" clip-path="url(#p842abf18a5)" style="fill: none; stroke: #000000; stroke-linecap: round"/>
    <path d="M 241.331717 243.807275 
L 250.275988 243.807328 
L 244.909383 250.962714 
" clip-path="url(#p842abf18a5)" style="fill: none; stroke: #000000; stroke-linecap: round"/>
   </g>
   <g id="patch_16">
    <path d="M 161.563049 116.077403 
Q 190.860614 174.690025 219.658298 232.302588 
" clip-path="url(#p842abf18a5)" style="fill: none; stroke: #000000; stroke-linecap: round"/>
    <path d="M 219.659366 223.358316 
L 219.658298 232.302588 
L 212.503521 226.935171 
" clip-path="url(#p842abf18a5)" style="fill: none; stroke: #000000; stroke-linecap: round"/>
   </g>
   <g id="patch_17">
    <path d="M 197.795281 97.960035 
Q 202.227962 106.825715 206.160657 114.691388 
" clip-path="url(#p842abf18a5)" style="fill: none; stroke: #000000; stroke-linecap: round"/>
    <path d="M 206.160786 105.747116 
L 206.160657 114.691388 
L 199.005317 109.324722 
" clip-path="url(#p842abf18a5)" style="fill: none; stroke: #000000; stroke-linecap: round"/>
   </g>
   <g id="patch_18">
    <path d="M 223.062142 53.901758 
Q 236.16094 53.898461 248.141704 53.895445 
" clip-path="url(#p842abf18a5)" style="fill: none; stroke: #000000; stroke-linecap: round"/>
    <path d="M 240.140698 49.897459 
L 248.141704 53.895445 
L 240.142711 57.897459 
" clip-path="url(#p842abf18a5)" style="fill: none; stroke: #000000; stroke-linecap: round"/>
   </g>
   <g id="patch_19">
    <path d="M 237.88124 171.949515 
Q 250.851045 193.11834 263.236759 213.333835 
" clip-path="url(#p842abf18a5)" style="fill: none; stroke: #000000; stroke-linecap: round"/>
    <path d="M 262.468086 204.422654 
L 263.236759 213.333835 
L 255.646611 208.602065 
" clip-path="url(#p842abf18a5)" style="fill: none; stroke: #000000; stroke-linecap: round"/>
   </g>
   <g id="patch_20">
    <path d="M 243.825544 121.72289 
Q 261.932777 103.611533 279.24953 86.290835 
" clip-path="url(#p842abf18a5)" style="fill: none; stroke: #000000; stroke-linecap: round"/>
    <path d="M 270.764571 89.120228 
L 279.24953 86.290835 
L 276.422069 94.776438 
" clip-path="url(#p842abf18a5)" style="fill: none; stroke: #000000; stroke-linecap: round"/>
   </g>
   <g id="patch_21">
    <path d="M 251.604057 134.310644 
Q 280.683483 124.617649 308.702247 115.278202 
" clip-path="url(#p842abf18a5)" style="fill: none; stroke: #000000; stroke-linecap: round"/>
    <path d="M 299.847876 114.013251 
L 308.702247 115.278202 
L 302.377663 121.602729 
" clip-path="url(#p842abf18a5)" style="fill: none; stroke: #000000; stroke-linecap: round"/>
   </g>
   <g id="patch_22">
    <path d="M 263.821395 214.288057 
Q 250.851591 193.119232 238.465877 172.903737 
" clip-path="url(#p842abf18a5)" style="fill: none; stroke: #000000; stroke-linecap: round"/>
    <path d="M 239.234549 181.814917 
L 238.465877 172.903737 
L 246.056025 177.635507 
" clip-path="url(#p842abf18a5)" style="fill: none; stroke: #000000; stroke-linecap: round"/>
   </g>
   <g id="patch_23">
    <path d="M 311.665241 202.891535 
Q 311.668712 159.591323 311.672093 117.409146 
" clip-path="url(#p842abf18a5)" style="fill: none; stroke: #000000; stroke-linecap: round"/>
    <path d="M 307.671452 125.408826 
L 311.672093 117.409146 
L 315.671452 125.409467 
" clip-path="url(#p842abf18a5)" style="fill: none; stroke: #000000; stroke-linecap: round"/>
   </g>
   <g id="patch_24">
    <path d="M 354.367833 211.508678 
Q 362.779118 194.001112 370.706237 177.501307 
" clip-path="url(#p842abf18a5)" style="fill: none; stroke: #000000; stroke-linecap: round"/>
    <path d="M 363.63635 182.980056 
L 370.706237 177.501307 
L 370.847304 186.444466 
" clip-path="url(#p842abf18a5)" style="fill: none; stroke: #000000; stroke-linecap: round"/>
   </g>
   <g id="patch_25">
    <path d="M 249.257854 53.895164 
Q 236.159056 53.898461 224.178292 53.901477 
" clip-path="url(#p842abf18a5)" style="fill: none; stroke: #000000; stroke-linecap: round"/>
    <path d="M 232.179298 57.899463 
L 224.178292 53.901477 
L 232.177285 49.899463 
" clip-path="url(#p842abf18a5)" style="fill: none; stroke: #000000; stroke-linecap: round"/>
   </g>
   <g id="patch_26">
    <path d="M 281.710029 86.081113 
Q 289.154088 144.954673 296.457898 202.719031 
" clip-path="url(#p842abf18a5)" style="fill: none; stroke: #000000; stroke-linecap: round"/>
    <path d="M 299.42276 194.280453 
L 296.457898 202.719031 
L 291.485953 195.283995 
" clip-path="url(#p842abf18a5)" style="fill: none; stroke: #000000; stroke-linecap: round"/>
   </g>
   <g id="patch_27">
    <path d="M 313.448052 54.789708 
Q 323.738416 59.934798 333.028777 64.579894 
" clip-path="url(#p842abf18a5)" style="fill: none; stroke: #000000; stroke-linecap: round"/>
    <path d="M 327.662162 57.424515 
L 333.028777 64.579894 
L 324.084505 64.579959 
" clip-path="url(#p842abf18a5)" style="fill: none; stroke: #000000; stroke-linecap: round"/>
   </g>
   <g id="patch_28">
    <path d="M 282.881776 85.496446 
Q 326.762815 129.387525 369.853375 172.487945 
" clip-path="url(#p842abf18a5)" style="fill: none; stroke: #000000; stroke-linecap: round"/>
    <path d="M 367.025919 164.00234 
L 369.853375 172.487945 
L 361.368417 169.658547 
" clip-path="url(#p842abf18a5)" style="fill: none; stroke: #000000; stroke-linecap: round"/>
   </g>
   <g id="patch_29">
    <path d="M 309.763631 114.924413 
Q 280.684205 124.617409 252.66544 133.956855 
" clip-path="url(#p842abf18a5)" style="fill: none; stroke: #000000; stroke-linecap: round"/>
    <path d="M 261.519812 135.221806 
L 252.66544 133.956855 
L 258.990024 127.632329 
" clip-path="url(#p842abf18a5)" style="fill: none; stroke: #000000; stroke-linecap: round"/>
   </g>
   <g id="patch_30">
    <path d="M 342.751045 116.080908 
Q 356.955593 144.490006 370.660142 171.899103 
" clip-path="url(#p842abf18a5)" style="fill: none; stroke: #000000; stroke-linecap: round"/>
    <path d="M 370.660142 162.954832 
L 370.660142 171.899103 
L 363.504725 166.53254 
" clip-path="url(#p842abf18a5)" style="fill: none; stroke: #000000; stroke-linecap: round"/>
   </g>
   <g id="line2d_1">
    <path d="M 100.263745 174.691329 
" clip-path="url(#p842abf18a5)" style="fill: none; stroke: #000000; stroke-width: 1.5; stroke-linecap: square"/>
    <defs>
     <path id="mb9341ab9b5" d="M 0 2.5 
C 0.663008 2.5 1.29895 2.236584 1.767767 1.767767 
C 2.236584 1.29895 2.5 0.663008 2.5 0 
C 2.5 -0.663008 2.236584 -1.29895 1.767767 -1.767767 
C 1.29895 -2.236584 0.663008 -2.5 0 -2.5 
C -0.663008 -2.5 -1.29895 -2.236584 -1.767767 -1.767767 
C -2.236584 -1.29895 -2.5 -0.663008 -2.5 0 
C -2.5 0.663008 -2.236584 1.29895 -1.767767 1.767767 
C -1.29895 2.236584 -0.663008 2.5 0 2.5 
z
" style="stroke: #000000"/>
    </defs>
    <g clip-path="url(#p842abf18a5)">
     <use xlink:href="#mb9341ab9b5" x="100.263745" y="174.691329" style="stroke: #000000"/>
    </g>
   </g>
   <g id="line2d_2">
    <path d="M 372.056255 174.691329 
" clip-path="url(#p842abf18a5)" style="fill: none; stroke: #000000; stroke-width: 1.5; stroke-linecap: square"/>
    <g clip-path="url(#p842abf18a5)">
     <use xlink:href="#mb9341ab9b5" x="372.056255" y="174.691329" style="stroke: #000000"/>
    </g>
   </g>
   <g id="line2d_3">
    <path d="M 100.263745 174.691329 
L 160.66208 114.292994 
" clip-path="url(#p842abf18a5)" style="fill: none; stroke-dasharray: 7.4,3.2; stroke-dashoffset: 0; stroke: #8b0000; stroke-width: 2"/>
    <defs>
     <path id="m1b17049d53" d="M 0 2.5 
C 0.663008 2.5 1.29895 2.236584 1.767767 1.767767 
C 2.236584 1.29895 2.5 0.663008 2.5 0 
C 2.5 -0.663008 2.236584 -1.29895 1.767767 -1.767767 
C 1.29895 -2.236584 0.663008 -2.5 0 -2.5 
C -0.663008 -2.5 -1.29895 -2.236584 -1.767767 -1.767767 
C -2.236584 -1.29895 -2.5 -0.663008 -2.5 0 
C -2.5 0.663008 -2.236584 1.29895 -1.767767 1.767767 
C -1.29895 2.236584 -0.663008 2.5 0 2.5 
z
" style="stroke: #8b0000"/>
    </defs>
    <g clip-path="url(#p842abf18a5)">
     <use xlink:href="#m1b17049d53" x="100.263745" y="174.691329" style="fill: #8b0000; stroke: #8b0000"/>
     <use xlink:href="#m1b17049d53" x="160.66208" y="114.292994" style="fill: #8b0000; stroke: #8b0000"/>
    </g>
   </g>
   <g id="line2d_4">
    <path d="M 160.66208 114.292994 
L 221.06098 114.292993 
" clip-path="url(#p842abf18a5)" style="fill: none; stroke-dasharray: 7.4,3.2; stroke-dashoffset: 0; stroke: #8b0000; stroke-width: 2"/>
    <g clip-path="url(#p842abf18a5)">
     <use xlink:href="#m1b17049d53" x="160.66208" y="114.292994" style="fill: #8b0000; stroke: #8b0000"/>
     <use xlink:href="#m1b17049d53" x="221.06098" y="114.292993" style="fill: #8b0000; stroke: #8b0000"/>
    </g>
   </g>
   <g id="line2d_5">
    <path d="M 221.06098 114.292993 
L 281.458752 84.093826 
" clip-path="url(#p842abf18a5)" style="fill: none; stroke-dasharray: 7.4,3.2; stroke-dashoffset: 0; stroke: #8b0000; stroke-width: 2"/>
    <g clip-path="url(#p842abf18a5)">
     <use xlink:href="#m1b17049d53" x="221.06098" y="114.292993" style="fill: #8b0000; stroke: #8b0000"/>
     <use xlink:href="#m1b17049d53" x="281.458752" y="84.093826" style="fill: #8b0000; stroke: #8b0000"/>
    </g>
   </g>
   <g id="line2d_6">
    <path d="M 281.458752 84.093826 
L 326.757503 114.292992 
" clip-path="url(#p842abf18a5)" style="fill: none; stroke-dasharray: 7.4,3.2; stroke-dashoffset: 0; stroke: #8b0000; stroke-width: 2"/>
    <g clip-path="url(#p842abf18a5)">
     <use xlink:href="#m1b17049d53" x="281.458752" y="84.093826" style="fill: #8b0000; stroke: #8b0000"/>
     <use xlink:href="#m1b17049d53" x="326.757503" y="114.292992" style="fill: #8b0000; stroke: #8b0000"/>
    </g>
   </g>
   <g id="line2d_7">
    <path d="M 326.757503 114.292992 
L 372.056255 174.691329 
" clip-path="url(#p842abf18a5)" style="fill: none; stroke-dasharray: 7.4,3.2; stroke-dashoffset: 0; stroke: #8b0000; stroke-width: 2"/>
    <g clip-path="url(#p842abf18a5)">
     <use xlink:href="#m1b17049d53" x="326.757503" y="114.292992" style="fill: #8b0000; stroke: #8b0000"/>
     <use xlink:href="#m1b17049d53" x="372.056255" y="174.691329" style="fill: #8b0000; stroke: #8b0000"/>
    </g>
   </g>
   <g id="text_1">
    <!-- source -->
    <g transform="translate(83.662182 171.671412)scale(0.1 -0.1)">
     <defs>
      <path id="DejaVuSans-73" d="M 2834 3397 
L 2834 2853 
Q 2591 2978 2328 3040 
Q 2066 3103 1784 3103 
Q 1356 3103 1142 2972 
Q 928 2841 928 2578 
Q 928 2378 1081 2264 
Q 1234 2150 1697 2047 
L 1894 2003 
Q 2506 1872 2764 1633 
Q 3022 1394 3022 966 
Q 3022 478 2636 193 
Q 2250 -91 1575 -91 
Q 1294 -91 989 -36 
Q 684 19 347 128 
L 347 722 
Q 666 556 975 473 
Q 1284 391 1588 391 
Q 1994 391 2212 530 
Q 2431 669 2431 922 
Q 2431 1156 2273 1281 
Q 2116 1406 1581 1522 
L 1381 1569 
Q 847 1681 609 1914 
Q 372 2147 372 2553 
Q 372 3047 722 3315 
Q 1072 3584 1716 3584 
Q 2034 3584 2315 3537 
Q 2597 3491 2834 3397 
z
" transform="scale(0.015625)"/>
      <path id="DejaVuSans-6f" d="M 1959 3097 
Q 1497 3097 1228 2736 
Q 959 2375 959 1747 
Q 959 1119 1226 758 
Q 1494 397 1959 397 
Q 2419 397 2687 759 
Q 2956 1122 2956 1747 
Q 2956 2369 2687 2733 
Q 2419 3097 1959 3097 
z
M 1959 3584 
Q 2709 3584 3137 3096 
Q 3566 2609 3566 1747 
Q 3566 888 3137 398 
Q 2709 -91 1959 -91 
Q 1206 -91 779 398 
Q 353 888 353 1747 
Q 353 2609 779 3096 
Q 1206 3584 1959 3584 
z
" transform="scale(0.015625)"/>
      <path id="DejaVuSans-75" d="M 544 1381 
L 544 3500 
L 1119 3500 
L 1119 1403 
Q 1119 906 1312 657 
Q 1506 409 1894 409 
Q 2359 409 2629 706 
Q 2900 1003 2900 1516 
L 2900 3500 
L 3475 3500 
L 3475 0 
L 2900 0 
L 2900 538 
Q 2691 219 2414 64 
Q 2138 -91 1772 -91 
Q 1169 -91 856 284 
Q 544 659 544 1381 
z
M 1991 3584 
L 1991 3584 
z
" transform="scale(0.015625)"/>
      <path id="DejaVuSans-72" d="M 2631 2963 
Q 2534 3019 2420 3045 
Q 2306 3072 2169 3072 
Q 1681 3072 1420 2755 
Q 1159 2438 1159 1844 
L 1159 0 
L 581 0 
L 581 3500 
L 1159 3500 
L 1159 2956 
Q 1341 3275 1631 3429 
Q 1922 3584 2338 3584 
Q 2397 3584 2469 3576 
Q 2541 3569 2628 3553 
L 2631 2963 
z
" transform="scale(0.015625)"/>
      <path id="DejaVuSans-63" d="M 3122 3366 
L 3122 2828 
Q 2878 2963 2633 3030 
Q 2388 3097 2138 3097 
Q 1578 3097 1268 2742 
Q 959 2388 959 1747 
Q 959 1106 1268 751 
Q 1578 397 2138 397 
Q 2388 397 2633 464 
Q 2878 531 3122 666 
L 3122 134 
Q 2881 22 2623 -34 
Q 2366 -91 2075 -91 
Q 1284 -91 818 406 
Q 353 903 353 1747 
Q 353 2603 823 3093 
Q 1294 3584 2113 3584 
Q 2378 3584 2631 3529 
Q 2884 3475 3122 3366 
z
" transform="scale(0.015625)"/>
      <path id="DejaVuSans-65" d="M 3597 1894 
L 3597 1613 
L 953 1613 
Q 991 1019 1311 708 
Q 1631 397 2203 397 
Q 2534 397 2845 478 
Q 3156 559 3463 722 
L 3463 178 
Q 3153 47 2828 -22 
Q 2503 -91 2169 -91 
Q 1331 -91 842 396 
Q 353 884 353 1716 
Q 353 2575 817 3079 
Q 1281 3584 2069 3584 
Q 2775 3584 3186 3129 
Q 3597 2675 3597 1894 
z
M 3022 2063 
Q 3016 2534 2758 2815 
Q 2500 3097 2075 3097 
Q 1594 3097 1305 2825 
Q 1016 2553 972 2059 
L 3022 2063 
z
" transform="scale(0.015625)"/>
     </defs>
     <use xlink:href="#DejaVuSans-73"/>
     <use xlink:href="#DejaVuSans-6f" x="52.099609"/>
     <use xlink:href="#DejaVuSans-75" x="113.28125"/>
     <use xlink:href="#DejaVuSans-72" x="176.660156"/>
     <use xlink:href="#DejaVuSans-63" x="215.523438"/>
     <use xlink:href="#DejaVuSans-65" x="270.503906"/>
    </g>
   </g>
   <g id="text_2">
    <!-- p1 -->
    <g transform="translate(154.306612 215.199664)scale(0.1 -0.1)">
     <defs>
      <path id="DejaVuSans-70" d="M 1159 525 
L 1159 -1331 
L 581 -1331 
L 581 3500 
L 1159 3500 
L 1159 2969 
Q 1341 3281 1617 3432 
Q 1894 3584 2278 3584 
Q 2916 3584 3314 3078 
Q 3713 2572 3713 1747 
Q 3713 922 3314 415 
Q 2916 -91 2278 -91 
Q 1894 -91 1617 61 
Q 1341 213 1159 525 
z
M 3116 1747 
Q 3116 2381 2855 2742 
Q 2594 3103 2138 3103 
Q 1681 3103 1420 2742 
Q 1159 2381 1159 1747 
Q 1159 1113 1420 752 
Q 1681 391 2138 391 
Q 2594 391 2855 752 
Q 3116 1113 3116 1747 
z
" transform="scale(0.015625)"/>
      <path id="DejaVuSans-31" d="M 794 531 
L 1825 531 
L 1825 4091 
L 703 3866 
L 703 4441 
L 1819 4666 
L 2450 4666 
L 2450 531 
L 3481 531 
L 3481 0 
L 794 0 
L 794 531 
z
" transform="scale(0.015625)"/>
     </defs>
     <use xlink:href="#DejaVuSans-70"/>
     <use xlink:href="#DejaVuSans-31" x="63.476562"/>
    </g>
   </g>
   <g id="text_3">
    <!-- p2 -->
    <g transform="translate(199.605363 275.597999)scale(0.1 -0.1)">
     <defs>
      <path id="DejaVuSans-32" d="M 1228 531 
L 3431 531 
L 3431 0 
L 469 0 
L 469 531 
Q 828 903 1448 1529 
Q 2069 2156 2228 2338 
Q 2531 2678 2651 2914 
Q 2772 3150 2772 3378 
Q 2772 3750 2511 3984 
Q 2250 4219 1831 4219 
Q 1534 4219 1204 4116 
Q 875 4013 500 3803 
L 500 4441 
Q 881 4594 1212 4672 
Q 1544 4750 1819 4750 
Q 2544 4750 2975 4387 
Q 3406 4025 3406 3419 
Q 3406 3131 3298 2873 
Q 3191 2616 2906 2266 
Q 2828 2175 2409 1742 
Q 1991 1309 1228 531 
z
" transform="scale(0.015625)"/>
     </defs>
     <use xlink:href="#DejaVuSans-70"/>
     <use xlink:href="#DejaVuSans-32" x="63.476562"/>
    </g>
   </g>
   <g id="text_4">
    <!-- p3 -->
    <g transform="translate(172.426112 80.813367)scale(0.1 -0.1)">
     <defs>
      <path id="DejaVuSans-33" d="M 2597 2516 
Q 3050 2419 3304 2112 
Q 3559 1806 3559 1356 
Q 3559 666 3084 287 
Q 2609 -91 1734 -91 
Q 1441 -91 1130 -33 
Q 819 25 488 141 
L 488 750 
Q 750 597 1062 519 
Q 1375 441 1716 441 
Q 2309 441 2620 675 
Q 2931 909 2931 1356 
Q 2931 1769 2642 2001 
Q 2353 2234 1838 2234 
L 1294 2234 
L 1294 2753 
L 1863 2753 
Q 2328 2753 2575 2939 
Q 2822 3125 2822 3475 
Q 2822 3834 2567 4026 
Q 2313 4219 1838 4219 
Q 1578 4219 1281 4162 
Q 984 4106 628 3988 
L 628 4550 
Q 988 4650 1302 4700 
Q 1616 4750 1894 4750 
Q 2613 4750 3031 4423 
Q 3450 4097 3450 3541 
Q 3450 3153 3228 2886 
Q 3006 2619 2597 2516 
z
" transform="scale(0.015625)"/>
     </defs>
     <use xlink:href="#DejaVuSans-70"/>
     <use xlink:href="#DejaVuSans-33" x="63.476562"/>
    </g>
   </g>
   <g id="text_5">
    <!-- e1 -->
    <g transform="translate(214.802604 147.251536)scale(0.1 -0.1)">
     <use xlink:href="#DejaVuSans-65"/>
     <use xlink:href="#DejaVuSans-31" x="61.523438"/>
    </g>
   </g>
   <g id="text_6">
    <!-- e2 -->
    <g transform="translate(305.400107 237.849039)scale(0.1 -0.1)">
     <use xlink:href="#DejaVuSans-65"/>
     <use xlink:href="#DejaVuSans-32" x="61.523438"/>
    </g>
   </g>
   <g id="text_7">
    <!-- p4 -->
    <g transform="translate(275.103283 66.720422)scale(0.1 -0.1)">
     <defs>
      <path id="DejaVuSans-34" d="M 2419 4116 
L 825 1625 
L 2419 1625 
L 2419 4116 
z
M 2253 4666 
L 3047 4666 
L 3047 1625 
L 3713 1625 
L 3713 1100 
L 3047 1100 
L 3047 0 
L 2419 0 
L 2419 1100 
L 313 1100 
L 313 1709 
L 2253 4666 
z
" transform="scale(0.015625)"/>
     </defs>
     <use xlink:href="#DejaVuSans-70"/>
     <use xlink:href="#DejaVuSans-34" x="63.476562"/>
    </g>
   </g>
   <g id="text_8">
    <!-- p5 -->
    <g transform="translate(335.501619 94.402992)scale(0.1 -0.1)">
     <defs>
      <path id="DejaVuSans-35" d="M 691 4666 
L 3169 4666 
L 3169 4134 
L 1269 4134 
L 1269 2991 
Q 1406 3038 1543 3061 
Q 1681 3084 1819 3084 
Q 2600 3084 3056 2656 
Q 3513 2228 3513 1497 
Q 3513 744 3044 326 
Q 2575 -91 1722 -91 
Q 1428 -91 1123 -41 
Q 819 9 494 109 
L 494 744 
Q 775 591 1075 516 
Q 1375 441 1709 441 
Q 2250 441 2565 725 
Q 2881 1009 2881 1497 
Q 2881 1984 2565 2268 
Q 2250 2553 1709 2553 
Q 1456 2553 1204 2497 
Q 953 2441 691 2322 
L 691 4666 
z
" transform="scale(0.015625)"/>
     </defs>
     <use xlink:href="#DejaVuSans-70"/>
     <use xlink:href="#DejaVuSans-35" x="63.476562"/>
    </g>
   </g>
   <g id="text_9">
    <!-- target -->
    <g transform="translate(356.85313 171.671412)scale(0.1 -0.1)">
     <defs>
      <path id="DejaVuSans-74" d="M 1172 4494 
L 1172 3500 
L 2356 3500 
L 2356 3053 
L 1172 3053 
L 1172 1153 
Q 1172 725 1289 603 
Q 1406 481 1766 481 
L 2356 481 
L 2356 0 
L 1766 0 
Q 1100 0 847 248 
Q 594 497 594 1153 
L 594 3053 
L 172 3053 
L 172 3500 
L 594 3500 
L 594 4494 
L 1172 4494 
z
" transform="scale(0.015625)"/>
      <path id="DejaVuSans-61" d="M 2194 1759 
Q 1497 1759 1228 1600 
Q 959 1441 959 1056 
Q 959 750 1161 570 
Q 1363 391 1709 391 
Q 2188 391 2477 730 
Q 2766 1069 2766 1631 
L 2766 1759 
L 2194 1759 
z
M 3341 1997 
L 3341 0 
L 2766 0 
L 2766 531 
Q 2569 213 2275 61 
Q 1981 -91 1556 -91 
Q 1019 -91 701 211 
Q 384 513 384 1019 
Q 384 1609 779 1909 
Q 1175 2209 1959 2209 
L 2766 2209 
L 2766 2266 
Q 2766 2663 2505 2880 
Q 2244 3097 1772 3097 
Q 1472 3097 1187 3025 
Q 903 2953 641 2809 
L 641 3341 
Q 956 3463 1253 3523 
Q 1550 3584 1831 3584 
Q 2591 3584 2966 3190 
Q 3341 2797 3341 1997 
z
" transform="scale(0.015625)"/>
      <path id="DejaVuSans-67" d="M 2906 1791 
Q 2906 2416 2648 2759 
Q 2391 3103 1925 3103 
Q 1463 3103 1205 2759 
Q 947 2416 947 1791 
Q 947 1169 1205 825 
Q 1463 481 1925 481 
Q 2391 481 2648 825 
Q 2906 1169 2906 1791 
z
M 3481 434 
Q 3481 -459 3084 -895 
Q 2688 -1331 1869 -1331 
Q 1566 -1331 1297 -1286 
Q 1028 -1241 775 -1147 
L 775 -588 
Q 1028 -725 1275 -790 
Q 1522 -856 1778 -856 
Q 2344 -856 2625 -561 
Q 2906 -266 2906 331 
L 2906 616 
Q 2728 306 2450 153 
Q 2172 0 1784 0 
Q 1141 0 747 490 
Q 353 981 353 1791 
Q 353 2603 747 3093 
Q 1141 3584 1784 3584 
Q 2172 3584 2450 3431 
Q 2728 3278 2906 2969 
L 2906 3500 
L 3481 3500 
L 3481 434 
z
" transform="scale(0.015625)"/>
     </defs>
     <use xlink:href="#DejaVuSans-74"/>
     <use xlink:href="#DejaVuSans-61" x="39.208984"/>
     <use xlink:href="#DejaVuSans-72" x="100.488281"/>
     <use xlink:href="#DejaVuSans-67" x="139.851562"/>
     <use xlink:href="#DejaVuSans-65" x="203.328125"/>
     <use xlink:href="#DejaVuSans-74" x="264.851562"/>
    </g>
   </g>
  </g>
 </g>
 <defs>
  <clipPath id="p842abf18a5">
   <rect x="86.674119" y="41.472" width="298.971761" height="266.112"/>
  </clipPath>
 </defs>
</svg>
