<?xml version="1.0" encoding="UTF-8" standalone="no"?>
<!DOCTYPE svg PUBLIC "-//W3C//DTD SVG 1.1//EN"
 "http://www.w3.org/Graphics/SVG/1.1/DTD/svg11.dtd">
<!-- Generated by graphviz version 2.38.0 (20140413.2041)
 -->
<!-- Title: graph_search Pages: 1 -->
<svg width="372pt" height="98pt"
 viewBox="0.00 0.00 371.64 98.00" xmlns="http://www.w3.org/2000/svg" xmlns:xlink="http://www.w3.org/1999/xlink">
<g id="graph0" class="graph" transform="scale(1 1) rotate(0) translate(4 94)">
<title>graph_search</title>
<polygon fill="white" stroke="none" points="-4,4 -4,-94 367.642,-94 367.642,4 -4,4"/>
<!-- s1 -->
<g id="node1" class="node"><title>s1</title>
<ellipse fill="none" stroke="black" cx="27" cy="-18" rx="27" ry="18"/>
<text text-anchor="middle" x="27" y="-13.8" font-family="Times,serif" font-size="14.00">s1</text>
</g>
<!-- s2 -->
<g id="node2" class="node"><title>s2</title>
<ellipse fill="none" stroke="black" cx="130.214" cy="-55" rx="27" ry="18"/>
<text text-anchor="middle" x="130.214" y="-50.8" font-family="Times,serif" font-size="14.00">s2</text>
</g>
<!-- s1&#45;&gt;s2 -->
<g id="edge1" class="edge"><title>s1&#45;&gt;s2</title>
<path fill="none" stroke="black" d="M50.967,-26.3959C64.3307,-31.2811 81.4037,-37.5224 96.1899,-42.9277"/>
<polygon fill="black" stroke="black" points="95.3936,-46.3631 105.987,-46.5093 97.797,-39.7886 95.3936,-46.3631"/>
<text text-anchor="middle" x="78.6069" y="-40.8" font-family="Times,serif" font-size="14.00">a1</text>
</g>
<!-- s3 -->
<g id="node3" class="node"><title>s3</title>
<ellipse fill="none" stroke="black" cx="233.428" cy="-34" rx="27" ry="18"/>
<text text-anchor="middle" x="233.428" y="-29.8" font-family="Times,serif" font-size="14.00">s3</text>
</g>
<!-- s1&#45;&gt;s3 -->
<g id="edge2" class="edge"><title>s1&#45;&gt;s3</title>
<path fill="none" stroke="black" d="M54.0928,-16.2708C68.5588,-15.398 86.8741,-14.4342 103.214,-14 141.167,-12.9915 151.632,-10.6445 188.428,-20 191.873,-20.8759 195.445,-21.8685 198.996,-22.9109"/>
<polygon fill="black" stroke="black" points="198.241,-26.3401 208.827,-25.9257 200.293,-19.6477 198.241,-26.3401"/>
<text text-anchor="middle" x="130.214" y="-16.8" font-family="Times,serif" font-size="14.00">a2</text>
</g>
<!-- s2&#45;&gt;s3 -->
<g id="edge3" class="edge"><title>s2&#45;&gt;s3</title>
<path fill="none" stroke="black" d="M156.233,-49.809C168.642,-47.2344 183.835,-44.082 197.381,-41.2714"/>
<polygon fill="black" stroke="black" points="198.265,-44.6627 207.346,-39.2041 196.843,-37.8087 198.265,-44.6627"/>
<text text-anchor="middle" x="181.821" y="-47.8" font-family="Times,serif" font-size="14.00">a1</text>
</g>
<!-- s4 -->
<g id="node4" class="node"><title>s4</title>
<ellipse fill="none" stroke="black" cx="336.642" cy="-72" rx="27" ry="18"/>
<text text-anchor="middle" x="336.642" y="-67.8" font-family="Times,serif" font-size="14.00">s4</text>
</g>
<!-- s2&#45;&gt;s4 -->
<g id="edge4" class="edge"><title>s2&#45;&gt;s4</title>
<path fill="none" stroke="black" d="M156.285,-59.931C162.458,-61.042 169.062,-62.1442 175.214,-63 226.655,-70.1557 239.709,-73.5901 291.642,-73 294.182,-72.9711 296.805,-72.9329 299.446,-72.8882"/>
<polygon fill="black" stroke="black" points="299.655,-76.3849 309.585,-72.6901 299.519,-69.3862 299.655,-76.3849"/>
<text text-anchor="middle" x="233.428" y="-74.8" font-family="Times,serif" font-size="14.00">a2</text>
</g>
<!-- s3&#45;&gt;s2 -->
<g id="edge5" class="edge"><title>s3&#45;&gt;s2</title>
<path fill="none" stroke="black" d="M209.257,-25.6459C198.711,-23.0363 186.167,-21.6212 175.214,-25 168.328,-27.124 161.557,-30.7353 155.469,-34.7314"/>
<polygon fill="black" stroke="black" points="153.188,-32.0599 147.104,-40.7332 157.269,-37.7474 153.188,-32.0599"/>
<text text-anchor="middle" x="181.821" y="-27.8" font-family="Times,serif" font-size="14.00">a1</text>
</g>
<!-- s3&#45;&gt;s4 -->
<g id="edge6" class="edge"><title>s3&#45;&gt;s4</title>
<path fill="none" stroke="black" d="M257.395,-42.6228C270.983,-47.7243 288.405,-54.2655 303.36,-59.88"/>
<polygon fill="black" stroke="black" points="302.173,-63.1731 312.765,-63.4113 304.634,-56.6197 302.173,-63.1731"/>
<text text-anchor="middle" x="285.035" y="-57.8" font-family="Times,serif" font-size="14.00">a2</text>
</g>
</g>
</svg>
