<?xml version="1.0" encoding="utf-8" standalone="no"?>
<!DOCTYPE svg PUBLIC "-//W3C//DTD SVG 1.1//EN"
  "http://www.w3.org/Graphics/SVG/1.1/DTD/svg11.dtd">
<!-- Created with matplotlib (http://matplotlib.org/) -->
<svg height="288pt" version="1.1" viewBox="0 0 720 288" width="720pt" xmlns="http://www.w3.org/2000/svg" xmlns:xlink="http://www.w3.org/1999/xlink">
 <defs>
  <style type="text/css">
*{stroke-linecap:butt;stroke-linejoin:round;}
  </style>
 </defs>
 <g id="figure_1">
  <g id="patch_1">
   <path d="M 0 288 
L 720 288 
L 720 0 
L 0 0 
z
" style="fill:#ffffff;"/>
  </g>
  <g id="axes_1">
   <g id="patch_2">
    <path d="M 47.81 246.04 
L 237.866667 246.04 
L 237.866667 25.44 
L 47.81 25.44 
z
" style="fill:#ffffff;"/>
   </g>
   <g id="matplotlib.axis_1">
    <g id="xtick_1">
     <g id="line2d_1">
      <defs>
       <path d="M 0 0 
L 0 3.5 
" id="m86799d5f98" style="stroke:#000000;stroke-width:0.8;"/>
      </defs>
      <g>
       <use style="stroke:#000000;stroke-width:0.8;" x="47.81" xlink:href="#m86799d5f98" y="246.04"/>
      </g>
     </g>
     <g id="text_1">
      <!-- 0.0 -->
      <defs>
       <path d="M 31.78125 66.40625 
Q 24.171875 66.40625 20.328125 58.90625 
Q 16.5 51.421875 16.5 36.375 
Q 16.5 21.390625 20.328125 13.890625 
Q 24.171875 6.390625 31.78125 6.390625 
Q 39.453125 6.390625 43.28125 13.890625 
Q 47.125 21.390625 47.125 36.375 
Q 47.125 51.421875 43.28125 58.90625 
Q 39.453125 66.40625 31.78125 66.40625 
z
M 31.78125 74.21875 
Q 44.046875 74.21875 50.515625 64.515625 
Q 56.984375 54.828125 56.984375 36.375 
Q 56.984375 17.96875 50.515625 8.265625 
Q 44.046875 -1.421875 31.78125 -1.421875 
Q 19.53125 -1.421875 13.0625 8.265625 
Q 6.59375 17.96875 6.59375 36.375 
Q 6.59375 54.828125 13.0625 64.515625 
Q 19.53125 74.21875 31.78125 74.21875 
z
" id="DejaVuSans-30"/>
       <path d="M 10.6875 12.40625 
L 21 12.40625 
L 21 0 
L 10.6875 0 
z
" id="DejaVuSans-2e"/>
      </defs>
      <g transform="translate(39.858438 260.638438)scale(0.1 -0.1)">
       <use xlink:href="#DejaVuSans-30"/>
       <use x="63.623047" xlink:href="#DejaVuSans-2e"/>
       <use x="95.410156" xlink:href="#DejaVuSans-30"/>
      </g>
     </g>
    </g>
    <g id="xtick_2">
     <g id="line2d_2">
      <g>
       <use style="stroke:#000000;stroke-width:0.8;" x="85.821333" xlink:href="#m86799d5f98" y="246.04"/>
      </g>
     </g>
     <g id="text_2">
      <!-- 0.2 -->
      <defs>
       <path d="M 19.1875 8.296875 
L 53.609375 8.296875 
L 53.609375 0 
L 7.328125 0 
L 7.328125 8.296875 
Q 12.9375 14.109375 22.625 23.890625 
Q 32.328125 33.6875 34.8125 36.53125 
Q 39.546875 41.84375 41.421875 45.53125 
Q 43.3125 49.21875 43.3125 52.78125 
Q 43.3125 58.59375 39.234375 62.25 
Q 35.15625 65.921875 28.609375 65.921875 
Q 23.96875 65.921875 18.8125 64.3125 
Q 13.671875 62.703125 7.8125 59.421875 
L 7.8125 69.390625 
Q 13.765625 71.78125 18.9375 73 
Q 24.125 74.21875 28.421875 74.21875 
Q 39.75 74.21875 46.484375 68.546875 
Q 53.21875 62.890625 53.21875 53.421875 
Q 53.21875 48.921875 51.53125 44.890625 
Q 49.859375 40.875 45.40625 35.40625 
Q 44.1875 33.984375 37.640625 27.21875 
Q 31.109375 20.453125 19.1875 8.296875 
z
" id="DejaVuSans-32"/>
      </defs>
      <g transform="translate(77.869771 260.638438)scale(0.1 -0.1)">
       <use xlink:href="#DejaVuSans-30"/>
       <use x="63.623047" xlink:href="#DejaVuSans-2e"/>
       <use x="95.410156" xlink:href="#DejaVuSans-32"/>
      </g>
     </g>
    </g>
    <g id="xtick_3">
     <g id="line2d_3">
      <g>
       <use style="stroke:#000000;stroke-width:0.8;" x="123.832667" xlink:href="#m86799d5f98" y="246.04"/>
      </g>
     </g>
     <g id="text_3">
      <!-- 0.4 -->
      <defs>
       <path d="M 37.796875 64.3125 
L 12.890625 25.390625 
L 37.796875 25.390625 
z
M 35.203125 72.90625 
L 47.609375 72.90625 
L 47.609375 25.390625 
L 58.015625 25.390625 
L 58.015625 17.1875 
L 47.609375 17.1875 
L 47.609375 0 
L 37.796875 0 
L 37.796875 17.1875 
L 4.890625 17.1875 
L 4.890625 26.703125 
z
" id="DejaVuSans-34"/>
      </defs>
      <g transform="translate(115.881104 260.638438)scale(0.1 -0.1)">
       <use xlink:href="#DejaVuSans-30"/>
       <use x="63.623047" xlink:href="#DejaVuSans-2e"/>
       <use x="95.410156" xlink:href="#DejaVuSans-34"/>
      </g>
     </g>
    </g>
    <g id="xtick_4">
     <g id="line2d_4">
      <g>
       <use style="stroke:#000000;stroke-width:0.8;" x="161.844" xlink:href="#m86799d5f98" y="246.04"/>
      </g>
     </g>
     <g id="text_4">
      <!-- 0.6 -->
      <defs>
       <path d="M 33.015625 40.375 
Q 26.375 40.375 22.484375 35.828125 
Q 18.609375 31.296875 18.609375 23.390625 
Q 18.609375 15.53125 22.484375 10.953125 
Q 26.375 6.390625 33.015625 6.390625 
Q 39.65625 6.390625 43.53125 10.953125 
Q 47.40625 15.53125 47.40625 23.390625 
Q 47.40625 31.296875 43.53125 35.828125 
Q 39.65625 40.375 33.015625 40.375 
z
M 52.59375 71.296875 
L 52.59375 62.3125 
Q 48.875 64.0625 45.09375 64.984375 
Q 41.3125 65.921875 37.59375 65.921875 
Q 27.828125 65.921875 22.671875 59.328125 
Q 17.53125 52.734375 16.796875 39.40625 
Q 19.671875 43.65625 24.015625 45.921875 
Q 28.375 48.1875 33.59375 48.1875 
Q 44.578125 48.1875 50.953125 41.515625 
Q 57.328125 34.859375 57.328125 23.390625 
Q 57.328125 12.15625 50.6875 5.359375 
Q 44.046875 -1.421875 33.015625 -1.421875 
Q 20.359375 -1.421875 13.671875 8.265625 
Q 6.984375 17.96875 6.984375 36.375 
Q 6.984375 53.65625 15.1875 63.9375 
Q 23.390625 74.21875 37.203125 74.21875 
Q 40.921875 74.21875 44.703125 73.484375 
Q 48.484375 72.75 52.59375 71.296875 
z
" id="DejaVuSans-36"/>
      </defs>
      <g transform="translate(153.892438 260.638438)scale(0.1 -0.1)">
       <use xlink:href="#DejaVuSans-30"/>
       <use x="63.623047" xlink:href="#DejaVuSans-2e"/>
       <use x="95.410156" xlink:href="#DejaVuSans-36"/>
      </g>
     </g>
    </g>
    <g id="xtick_5">
     <g id="line2d_5">
      <g>
       <use style="stroke:#000000;stroke-width:0.8;" x="199.855333" xlink:href="#m86799d5f98" y="246.04"/>
      </g>
     </g>
     <g id="text_5">
      <!-- 0.8 -->
      <defs>
       <path d="M 31.78125 34.625 
Q 24.75 34.625 20.71875 30.859375 
Q 16.703125 27.09375 16.703125 20.515625 
Q 16.703125 13.921875 20.71875 10.15625 
Q 24.75 6.390625 31.78125 6.390625 
Q 38.8125 6.390625 42.859375 10.171875 
Q 46.921875 13.96875 46.921875 20.515625 
Q 46.921875 27.09375 42.890625 30.859375 
Q 38.875 34.625 31.78125 34.625 
z
M 21.921875 38.8125 
Q 15.578125 40.375 12.03125 44.71875 
Q 8.5 49.078125 8.5 55.328125 
Q 8.5 64.0625 14.71875 69.140625 
Q 20.953125 74.21875 31.78125 74.21875 
Q 42.671875 74.21875 48.875 69.140625 
Q 55.078125 64.0625 55.078125 55.328125 
Q 55.078125 49.078125 51.53125 44.71875 
Q 48 40.375 41.703125 38.8125 
Q 48.828125 37.15625 52.796875 32.3125 
Q 56.78125 27.484375 56.78125 20.515625 
Q 56.78125 9.90625 50.3125 4.234375 
Q 43.84375 -1.421875 31.78125 -1.421875 
Q 19.734375 -1.421875 13.25 4.234375 
Q 6.78125 9.90625 6.78125 20.515625 
Q 6.78125 27.484375 10.78125 32.3125 
Q 14.796875 37.15625 21.921875 38.8125 
z
M 18.3125 54.390625 
Q 18.3125 48.734375 21.84375 45.5625 
Q 25.390625 42.390625 31.78125 42.390625 
Q 38.140625 42.390625 41.71875 45.5625 
Q 45.3125 48.734375 45.3125 54.390625 
Q 45.3125 60.0625 41.71875 63.234375 
Q 38.140625 66.40625 31.78125 66.40625 
Q 25.390625 66.40625 21.84375 63.234375 
Q 18.3125 60.0625 18.3125 54.390625 
z
" id="DejaVuSans-38"/>
      </defs>
      <g transform="translate(191.903771 260.638438)scale(0.1 -0.1)">
       <use xlink:href="#DejaVuSans-30"/>
       <use x="63.623047" xlink:href="#DejaVuSans-2e"/>
       <use x="95.410156" xlink:href="#DejaVuSans-38"/>
      </g>
     </g>
    </g>
    <g id="xtick_6">
     <g id="line2d_6">
      <g>
       <use style="stroke:#000000;stroke-width:0.8;" x="237.866667" xlink:href="#m86799d5f98" y="246.04"/>
      </g>
     </g>
     <g id="text_6">
      <!-- 1.0 -->
      <defs>
       <path d="M 12.40625 8.296875 
L 28.515625 8.296875 
L 28.515625 63.921875 
L 10.984375 60.40625 
L 10.984375 69.390625 
L 28.421875 72.90625 
L 38.28125 72.90625 
L 38.28125 8.296875 
L 54.390625 8.296875 
L 54.390625 0 
L 12.40625 0 
z
" id="DejaVuSans-31"/>
      </defs>
      <g transform="translate(229.915104 260.638438)scale(0.1 -0.1)">
       <use xlink:href="#DejaVuSans-31"/>
       <use x="63.623047" xlink:href="#DejaVuSans-2e"/>
       <use x="95.410156" xlink:href="#DejaVuSans-30"/>
      </g>
     </g>
    </g>
    <g id="text_7">
     <!-- x -->
     <defs>
      <path d="M 54.890625 54.6875 
L 35.109375 28.078125 
L 55.90625 0 
L 45.3125 0 
L 29.390625 21.484375 
L 13.484375 0 
L 2.875 0 
L 24.125 28.609375 
L 4.6875 54.6875 
L 15.28125 54.6875 
L 29.78125 35.203125 
L 44.28125 54.6875 
z
" id="DejaVuSans-78"/>
     </defs>
     <g transform="translate(139.878958 274.316562)scale(0.1 -0.1)">
      <use xlink:href="#DejaVuSans-78"/>
     </g>
    </g>
   </g>
   <g id="matplotlib.axis_2">
    <g id="ytick_1">
     <g id="line2d_7">
      <defs>
       <path d="M 0 0 
L -3.5 0 
" id="m8d280eff03" style="stroke:#000000;stroke-width:0.8;"/>
      </defs>
      <g>
       <use style="stroke:#000000;stroke-width:0.8;" x="47.81" xlink:href="#m8d280eff03" y="246.04"/>
      </g>
     </g>
     <g id="text_8">
      <!-- 0.0 -->
      <g transform="translate(24.906875 249.839219)scale(0.1 -0.1)">
       <use xlink:href="#DejaVuSans-30"/>
       <use x="63.623047" xlink:href="#DejaVuSans-2e"/>
       <use x="95.410156" xlink:href="#DejaVuSans-30"/>
      </g>
     </g>
    </g>
    <g id="ytick_2">
     <g id="line2d_8">
      <g>
       <use style="stroke:#000000;stroke-width:0.8;" x="47.81" xlink:href="#m8d280eff03" y="220.971818"/>
      </g>
     </g>
     <g id="text_9">
      <!-- 0.2 -->
      <g transform="translate(24.906875 224.771037)scale(0.1 -0.1)">
       <use xlink:href="#DejaVuSans-30"/>
       <use x="63.623047" xlink:href="#DejaVuSans-2e"/>
       <use x="95.410156" xlink:href="#DejaVuSans-32"/>
      </g>
     </g>
    </g>
    <g id="ytick_3">
     <g id="line2d_9">
      <g>
       <use style="stroke:#000000;stroke-width:0.8;" x="47.81" xlink:href="#m8d280eff03" y="195.903636"/>
      </g>
     </g>
     <g id="text_10">
      <!-- 0.5 -->
      <defs>
       <path d="M 10.796875 72.90625 
L 49.515625 72.90625 
L 49.515625 64.59375 
L 19.828125 64.59375 
L 19.828125 46.734375 
Q 21.96875 47.46875 24.109375 47.828125 
Q 26.265625 48.1875 28.421875 48.1875 
Q 40.625 48.1875 47.75 41.5 
Q 54.890625 34.8125 54.890625 23.390625 
Q 54.890625 11.625 47.5625 5.09375 
Q 40.234375 -1.421875 26.90625 -1.421875 
Q 22.3125 -1.421875 17.546875 -0.640625 
Q 12.796875 0.140625 7.71875 1.703125 
L 7.71875 11.625 
Q 12.109375 9.234375 16.796875 8.0625 
Q 21.484375 6.890625 26.703125 6.890625 
Q 35.15625 6.890625 40.078125 11.328125 
Q 45.015625 15.765625 45.015625 23.390625 
Q 45.015625 31 40.078125 35.4375 
Q 35.15625 39.890625 26.703125 39.890625 
Q 22.75 39.890625 18.8125 39.015625 
Q 14.890625 38.140625 10.796875 36.28125 
z
" id="DejaVuSans-35"/>
      </defs>
      <g transform="translate(24.906875 199.702855)scale(0.1 -0.1)">
       <use xlink:href="#DejaVuSans-30"/>
       <use x="63.623047" xlink:href="#DejaVuSans-2e"/>
       <use x="95.410156" xlink:href="#DejaVuSans-35"/>
      </g>
     </g>
    </g>
    <g id="ytick_4">
     <g id="line2d_10">
      <g>
       <use style="stroke:#000000;stroke-width:0.8;" x="47.81" xlink:href="#m8d280eff03" y="170.835455"/>
      </g>
     </g>
     <g id="text_11">
      <!-- 0.8 -->
      <g transform="translate(24.906875 174.634673)scale(0.1 -0.1)">
       <use xlink:href="#DejaVuSans-30"/>
       <use x="63.623047" xlink:href="#DejaVuSans-2e"/>
       <use x="95.410156" xlink:href="#DejaVuSans-38"/>
      </g>
     </g>
    </g>
    <g id="ytick_5">
     <g id="line2d_11">
      <g>
       <use style="stroke:#000000;stroke-width:0.8;" x="47.81" xlink:href="#m8d280eff03" y="145.767273"/>
      </g>
     </g>
     <g id="text_12">
      <!-- 1.0 -->
      <g transform="translate(24.906875 149.566491)scale(0.1 -0.1)">
       <use xlink:href="#DejaVuSans-31"/>
       <use x="63.623047" xlink:href="#DejaVuSans-2e"/>
       <use x="95.410156" xlink:href="#DejaVuSans-30"/>
      </g>
     </g>
    </g>
    <g id="ytick_6">
     <g id="line2d_12">
      <g>
       <use style="stroke:#000000;stroke-width:0.8;" x="47.81" xlink:href="#m8d280eff03" y="120.699091"/>
      </g>
     </g>
     <g id="text_13">
      <!-- 1.2 -->
      <g transform="translate(24.906875 124.49831)scale(0.1 -0.1)">
       <use xlink:href="#DejaVuSans-31"/>
       <use x="63.623047" xlink:href="#DejaVuSans-2e"/>
       <use x="95.410156" xlink:href="#DejaVuSans-32"/>
      </g>
     </g>
    </g>
    <g id="ytick_7">
     <g id="line2d_13">
      <g>
       <use style="stroke:#000000;stroke-width:0.8;" x="47.81" xlink:href="#m8d280eff03" y="95.630909"/>
      </g>
     </g>
     <g id="text_14">
      <!-- 1.5 -->
      <g transform="translate(24.906875 99.430128)scale(0.1 -0.1)">
       <use xlink:href="#DejaVuSans-31"/>
       <use x="63.623047" xlink:href="#DejaVuSans-2e"/>
       <use x="95.410156" xlink:href="#DejaVuSans-35"/>
      </g>
     </g>
    </g>
    <g id="ytick_8">
     <g id="line2d_14">
      <g>
       <use style="stroke:#000000;stroke-width:0.8;" x="47.81" xlink:href="#m8d280eff03" y="70.562727"/>
      </g>
     </g>
     <g id="text_15">
      <!-- 1.8 -->
      <g transform="translate(24.906875 74.361946)scale(0.1 -0.1)">
       <use xlink:href="#DejaVuSans-31"/>
       <use x="63.623047" xlink:href="#DejaVuSans-2e"/>
       <use x="95.410156" xlink:href="#DejaVuSans-38"/>
      </g>
     </g>
    </g>
    <g id="ytick_9">
     <g id="line2d_15">
      <g>
       <use style="stroke:#000000;stroke-width:0.8;" x="47.81" xlink:href="#m8d280eff03" y="45.494545"/>
      </g>
     </g>
     <g id="text_16">
      <!-- 2.0 -->
      <g transform="translate(24.906875 49.293764)scale(0.1 -0.1)">
       <use xlink:href="#DejaVuSans-32"/>
       <use x="63.623047" xlink:href="#DejaVuSans-2e"/>
       <use x="95.410156" xlink:href="#DejaVuSans-30"/>
      </g>
     </g>
    </g>
    <g id="text_17">
     <!-- p(x) -->
     <defs>
      <path d="M 18.109375 8.203125 
L 18.109375 -20.796875 
L 9.078125 -20.796875 
L 9.078125 54.6875 
L 18.109375 54.6875 
L 18.109375 46.390625 
Q 20.953125 51.265625 25.265625 53.625 
Q 29.59375 56 35.59375 56 
Q 45.5625 56 51.78125 48.09375 
Q 58.015625 40.1875 58.015625 27.296875 
Q 58.015625 14.40625 51.78125 6.484375 
Q 45.5625 -1.421875 35.59375 -1.421875 
Q 29.59375 -1.421875 25.265625 0.953125 
Q 20.953125 3.328125 18.109375 8.203125 
z
M 48.6875 27.296875 
Q 48.6875 37.203125 44.609375 42.84375 
Q 40.53125 48.484375 33.40625 48.484375 
Q 26.265625 48.484375 22.1875 42.84375 
Q 18.109375 37.203125 18.109375 27.296875 
Q 18.109375 17.390625 22.1875 11.75 
Q 26.265625 6.109375 33.40625 6.109375 
Q 40.53125 6.109375 44.609375 11.75 
Q 48.6875 17.390625 48.6875 27.296875 
z
" id="DejaVuSans-70"/>
      <path d="M 31 75.875 
Q 24.46875 64.65625 21.28125 53.65625 
Q 18.109375 42.671875 18.109375 31.390625 
Q 18.109375 20.125 21.3125 9.0625 
Q 24.515625 -2 31 -13.1875 
L 23.1875 -13.1875 
Q 15.875 -1.703125 12.234375 9.375 
Q 8.59375 20.453125 8.59375 31.390625 
Q 8.59375 42.28125 12.203125 53.3125 
Q 15.828125 64.359375 23.1875 75.875 
z
" id="DejaVuSans-28"/>
      <path d="M 8.015625 75.875 
L 15.828125 75.875 
Q 23.140625 64.359375 26.78125 53.3125 
Q 30.421875 42.28125 30.421875 31.390625 
Q 30.421875 20.453125 26.78125 9.375 
Q 23.140625 -1.703125 15.828125 -13.1875 
L 8.015625 -13.1875 
Q 14.5 -2 17.703125 9.0625 
Q 20.90625 20.125 20.90625 31.390625 
Q 20.90625 42.671875 17.703125 53.65625 
Q 14.5 64.65625 8.015625 75.875 
z
" id="DejaVuSans-29"/>
     </defs>
     <g transform="translate(18.827188 145.775156)rotate(-90)scale(0.1 -0.1)">
      <use xlink:href="#DejaVuSans-70"/>
      <use x="63.476562" xlink:href="#DejaVuSans-28"/>
      <use x="102.490234" xlink:href="#DejaVuSans-78"/>
      <use x="161.669922" xlink:href="#DejaVuSans-29"/>
     </g>
    </g>
   </g>
   <g id="line2d_16">
    <path clip-path="url(#p9bfacc4aba)" d="M 49.710567 145.767273 
L 51.591936 145.767273 
L 53.473305 145.767273 
L 55.354674 145.767273 
L 57.236043 145.767273 
L 59.117412 145.767273 
L 60.998781 145.767273 
L 62.88015 145.767273 
L 64.761519 145.767273 
L 66.642888 145.767273 
L 68.524257 145.767273 
L 70.405626 145.767273 
L 72.286995 145.767273 
L 74.168364 145.767273 
L 76.049733 145.767273 
L 77.931102 145.767273 
L 79.812471 145.767273 
L 81.69384 145.767273 
L 83.575209 145.767273 
L 85.456578 145.767273 
L 87.337947 145.767273 
L 89.219316 145.767273 
L 91.100685 145.767273 
L 92.982054 145.767273 
L 94.863423 145.767273 
L 96.744792 145.767273 
L 98.626161 145.767273 
L 100.50753 145.767273 
L 102.388899 145.767273 
L 104.270268 145.767273 
L 106.151637 145.767273 
L 108.033006 145.767273 
L 109.914375 145.767273 
L 111.795744 145.767273 
L 113.677113 145.767273 
L 115.558482 145.767273 
L 117.439852 145.767273 
L 119.321221 145.767273 
L 121.20259 145.767273 
L 123.083959 145.767273 
L 124.965328 145.767273 
L 126.846697 145.767273 
L 128.728066 145.767273 
L 130.609435 145.767273 
L 132.490804 145.767273 
L 134.372173 145.767273 
L 136.253542 145.767273 
L 138.134911 145.767273 
L 140.01628 145.767273 
L 141.897649 145.767273 
L 143.779018 145.767273 
L 145.660387 145.767273 
L 147.541756 145.767273 
L 149.423125 145.767273 
L 151.304494 145.767273 
L 153.185863 145.767273 
L 155.067232 145.767273 
L 156.948601 145.767273 
L 158.82997 145.767273 
L 160.711339 145.767273 
L 162.592708 145.767273 
L 164.474077 145.767273 
L 166.355446 145.767273 
L 168.236815 145.767273 
L 170.118184 145.767273 
L 171.999553 145.767273 
L 173.880922 145.767273 
L 175.762291 145.767273 
L 177.64366 145.767273 
L 179.525029 145.767273 
L 181.406398 145.767273 
L 183.287767 145.767273 
L 185.169136 145.767273 
L 187.050505 145.767273 
L 188.931874 145.767273 
L 190.813243 145.767273 
L 192.694612 145.767273 
L 194.575981 145.767273 
L 196.457351 145.767273 
L 198.33872 145.767273 
L 200.220089 145.767273 
L 202.101458 145.767273 
L 203.982827 145.767273 
L 205.864196 145.767273 
L 207.745565 145.767273 
L 209.626934 145.767273 
L 211.508303 145.767273 
L 213.389672 145.767273 
L 215.271041 145.767273 
L 217.15241 145.767273 
L 219.033779 145.767273 
L 220.915148 145.767273 
L 222.796517 145.767273 
L 224.677886 145.767273 
L 226.559255 145.767273 
L 228.440624 145.767273 
L 230.321993 145.767273 
L 232.203362 145.767273 
L 234.084731 145.767273 
L 235.9661 145.767273 
" style="fill:none;stroke:#1f77b4;stroke-linecap:square;stroke-width:1.5;"/>
   </g>
   <g id="line2d_17">
    <path clip-path="url(#p9bfacc4aba)" d="M 51.214796 -1 
L 51.591936 17.489582 
L 53.473305 58.320903 
L 55.354674 82.565459 
L 57.236043 99.027024 
L 59.117412 111.108814 
L 60.998781 120.440114 
L 62.88015 127.91142 
L 64.761519 134.055797 
L 66.642888 139.214345 
L 68.524257 143.616759 
L 70.405626 147.424091 
L 72.286995 150.753033 
L 74.168364 153.690457 
L 76.049733 156.302537 
L 77.931102 158.640669 
L 79.812471 160.745448 
L 81.69384 162.649416 
L 83.575209 164.378992 
L 85.456578 165.955872 
L 87.337947 167.398054 
L 89.219316 168.720605 
L 91.100685 169.936237 
L 92.982054 171.055757 
L 94.863423 172.088412 
L 96.744792 173.042158 
L 98.626161 173.923882 
L 100.50753 174.739569 
L 102.388899 175.494444 
L 104.270268 176.193087 
L 106.151637 176.839523 
L 108.033006 177.437302 
L 109.914375 177.989561 
L 111.795744 178.499078 
L 113.677113 178.968315 
L 115.558482 179.399458 
L 117.439852 179.794447 
L 119.321221 180.155003 
L 121.20259 180.482651 
L 123.083959 180.77874 
L 124.965328 181.04446 
L 126.846697 181.280853 
L 128.728066 181.488829 
L 130.609435 181.669174 
L 132.490804 181.822558 
L 134.372173 181.949543 
L 136.253542 182.050591 
L 138.134911 182.126065 
L 140.01628 182.176232 
L 141.897649 182.201271 
L 143.779018 182.201271 
L 145.660387 182.176232 
L 147.541756 182.126065 
L 149.423125 182.050591 
L 151.304494 181.949543 
L 153.185863 181.822558 
L 155.067232 181.669174 
L 156.948601 181.488829 
L 158.82997 181.280853 
L 160.711339 181.04446 
L 162.592708 180.77874 
L 164.474077 180.482651 
L 166.355446 180.155003 
L 168.236815 179.794447 
L 170.118184 179.399458 
L 171.999553 178.968315 
L 173.880922 178.499078 
L 175.762291 177.989561 
L 177.64366 177.437302 
L 179.525029 176.839523 
L 181.406398 176.193087 
L 183.287767 175.494444 
L 185.169136 174.739569 
L 187.050505 173.923882 
L 188.931874 173.042158 
L 190.813243 172.088412 
L 192.694612 171.055757 
L 194.575981 169.936237 
L 196.457351 168.720605 
L 198.33872 167.398054 
L 200.220089 165.955872 
L 202.101458 164.378992 
L 203.982827 162.649416 
L 205.864196 160.745448 
L 207.745565 158.640669 
L 209.626934 156.302537 
L 211.508303 153.690457 
L 213.389672 150.753033 
L 215.271041 147.424091 
L 217.15241 143.616759 
L 219.033779 139.214345 
L 220.915148 134.055797 
L 222.796517 127.91142 
L 224.677886 120.440114 
L 226.559255 111.108814 
L 228.440624 99.027024 
L 230.321993 82.565459 
L 232.203362 58.320903 
L 234.084731 17.489582 
L 234.461871 -1 
" style="fill:none;stroke:#ff7f0e;stroke-dasharray:5.55,2.4;stroke-dashoffset:0;stroke-width:1.5;"/>
   </g>
   <g id="patch_3">
    <path d="M 47.81 246.04 
L 47.81 25.44 
" style="fill:none;stroke:#000000;stroke-linecap:square;stroke-linejoin:miter;stroke-width:0.8;"/>
   </g>
   <g id="patch_4">
    <path d="M 237.866667 246.04 
L 237.866667 25.44 
" style="fill:none;stroke:#000000;stroke-linecap:square;stroke-linejoin:miter;stroke-width:0.8;"/>
   </g>
   <g id="patch_5">
    <path d="M 47.81 246.04 
L 237.866667 246.04 
" style="fill:none;stroke:#000000;stroke-linecap:square;stroke-linejoin:miter;stroke-width:0.8;"/>
   </g>
   <g id="patch_6">
    <path d="M 47.81 25.44 
L 237.866667 25.44 
" style="fill:none;stroke:#000000;stroke-linecap:square;stroke-linejoin:miter;stroke-width:0.8;"/>
   </g>
   <g id="text_18">
    <!-- p₀(x) -->
    <defs>
     <path d="M 27.828125 32.671875 
Q 25.390625 36.875 20.453125 36.875 
Q 15.53125 36.875 13.09375 32.671875 
Q 10.59375 28.46875 10.59375 20.078125 
Q 10.59375 11.625 13.09375 7.4375 
Q 15.53125 3.234375 20.453125 3.234375 
Q 25.390625 3.234375 27.828125 7.4375 
Q 30.328125 11.625 30.328125 20.078125 
Q 30.328125 28.46875 27.828125 32.671875 
z
M 20.453125 41.21875 
Q 28.328125 41.21875 32.46875 35.796875 
Q 36.625 30.375 36.625 20.078125 
Q 36.625 9.71875 32.46875 4.296875 
Q 28.328125 -1.109375 20.453125 -1.109375 
Q 12.546875 -1.109375 8.390625 4.296875 
Q 4.25 9.71875 4.25 20.078125 
Q 4.25 30.375 8.390625 35.796875 
Q 12.546875 41.21875 20.453125 41.21875 
z
" id="DejaVuSans-2080"/>
    </defs>
    <g transform="translate(128.390521 19.44)scale(0.12 -0.12)">
     <use xlink:href="#DejaVuSans-70"/>
     <use x="63.476562" xlink:href="#DejaVuSans-2080"/>
     <use x="103.564453" xlink:href="#DejaVuSans-28"/>
     <use x="142.578125" xlink:href="#DejaVuSans-78"/>
     <use x="201.757812" xlink:href="#DejaVuSans-29"/>
    </g>
   </g>
  </g>
  <g id="axes_2">
   <g id="patch_7">
    <path d="M 279.516667 246.04 
L 469.573333 246.04 
L 469.573333 25.44 
L 279.516667 25.44 
z
" style="fill:#ffffff;"/>
   </g>
   <g id="matplotlib.axis_3">
    <g id="xtick_7">
     <g id="line2d_18">
      <g>
       <use style="stroke:#000000;stroke-width:0.8;" x="279.516667" xlink:href="#m86799d5f98" y="246.04"/>
      </g>
     </g>
     <g id="text_19">
      <!-- 0.0 -->
      <g transform="translate(271.565104 260.638438)scale(0.1 -0.1)">
       <use xlink:href="#DejaVuSans-30"/>
       <use x="63.623047" xlink:href="#DejaVuSans-2e"/>
       <use x="95.410156" xlink:href="#DejaVuSans-30"/>
      </g>
     </g>
    </g>
    <g id="xtick_8">
     <g id="line2d_19">
      <g>
       <use style="stroke:#000000;stroke-width:0.8;" x="317.528" xlink:href="#m86799d5f98" y="246.04"/>
      </g>
     </g>
     <g id="text_20">
      <!-- 0.2 -->
      <g transform="translate(309.576437 260.638438)scale(0.1 -0.1)">
       <use xlink:href="#DejaVuSans-30"/>
       <use x="63.623047" xlink:href="#DejaVuSans-2e"/>
       <use x="95.410156" xlink:href="#DejaVuSans-32"/>
      </g>
     </g>
    </g>
    <g id="xtick_9">
     <g id="line2d_20">
      <g>
       <use style="stroke:#000000;stroke-width:0.8;" x="355.539333" xlink:href="#m86799d5f98" y="246.04"/>
      </g>
     </g>
     <g id="text_21">
      <!-- 0.4 -->
      <g transform="translate(347.587771 260.638438)scale(0.1 -0.1)">
       <use xlink:href="#DejaVuSans-30"/>
       <use x="63.623047" xlink:href="#DejaVuSans-2e"/>
       <use x="95.410156" xlink:href="#DejaVuSans-34"/>
      </g>
     </g>
    </g>
    <g id="xtick_10">
     <g id="line2d_21">
      <g>
       <use style="stroke:#000000;stroke-width:0.8;" x="393.550667" xlink:href="#m86799d5f98" y="246.04"/>
      </g>
     </g>
     <g id="text_22">
      <!-- 0.6 -->
      <g transform="translate(385.599104 260.638438)scale(0.1 -0.1)">
       <use xlink:href="#DejaVuSans-30"/>
       <use x="63.623047" xlink:href="#DejaVuSans-2e"/>
       <use x="95.410156" xlink:href="#DejaVuSans-36"/>
      </g>
     </g>
    </g>
    <g id="xtick_11">
     <g id="line2d_22">
      <g>
       <use style="stroke:#000000;stroke-width:0.8;" x="431.562" xlink:href="#m86799d5f98" y="246.04"/>
      </g>
     </g>
     <g id="text_23">
      <!-- 0.8 -->
      <g transform="translate(423.610437 260.638438)scale(0.1 -0.1)">
       <use xlink:href="#DejaVuSans-30"/>
       <use x="63.623047" xlink:href="#DejaVuSans-2e"/>
       <use x="95.410156" xlink:href="#DejaVuSans-38"/>
      </g>
     </g>
    </g>
    <g id="xtick_12">
     <g id="line2d_23">
      <g>
       <use style="stroke:#000000;stroke-width:0.8;" x="469.573333" xlink:href="#m86799d5f98" y="246.04"/>
      </g>
     </g>
     <g id="text_24">
      <!-- 1.0 -->
      <g transform="translate(461.621771 260.638438)scale(0.1 -0.1)">
       <use xlink:href="#DejaVuSans-31"/>
       <use x="63.623047" xlink:href="#DejaVuSans-2e"/>
       <use x="95.410156" xlink:href="#DejaVuSans-30"/>
      </g>
     </g>
    </g>
    <g id="text_25">
     <!-- x -->
     <g transform="translate(371.585625 274.316562)scale(0.1 -0.1)">
      <use xlink:href="#DejaVuSans-78"/>
     </g>
    </g>
   </g>
   <g id="matplotlib.axis_4">
    <g id="ytick_10">
     <g id="line2d_24">
      <g>
       <use style="stroke:#000000;stroke-width:0.8;" x="279.516667" xlink:href="#m8d280eff03" y="246.04"/>
      </g>
     </g>
     <g id="text_26">
      <!-- 0.0 -->
      <g transform="translate(256.613542 249.839219)scale(0.1 -0.1)">
       <use xlink:href="#DejaVuSans-30"/>
       <use x="63.623047" xlink:href="#DejaVuSans-2e"/>
       <use x="95.410156" xlink:href="#DejaVuSans-30"/>
      </g>
     </g>
    </g>
    <g id="ytick_11">
     <g id="line2d_25">
      <g>
       <use style="stroke:#000000;stroke-width:0.8;" x="279.516667" xlink:href="#m8d280eff03" y="220.971818"/>
      </g>
     </g>
     <g id="text_27">
      <!-- 0.2 -->
      <g transform="translate(256.613542 224.771037)scale(0.1 -0.1)">
       <use xlink:href="#DejaVuSans-30"/>
       <use x="63.623047" xlink:href="#DejaVuSans-2e"/>
       <use x="95.410156" xlink:href="#DejaVuSans-32"/>
      </g>
     </g>
    </g>
    <g id="ytick_12">
     <g id="line2d_26">
      <g>
       <use style="stroke:#000000;stroke-width:0.8;" x="279.516667" xlink:href="#m8d280eff03" y="195.903636"/>
      </g>
     </g>
     <g id="text_28">
      <!-- 0.5 -->
      <g transform="translate(256.613542 199.702855)scale(0.1 -0.1)">
       <use xlink:href="#DejaVuSans-30"/>
       <use x="63.623047" xlink:href="#DejaVuSans-2e"/>
       <use x="95.410156" xlink:href="#DejaVuSans-35"/>
      </g>
     </g>
    </g>
    <g id="ytick_13">
     <g id="line2d_27">
      <g>
       <use style="stroke:#000000;stroke-width:0.8;" x="279.516667" xlink:href="#m8d280eff03" y="170.835455"/>
      </g>
     </g>
     <g id="text_29">
      <!-- 0.8 -->
      <g transform="translate(256.613542 174.634673)scale(0.1 -0.1)">
       <use xlink:href="#DejaVuSans-30"/>
       <use x="63.623047" xlink:href="#DejaVuSans-2e"/>
       <use x="95.410156" xlink:href="#DejaVuSans-38"/>
      </g>
     </g>
    </g>
    <g id="ytick_14">
     <g id="line2d_28">
      <g>
       <use style="stroke:#000000;stroke-width:0.8;" x="279.516667" xlink:href="#m8d280eff03" y="145.767273"/>
      </g>
     </g>
     <g id="text_30">
      <!-- 1.0 -->
      <g transform="translate(256.613542 149.566491)scale(0.1 -0.1)">
       <use xlink:href="#DejaVuSans-31"/>
       <use x="63.623047" xlink:href="#DejaVuSans-2e"/>
       <use x="95.410156" xlink:href="#DejaVuSans-30"/>
      </g>
     </g>
    </g>
    <g id="ytick_15">
     <g id="line2d_29">
      <g>
       <use style="stroke:#000000;stroke-width:0.8;" x="279.516667" xlink:href="#m8d280eff03" y="120.699091"/>
      </g>
     </g>
     <g id="text_31">
      <!-- 1.2 -->
      <g transform="translate(256.613542 124.49831)scale(0.1 -0.1)">
       <use xlink:href="#DejaVuSans-31"/>
       <use x="63.623047" xlink:href="#DejaVuSans-2e"/>
       <use x="95.410156" xlink:href="#DejaVuSans-32"/>
      </g>
     </g>
    </g>
    <g id="ytick_16">
     <g id="line2d_30">
      <g>
       <use style="stroke:#000000;stroke-width:0.8;" x="279.516667" xlink:href="#m8d280eff03" y="95.630909"/>
      </g>
     </g>
     <g id="text_32">
      <!-- 1.5 -->
      <g transform="translate(256.613542 99.430128)scale(0.1 -0.1)">
       <use xlink:href="#DejaVuSans-31"/>
       <use x="63.623047" xlink:href="#DejaVuSans-2e"/>
       <use x="95.410156" xlink:href="#DejaVuSans-35"/>
      </g>
     </g>
    </g>
    <g id="ytick_17">
     <g id="line2d_31">
      <g>
       <use style="stroke:#000000;stroke-width:0.8;" x="279.516667" xlink:href="#m8d280eff03" y="70.562727"/>
      </g>
     </g>
     <g id="text_33">
      <!-- 1.8 -->
      <g transform="translate(256.613542 74.361946)scale(0.1 -0.1)">
       <use xlink:href="#DejaVuSans-31"/>
       <use x="63.623047" xlink:href="#DejaVuSans-2e"/>
       <use x="95.410156" xlink:href="#DejaVuSans-38"/>
      </g>
     </g>
    </g>
    <g id="ytick_18">
     <g id="line2d_32">
      <g>
       <use style="stroke:#000000;stroke-width:0.8;" x="279.516667" xlink:href="#m8d280eff03" y="45.494545"/>
      </g>
     </g>
     <g id="text_34">
      <!-- 2.0 -->
      <g transform="translate(256.613542 49.293764)scale(0.1 -0.1)">
       <use xlink:href="#DejaVuSans-32"/>
       <use x="63.623047" xlink:href="#DejaVuSans-2e"/>
       <use x="95.410156" xlink:href="#DejaVuSans-30"/>
      </g>
     </g>
    </g>
   </g>
   <g id="line2d_33">
    <path clip-path="url(#pe61087c5ef)" d="M 281.417233 195.651059 
L 283.298602 195.397235 
L 285.179971 195.139536 
L 287.06134 194.877862 
L 288.942709 194.612111 
L 290.824078 194.342176 
L 292.705447 194.067945 
L 294.586816 193.789302 
L 296.468186 193.50613 
L 298.349555 193.218303 
L 300.230924 192.925693 
L 302.112293 192.628166 
L 303.993662 192.325582 
L 305.875031 192.017796 
L 307.7564 191.704658 
L 309.637769 191.386011 
L 311.519138 191.061692 
L 313.400507 190.731529 
L 315.281876 190.395346 
L 317.163245 190.052957 
L 319.044614 189.704169 
L 320.925983 189.348781 
L 322.807352 188.98658 
L 324.688721 188.617347 
L 326.57009 188.240851 
L 328.451459 187.856852 
L 330.332828 187.465095 
L 332.214197 187.065318 
L 334.095566 186.657241 
L 335.976935 186.240575 
L 337.858304 185.815012 
L 339.739673 185.380233 
L 341.621042 184.9359 
L 343.502411 184.481657 
L 345.38378 184.017131 
L 347.265149 183.541927 
L 349.146518 183.055631 
L 351.027887 182.557803 
L 352.909256 182.047981 
L 354.790625 181.525676 
L 356.671994 180.990369 
L 358.553363 180.441511 
L 360.434732 179.878523 
L 362.316101 179.300785 
L 364.19747 178.707644 
L 366.078839 178.098401 
L 367.960208 177.472316 
L 369.841577 176.828597 
L 371.722946 176.166401 
L 373.604315 175.484827 
L 375.485685 174.782911 
L 377.367054 174.05962 
L 379.248423 173.313847 
L 381.129792 172.544403 
L 383.011161 171.750008 
L 384.89253 170.929284 
L 386.773899 170.080744 
L 388.655268 169.202781 
L 390.536637 168.293652 
L 392.418006 167.351471 
L 394.299375 166.374184 
L 396.180744 165.359556 
L 398.062113 164.305146 
L 399.943482 163.208285 
L 401.824851 162.066047 
L 403.70622 160.875212 
L 405.587589 159.632235 
L 407.468958 158.333196 
L 409.350327 156.97375 
L 411.231696 155.549064 
L 413.113065 154.05375 
L 414.994434 152.48177 
L 416.875803 150.826341 
L 418.757172 149.07981 
L 420.638541 147.233501 
L 422.51991 145.277537 
L 424.401279 143.200616 
L 426.282648 140.989734 
L 428.164017 138.629842 
L 430.045386 136.103412 
L 431.926755 133.389887 
L 433.808124 130.464974 
L 435.689493 127.299719 
L 437.570862 123.859294 
L 439.452231 120.101372 
L 441.3336 115.973908 
L 443.214969 111.412072 
L 445.096338 106.33391 
L 446.977707 100.634044 
L 448.859076 94.174296 
L 450.740445 86.769287 
L 452.621814 78.163434 
L 454.503184 67.992615 
L 456.384553 55.716656 
L 458.265922 40.492224 
L 460.147291 20.911912 
L 461.702417 -1 
" style="fill:none;stroke:#1f77b4;stroke-linecap:square;stroke-width:1.5;"/>
   </g>
   <g id="line2d_34">
    <path clip-path="url(#pe61087c5ef)" d="M 282.921462 -1 
L 283.298602 17.489582 
L 285.179971 58.320903 
L 287.06134 82.565459 
L 288.942709 99.027024 
L 290.824078 111.108814 
L 292.705447 120.440114 
L 294.586816 127.91142 
L 296.468186 134.055797 
L 298.349555 139.214345 
L 300.230924 143.616759 
L 302.112293 147.424091 
L 303.993662 150.753033 
L 305.875031 153.690457 
L 307.7564 156.302537 
L 309.637769 158.640669 
L 311.519138 160.745448 
L 313.400507 162.649416 
L 315.281876 164.378992 
L 317.163245 165.955872 
L 319.044614 167.398054 
L 320.925983 168.720605 
L 322.807352 169.936237 
L 324.688721 171.055757 
L 326.57009 172.088412 
L 328.451459 173.042158 
L 330.332828 173.923882 
L 332.214197 174.739569 
L 334.095566 175.494444 
L 335.976935 176.193087 
L 337.858304 176.839523 
L 339.739673 177.437302 
L 341.621042 177.989561 
L 343.502411 178.499078 
L 345.38378 178.968315 
L 347.265149 179.399458 
L 349.146518 179.794447 
L 351.027887 180.155003 
L 352.909256 180.482651 
L 354.790625 180.77874 
L 356.671994 181.04446 
L 358.553363 181.280853 
L 360.434732 181.488829 
L 362.316101 181.669174 
L 364.19747 181.822558 
L 366.078839 181.949543 
L 367.960208 182.050591 
L 369.841577 182.126065 
L 371.722946 182.176232 
L 373.604315 182.201271 
L 375.485685 182.201271 
L 377.367054 182.176232 
L 379.248423 182.126065 
L 381.129792 182.050591 
L 383.011161 181.949543 
L 384.89253 181.822558 
L 386.773899 181.669174 
L 388.655268 181.488829 
L 390.536637 181.280853 
L 392.418006 181.04446 
L 394.299375 180.77874 
L 396.180744 180.482651 
L 398.062113 180.155003 
L 399.943482 179.794447 
L 401.824851 179.399458 
L 403.70622 178.968315 
L 405.587589 178.499078 
L 407.468958 177.989561 
L 409.350327 177.437302 
L 411.231696 176.839523 
L 413.113065 176.193087 
L 414.994434 175.494444 
L 416.875803 174.739569 
L 418.757172 173.923882 
L 420.638541 173.042158 
L 422.51991 172.088412 
L 424.401279 171.055757 
L 426.282648 169.936237 
L 428.164017 168.720605 
L 430.045386 167.398054 
L 431.926755 165.955872 
L 433.808124 164.378992 
L 435.689493 162.649416 
L 437.570862 160.745448 
L 439.452231 158.640669 
L 441.3336 156.302537 
L 443.214969 153.690457 
L 445.096338 150.753033 
L 446.977707 147.424091 
L 448.859076 143.616759 
L 450.740445 139.214345 
L 452.621814 134.055797 
L 454.503184 127.91142 
L 456.384553 120.440114 
L 458.265922 111.108814 
L 460.147291 99.027024 
L 462.02866 82.565459 
L 463.910029 58.320903 
L 465.791398 17.489582 
L 466.168538 -1 
" style="fill:none;stroke:#ff7f0e;stroke-dasharray:5.55,2.4;stroke-dashoffset:0;stroke-width:1.5;"/>
   </g>
   <g id="patch_8">
    <path d="M 279.516667 246.04 
L 279.516667 25.44 
" style="fill:none;stroke:#000000;stroke-linecap:square;stroke-linejoin:miter;stroke-width:0.8;"/>
   </g>
   <g id="patch_9">
    <path d="M 469.573333 246.04 
L 469.573333 25.44 
" style="fill:none;stroke:#000000;stroke-linecap:square;stroke-linejoin:miter;stroke-width:0.8;"/>
   </g>
   <g id="patch_10">
    <path d="M 279.516667 246.04 
L 469.573333 246.04 
" style="fill:none;stroke:#000000;stroke-linecap:square;stroke-linejoin:miter;stroke-width:0.8;"/>
   </g>
   <g id="patch_11">
    <path d="M 279.516667 25.44 
L 469.573333 25.44 
" style="fill:none;stroke:#000000;stroke-linecap:square;stroke-linejoin:miter;stroke-width:0.8;"/>
   </g>
   <g id="text_35">
    <!-- p₁(x) -->
    <defs>
     <path d="M 7.625 4.984375 
L 17.578125 4.984375 
L 17.578125 34.828125 
L 6.6875 32.828125 
L 6.6875 38.484375 
L 17.921875 40.390625 
L 24.609375 40.390625 
L 24.609375 4.984375 
L 34.625 4.984375 
L 34.625 -0.375 
L 7.625 -0.375 
z
" id="DejaVuSans-2081"/>
    </defs>
    <g transform="translate(360.097187 19.44)scale(0.12 -0.12)">
     <use xlink:href="#DejaVuSans-70"/>
     <use x="63.476562" xlink:href="#DejaVuSans-2081"/>
     <use x="103.564453" xlink:href="#DejaVuSans-28"/>
     <use x="142.578125" xlink:href="#DejaVuSans-78"/>
     <use x="201.757812" xlink:href="#DejaVuSans-29"/>
    </g>
   </g>
  </g>
  <g id="axes_3">
   <g id="patch_12">
    <path d="M 511.223333 246.04 
L 701.28 246.04 
L 701.28 25.44 
L 511.223333 25.44 
z
" style="fill:#ffffff;"/>
   </g>
   <g id="matplotlib.axis_5">
    <g id="xtick_13">
     <g id="line2d_35">
      <g>
       <use style="stroke:#000000;stroke-width:0.8;" x="511.223333" xlink:href="#m86799d5f98" y="246.04"/>
      </g>
     </g>
     <g id="text_36">
      <!-- 0.0 -->
      <g transform="translate(503.271771 260.638438)scale(0.1 -0.1)">
       <use xlink:href="#DejaVuSans-30"/>
       <use x="63.623047" xlink:href="#DejaVuSans-2e"/>
       <use x="95.410156" xlink:href="#DejaVuSans-30"/>
      </g>
     </g>
    </g>
    <g id="xtick_14">
     <g id="line2d_36">
      <g>
       <use style="stroke:#000000;stroke-width:0.8;" x="549.234667" xlink:href="#m86799d5f98" y="246.04"/>
      </g>
     </g>
     <g id="text_37">
      <!-- 0.2 -->
      <g transform="translate(541.283104 260.638438)scale(0.1 -0.1)">
       <use xlink:href="#DejaVuSans-30"/>
       <use x="63.623047" xlink:href="#DejaVuSans-2e"/>
       <use x="95.410156" xlink:href="#DejaVuSans-32"/>
      </g>
     </g>
    </g>
    <g id="xtick_15">
     <g id="line2d_37">
      <g>
       <use style="stroke:#000000;stroke-width:0.8;" x="587.246" xlink:href="#m86799d5f98" y="246.04"/>
      </g>
     </g>
     <g id="text_38">
      <!-- 0.4 -->
      <g transform="translate(579.294437 260.638438)scale(0.1 -0.1)">
       <use xlink:href="#DejaVuSans-30"/>
       <use x="63.623047" xlink:href="#DejaVuSans-2e"/>
       <use x="95.410156" xlink:href="#DejaVuSans-34"/>
      </g>
     </g>
    </g>
    <g id="xtick_16">
     <g id="line2d_38">
      <g>
       <use style="stroke:#000000;stroke-width:0.8;" x="625.257333" xlink:href="#m86799d5f98" y="246.04"/>
      </g>
     </g>
     <g id="text_39">
      <!-- 0.6 -->
      <g transform="translate(617.305771 260.638438)scale(0.1 -0.1)">
       <use xlink:href="#DejaVuSans-30"/>
       <use x="63.623047" xlink:href="#DejaVuSans-2e"/>
       <use x="95.410156" xlink:href="#DejaVuSans-36"/>
      </g>
     </g>
    </g>
    <g id="xtick_17">
     <g id="line2d_39">
      <g>
       <use style="stroke:#000000;stroke-width:0.8;" x="663.268667" xlink:href="#m86799d5f98" y="246.04"/>
      </g>
     </g>
     <g id="text_40">
      <!-- 0.8 -->
      <g transform="translate(655.317104 260.638438)scale(0.1 -0.1)">
       <use xlink:href="#DejaVuSans-30"/>
       <use x="63.623047" xlink:href="#DejaVuSans-2e"/>
       <use x="95.410156" xlink:href="#DejaVuSans-38"/>
      </g>
     </g>
    </g>
    <g id="xtick_18">
     <g id="line2d_40">
      <g>
       <use style="stroke:#000000;stroke-width:0.8;" x="701.28" xlink:href="#m86799d5f98" y="246.04"/>
      </g>
     </g>
     <g id="text_41">
      <!-- 1.0 -->
      <g transform="translate(693.328437 260.638438)scale(0.1 -0.1)">
       <use xlink:href="#DejaVuSans-31"/>
       <use x="63.623047" xlink:href="#DejaVuSans-2e"/>
       <use x="95.410156" xlink:href="#DejaVuSans-30"/>
      </g>
     </g>
    </g>
    <g id="text_42">
     <!-- x -->
     <g transform="translate(603.292292 274.316562)scale(0.1 -0.1)">
      <use xlink:href="#DejaVuSans-78"/>
     </g>
    </g>
   </g>
   <g id="matplotlib.axis_6">
    <g id="ytick_19">
     <g id="line2d_41">
      <g>
       <use style="stroke:#000000;stroke-width:0.8;" x="511.223333" xlink:href="#m8d280eff03" y="246.04"/>
      </g>
     </g>
     <g id="text_43">
      <!-- 0.0 -->
      <g transform="translate(488.320208 249.839219)scale(0.1 -0.1)">
       <use xlink:href="#DejaVuSans-30"/>
       <use x="63.623047" xlink:href="#DejaVuSans-2e"/>
       <use x="95.410156" xlink:href="#DejaVuSans-30"/>
      </g>
     </g>
    </g>
    <g id="ytick_20">
     <g id="line2d_42">
      <g>
       <use style="stroke:#000000;stroke-width:0.8;" x="511.223333" xlink:href="#m8d280eff03" y="220.971818"/>
      </g>
     </g>
     <g id="text_44">
      <!-- 0.2 -->
      <g transform="translate(488.320208 224.771037)scale(0.1 -0.1)">
       <use xlink:href="#DejaVuSans-30"/>
       <use x="63.623047" xlink:href="#DejaVuSans-2e"/>
       <use x="95.410156" xlink:href="#DejaVuSans-32"/>
      </g>
     </g>
    </g>
    <g id="ytick_21">
     <g id="line2d_43">
      <g>
       <use style="stroke:#000000;stroke-width:0.8;" x="511.223333" xlink:href="#m8d280eff03" y="195.903636"/>
      </g>
     </g>
     <g id="text_45">
      <!-- 0.5 -->
      <g transform="translate(488.320208 199.702855)scale(0.1 -0.1)">
       <use xlink:href="#DejaVuSans-30"/>
       <use x="63.623047" xlink:href="#DejaVuSans-2e"/>
       <use x="95.410156" xlink:href="#DejaVuSans-35"/>
      </g>
     </g>
    </g>
    <g id="ytick_22">
     <g id="line2d_44">
      <g>
       <use style="stroke:#000000;stroke-width:0.8;" x="511.223333" xlink:href="#m8d280eff03" y="170.835455"/>
      </g>
     </g>
     <g id="text_46">
      <!-- 0.8 -->
      <g transform="translate(488.320208 174.634673)scale(0.1 -0.1)">
       <use xlink:href="#DejaVuSans-30"/>
       <use x="63.623047" xlink:href="#DejaVuSans-2e"/>
       <use x="95.410156" xlink:href="#DejaVuSans-38"/>
      </g>
     </g>
    </g>
    <g id="ytick_23">
     <g id="line2d_45">
      <g>
       <use style="stroke:#000000;stroke-width:0.8;" x="511.223333" xlink:href="#m8d280eff03" y="145.767273"/>
      </g>
     </g>
     <g id="text_47">
      <!-- 1.0 -->
      <g transform="translate(488.320208 149.566491)scale(0.1 -0.1)">
       <use xlink:href="#DejaVuSans-31"/>
       <use x="63.623047" xlink:href="#DejaVuSans-2e"/>
       <use x="95.410156" xlink:href="#DejaVuSans-30"/>
      </g>
     </g>
    </g>
    <g id="ytick_24">
     <g id="line2d_46">
      <g>
       <use style="stroke:#000000;stroke-width:0.8;" x="511.223333" xlink:href="#m8d280eff03" y="120.699091"/>
      </g>
     </g>
     <g id="text_48">
      <!-- 1.2 -->
      <g transform="translate(488.320208 124.49831)scale(0.1 -0.1)">
       <use xlink:href="#DejaVuSans-31"/>
       <use x="63.623047" xlink:href="#DejaVuSans-2e"/>
       <use x="95.410156" xlink:href="#DejaVuSans-32"/>
      </g>
     </g>
    </g>
    <g id="ytick_25">
     <g id="line2d_47">
      <g>
       <use style="stroke:#000000;stroke-width:0.8;" x="511.223333" xlink:href="#m8d280eff03" y="95.630909"/>
      </g>
     </g>
     <g id="text_49">
      <!-- 1.5 -->
      <g transform="translate(488.320208 99.430128)scale(0.1 -0.1)">
       <use xlink:href="#DejaVuSans-31"/>
       <use x="63.623047" xlink:href="#DejaVuSans-2e"/>
       <use x="95.410156" xlink:href="#DejaVuSans-35"/>
      </g>
     </g>
    </g>
    <g id="ytick_26">
     <g id="line2d_48">
      <g>
       <use style="stroke:#000000;stroke-width:0.8;" x="511.223333" xlink:href="#m8d280eff03" y="70.562727"/>
      </g>
     </g>
     <g id="text_50">
      <!-- 1.8 -->
      <g transform="translate(488.320208 74.361946)scale(0.1 -0.1)">
       <use xlink:href="#DejaVuSans-31"/>
       <use x="63.623047" xlink:href="#DejaVuSans-2e"/>
       <use x="95.410156" xlink:href="#DejaVuSans-38"/>
      </g>
     </g>
    </g>
    <g id="ytick_27">
     <g id="line2d_49">
      <g>
       <use style="stroke:#000000;stroke-width:0.8;" x="511.223333" xlink:href="#m8d280eff03" y="45.494545"/>
      </g>
     </g>
     <g id="text_51">
      <!-- 2.0 -->
      <g transform="translate(488.320208 49.293764)scale(0.1 -0.1)">
       <use xlink:href="#DejaVuSans-32"/>
       <use x="63.623047" xlink:href="#DejaVuSans-2e"/>
       <use x="95.410156" xlink:href="#DejaVuSans-30"/>
      </g>
     </g>
    </g>
   </g>
   <g id="line2d_50">
    <path clip-path="url(#paddb977368)" d="M 513.570313 -1 
L 515.005269 54.293758 
L 516.886638 86.386974 
L 518.768007 105.437436 
L 520.649376 118.365027 
L 522.530745 127.845376 
L 524.412114 135.159735 
L 526.293483 141.008536 
L 528.174852 145.811154 
L 530.056221 149.835993 
L 531.93759 153.263828 
L 533.818959 156.221428 
L 535.700328 158.800657 
L 537.581697 161.069912 
L 539.463066 163.081293 
L 541.344435 164.875269 
L 543.225804 166.483804 
L 545.107173 167.932515 
L 546.988542 169.242197 
L 548.869911 170.429923 
L 550.75128 171.509853 
L 552.632649 172.49383 
L 554.514019 173.391846 
L 556.395388 174.212384 
L 558.276757 174.962698 
L 560.158126 175.649023 
L 562.039495 176.276744 
L 563.920864 176.850537 
L 565.802233 177.374473 
L 567.683602 177.852113 
L 569.564971 178.286576 
L 571.44634 178.680603 
L 573.327709 179.036608 
L 575.209078 179.356714 
L 577.090447 179.642794 
L 578.971816 179.896497 
L 580.853185 180.119274 
L 582.734554 180.3124 
L 584.615923 180.476988 
L 586.497292 180.614007 
L 588.378661 180.724295 
L 590.26003 180.808567 
L 592.141399 180.867426 
L 594.022768 180.901371 
L 595.904137 180.910801 
L 597.785506 180.896021 
L 599.666875 180.857248 
L 601.548244 180.794609 
L 603.429613 180.708149 
L 605.310982 180.597828 
L 607.192351 180.463522 
L 609.07372 180.305023 
L 610.955089 180.122039 
L 612.836458 179.914191 
L 614.717827 179.681006 
L 616.599196 179.421922 
L 618.480565 179.136274 
L 620.361934 178.823292 
L 622.243303 178.482096 
L 624.124672 178.111683 
L 626.006041 177.710918 
L 627.88741 177.278524 
L 629.768779 176.813069 
L 631.650148 176.312945 
L 633.531518 175.776354 
L 635.412887 175.201283 
L 637.294256 174.585481 
L 639.175625 173.926424 
L 641.056994 173.221286 
L 642.938363 172.46689 
L 644.819732 171.659663 
L 646.701101 170.795574 
L 648.58247 169.870064 
L 650.463839 168.877959 
L 652.345208 167.813367 
L 654.226577 166.669549 
L 656.107946 165.438769 
L 657.989315 164.112092 
L 659.870684 162.679151 
L 661.752053 161.127841 
L 663.633422 159.443935 
L 665.514791 157.610582 
L 667.39616 155.607669 
L 669.277529 153.410961 
L 671.158898 150.990965 
L 673.040267 148.311371 
L 674.921636 145.326896 
L 676.803005 141.980237 
L 678.684374 138.197639 
L 680.565743 133.882304 
L 682.447112 128.904254 
L 684.328481 123.084143 
L 686.20985 116.166257 
L 688.091219 107.770957 
L 689.972588 97.305099 
L 691.853957 83.778069 
L 693.735326 65.377849 
L 695.616695 38.320477 
L 697.242521 -1 
" style="fill:none;stroke:#1f77b4;stroke-linecap:square;stroke-width:1.5;"/>
   </g>
   <g id="line2d_51">
    <path clip-path="url(#paddb977368)" d="M 514.628129 -1 
L 515.005269 17.489582 
L 516.886638 58.320903 
L 518.768007 82.565459 
L 520.649376 99.027024 
L 522.530745 111.108814 
L 524.412114 120.440114 
L 526.293483 127.91142 
L 528.174852 134.055797 
L 530.056221 139.214345 
L 531.93759 143.616759 
L 533.818959 147.424091 
L 535.700328 150.753033 
L 537.581697 153.690457 
L 539.463066 156.302537 
L 541.344435 158.640669 
L 543.225804 160.745448 
L 545.107173 162.649416 
L 546.988542 164.378992 
L 548.869911 165.955872 
L 550.75128 167.398054 
L 552.632649 168.720605 
L 554.514019 169.936237 
L 556.395388 171.055757 
L 558.276757 172.088412 
L 560.158126 173.042158 
L 562.039495 173.923882 
L 563.920864 174.739569 
L 565.802233 175.494444 
L 567.683602 176.193087 
L 569.564971 176.839523 
L 571.44634 177.437302 
L 573.327709 177.989561 
L 575.209078 178.499078 
L 577.090447 178.968315 
L 578.971816 179.399458 
L 580.853185 179.794447 
L 582.734554 180.155003 
L 584.615923 180.482651 
L 586.497292 180.77874 
L 588.378661 181.04446 
L 590.26003 181.280853 
L 592.141399 181.488829 
L 594.022768 181.669174 
L 595.904137 181.822558 
L 597.785506 181.949543 
L 599.666875 182.050591 
L 601.548244 182.126065 
L 603.429613 182.176232 
L 605.310982 182.201271 
L 607.192351 182.201271 
L 609.07372 182.176232 
L 610.955089 182.126065 
L 612.836458 182.050591 
L 614.717827 181.949543 
L 616.599196 181.822558 
L 618.480565 181.669174 
L 620.361934 181.488829 
L 622.243303 181.280853 
L 624.124672 181.04446 
L 626.006041 180.77874 
L 627.88741 180.482651 
L 629.768779 180.155003 
L 631.650148 179.794447 
L 633.531518 179.399458 
L 635.412887 178.968315 
L 637.294256 178.499078 
L 639.175625 177.989561 
L 641.056994 177.437302 
L 642.938363 176.839523 
L 644.819732 176.193087 
L 646.701101 175.494444 
L 648.58247 174.739569 
L 650.463839 173.923882 
L 652.345208 173.042158 
L 654.226577 172.088412 
L 656.107946 171.055757 
L 657.989315 169.936237 
L 659.870684 168.720605 
L 661.752053 167.398054 
L 663.633422 165.955872 
L 665.514791 164.378992 
L 667.39616 162.649416 
L 669.277529 160.745448 
L 671.158898 158.640669 
L 673.040267 156.302537 
L 674.921636 153.690457 
L 676.803005 150.753033 
L 678.684374 147.424091 
L 680.565743 143.616759 
L 682.447112 139.214345 
L 684.328481 134.055797 
L 686.20985 127.91142 
L 688.091219 120.440114 
L 689.972588 111.108814 
L 691.853957 99.027024 
L 693.735326 82.565459 
L 695.616695 58.320903 
L 697.498064 17.489582 
L 697.875204 -1 
" style="fill:none;stroke:#ff7f0e;stroke-dasharray:5.55,2.4;stroke-dashoffset:0;stroke-width:1.5;"/>
   </g>
   <g id="patch_13">
    <path d="M 511.223333 246.04 
L 511.223333 25.44 
" style="fill:none;stroke:#000000;stroke-linecap:square;stroke-linejoin:miter;stroke-width:0.8;"/>
   </g>
   <g id="patch_14">
    <path d="M 701.28 246.04 
L 701.28 25.44 
" style="fill:none;stroke:#000000;stroke-linecap:square;stroke-linejoin:miter;stroke-width:0.8;"/>
   </g>
   <g id="patch_15">
    <path d="M 511.223333 246.04 
L 701.28 246.04 
" style="fill:none;stroke:#000000;stroke-linecap:square;stroke-linejoin:miter;stroke-width:0.8;"/>
   </g>
   <g id="patch_16">
    <path d="M 511.223333 25.44 
L 701.28 25.44 
" style="fill:none;stroke:#000000;stroke-linecap:square;stroke-linejoin:miter;stroke-width:0.8;"/>
   </g>
   <g id="text_52">
    <!-- p₂(x) -->
    <defs>
     <path d="M 13.09375 5.1875 
L 33.796875 5.1875 
L 33.796875 -0.375 
L 4.59375 -0.375 
L 4.59375 4.984375 
Q 6.25 6.5 9.328125 9.234375 
Q 26.125 24.125 26.125 28.71875 
Q 26.125 31.9375 23.578125 33.90625 
Q 21.046875 35.890625 16.890625 35.890625 
Q 14.359375 35.890625 11.375 35.03125 
Q 8.40625 34.1875 4.890625 32.484375 
L 4.890625 38.484375 
Q 8.640625 39.859375 11.890625 40.53125 
Q 15.140625 41.21875 17.921875 41.21875 
Q 25 41.21875 29.25 38 
Q 33.5 34.78125 33.5 29.5 
Q 33.5 22.71875 17.328125 8.84375 
Q 14.59375 6.5 13.09375 5.1875 
z
" id="DejaVuSans-2082"/>
    </defs>
    <g transform="translate(591.803854 19.44)scale(0.12 -0.12)">
     <use xlink:href="#DejaVuSans-70"/>
     <use x="63.476562" xlink:href="#DejaVuSans-2082"/>
     <use x="103.564453" xlink:href="#DejaVuSans-28"/>
     <use x="142.578125" xlink:href="#DejaVuSans-78"/>
     <use x="201.757812" xlink:href="#DejaVuSans-29"/>
    </g>
   </g>
  </g>
 </g>
 <defs>
  <clipPath id="p9bfacc4aba">
   <rect height="220.6" width="190.056667" x="47.81" y="25.44"/>
  </clipPath>
  <clipPath id="pe61087c5ef">
   <rect height="220.6" width="190.056667" x="279.516667" y="25.44"/>
  </clipPath>
  <clipPath id="paddb977368">
   <rect height="220.6" width="190.056667" x="511.223333" y="25.44"/>
  </clipPath>
 </defs>
</svg>
