<?xml version="1.0" encoding="utf-8" standalone="no"?>
<!DOCTYPE svg PUBLIC "-//W3C//DTD SVG 1.1//EN"
  "http://www.w3.org/Graphics/SVG/1.1/DTD/svg11.dtd">
<svg xmlns:xlink="http://www.w3.org/1999/xlink" width="460.8pt" height="345.6pt" viewBox="0 0 460.8 345.6" xmlns="http://www.w3.org/2000/svg" version="1.1">
 <metadata>
  <rdf:RDF xmlns:dc="http://purl.org/dc/elements/1.1/" xmlns:cc="http://creativecommons.org/ns#" xmlns:rdf="http://www.w3.org/1999/02/22-rdf-syntax-ns#">
   <cc:Work>
    <dc:type rdf:resource="http://purl.org/dc/dcmitype/StillImage"/>
    <dc:date>2026-02-21T13:40:26.243529</dc:date>
    <dc:format>image/svg+xml</dc:format>
    <dc:creator>
     <cc:Agent>
      <dc:title>Matplotlib v3.10.0, https://matplotlib.org/</dc:title>
     </cc:Agent>
    </dc:creator>
   </cc:Work>
  </rdf:RDF>
 </metadata>
 <defs>
  <style type="text/css">*{stroke-linejoin: round; stroke-linecap: butt}</style>
 </defs>
 <g id="figure_1">
  <g id="patch_1">
   <path d="M 0 345.6 
L 460.8 345.6 
L 460.8 0 
L 0 0 
z
" style="fill: #ffffff"/>
  </g>
  <g id="axes_1">
   <g id="patch_2">
    <path d="M 134.169456 226.406912 
L 158.716043 271.33914 
L 154.222821 273.793798 
L 129.676233 228.861571 
z
" clip-path="url(#pb2d061b119)" style="stroke: #000000; stroke-linejoin: miter"/>
   </g>
   <g id="patch_3">
    <path d="M 358.830592 103.673975 
L 383.377179 148.606202 
L 378.883957 151.06086 
L 354.337369 106.128633 
z
" clip-path="url(#pb2d061b119)" style="stroke: #000000; stroke-linejoin: miter"/>
   </g>
   <g id="patch_4">
    <path d="M 206.80989 186.723262 
L 204.949797 184.779688 
L 201.95161 183.651455 
L 197.921575 183.461456 
L 192.97516 184.303047 
L 187.231938 186.232609 
L 180.81111 189.264038 
L 173.827923 193.365527 
L 166.391135 198.458918 
L 158.601613 204.421691 
L 150.552071 211.09152 
L 142.327843 218.273151 
L 134.008551 225.747217 
L 125.670422 233.280474 
L 117.388982 240.636864 
L 109.241835 247.588733 
L 101.311205 253.927569 
L 93.685958 259.47359 
L 86.462849 264.08365 
L 79.746795 267.656997 
L 73.650045 270.138566 
L 68.290207 271.519646 
L 63.787178 271.835929 
L 60.259084 271.163105 
L 57.817452 269.610326 
L 56.561873 267.312004 
L 56.574475 264.418472 
L 57.914549 261.086154 
L 60.613689 257.467875 
L 64.671761 253.703928 
L 70.054018 249.914486 
L 76.689585 246.193809 
L 84.471479 242.606599 
L 93.258233 239.186703 
L 102.877117 235.938195 
L 113.128836 232.838719 
L 123.793505 229.844801 
L 134.637633 226.898744 
L 145.421775 223.936557 
L 155.908479 220.896359 
L 165.870133 217.726627 
L 175.09633 214.39367 
L 183.400384 210.8878 
L 190.6247 207.227695 
L 196.644748 203.462642 
L 201.371495 199.672434 
L 204.752228 195.964883 
L 206.769787 192.471068 
L 207.440339 189.338594 
z
" clip-path="url(#pb2d061b119)" style="fill: #0000ff; stroke: #000000; stroke-linejoin: miter"/>
   </g>
   <g id="patch_5">
    <path d="M 431.471026 63.990325 
L 429.610933 62.04675 
L 426.612746 60.918517 
L 422.582711 60.728518 
L 417.636296 61.570109 
L 411.893074 63.499671 
L 405.472245 66.5311 
L 398.489059 70.632589 
L 391.052271 75.72598 
L 383.262749 81.688753 
L 375.213207 88.358582 
L 366.988979 95.540213 
L 358.669687 103.014279 
L 350.331558 110.547537 
L 342.050118 117.903926 
L 333.902971 124.855796 
L 325.97234 131.194632 
L 318.347094 136.740652 
L 311.123985 141.350712 
L 304.407931 144.924059 
L 298.31118 147.405628 
L 292.951343 148.786709 
L 288.448314 149.102992 
L 284.92022 148.430167 
L 282.478588 146.877388 
L 281.223009 144.579066 
L 281.23561 141.685534 
L 282.575685 138.353216 
L 285.274825 134.734937 
L 289.332897 130.97099 
L 294.715154 127.181548 
L 301.350721 123.460872 
L 309.132615 119.873661 
L 317.919368 116.453765 
L 327.538253 113.205257 
L 337.789972 110.105781 
L 348.454641 107.111863 
L 359.298769 104.165806 
L 370.082911 101.203619 
L 380.569615 98.163421 
L 390.531269 94.993689 
L 399.757466 91.660733 
L 408.06152 88.154862 
L 415.285836 84.494757 
L 421.305883 80.729704 
L 426.032631 76.939496 
L 429.413364 73.231945 
L 431.430923 69.73813 
L 432.101475 66.605656 
z
" clip-path="url(#pb2d061b119)" style="fill: #0000ff; stroke: #000000; stroke-linejoin: miter"/>
   </g>
   <g id="patch_6">
    <path d="M 397.460035 126.32718 
L 127.866672 273.606706 
L 140.139965 296.07282 
L 409.733328 148.793294 
z
" clip-path="url(#pb2d061b119)" style="fill: #999999; stroke: #000000; stroke-linejoin: miter"/>
   </g>
   <g id="patch_7">
    <path d="M 320.991428 39.749574 
L 338.777227 56.287089 
L 334.284004 58.741747 
L 383.377179 148.606202 
L 378.883957 151.06086 
L 329.790781 61.196406 
L 325.297559 63.651065 
z
" clip-path="url(#pb2d061b119)" style="fill: #993333; stroke: #993333; stroke-linejoin: miter"/>
   </g>
   <g id="patch_8">
    <path d="M 96.330293 162.482512 
L 114.116091 179.020026 
L 109.622868 181.474685 
L 158.716043 271.33914 
L 154.222821 273.793798 
L 105.129646 183.929344 
L 100.636423 186.384003 
z
" clip-path="url(#pb2d061b119)" style="fill: #993333; stroke: #993333; stroke-linejoin: miter"/>
   </g>
   <g id="patch_9">
    <path d="M 12.8 222.72 
L 8.96 211.2 
L 11.52 211.2 
L 11.52 57.6 
L 14.08 57.6 
L 14.08 211.2 
L 16.64 211.2 
z
" clip-path="url(#pb2d061b119)" style="stroke: #000000; stroke-linejoin: miter"/>
   </g>
   <g id="line2d_1">
    <path d="M 268.8 211.2 
L 460.8 211.2 
" clip-path="url(#pb2d061b119)" style="fill: none; stroke: #000000; stroke-linecap: square"/>
   </g>
   <g id="line2d_2">
    <path d="M 268.8 211.2 
L 437.295852 119.150297 
" clip-path="url(#pb2d061b119)" style="fill: none; stroke: #000000; stroke-linecap: square"/>
   </g>
   <g id="line2d_3">
    <path d="M 364.8 211.2 
L 364.779167 209.200145 
L 364.716679 207.201157 
L 364.612561 205.203905 
L 364.46686 203.209256 
L 364.279637 201.218075 
L 364.050976 199.231226 
L 363.780975 197.249571 
L 363.46975 195.273971 
L 363.117438 193.305284 
L 362.724191 191.344362 
L 362.29018 189.392059 
L 361.815592 187.44922 
L 361.300635 185.516689 
L 360.745532 183.595306 
L 360.150523 181.685903 
L 359.515867 179.789309 
L 358.841839 177.906348 
L 358.128732 176.037837 
L 357.376855 174.184587 
L 356.586534 172.347402 
L 355.758114 170.527079 
L 354.891952 168.724409 
L 353.988425 166.940174 
L 353.047926 165.175148 
" clip-path="url(#pb2d061b119)" style="fill: none; stroke: #000000; stroke-linecap: square"/>
   </g>
   <g id="patch_10">
    <path d="M 310.357724 266.161422 
Q 290.181277 239.477423 270.67914 213.685223 
" style="fill: none; stroke: #000000; stroke-linecap: round"/>
    <path d="M 272.640402 224.237638 
L 270.67914 213.685223 
L 280.297829 218.447663 
" style="fill: none; stroke: #000000; stroke-linecap: round"/>
   </g>
   <g id="text_1">
    <!-- ($x$,$y$) -->
    <g transform="translate(294.4 288) scale(0.24 -0.24)">
     <defs>
      <path id="DejaVuSans-28" d="M 1984 4856 
Q 1566 4138 1362 3434 
Q 1159 2731 1159 2009 
Q 1159 1288 1364 580 
Q 1569 -128 1984 -844 
L 1484 -844 
Q 1016 -109 783 600 
Q 550 1309 550 2009 
Q 550 2706 781 3412 
Q 1013 4119 1484 4856 
L 1984 4856 
z
" transform="scale(0.015625)"/>
      <path id="DejaVuSans-Oblique-78" d="M 3841 3500 
L 2234 1784 
L 3219 0 
L 2559 0 
L 1819 1388 
L 531 0 
L -166 0 
L 1556 1844 
L 641 3500 
L 1300 3500 
L 1972 2234 
L 3144 3500 
L 3841 3500 
z
" transform="scale(0.015625)"/>
      <path id="DejaVuSans-2c" d="M 750 794 
L 1409 794 
L 1409 256 
L 897 -744 
L 494 -744 
L 750 256 
L 750 794 
z
" transform="scale(0.015625)"/>
      <path id="DejaVuSans-Oblique-79" d="M 1588 -325 
Q 1188 -997 936 -1164 
Q 684 -1331 294 -1331 
L -159 -1331 
L -63 -850 
L 269 -850 
Q 509 -850 678 -719 
Q 847 -588 1056 -206 
L 1234 128 
L 459 3500 
L 1069 3500 
L 1650 819 
L 3256 3500 
L 3859 3500 
L 1588 -325 
z
" transform="scale(0.015625)"/>
      <path id="DejaVuSans-29" d="M 513 4856 
L 1013 4856 
Q 1481 4119 1714 3412 
Q 1947 2706 1947 2009 
Q 1947 1309 1714 600 
Q 1481 -109 1013 -844 
L 513 -844 
Q 928 -128 1133 580 
Q 1338 1288 1338 2009 
Q 1338 2731 1133 3434 
Q 928 4138 513 4856 
z
" transform="scale(0.015625)"/>
     </defs>
     <use xlink:href="#DejaVuSans-28" transform="translate(0 0.125)"/>
     <use xlink:href="#DejaVuSans-Oblique-78" transform="translate(39.013672 0.125)"/>
     <use xlink:href="#DejaVuSans-2c" transform="translate(98.193359 0.125)"/>
     <use xlink:href="#DejaVuSans-Oblique-79" transform="translate(129.980469 0.125)"/>
     <use xlink:href="#DejaVuSans-29" transform="translate(189.160156 0.125)"/>
    </g>
   </g>
   <g id="text_2">
    <!-- $\theta$ -->
    <g transform="translate(368.016632 201.225835) scale(0.24 -0.24)">
     <defs>
      <path id="DejaVuSans-Oblique-3b8" d="M 2913 2219 
L 925 2219 
Q 791 1284 928 888 
Q 1100 400 1566 400 
Q 2034 400 2391 891 
Q 2703 1322 2913 2219 
z
M 3009 2750 
Q 3094 3638 2984 3950 
Q 2813 4444 2353 4444 
Q 1875 4444 1525 3956 
Q 1250 3563 1034 2750 
L 3009 2750 
z
M 2444 4913 
Q 3194 4913 3494 4250 
Q 3794 3591 3566 2422 
Q 3341 1256 2781 594 
Q 2225 -72 1475 -72 
Q 722 -72 425 594 
Q 128 1256 353 2422 
Q 581 3591 1134 4250 
Q 1691 4913 2444 4913 
z
" transform="scale(0.015625)"/>
     </defs>
     <use xlink:href="#DejaVuSans-Oblique-3b8" transform="translate(0 0.234375)"/>
    </g>
   </g>
   <g id="text_3">
    <!-- $u_1$ -->
    <g transform="translate(342.277393 49.729077) scale(0.24 -0.24)">
     <defs>
      <path id="DejaVuSans-Oblique-75" d="M 428 1388 
L 838 3500 
L 1416 3500 
L 1006 1409 
Q 975 1256 961 1147 
Q 947 1038 947 966 
Q 947 700 1109 554 
Q 1272 409 1569 409 
Q 2031 409 2368 721 
Q 2706 1034 2809 1563 
L 3194 3500 
L 3769 3500 
L 3091 0 
L 2516 0 
L 2631 550 
Q 2388 244 2052 76 
Q 1716 -91 1338 -91 
Q 878 -91 622 161 
Q 366 413 366 863 
Q 366 956 381 1097 
Q 397 1238 428 1388 
z
" transform="scale(0.015625)"/>
      <path id="DejaVuSans-31" d="M 794 531 
L 1825 531 
L 1825 4091 
L 703 3866 
L 703 4441 
L 1819 4666 
L 2450 4666 
L 2450 531 
L 3481 531 
L 3481 0 
L 794 0 
L 794 531 
z
" transform="scale(0.015625)"/>
     </defs>
     <use xlink:href="#DejaVuSans-Oblique-75" transform="translate(0 0.3125)"/>
     <use xlink:href="#DejaVuSans-31" transform="translate(63.378906 -16.09375) scale(0.7)"/>
    </g>
   </g>
   <g id="text_4">
    <!-- $u_2$ -->
    <g transform="translate(117.616257 172.462015) scale(0.24 -0.24)">
     <defs>
      <path id="DejaVuSans-32" d="M 1228 531 
L 3431 531 
L 3431 0 
L 469 0 
L 469 531 
Q 828 903 1448 1529 
Q 2069 2156 2228 2338 
Q 2531 2678 2651 2914 
Q 2772 3150 2772 3378 
Q 2772 3750 2511 3984 
Q 2250 4219 1831 4219 
Q 1534 4219 1204 4116 
Q 875 4013 500 3803 
L 500 4441 
Q 881 4594 1212 4672 
Q 1544 4750 1819 4750 
Q 2544 4750 2975 4387 
Q 3406 4025 3406 3419 
Q 3406 3131 3298 2873 
Q 3191 2616 2906 2266 
Q 2828 2175 2409 1742 
Q 1991 1309 1228 531 
z
" transform="scale(0.015625)"/>
     </defs>
     <use xlink:href="#DejaVuSans-Oblique-75" transform="translate(0 0.3125)"/>
     <use xlink:href="#DejaVuSans-32" transform="translate(63.378906 -16.09375) scale(0.7)"/>
    </g>
   </g>
   <g id="text_5">
    <!-- $g$ -->
    <g transform="translate(25.6 108.8) scale(0.24 -0.24)">
     <defs>
      <path id="DejaVuSans-Oblique-67" d="M 3816 3500 
L 3219 434 
Q 3047 -456 2561 -893 
Q 2075 -1331 1253 -1331 
Q 950 -1331 690 -1286 
Q 431 -1241 206 -1147 
L 313 -588 
Q 525 -725 762 -790 
Q 1000 -856 1269 -856 
Q 1816 -856 2167 -557 
Q 2519 -259 2631 300 
L 2681 563 
Q 2441 288 2122 144 
Q 1803 0 1434 0 
Q 903 0 598 351 
Q 294 703 294 1319 
Q 294 1803 478 2267 
Q 663 2731 997 3091 
Q 1219 3328 1514 3456 
Q 1809 3584 2131 3584 
Q 2484 3584 2746 3420 
Q 3009 3256 3138 2956 
L 3238 3500 
L 3816 3500 
z
M 2950 2216 
Q 2950 2641 2750 2872 
Q 2550 3103 2181 3103 
Q 1953 3103 1747 3012 
Q 1541 2922 1394 2759 
Q 1156 2491 1023 2127 
Q 891 1763 891 1375 
Q 891 944 1092 712 
Q 1294 481 1672 481 
Q 2219 481 2584 976 
Q 2950 1472 2950 2216 
z
" transform="scale(0.015625)"/>
     </defs>
     <use xlink:href="#DejaVuSans-Oblique-67"/>
    </g>
   </g>
  </g>
 </g>
 <defs>
  <clipPath id="pb2d061b119">
   <rect x="0" y="0" width="460.8" height="345.6"/>
  </clipPath>
 </defs>
</svg>
