<?xml version="1.0" encoding="utf-8" standalone="no"?>
<!DOCTYPE svg PUBLIC "-//W3C//DTD SVG 1.1//EN"
  "http://www.w3.org/Graphics/SVG/1.1/DTD/svg11.dtd">
<!-- Created with matplotlib (https://matplotlib.org/) -->
<svg height="345.6pt" version="1.1" viewBox="0 0 460.8 345.6" width="460.8pt" xmlns="http://www.w3.org/2000/svg" xmlns:xlink="http://www.w3.org/1999/xlink">
 <defs>
  <style type="text/css">
*{stroke-linecap:butt;stroke-linejoin:round;}
  </style>
 </defs>
 <g id="figure_1">
  <g id="patch_1">
   <path d="M 0 345.6 
L 460.8 345.6 
L 460.8 0 
L 0 0 
z
" style="fill:#ffffff;"/>
  </g>
  <g id="axes_1">
   <g id="patch_2">
    <path d="M 57.6 307.584 
L 414.72 307.584 
L 414.72 41.472 
L 57.6 41.472 
z
" style="fill:#ffffff;"/>
   </g>
   <g id="matplotlib.axis_1">
    <g id="xtick_1">
     <g id="line2d_1">
      <defs>
       <path d="M 0 0 
L 0 3.5 
" id="m01f30d5b4d" style="stroke:#000000;stroke-width:0.8;"/>
      </defs>
      <g>
       <use style="stroke:#000000;stroke-width:0.8;" x="62.202298" xlink:href="#m01f30d5b4d" y="307.584"/>
      </g>
     </g>
     <g id="text_1">
      <!-- −0.4 -->
      <defs>
       <path d="M 10.59375 35.5 
L 73.1875 35.5 
L 73.1875 27.203125 
L 10.59375 27.203125 
z
" id="DejaVuSans-8722"/>
       <path d="M 31.78125 66.40625 
Q 24.171875 66.40625 20.328125 58.90625 
Q 16.5 51.421875 16.5 36.375 
Q 16.5 21.390625 20.328125 13.890625 
Q 24.171875 6.390625 31.78125 6.390625 
Q 39.453125 6.390625 43.28125 13.890625 
Q 47.125 21.390625 47.125 36.375 
Q 47.125 51.421875 43.28125 58.90625 
Q 39.453125 66.40625 31.78125 66.40625 
z
M 31.78125 74.21875 
Q 44.046875 74.21875 50.515625 64.515625 
Q 56.984375 54.828125 56.984375 36.375 
Q 56.984375 17.96875 50.515625 8.265625 
Q 44.046875 -1.421875 31.78125 -1.421875 
Q 19.53125 -1.421875 13.0625 8.265625 
Q 6.59375 17.96875 6.59375 36.375 
Q 6.59375 54.828125 13.0625 64.515625 
Q 19.53125 74.21875 31.78125 74.21875 
z
" id="DejaVuSans-48"/>
       <path d="M 10.6875 12.40625 
L 21 12.40625 
L 21 0 
L 10.6875 0 
z
" id="DejaVuSans-46"/>
       <path d="M 37.796875 64.3125 
L 12.890625 25.390625 
L 37.796875 25.390625 
z
M 35.203125 72.90625 
L 47.609375 72.90625 
L 47.609375 25.390625 
L 58.015625 25.390625 
L 58.015625 17.1875 
L 47.609375 17.1875 
L 47.609375 0 
L 37.796875 0 
L 37.796875 17.1875 
L 4.890625 17.1875 
L 4.890625 26.703125 
z
" id="DejaVuSans-52"/>
      </defs>
      <g transform="translate(50.060892 322.182437)scale(0.1 -0.1)">
       <use xlink:href="#DejaVuSans-8722"/>
       <use x="83.789062" xlink:href="#DejaVuSans-48"/>
       <use x="147.412109" xlink:href="#DejaVuSans-46"/>
       <use x="179.199219" xlink:href="#DejaVuSans-52"/>
      </g>
     </g>
    </g>
    <g id="xtick_2">
     <g id="line2d_2">
      <g>
       <use style="stroke:#000000;stroke-width:0.8;" x="134.684674" xlink:href="#m01f30d5b4d" y="307.584"/>
      </g>
     </g>
     <g id="text_2">
      <!-- −0.2 -->
      <defs>
       <path d="M 19.1875 8.296875 
L 53.609375 8.296875 
L 53.609375 0 
L 7.328125 0 
L 7.328125 8.296875 
Q 12.9375 14.109375 22.625 23.890625 
Q 32.328125 33.6875 34.8125 36.53125 
Q 39.546875 41.84375 41.421875 45.53125 
Q 43.3125 49.21875 43.3125 52.78125 
Q 43.3125 58.59375 39.234375 62.25 
Q 35.15625 65.921875 28.609375 65.921875 
Q 23.96875 65.921875 18.8125 64.3125 
Q 13.671875 62.703125 7.8125 59.421875 
L 7.8125 69.390625 
Q 13.765625 71.78125 18.9375 73 
Q 24.125 74.21875 28.421875 74.21875 
Q 39.75 74.21875 46.484375 68.546875 
Q 53.21875 62.890625 53.21875 53.421875 
Q 53.21875 48.921875 51.53125 44.890625 
Q 49.859375 40.875 45.40625 35.40625 
Q 44.1875 33.984375 37.640625 27.21875 
Q 31.109375 20.453125 19.1875 8.296875 
z
" id="DejaVuSans-50"/>
      </defs>
      <g transform="translate(122.543268 322.182437)scale(0.1 -0.1)">
       <use xlink:href="#DejaVuSans-8722"/>
       <use x="83.789062" xlink:href="#DejaVuSans-48"/>
       <use x="147.412109" xlink:href="#DejaVuSans-46"/>
       <use x="179.199219" xlink:href="#DejaVuSans-50"/>
      </g>
     </g>
    </g>
    <g id="xtick_3">
     <g id="line2d_3">
      <g>
       <use style="stroke:#000000;stroke-width:0.8;" x="207.16705" xlink:href="#m01f30d5b4d" y="307.584"/>
      </g>
     </g>
     <g id="text_3">
      <!-- 0.0 -->
      <g transform="translate(199.215487 322.182437)scale(0.1 -0.1)">
       <use xlink:href="#DejaVuSans-48"/>
       <use x="63.623047" xlink:href="#DejaVuSans-46"/>
       <use x="95.410156" xlink:href="#DejaVuSans-48"/>
      </g>
     </g>
    </g>
    <g id="xtick_4">
     <g id="line2d_4">
      <g>
       <use style="stroke:#000000;stroke-width:0.8;" x="279.649425" xlink:href="#m01f30d5b4d" y="307.584"/>
      </g>
     </g>
     <g id="text_4">
      <!-- 0.2 -->
      <g transform="translate(271.697863 322.182437)scale(0.1 -0.1)">
       <use xlink:href="#DejaVuSans-48"/>
       <use x="63.623047" xlink:href="#DejaVuSans-46"/>
       <use x="95.410156" xlink:href="#DejaVuSans-50"/>
      </g>
     </g>
    </g>
    <g id="xtick_5">
     <g id="line2d_5">
      <g>
       <use style="stroke:#000000;stroke-width:0.8;" x="352.131801" xlink:href="#m01f30d5b4d" y="307.584"/>
      </g>
     </g>
     <g id="text_5">
      <!-- 0.4 -->
      <g transform="translate(344.180239 322.182437)scale(0.1 -0.1)">
       <use xlink:href="#DejaVuSans-48"/>
       <use x="63.623047" xlink:href="#DejaVuSans-46"/>
       <use x="95.410156" xlink:href="#DejaVuSans-52"/>
      </g>
     </g>
    </g>
    <g id="text_6">
     <!-- theta -->
     <defs>
      <path d="M 18.3125 70.21875 
L 18.3125 54.6875 
L 36.8125 54.6875 
L 36.8125 47.703125 
L 18.3125 47.703125 
L 18.3125 18.015625 
Q 18.3125 11.328125 20.140625 9.421875 
Q 21.96875 7.515625 27.59375 7.515625 
L 36.8125 7.515625 
L 36.8125 0 
L 27.59375 0 
Q 17.1875 0 13.234375 3.875 
Q 9.28125 7.765625 9.28125 18.015625 
L 9.28125 47.703125 
L 2.6875 47.703125 
L 2.6875 54.6875 
L 9.28125 54.6875 
L 9.28125 70.21875 
z
" id="DejaVuSans-116"/>
      <path d="M 54.890625 33.015625 
L 54.890625 0 
L 45.90625 0 
L 45.90625 32.71875 
Q 45.90625 40.484375 42.875 44.328125 
Q 39.84375 48.1875 33.796875 48.1875 
Q 26.515625 48.1875 22.3125 43.546875 
Q 18.109375 38.921875 18.109375 30.90625 
L 18.109375 0 
L 9.078125 0 
L 9.078125 75.984375 
L 18.109375 75.984375 
L 18.109375 46.1875 
Q 21.34375 51.125 25.703125 53.5625 
Q 30.078125 56 35.796875 56 
Q 45.21875 56 50.046875 50.171875 
Q 54.890625 44.34375 54.890625 33.015625 
z
" id="DejaVuSans-104"/>
      <path d="M 56.203125 29.59375 
L 56.203125 25.203125 
L 14.890625 25.203125 
Q 15.484375 15.921875 20.484375 11.0625 
Q 25.484375 6.203125 34.421875 6.203125 
Q 39.59375 6.203125 44.453125 7.46875 
Q 49.3125 8.734375 54.109375 11.28125 
L 54.109375 2.78125 
Q 49.265625 0.734375 44.1875 -0.34375 
Q 39.109375 -1.421875 33.890625 -1.421875 
Q 20.796875 -1.421875 13.15625 6.1875 
Q 5.515625 13.8125 5.515625 26.8125 
Q 5.515625 40.234375 12.765625 48.109375 
Q 20.015625 56 32.328125 56 
Q 43.359375 56 49.78125 48.890625 
Q 56.203125 41.796875 56.203125 29.59375 
z
M 47.21875 32.234375 
Q 47.125 39.59375 43.09375 43.984375 
Q 39.0625 48.390625 32.421875 48.390625 
Q 24.90625 48.390625 20.390625 44.140625 
Q 15.875 39.890625 15.1875 32.171875 
z
" id="DejaVuSans-101"/>
      <path d="M 34.28125 27.484375 
Q 23.390625 27.484375 19.1875 25 
Q 14.984375 22.515625 14.984375 16.5 
Q 14.984375 11.71875 18.140625 8.90625 
Q 21.296875 6.109375 26.703125 6.109375 
Q 34.1875 6.109375 38.703125 11.40625 
Q 43.21875 16.703125 43.21875 25.484375 
L 43.21875 27.484375 
z
M 52.203125 31.203125 
L 52.203125 0 
L 43.21875 0 
L 43.21875 8.296875 
Q 40.140625 3.328125 35.546875 0.953125 
Q 30.953125 -1.421875 24.3125 -1.421875 
Q 15.921875 -1.421875 10.953125 3.296875 
Q 6 8.015625 6 15.921875 
Q 6 25.140625 12.171875 29.828125 
Q 18.359375 34.515625 30.609375 34.515625 
L 43.21875 34.515625 
L 43.21875 35.40625 
Q 43.21875 41.609375 39.140625 45 
Q 35.0625 48.390625 27.6875 48.390625 
Q 23 48.390625 18.546875 47.265625 
Q 14.109375 46.140625 10.015625 43.890625 
L 10.015625 52.203125 
Q 14.9375 54.109375 19.578125 55.046875 
Q 24.21875 56 28.609375 56 
Q 40.484375 56 46.34375 49.84375 
Q 52.203125 43.703125 52.203125 31.203125 
z
" id="DejaVuSans-97"/>
     </defs>
     <g transform="translate(222.930312 335.860562)scale(0.1 -0.1)">
      <use xlink:href="#DejaVuSans-116"/>
      <use x="39.208984" xlink:href="#DejaVuSans-104"/>
      <use x="102.587891" xlink:href="#DejaVuSans-101"/>
      <use x="164.111328" xlink:href="#DejaVuSans-116"/>
      <use x="203.320312" xlink:href="#DejaVuSans-97"/>
     </g>
    </g>
   </g>
   <g id="matplotlib.axis_2">
    <g id="ytick_1">
     <g id="line2d_6">
      <defs>
       <path d="M 0 0 
L -3.5 0 
" id="mccff740697" style="stroke:#000000;stroke-width:0.8;"/>
      </defs>
      <g>
       <use style="stroke:#000000;stroke-width:0.8;" x="57.6" xlink:href="#mccff740697" y="307.584"/>
      </g>
     </g>
     <g id="text_7">
      <!-- −2.0 -->
      <g transform="translate(26.317187 311.383219)scale(0.1 -0.1)">
       <use xlink:href="#DejaVuSans-8722"/>
       <use x="83.789062" xlink:href="#DejaVuSans-50"/>
       <use x="147.412109" xlink:href="#DejaVuSans-46"/>
       <use x="179.199219" xlink:href="#DejaVuSans-48"/>
      </g>
     </g>
    </g>
    <g id="ytick_2">
     <g id="line2d_7">
      <g>
       <use style="stroke:#000000;stroke-width:0.8;" x="57.6" xlink:href="#mccff740697" y="274.32"/>
      </g>
     </g>
     <g id="text_8">
      <!-- −1.5 -->
      <defs>
       <path d="M 12.40625 8.296875 
L 28.515625 8.296875 
L 28.515625 63.921875 
L 10.984375 60.40625 
L 10.984375 69.390625 
L 28.421875 72.90625 
L 38.28125 72.90625 
L 38.28125 8.296875 
L 54.390625 8.296875 
L 54.390625 0 
L 12.40625 0 
z
" id="DejaVuSans-49"/>
       <path d="M 10.796875 72.90625 
L 49.515625 72.90625 
L 49.515625 64.59375 
L 19.828125 64.59375 
L 19.828125 46.734375 
Q 21.96875 47.46875 24.109375 47.828125 
Q 26.265625 48.1875 28.421875 48.1875 
Q 40.625 48.1875 47.75 41.5 
Q 54.890625 34.8125 54.890625 23.390625 
Q 54.890625 11.625 47.5625 5.09375 
Q 40.234375 -1.421875 26.90625 -1.421875 
Q 22.3125 -1.421875 17.546875 -0.640625 
Q 12.796875 0.140625 7.71875 1.703125 
L 7.71875 11.625 
Q 12.109375 9.234375 16.796875 8.0625 
Q 21.484375 6.890625 26.703125 6.890625 
Q 35.15625 6.890625 40.078125 11.328125 
Q 45.015625 15.765625 45.015625 23.390625 
Q 45.015625 31 40.078125 35.4375 
Q 35.15625 39.890625 26.703125 39.890625 
Q 22.75 39.890625 18.8125 39.015625 
Q 14.890625 38.140625 10.796875 36.28125 
z
" id="DejaVuSans-53"/>
      </defs>
      <g transform="translate(26.317187 278.119219)scale(0.1 -0.1)">
       <use xlink:href="#DejaVuSans-8722"/>
       <use x="83.789062" xlink:href="#DejaVuSans-49"/>
       <use x="147.412109" xlink:href="#DejaVuSans-46"/>
       <use x="179.199219" xlink:href="#DejaVuSans-53"/>
      </g>
     </g>
    </g>
    <g id="ytick_3">
     <g id="line2d_8">
      <g>
       <use style="stroke:#000000;stroke-width:0.8;" x="57.6" xlink:href="#mccff740697" y="241.056"/>
      </g>
     </g>
     <g id="text_9">
      <!-- −1.0 -->
      <g transform="translate(26.317187 244.855219)scale(0.1 -0.1)">
       <use xlink:href="#DejaVuSans-8722"/>
       <use x="83.789062" xlink:href="#DejaVuSans-49"/>
       <use x="147.412109" xlink:href="#DejaVuSans-46"/>
       <use x="179.199219" xlink:href="#DejaVuSans-48"/>
      </g>
     </g>
    </g>
    <g id="ytick_4">
     <g id="line2d_9">
      <g>
       <use style="stroke:#000000;stroke-width:0.8;" x="57.6" xlink:href="#mccff740697" y="207.792"/>
      </g>
     </g>
     <g id="text_10">
      <!-- −0.5 -->
      <g transform="translate(26.317187 211.591219)scale(0.1 -0.1)">
       <use xlink:href="#DejaVuSans-8722"/>
       <use x="83.789062" xlink:href="#DejaVuSans-48"/>
       <use x="147.412109" xlink:href="#DejaVuSans-46"/>
       <use x="179.199219" xlink:href="#DejaVuSans-53"/>
      </g>
     </g>
    </g>
    <g id="ytick_5">
     <g id="line2d_10">
      <g>
       <use style="stroke:#000000;stroke-width:0.8;" x="57.6" xlink:href="#mccff740697" y="174.528"/>
      </g>
     </g>
     <g id="text_11">
      <!-- 0.0 -->
      <g transform="translate(34.696875 178.327219)scale(0.1 -0.1)">
       <use xlink:href="#DejaVuSans-48"/>
       <use x="63.623047" xlink:href="#DejaVuSans-46"/>
       <use x="95.410156" xlink:href="#DejaVuSans-48"/>
      </g>
     </g>
    </g>
    <g id="ytick_6">
     <g id="line2d_11">
      <g>
       <use style="stroke:#000000;stroke-width:0.8;" x="57.6" xlink:href="#mccff740697" y="141.264"/>
      </g>
     </g>
     <g id="text_12">
      <!-- 0.5 -->
      <g transform="translate(34.696875 145.063219)scale(0.1 -0.1)">
       <use xlink:href="#DejaVuSans-48"/>
       <use x="63.623047" xlink:href="#DejaVuSans-46"/>
       <use x="95.410156" xlink:href="#DejaVuSans-53"/>
      </g>
     </g>
    </g>
    <g id="ytick_7">
     <g id="line2d_12">
      <g>
       <use style="stroke:#000000;stroke-width:0.8;" x="57.6" xlink:href="#mccff740697" y="108"/>
      </g>
     </g>
     <g id="text_13">
      <!-- 1.0 -->
      <g transform="translate(34.696875 111.799219)scale(0.1 -0.1)">
       <use xlink:href="#DejaVuSans-49"/>
       <use x="63.623047" xlink:href="#DejaVuSans-46"/>
       <use x="95.410156" xlink:href="#DejaVuSans-48"/>
      </g>
     </g>
    </g>
    <g id="ytick_8">
     <g id="line2d_13">
      <g>
       <use style="stroke:#000000;stroke-width:0.8;" x="57.6" xlink:href="#mccff740697" y="74.736"/>
      </g>
     </g>
     <g id="text_14">
      <!-- 1.5 -->
      <g transform="translate(34.696875 78.535219)scale(0.1 -0.1)">
       <use xlink:href="#DejaVuSans-49"/>
       <use x="63.623047" xlink:href="#DejaVuSans-46"/>
       <use x="95.410156" xlink:href="#DejaVuSans-53"/>
      </g>
     </g>
    </g>
    <g id="ytick_9">
     <g id="line2d_14">
      <g>
       <use style="stroke:#000000;stroke-width:0.8;" x="57.6" xlink:href="#mccff740697" y="41.472"/>
      </g>
     </g>
     <g id="text_15">
      <!-- 2.0 -->
      <g transform="translate(34.696875 45.271219)scale(0.1 -0.1)">
       <use xlink:href="#DejaVuSans-50"/>
       <use x="63.623047" xlink:href="#DejaVuSans-46"/>
       <use x="95.410156" xlink:href="#DejaVuSans-48"/>
      </g>
     </g>
    </g>
    <g id="text_16">
     <!-- thetadot -->
     <defs>
      <path d="M 45.40625 46.390625 
L 45.40625 75.984375 
L 54.390625 75.984375 
L 54.390625 0 
L 45.40625 0 
L 45.40625 8.203125 
Q 42.578125 3.328125 38.25 0.953125 
Q 33.9375 -1.421875 27.875 -1.421875 
Q 17.96875 -1.421875 11.734375 6.484375 
Q 5.515625 14.40625 5.515625 27.296875 
Q 5.515625 40.1875 11.734375 48.09375 
Q 17.96875 56 27.875 56 
Q 33.9375 56 38.25 53.625 
Q 42.578125 51.265625 45.40625 46.390625 
z
M 14.796875 27.296875 
Q 14.796875 17.390625 18.875 11.75 
Q 22.953125 6.109375 30.078125 6.109375 
Q 37.203125 6.109375 41.296875 11.75 
Q 45.40625 17.390625 45.40625 27.296875 
Q 45.40625 37.203125 41.296875 42.84375 
Q 37.203125 48.484375 30.078125 48.484375 
Q 22.953125 48.484375 18.875 42.84375 
Q 14.796875 37.203125 14.796875 27.296875 
z
" id="DejaVuSans-100"/>
      <path d="M 30.609375 48.390625 
Q 23.390625 48.390625 19.1875 42.75 
Q 14.984375 37.109375 14.984375 27.296875 
Q 14.984375 17.484375 19.15625 11.84375 
Q 23.34375 6.203125 30.609375 6.203125 
Q 37.796875 6.203125 41.984375 11.859375 
Q 46.1875 17.53125 46.1875 27.296875 
Q 46.1875 37.015625 41.984375 42.703125 
Q 37.796875 48.390625 30.609375 48.390625 
z
M 30.609375 56 
Q 42.328125 56 49.015625 48.375 
Q 55.71875 40.765625 55.71875 27.296875 
Q 55.71875 13.875 49.015625 6.21875 
Q 42.328125 -1.421875 30.609375 -1.421875 
Q 18.84375 -1.421875 12.171875 6.21875 
Q 5.515625 13.875 5.515625 27.296875 
Q 5.515625 40.765625 12.171875 48.375 
Q 18.84375 56 30.609375 56 
z
" id="DejaVuSans-111"/>
     </defs>
     <g transform="translate(20.2375 195.951437)rotate(-90)scale(0.1 -0.1)">
      <use xlink:href="#DejaVuSans-116"/>
      <use x="39.208984" xlink:href="#DejaVuSans-104"/>
      <use x="102.587891" xlink:href="#DejaVuSans-101"/>
      <use x="164.111328" xlink:href="#DejaVuSans-116"/>
      <use x="203.320312" xlink:href="#DejaVuSans-97"/>
      <use x="264.599609" xlink:href="#DejaVuSans-100"/>
      <use x="328.076172" xlink:href="#DejaVuSans-111"/>
      <use x="389.257812" xlink:href="#DejaVuSans-116"/>
     </g>
    </g>
   </g>
   <g id="LineCollection_1"/>
   <g id="LineCollection_2">
    <path clip-path="url(#pf9add8d416)" d="M 414.72 222.058164 
L 413.698033 220.65408 
L 412.455491 218.88 
L 412.3392 218.707185 
L 411.25048 217.10592 
L 410.093494 215.33184 
L 409.9584 215.115486 
L 408.975486 213.55776 
L 407.905806 211.78368 
L 407.5776 211.212793 
L 406.878477 210.0096 
L 405.897921 208.23552 
L 405.1968 206.898443 
L 404.965161 206.46144 
L 404.075618 204.68736 
L 403.236906 202.91328 
L 402.816 201.965521 
L 402.44498 201.1392 
L 401.699806 199.36512 
L 401.006022 197.59104 
L 400.4352 196.014612 
L 400.36283 195.81696 
L 399.765216 194.04288 
L 399.219568 192.2688 
L 398.725887 190.49472 
L 398.284172 188.72064 
L 398.0544 187.67475 
L 397.892606 186.94656 
L 397.550987 185.17248 
L 397.261924 183.3984 
L 397.025418 181.62432 
L 396.841469 179.85024 
L 396.710077 178.07616 
L 396.631242 176.30208 
L 396.604964 174.528 
L 396.631242 172.75392 
L 396.710077 170.97984 
L 396.841469 169.20576 
L 397.025418 167.43168 
L 397.261924 165.6576 
L 397.550987 163.88352 
L 397.892606 162.10944 
L 398.0544 161.38125 
L 398.284172 160.33536 
L 398.725887 158.56128 
L 399.219568 156.7872 
L 399.765216 155.01312 
L 400.36283 153.23904 
L 400.4352 153.041388 
L 401.006022 151.46496 
L 401.699806 149.69088 
L 402.44498 147.9168 
L 402.816 147.090479 
L 403.236906 146.14272 
L 404.075618 144.36864 
L 404.965161 142.59456 
L 405.1968 142.157557 
L 405.897921 140.82048 
L 406.878477 139.0464 
L 407.5776 137.843207 
L 407.905806 137.27232 
L 408.975486 135.49824 
L 409.9584 133.940514 
L 410.093494 133.72416 
L 411.25048 131.95008 
L 412.3392 130.348815 
L 412.455491 130.176 
L 413.698033 128.40192 
L 414.72 126.997836 
" style="fill:none;stroke:#000000;stroke-dasharray:1.85,0.8;stroke-dashoffset:0;stroke-opacity:0.5;stroke-width:0.5;"/>
   </g>
   <g id="LineCollection_3">
    <path clip-path="url(#pf9add8d416)" d="M 414.72 256.292038 
L 409.9584 252.460319 
L 402.816 246.491891 
L 397.596974 241.94304 
L 390.912 235.790667 
L 386.1504 231.15163 
L 381.158831 225.97632 
L 376.406308 220.65408 
L 373.462715 217.10592 
L 369.4848 211.876061 
L 368.16425 210.0096 
L 365.825506 206.46144 
L 363.705362 202.91328 
L 361.813228 199.36512 
L 359.9616 195.345773 
L 358.736381 192.2688 
L 357.572191 188.72064 
L 356.653209 185.17248 
L 355.996793 181.62432 
L 355.602943 178.07616 
L 355.47166 174.528 
L 355.602943 170.97984 
L 355.996793 167.43168 
L 356.653209 163.88352 
L 357.5808 160.307986 
L 358.736381 156.7872 
L 360.156253 153.23904 
L 361.813228 149.69088 
L 363.705362 146.14272 
L 365.825506 142.59456 
L 368.16425 139.0464 
L 371.8656 133.989579 
L 374.2464 130.995486 
L 376.6272 128.149849 
L 381.158831 123.07968 
L 386.294104 117.75744 
L 391.780285 112.4352 
L 398.0544 106.711905 
L 403.713447 101.79072 
L 412.3392 94.665608 
L 414.72 92.763962 
L 414.72 92.763962 
" style="fill:none;stroke:#000000;stroke-dasharray:1.85,0.8;stroke-dashoffset:0;stroke-opacity:0.5;stroke-width:0.5;"/>
    <path clip-path="url(#pf9add8d416)" d="M 57.6 163.564239 
L 57.677201 163.88352 
L 58.040173 165.6576 
L 58.337149 167.43168 
L 58.568131 169.20576 
L 58.733118 170.97984 
L 58.83211 172.75392 
L 58.865108 174.528 
L 58.83211 176.30208 
L 58.733118 178.07616 
L 58.568131 179.85024 
L 58.337149 181.62432 
L 58.040173 183.3984 
L 57.677201 185.17248 
L 57.6 185.491761 
" style="fill:none;stroke:#000000;stroke-dasharray:1.85,0.8;stroke-dashoffset:0;stroke-opacity:0.5;stroke-width:0.5;"/>
   </g>
   <g id="LineCollection_4">
    <path clip-path="url(#pf9add8d416)" d="M 414.72 279.93588 
L 402.123784 272.1024 
L 385.48038 261.45792 
L 371.8656 252.43494 
L 361.741532 245.4912 
L 350.4384 237.399782 
L 344.619539 233.07264 
L 335.535579 225.97632 
L 329.0112 220.543296 
L 323.143355 215.33184 
L 317.632053 210.0096 
L 312.666811 204.68736 
L 309.697594 201.1392 
L 307.026517 197.59104 
L 304.682495 194.04288 
L 302.689525 190.49472 
L 301.058531 186.94656 
L 299.819962 183.3984 
L 298.983854 179.85024 
L 298.5658 176.30208 
L 298.5658 172.75392 
L 298.983854 169.20576 
L 299.819962 165.6576 
L 301.058531 162.10944 
L 302.689525 158.56128 
L 304.682495 155.01312 
L 307.584 150.710936 
L 309.9648 147.594667 
L 312.666811 144.36864 
L 315.910108 140.82048 
L 321.25077 135.49824 
L 327.089338 130.176 
L 333.7728 124.522233 
L 340.004764 119.53152 
L 350.4384 111.656218 
L 357.5808 106.502116 
L 366.870687 100.01664 
L 385.48038 87.59808 
L 405.1968 75.028581 
L 414.72 69.12012 
L 414.72 69.12012 
" style="fill:none;stroke:#000000;stroke-dasharray:1.85,0.8;stroke-dashoffset:0;stroke-opacity:0.5;stroke-width:0.5;"/>
    <path clip-path="url(#pf9add8d416)" d="M 57.6 107.099375 
L 57.619456 107.11296 
L 59.9808 108.805705 
L 60.096008 108.88704 
L 62.3616 110.530344 
L 62.544726 110.66112 
L 64.7424 112.274763 
L 64.964395 112.4352 
L 67.1232 114.040604 
L 67.353712 114.20928 
L 69.504 115.829708 
L 69.711277 115.98336 
L 71.8848 117.644142 
L 72.035585 117.75744 
L 74.2656 119.486237 
L 74.325019 119.53152 
L 76.579022 121.3056 
L 76.6464 121.360429 
L 78.796305 123.07968 
L 79.0272 123.270802 
L 80.973915 124.85376 
L 81.408 125.219569 
L 83.109754 126.62784 
L 83.7888 127.210984 
L 85.201553 128.40192 
L 86.1696 129.249975 
L 87.24686 130.176 
L 88.5504 131.342273 
L 89.243017 131.95008 
L 90.9312 133.494588 
L 91.187139 133.72416 
L 93.080816 135.49824 
L 93.312 135.724897 
L 94.922566 137.27232 
L 95.6928 138.048455 
L 96.70385 139.0464 
L 98.0736 140.467727 
L 98.420823 140.82048 
L 100.077537 142.59456 
L 100.4544 143.021182 
L 101.670766 144.36864 
L 102.8352 145.736748 
L 103.188486 146.14272 
L 104.638763 147.9168 
L 105.216 148.671613 
L 106.013398 149.69088 
L 107.305589 151.46496 
L 107.5968 151.896756 
L 108.523408 153.23904 
L 109.65012 155.01312 
L 109.9776 155.577867 
L 110.695824 156.7872 
L 111.649106 158.56128 
L 112.3584 160.036587 
L 112.505611 160.33536 
L 113.276898 162.10944 
L 113.945346 163.88352 
L 114.510956 165.6576 
L 114.7392 166.532596 
L 114.979713 167.43168 
L 115.348831 169.20576 
L 115.612488 170.97984 
L 115.770681 172.75392 
L 115.823413 174.528 
L 115.770681 176.30208 
L 115.612488 178.07616 
L 115.348831 179.85024 
L 114.979713 181.62432 
L 114.7392 182.523404 
L 114.510956 183.3984 
L 113.945346 185.17248 
L 113.276898 186.94656 
L 112.505611 188.72064 
L 112.3584 189.019413 
L 111.649106 190.49472 
L 110.695824 192.2688 
L 109.9776 193.478133 
L 109.65012 194.04288 
L 108.523408 195.81696 
L 107.5968 197.159244 
L 107.305589 197.59104 
L 106.013398 199.36512 
L 105.216 200.384387 
L 104.638763 201.1392 
L 103.188486 202.91328 
L 102.8352 203.319252 
L 101.670766 204.68736 
L 100.4544 206.034818 
L 100.077537 206.46144 
L 98.420823 208.23552 
L 98.0736 208.588273 
L 96.70385 210.0096 
L 95.6928 211.007545 
L 94.922566 211.78368 
L 93.312 213.331103 
L 93.080816 213.55776 
L 91.187139 215.33184 
L 90.9312 215.561412 
L 89.243017 217.10592 
L 88.5504 217.713727 
L 87.24686 218.88 
L 86.1696 219.806025 
L 85.201553 220.65408 
L 83.7888 221.845016 
L 83.109754 222.42816 
L 81.408 223.836431 
L 80.973915 224.20224 
L 79.0272 225.785198 
L 78.796305 225.97632 
L 76.6464 227.695571 
L 76.579022 227.7504 
L 74.325019 229.52448 
L 74.2656 229.569763 
L 72.035585 231.29856 
L 71.8848 231.411858 
L 69.711277 233.07264 
L 69.504 233.226292 
L 67.353712 234.84672 
L 67.1232 235.015396 
L 64.964395 236.6208 
L 64.7424 236.781237 
L 62.544726 238.39488 
L 62.3616 238.525656 
L 60.096008 240.16896 
L 59.9808 240.250295 
L 57.619456 241.94304 
L 57.6 241.956625 
" style="fill:none;stroke:#000000;stroke-dasharray:1.85,0.8;stroke-dashoffset:0;stroke-opacity:0.5;stroke-width:0.5;"/>
   </g>
   <g id="LineCollection_5">
    <path clip-path="url(#pf9add8d416)" d="M 414.72 299.17532 
L 348.0576 264.868606 
L 329.0112 255.415623 
L 309.9648 246.29893 
L 295.68 239.784494 
L 283.776 234.648547 
L 274.2528 230.784036 
L 264.7296 227.199112 
L 257.5872 224.730081 
L 248.064 221.787586 
L 240.9216 219.887406 
L 233.7792 218.290817 
L 229.0176 217.413942 
L 221.8752 216.392275 
L 217.1136 215.926938 
L 212.352 215.641309 
L 207.5904 215.535437 
L 202.8288 215.609342 
L 198.0672 215.863009 
L 193.3056 216.296396 
L 187.292671 217.10592 
L 183.7824 217.677667 
L 177.809232 218.88 
L 174.2592 219.681472 
L 167.1168 221.547121 
L 159.9744 223.685143 
L 150.4512 226.894785 
L 140.928 230.452029 
L 129.024 235.290553 
L 117.12 240.468458 
L 105.216 245.905403 
L 90.9312 252.693805 
L 76.6464 259.691642 
L 58.980599 268.55424 
L 57.6 269.247949 
L 57.6 269.247949 
" style="fill:none;stroke:#000000;stroke-dasharray:1.85,0.8;stroke-dashoffset:0;stroke-opacity:0.5;stroke-width:0.5;"/>
    <path clip-path="url(#pf9add8d416)" d="M 57.6 79.808051 
L 86.1696 94.053573 
L 107.5968 104.257248 
L 121.8816 110.690447 
L 131.4048 114.763621 
L 140.928 118.603971 
L 150.4512 122.161215 
L 159.9744 125.370857 
L 167.1168 127.508879 
L 174.2592 129.374528 
L 181.4016 130.933683 
L 187.292671 131.95008 
L 190.9248 132.475538 
L 195.6864 132.998758 
L 200.448 133.342293 
L 205.2096 133.506082 
L 209.9712 133.490098 
L 214.7328 133.294344 
L 219.4944 132.918853 
L 224.256 132.36369 
L 231.3984 131.225127 
L 238.5408 129.734361 
L 245.6832 127.931804 
L 252.8256 125.852127 
L 261.234942 123.07968 
L 267.1104 120.987973 
L 276.6336 117.329653 
L 286.1568 113.408963 
L 298.0608 108.210851 
L 312.3456 101.637352 
L 326.838129 94.6944 
L 341.238704 87.59808 
L 357.5808 79.378248 
L 405.1968 54.838522 
L 414.72 49.88068 
L 414.72 49.88068 
" style="fill:none;stroke:#000000;stroke-dasharray:1.85,0.8;stroke-dashoffset:0;stroke-opacity:0.5;stroke-width:0.5;"/>
   </g>
   <g id="LineCollection_6">
    <path clip-path="url(#pf9add8d416)" d="M 396.604964 307.584 
L 383.7696 301.86647 
L 367.104 294.640233 
L 350.4384 287.68742 
L 336.1536 281.995454 
L 321.8688 276.606975 
L 309.104213 272.1024 
L 300.4416 269.224011 
L 288.5376 265.559848 
L 279.0144 262.892191 
L 269.4912 260.481281 
L 259.968 258.356712 
L 250.4448 256.538468 
L 240.9216 255.048036 
L 233.7792 254.161803 
L 226.6368 253.473174 
L 219.4944 252.997844 
L 212.352 252.735997 
L 205.2096 252.687734 
L 198.0672 252.853075 
L 190.9248 253.231955 
L 183.7824 253.824226 
L 176.64 254.623768 
L 169.4976 255.61967 
L 162.3552 256.808568 
L 155.2128 258.183344 
L 148.0704 259.731985 
L 140.870379 261.45792 
L 131.4048 263.9577 
L 121.719117 266.78016 
L 112.3584 269.720871 
L 100.099925 273.87648 
L 90.25383 277.42464 
L 79.0272 281.667174 
L 64.7424 287.341619 
L 57.6 290.277777 
L 57.6 290.277777 
" style="fill:none;stroke:#000000;stroke-dasharray:1.85,0.8;stroke-dashoffset:0;stroke-opacity:0.5;stroke-width:0.5;"/>
    <path clip-path="url(#pf9add8d416)" d="M 57.6 58.778223 
L 74.2656 65.528697 
L 88.5504 71.005313 
L 102.8352 76.137658 
L 114.7392 80.102822 
L 126.6432 83.742079 
L 136.1664 86.389989 
L 145.6896 88.775107 
L 155.2128 90.872656 
L 164.736 92.662596 
L 174.2592 94.123377 
L 181.4016 94.986967 
L 188.544 95.650322 
L 195.6864 96.100353 
L 202.8288 96.336884 
L 209.9712 96.359825 
L 217.1136 96.169165 
L 224.256 95.764979 
L 231.3984 95.147425 
L 238.5408 94.325042 
L 245.6832 93.304486 
L 255.2064 91.648633 
L 264.7296 89.672521 
L 274.2528 87.401344 
L 283.776 84.862031 
L 293.2992 82.070062 
L 303.811967 78.72768 
L 312.3456 75.843996 
L 324.2496 71.571089 
L 336.1536 67.060546 
L 351.363113 60.98688 
L 362.3424 56.43354 
L 381.3888 48.235898 
L 396.604964 41.472 
L 396.604964 41.472 
" style="fill:none;stroke:#000000;stroke-dasharray:1.85,0.8;stroke-dashoffset:0;stroke-opacity:0.5;stroke-width:0.5;"/>
   </g>
   <g id="LineCollection_7">
    <path clip-path="url(#pf9add8d416)" d="M 355.47166 307.584 
L 345.374133 304.03584 
L 333.7728 300.140435 
L 321.8688 296.372942 
L 309.9648 292.862856 
L 298.840148 289.8432 
L 290.9184 287.8503 
L 281.3952 285.65025 
L 271.872 283.676526 
L 262.3488 281.941747 
L 252.8256 280.459191 
L 243.3024 279.242102 
L 233.7792 278.292374 
L 224.256 277.629984 
L 214.7328 277.253201 
L 205.2096 277.166665 
L 195.6864 277.374006 
L 186.1632 277.867382 
L 176.64 278.648265 
L 167.1168 279.708273 
L 157.5936 281.040167 
L 148.0704 282.627861 
L 138.27051 284.52096 
L 129.024 286.529193 
L 119.5008 288.814039 
L 108.854074 291.61728 
L 100.4544 293.987101 
L 88.5504 297.58454 
L 76.6464 301.429637 
L 62.3616 306.335372 
L 58.865108 307.584 
L 58.865108 307.584 
" style="fill:none;stroke:#000000;stroke-dasharray:1.85,0.8;stroke-dashoffset:0;stroke-opacity:0.5;stroke-width:0.5;"/>
    <path clip-path="url(#pf9add8d416)" d="M 58.865108 41.472 
L 69.504 45.209157 
L 81.408 49.192278 
L 93.312 52.941928 
L 105.216 56.432811 
L 117.12 59.636909 
L 126.6432 61.976974 
L 136.1664 64.099811 
L 145.6896 65.993325 
L 155.2128 67.64481 
L 164.736 69.040901 
L 174.2592 70.167514 
L 183.7824 71.020415 
L 193.3056 71.585058 
L 202.8288 71.865049 
L 212.352 71.851984 
L 221.8752 71.546543 
L 231.3984 70.956252 
L 240.9216 70.077748 
L 250.4448 68.927532 
L 259.968 67.508695 
L 269.4912 65.835296 
L 279.0144 63.920677 
L 288.5376 61.777521 
L 298.840148 59.2128 
L 307.584 56.862136 
L 319.488 53.406238 
L 331.392 49.689101 
L 343.296 45.736178 
L 355.47166 41.472 
L 355.47166 41.472 
" style="fill:none;stroke:#000000;stroke-dasharray:1.85,0.8;stroke-dashoffset:0;stroke-opacity:0.5;stroke-width:0.5;"/>
   </g>
   <g id="LineCollection_8">
    <path clip-path="url(#pf9add8d416)" d="M 298.513543 307.584 
L 298.0608 307.480843 
L 295.68 306.952117 
L 293.2992 306.437147 
L 290.9184 305.935956 
L 290.30274 305.80992 
L 288.5376 305.443649 
L 286.1568 304.963636 
L 283.776 304.497653 
L 281.3952 304.045721 
L 281.341475 304.03584 
L 279.0144 303.601954 
L 276.6336 303.172335 
L 274.2528 302.757017 
L 271.872 302.356018 
L 271.291626 302.26176 
L 269.4912 301.965266 
L 267.1104 301.58775 
L 264.7296 301.224804 
L 262.3488 300.876444 
L 259.968 300.542686 
L 259.557658 300.48768 
L 257.5872 300.219796 
L 255.2064 299.910963 
L 252.8256 299.61698 
L 250.4448 299.337859 
L 248.064 299.073613 
L 245.6832 298.824254 
L 244.559588 298.7136 
L 243.3024 298.58801 
L 240.9216 298.365296 
L 238.5408 298.157712 
L 236.16 297.965269 
L 233.7792 297.787974 
L 231.3984 297.625836 
L 229.0176 297.47886 
L 226.6368 297.347054 
L 224.256 297.230423 
L 221.8752 297.128972 
L 219.4944 297.042706 
L 217.1136 296.971628 
L 215.745776 296.93952 
L 214.7328 296.915394 
L 212.352 296.874107 
L 209.9712 296.848238 
L 207.5904 296.837787 
L 205.2096 296.842754 
L 202.8288 296.863141 
L 200.448 296.898945 
L 198.562005 296.93952 
L 198.0672 296.950012 
L 195.6864 297.015688 
L 193.3056 297.096553 
L 190.9248 297.192604 
L 188.544 297.303837 
L 186.1632 297.430247 
L 183.7824 297.571828 
L 181.4016 297.728575 
L 179.0208 297.90048 
L 176.64 298.087537 
L 174.2592 298.289737 
L 171.8784 298.507071 
L 169.763178 298.7136 
L 169.4976 298.739163 
L 167.1168 298.983226 
L 164.736 299.242179 
L 162.3552 299.51601 
L 159.9744 299.804709 
L 157.5936 300.108263 
L 155.2128 300.426658 
L 154.776811 300.48768 
L 152.832 300.756074 
L 150.4512 301.099242 
L 148.0704 301.457003 
L 145.6896 301.829339 
L 143.3088 302.216235 
L 143.038806 302.26176 
L 140.928 302.612765 
L 138.5472 303.022993 
L 136.1664 303.447528 
L 133.7856 303.886353 
L 133.00012 304.03584 
L 131.4048 304.335318 
L 129.024 304.796307 
L 126.6432 305.271332 
L 124.2624 305.760375 
L 124.02791 305.80992 
L 121.8816 306.257325 
L 119.5008 306.767398 
L 117.12 307.291234 
L 115.823413 307.584 
" style="fill:none;stroke:#000000;stroke-dasharray:1.85,0.8;stroke-dashoffset:0;stroke-opacity:0.5;stroke-width:0.5;"/>
    <path clip-path="url(#pf9add8d416)" d="M 115.823413 41.472 
L 117.12 41.764766 
L 119.5008 42.288602 
L 121.8816 42.798675 
L 124.02791 43.24608 
L 124.2624 43.295625 
L 126.6432 43.784668 
L 129.024 44.259693 
L 131.4048 44.720682 
L 133.00012 45.02016 
L 133.7856 45.169647 
L 136.1664 45.608472 
L 138.5472 46.033007 
L 140.928 46.443235 
L 143.038806 46.79424 
L 143.3088 46.839765 
L 145.6896 47.226661 
L 148.0704 47.598997 
L 150.4512 47.956758 
L 152.832 48.299926 
L 154.776811 48.56832 
L 155.2128 48.629342 
L 157.5936 48.947737 
L 159.9744 49.251291 
L 162.3552 49.53999 
L 164.736 49.813821 
L 167.1168 50.072774 
L 169.4976 50.316837 
L 169.763178 50.3424 
L 171.8784 50.548929 
L 174.2592 50.766263 
L 176.64 50.968463 
L 179.0208 51.15552 
L 181.4016 51.327425 
L 183.7824 51.484172 
L 186.1632 51.625753 
L 188.544 51.752163 
L 190.9248 51.863396 
L 193.3056 51.959447 
L 195.6864 52.040312 
L 198.0672 52.105988 
L 198.562005 52.11648 
L 200.448 52.157055 
L 202.8288 52.192859 
L 205.2096 52.213246 
L 207.5904 52.218213 
L 209.9712 52.207762 
L 212.352 52.181893 
L 214.7328 52.140606 
L 215.745776 52.11648 
L 217.1136 52.084372 
L 219.4944 52.013294 
L 221.8752 51.927028 
L 224.256 51.825577 
L 226.6368 51.708946 
L 229.0176 51.57714 
L 231.3984 51.430164 
L 233.7792 51.268026 
L 236.16 51.090731 
L 238.5408 50.898288 
L 240.9216 50.690704 
L 243.3024 50.46799 
L 244.559588 50.3424 
L 245.6832 50.231746 
L 248.064 49.982387 
L 250.4448 49.718141 
L 252.8256 49.43902 
L 255.2064 49.145037 
L 257.5872 48.836204 
L 259.557658 48.56832 
L 259.968 48.513314 
L 262.3488 48.179556 
L 264.7296 47.831196 
L 267.1104 47.46825 
L 269.4912 47.090734 
L 271.291626 46.79424 
L 271.872 46.699982 
L 274.2528 46.298983 
L 276.6336 45.883665 
L 279.0144 45.454046 
L 281.341475 45.02016 
L 281.3952 45.010279 
L 283.776 44.558347 
L 286.1568 44.092364 
L 288.5376 43.612351 
L 290.30274 43.24608 
L 290.9184 43.120044 
L 293.2992 42.618853 
L 295.68 42.103883 
L 298.0608 41.575157 
L 298.513543 41.472 
" style="fill:none;stroke:#000000;stroke-dasharray:1.85,0.8;stroke-dashoffset:0;stroke-opacity:0.5;stroke-width:0.5;"/>
   </g>
   <g id="LineCollection_9"/>
   <g id="line2d_15">
    <path clip-path="url(#pf9add8d416)" d="M 93.841188 74.736 
L 93.895544 74.756072 
L 94.167162 74.856295 
L 95.521173 75.353919 
L 102.191747 77.755572 
L 115.321135 82.218034 
L 127.870341 86.110007 
L 139.917255 89.450951 
L 151.537218 92.258046 
L 162.803352 94.546051 
L 176.304638 96.66955 
L 189.506911 98.040796 
L 202.537898 98.671221 
L 215.523895 98.566118 
L 228.590819 97.724612 
L 241.865266 96.13966 
L 255.47556 93.798096 
L 269.552801 90.680707 
L 284.231884 86.762379 
L 299.652494 82.012325 
L 313.670363 77.215926 
L 328.446367 71.746952 
L 344.081971 65.57701 
L 360.682975 58.675919 
L 376.201442 51.96296 
L 378.203896 51.081106 
L 378.455214 50.970197 
L 93.880455 87.139817 
L 104.959186 91.708506 
L 115.472164 95.831042 
L 125.476254 99.526235 
L 135.025966 102.811388 
L 144.173662 105.702221 
L 154.748912 108.685657 
L 164.897345 111.136791 
L 174.701163 113.073542 
L 184.240036 114.510219 
L 196.0344 115.626871 
L 207.68336 115.975329 
L 219.338892 115.559788 
L 231.153047 114.375272 
L 243.279773 112.407635 
L 255.876741 109.633538 
L 269.107168 106.020448 
L 280.761277 102.331336 
L 293.079779 97.999443 
L 306.171942 92.991399 
L 318.265946 88.061555 
L 331.110505 82.56606 
L 344.789156 76.476124 
L 359.389701 69.761394 
L 373.38436 63.162795 
L 377.019401 61.427449 
L 377.936988 60.988159 
L 378.397117 60.767692 
L 378.454696 60.740095 
L 93.874665 94.048281 
L 104.001341 98.612923 
L 113.563038 102.773164 
L 122.610882 106.548338 
L 131.193582 109.956402 
L 139.357615 113.01389 
L 147.147407 115.735879 
L 156.309909 118.653313 
L 160.921592 119.990047 
" style="fill:none;stroke:#0000ff;stroke-linecap:square;stroke-width:1.5;"/>
   </g>
   <g id="line2d_16">
    <defs>
     <path d="M 0 -6 
L -1.347084 -1.854102 
L -5.706339 -1.854102 
L -2.179628 0.708204 
L -3.526712 4.854102 
L -0 2.291796 
L 3.526712 4.854102 
L 2.179628 0.708204 
L 5.706339 -1.854102 
L 1.347084 -1.854102 
z
" id="me1d03b868e" style="stroke:#0000ff;stroke-linejoin:bevel;"/>
    </defs>
    <g clip-path="url(#pf9add8d416)">
     <use style="fill:#0000ff;stroke:#0000ff;stroke-linejoin:bevel;" x="93.841188" xlink:href="#me1d03b868e" y="74.736"/>
    </g>
   </g>
   <g id="line2d_17">
    <path clip-path="url(#pf9add8d416)" d="M 93.841188 174.528 
L 93.841188 41.472 
" style="fill:none;stroke:#000000;stroke-dasharray:5.55,2.4;stroke-dashoffset:0;stroke-width:1.5;"/>
   </g>
   <g id="line2d_18">
    <path clip-path="url(#pf9add8d416)" d="M 93.841188 174.528 
L 93.841188 307.584 
" style="fill:none;stroke:#000000;stroke-linecap:square;stroke-width:0.25;"/>
   </g>
   <g id="line2d_19">
    <path clip-path="url(#pf9add8d416)" d="M 378.478812 174.528 
L 378.478812 307.584 
" style="fill:none;stroke:#000000;stroke-dasharray:5.55,2.4;stroke-dashoffset:0;stroke-width:1.5;"/>
   </g>
   <g id="line2d_20">
    <path clip-path="url(#pf9add8d416)" d="M 378.478812 174.528 
L 378.478812 41.472 
" style="fill:none;stroke:#000000;stroke-linecap:square;stroke-width:0.25;"/>
   </g>
   <g id="line2d_21">
    <path clip-path="url(#pf9add8d416)" d="M 57.6 174.528 
L 414.72 174.528 
" style="fill:none;stroke:#000000;stroke-linecap:square;stroke-width:0.25;"/>
   </g>
   <g id="line2d_22">
    <path clip-path="url(#pf9add8d416)" d="M 207.16705 307.584 
L 207.16705 41.472 
" style="fill:none;stroke:#000000;stroke-linecap:square;stroke-width:0.25;"/>
   </g>
   <g id="patch_3">
    <path d="M 57.6 307.584 
L 57.6 41.472 
" style="fill:none;stroke:#000000;stroke-linecap:square;stroke-linejoin:miter;stroke-width:0.8;"/>
   </g>
   <g id="patch_4">
    <path d="M 414.72 307.584 
L 414.72 41.472 
" style="fill:none;stroke:#000000;stroke-linecap:square;stroke-linejoin:miter;stroke-width:0.8;"/>
   </g>
   <g id="patch_5">
    <path d="M 57.6 307.584 
L 414.72 307.584 
" style="fill:none;stroke:#000000;stroke-linecap:square;stroke-linejoin:miter;stroke-width:0.8;"/>
   </g>
   <g id="patch_6">
    <path d="M 57.6 41.472 
L 414.72 41.472 
" style="fill:none;stroke:#000000;stroke-linecap:square;stroke-linejoin:miter;stroke-width:0.8;"/>
   </g>
   <g id="text_17">
    <!-- Trajectories of the Rimless Wheel (w/ contours of constant energy) -->
    <defs>
     <path d="M -0.296875 72.90625 
L 61.375 72.90625 
L 61.375 64.59375 
L 35.5 64.59375 
L 35.5 0 
L 25.59375 0 
L 25.59375 64.59375 
L -0.296875 64.59375 
z
" id="DejaVuSans-84"/>
     <path d="M 41.109375 46.296875 
Q 39.59375 47.171875 37.8125 47.578125 
Q 36.03125 48 33.890625 48 
Q 26.265625 48 22.1875 43.046875 
Q 18.109375 38.09375 18.109375 28.8125 
L 18.109375 0 
L 9.078125 0 
L 9.078125 54.6875 
L 18.109375 54.6875 
L 18.109375 46.1875 
Q 20.953125 51.171875 25.484375 53.578125 
Q 30.03125 56 36.53125 56 
Q 37.453125 56 38.578125 55.875 
Q 39.703125 55.765625 41.0625 55.515625 
z
" id="DejaVuSans-114"/>
     <path d="M 9.421875 54.6875 
L 18.40625 54.6875 
L 18.40625 -0.984375 
Q 18.40625 -11.421875 14.421875 -16.109375 
Q 10.453125 -20.796875 1.609375 -20.796875 
L -1.8125 -20.796875 
L -1.8125 -13.1875 
L 0.59375 -13.1875 
Q 5.71875 -13.1875 7.5625 -10.8125 
Q 9.421875 -8.453125 9.421875 -0.984375 
z
M 9.421875 75.984375 
L 18.40625 75.984375 
L 18.40625 64.59375 
L 9.421875 64.59375 
z
" id="DejaVuSans-106"/>
     <path d="M 48.78125 52.59375 
L 48.78125 44.1875 
Q 44.96875 46.296875 41.140625 47.34375 
Q 37.3125 48.390625 33.40625 48.390625 
Q 24.65625 48.390625 19.8125 42.84375 
Q 14.984375 37.3125 14.984375 27.296875 
Q 14.984375 17.28125 19.8125 11.734375 
Q 24.65625 6.203125 33.40625 6.203125 
Q 37.3125 6.203125 41.140625 7.25 
Q 44.96875 8.296875 48.78125 10.40625 
L 48.78125 2.09375 
Q 45.015625 0.34375 40.984375 -0.53125 
Q 36.96875 -1.421875 32.421875 -1.421875 
Q 20.0625 -1.421875 12.78125 6.34375 
Q 5.515625 14.109375 5.515625 27.296875 
Q 5.515625 40.671875 12.859375 48.328125 
Q 20.21875 56 33.015625 56 
Q 37.15625 56 41.109375 55.140625 
Q 45.0625 54.296875 48.78125 52.59375 
z
" id="DejaVuSans-99"/>
     <path d="M 9.421875 54.6875 
L 18.40625 54.6875 
L 18.40625 0 
L 9.421875 0 
z
M 9.421875 75.984375 
L 18.40625 75.984375 
L 18.40625 64.59375 
L 9.421875 64.59375 
z
" id="DejaVuSans-105"/>
     <path d="M 44.28125 53.078125 
L 44.28125 44.578125 
Q 40.484375 46.53125 36.375 47.5 
Q 32.28125 48.484375 27.875 48.484375 
Q 21.1875 48.484375 17.84375 46.4375 
Q 14.5 44.390625 14.5 40.28125 
Q 14.5 37.15625 16.890625 35.375 
Q 19.28125 33.59375 26.515625 31.984375 
L 29.59375 31.296875 
Q 39.15625 29.25 43.1875 25.515625 
Q 47.21875 21.78125 47.21875 15.09375 
Q 47.21875 7.46875 41.1875 3.015625 
Q 35.15625 -1.421875 24.609375 -1.421875 
Q 20.21875 -1.421875 15.453125 -0.5625 
Q 10.6875 0.296875 5.421875 2 
L 5.421875 11.28125 
Q 10.40625 8.6875 15.234375 7.390625 
Q 20.0625 6.109375 24.8125 6.109375 
Q 31.15625 6.109375 34.5625 8.28125 
Q 37.984375 10.453125 37.984375 14.40625 
Q 37.984375 18.0625 35.515625 20.015625 
Q 33.0625 21.96875 24.703125 23.78125 
L 21.578125 24.515625 
Q 13.234375 26.265625 9.515625 29.90625 
Q 5.8125 33.546875 5.8125 39.890625 
Q 5.8125 47.609375 11.28125 51.796875 
Q 16.75 56 26.8125 56 
Q 31.78125 56 36.171875 55.265625 
Q 40.578125 54.546875 44.28125 53.078125 
z
" id="DejaVuSans-115"/>
     <path id="DejaVuSans-32"/>
     <path d="M 37.109375 75.984375 
L 37.109375 68.5 
L 28.515625 68.5 
Q 23.6875 68.5 21.796875 66.546875 
Q 19.921875 64.59375 19.921875 59.515625 
L 19.921875 54.6875 
L 34.71875 54.6875 
L 34.71875 47.703125 
L 19.921875 47.703125 
L 19.921875 0 
L 10.890625 0 
L 10.890625 47.703125 
L 2.296875 47.703125 
L 2.296875 54.6875 
L 10.890625 54.6875 
L 10.890625 58.5 
Q 10.890625 67.625 15.140625 71.796875 
Q 19.390625 75.984375 28.609375 75.984375 
z
" id="DejaVuSans-102"/>
     <path d="M 44.390625 34.1875 
Q 47.5625 33.109375 50.5625 29.59375 
Q 53.5625 26.078125 56.59375 19.921875 
L 66.609375 0 
L 56 0 
L 46.6875 18.703125 
Q 43.0625 26.03125 39.671875 28.421875 
Q 36.28125 30.8125 30.421875 30.8125 
L 19.671875 30.8125 
L 19.671875 0 
L 9.8125 0 
L 9.8125 72.90625 
L 32.078125 72.90625 
Q 44.578125 72.90625 50.734375 67.671875 
Q 56.890625 62.453125 56.890625 51.90625 
Q 56.890625 45.015625 53.6875 40.46875 
Q 50.484375 35.9375 44.390625 34.1875 
z
M 19.671875 64.796875 
L 19.671875 38.921875 
L 32.078125 38.921875 
Q 39.203125 38.921875 42.84375 42.21875 
Q 46.484375 45.515625 46.484375 51.90625 
Q 46.484375 58.296875 42.84375 61.546875 
Q 39.203125 64.796875 32.078125 64.796875 
z
" id="DejaVuSans-82"/>
     <path d="M 52 44.1875 
Q 55.375 50.25 60.0625 53.125 
Q 64.75 56 71.09375 56 
Q 79.640625 56 84.28125 50.015625 
Q 88.921875 44.046875 88.921875 33.015625 
L 88.921875 0 
L 79.890625 0 
L 79.890625 32.71875 
Q 79.890625 40.578125 77.09375 44.375 
Q 74.3125 48.1875 68.609375 48.1875 
Q 61.625 48.1875 57.5625 43.546875 
Q 53.515625 38.921875 53.515625 30.90625 
L 53.515625 0 
L 44.484375 0 
L 44.484375 32.71875 
Q 44.484375 40.625 41.703125 44.40625 
Q 38.921875 48.1875 33.109375 48.1875 
Q 26.21875 48.1875 22.15625 43.53125 
Q 18.109375 38.875 18.109375 30.90625 
L 18.109375 0 
L 9.078125 0 
L 9.078125 54.6875 
L 18.109375 54.6875 
L 18.109375 46.1875 
Q 21.1875 51.21875 25.484375 53.609375 
Q 29.78125 56 35.6875 56 
Q 41.65625 56 45.828125 52.96875 
Q 50 49.953125 52 44.1875 
z
" id="DejaVuSans-109"/>
     <path d="M 9.421875 75.984375 
L 18.40625 75.984375 
L 18.40625 0 
L 9.421875 0 
z
" id="DejaVuSans-108"/>
     <path d="M 3.328125 72.90625 
L 13.28125 72.90625 
L 28.609375 11.28125 
L 43.890625 72.90625 
L 54.984375 72.90625 
L 70.3125 11.28125 
L 85.59375 72.90625 
L 95.609375 72.90625 
L 77.296875 0 
L 64.890625 0 
L 49.515625 63.28125 
L 33.984375 0 
L 21.578125 0 
z
" id="DejaVuSans-87"/>
     <path d="M 31 75.875 
Q 24.46875 64.65625 21.28125 53.65625 
Q 18.109375 42.671875 18.109375 31.390625 
Q 18.109375 20.125 21.3125 9.0625 
Q 24.515625 -2 31 -13.1875 
L 23.1875 -13.1875 
Q 15.875 -1.703125 12.234375 9.375 
Q 8.59375 20.453125 8.59375 31.390625 
Q 8.59375 42.28125 12.203125 53.3125 
Q 15.828125 64.359375 23.1875 75.875 
z
" id="DejaVuSans-40"/>
     <path d="M 4.203125 54.6875 
L 13.1875 54.6875 
L 24.421875 12.015625 
L 35.59375 54.6875 
L 46.1875 54.6875 
L 57.421875 12.015625 
L 68.609375 54.6875 
L 77.59375 54.6875 
L 63.28125 0 
L 52.6875 0 
L 40.921875 44.828125 
L 29.109375 0 
L 18.5 0 
z
" id="DejaVuSans-119"/>
     <path d="M 25.390625 72.90625 
L 33.6875 72.90625 
L 8.296875 -9.28125 
L 0 -9.28125 
z
" id="DejaVuSans-47"/>
     <path d="M 54.890625 33.015625 
L 54.890625 0 
L 45.90625 0 
L 45.90625 32.71875 
Q 45.90625 40.484375 42.875 44.328125 
Q 39.84375 48.1875 33.796875 48.1875 
Q 26.515625 48.1875 22.3125 43.546875 
Q 18.109375 38.921875 18.109375 30.90625 
L 18.109375 0 
L 9.078125 0 
L 9.078125 54.6875 
L 18.109375 54.6875 
L 18.109375 46.1875 
Q 21.34375 51.125 25.703125 53.5625 
Q 30.078125 56 35.796875 56 
Q 45.21875 56 50.046875 50.171875 
Q 54.890625 44.34375 54.890625 33.015625 
z
" id="DejaVuSans-110"/>
     <path d="M 8.5 21.578125 
L 8.5 54.6875 
L 17.484375 54.6875 
L 17.484375 21.921875 
Q 17.484375 14.15625 20.5 10.265625 
Q 23.53125 6.390625 29.59375 6.390625 
Q 36.859375 6.390625 41.078125 11.03125 
Q 45.3125 15.671875 45.3125 23.6875 
L 45.3125 54.6875 
L 54.296875 54.6875 
L 54.296875 0 
L 45.3125 0 
L 45.3125 8.40625 
Q 42.046875 3.421875 37.71875 1 
Q 33.40625 -1.421875 27.6875 -1.421875 
Q 18.265625 -1.421875 13.375 4.4375 
Q 8.5 10.296875 8.5 21.578125 
z
M 31.109375 56 
z
" id="DejaVuSans-117"/>
     <path d="M 45.40625 27.984375 
Q 45.40625 37.75 41.375 43.109375 
Q 37.359375 48.484375 30.078125 48.484375 
Q 22.859375 48.484375 18.828125 43.109375 
Q 14.796875 37.75 14.796875 27.984375 
Q 14.796875 18.265625 18.828125 12.890625 
Q 22.859375 7.515625 30.078125 7.515625 
Q 37.359375 7.515625 41.375 12.890625 
Q 45.40625 18.265625 45.40625 27.984375 
z
M 54.390625 6.78125 
Q 54.390625 -7.171875 48.1875 -13.984375 
Q 42 -20.796875 29.203125 -20.796875 
Q 24.46875 -20.796875 20.265625 -20.09375 
Q 16.0625 -19.390625 12.109375 -17.921875 
L 12.109375 -9.1875 
Q 16.0625 -11.328125 19.921875 -12.34375 
Q 23.78125 -13.375 27.78125 -13.375 
Q 36.625 -13.375 41.015625 -8.765625 
Q 45.40625 -4.15625 45.40625 5.171875 
L 45.40625 9.625 
Q 42.625 4.78125 38.28125 2.390625 
Q 33.9375 0 27.875 0 
Q 17.828125 0 11.671875 7.65625 
Q 5.515625 15.328125 5.515625 27.984375 
Q 5.515625 40.671875 11.671875 48.328125 
Q 17.828125 56 27.875 56 
Q 33.9375 56 38.28125 53.609375 
Q 42.625 51.21875 45.40625 46.390625 
L 45.40625 54.6875 
L 54.390625 54.6875 
z
" id="DejaVuSans-103"/>
     <path d="M 32.171875 -5.078125 
Q 28.375 -14.84375 24.75 -17.8125 
Q 21.140625 -20.796875 15.09375 -20.796875 
L 7.90625 -20.796875 
L 7.90625 -13.28125 
L 13.1875 -13.28125 
Q 16.890625 -13.28125 18.9375 -11.515625 
Q 21 -9.765625 23.484375 -3.21875 
L 25.09375 0.875 
L 2.984375 54.6875 
L 12.5 54.6875 
L 29.59375 11.921875 
L 46.6875 54.6875 
L 56.203125 54.6875 
z
" id="DejaVuSans-121"/>
     <path d="M 8.015625 75.875 
L 15.828125 75.875 
Q 23.140625 64.359375 26.78125 53.3125 
Q 30.421875 42.28125 30.421875 31.390625 
Q 30.421875 20.453125 26.78125 9.375 
Q 23.140625 -1.703125 15.828125 -13.1875 
L 8.015625 -13.1875 
Q 14.5 -2 17.703125 9.0625 
Q 20.90625 20.125 20.90625 31.390625 
Q 20.90625 42.671875 17.703125 53.65625 
Q 14.5 64.65625 8.015625 75.875 
z
" id="DejaVuSans-41"/>
    </defs>
    <g transform="translate(36.162188 35.472)scale(0.12 -0.12)">
     <use xlink:href="#DejaVuSans-84"/>
     <use x="46.333984" xlink:href="#DejaVuSans-114"/>
     <use x="87.447266" xlink:href="#DejaVuSans-97"/>
     <use x="148.726562" xlink:href="#DejaVuSans-106"/>
     <use x="176.509766" xlink:href="#DejaVuSans-101"/>
     <use x="238.033203" xlink:href="#DejaVuSans-99"/>
     <use x="293.013672" xlink:href="#DejaVuSans-116"/>
     <use x="332.222656" xlink:href="#DejaVuSans-111"/>
     <use x="393.404297" xlink:href="#DejaVuSans-114"/>
     <use x="434.517578" xlink:href="#DejaVuSans-105"/>
     <use x="462.300781" xlink:href="#DejaVuSans-101"/>
     <use x="523.824219" xlink:href="#DejaVuSans-115"/>
     <use x="575.923828" xlink:href="#DejaVuSans-32"/>
     <use x="607.710938" xlink:href="#DejaVuSans-111"/>
     <use x="668.892578" xlink:href="#DejaVuSans-102"/>
     <use x="704.097656" xlink:href="#DejaVuSans-32"/>
     <use x="735.884766" xlink:href="#DejaVuSans-116"/>
     <use x="775.09375" xlink:href="#DejaVuSans-104"/>
     <use x="838.472656" xlink:href="#DejaVuSans-101"/>
     <use x="899.996094" xlink:href="#DejaVuSans-32"/>
     <use x="931.783203" xlink:href="#DejaVuSans-82"/>
     <use x="1001.265625" xlink:href="#DejaVuSans-105"/>
     <use x="1029.048828" xlink:href="#DejaVuSans-109"/>
     <use x="1126.460938" xlink:href="#DejaVuSans-108"/>
     <use x="1154.244141" xlink:href="#DejaVuSans-101"/>
     <use x="1215.767578" xlink:href="#DejaVuSans-115"/>
     <use x="1267.867188" xlink:href="#DejaVuSans-115"/>
     <use x="1319.966797" xlink:href="#DejaVuSans-32"/>
     <use x="1351.753906" xlink:href="#DejaVuSans-87"/>
     <use x="1450.630859" xlink:href="#DejaVuSans-104"/>
     <use x="1514.009766" xlink:href="#DejaVuSans-101"/>
     <use x="1575.533203" xlink:href="#DejaVuSans-101"/>
     <use x="1637.056641" xlink:href="#DejaVuSans-108"/>
     <use x="1664.839844" xlink:href="#DejaVuSans-32"/>
     <use x="1696.626953" xlink:href="#DejaVuSans-40"/>
     <use x="1735.640625" xlink:href="#DejaVuSans-119"/>
     <use x="1817.427734" xlink:href="#DejaVuSans-47"/>
     <use x="1851.119141" xlink:href="#DejaVuSans-32"/>
     <use x="1882.90625" xlink:href="#DejaVuSans-99"/>
     <use x="1937.886719" xlink:href="#DejaVuSans-111"/>
     <use x="1999.068359" xlink:href="#DejaVuSans-110"/>
     <use x="2062.447266" xlink:href="#DejaVuSans-116"/>
     <use x="2101.65625" xlink:href="#DejaVuSans-111"/>
     <use x="2162.837891" xlink:href="#DejaVuSans-117"/>
     <use x="2226.216797" xlink:href="#DejaVuSans-114"/>
     <use x="2267.330078" xlink:href="#DejaVuSans-115"/>
     <use x="2319.429688" xlink:href="#DejaVuSans-32"/>
     <use x="2351.216797" xlink:href="#DejaVuSans-111"/>
     <use x="2412.398438" xlink:href="#DejaVuSans-102"/>
     <use x="2447.603516" xlink:href="#DejaVuSans-32"/>
     <use x="2479.390625" xlink:href="#DejaVuSans-99"/>
     <use x="2534.371094" xlink:href="#DejaVuSans-111"/>
     <use x="2595.552734" xlink:href="#DejaVuSans-110"/>
     <use x="2658.931641" xlink:href="#DejaVuSans-115"/>
     <use x="2711.03125" xlink:href="#DejaVuSans-116"/>
     <use x="2750.240234" xlink:href="#DejaVuSans-97"/>
     <use x="2811.519531" xlink:href="#DejaVuSans-110"/>
     <use x="2874.898438" xlink:href="#DejaVuSans-116"/>
     <use x="2914.107422" xlink:href="#DejaVuSans-32"/>
     <use x="2945.894531" xlink:href="#DejaVuSans-101"/>
     <use x="3007.417969" xlink:href="#DejaVuSans-110"/>
     <use x="3070.796875" xlink:href="#DejaVuSans-101"/>
     <use x="3132.320312" xlink:href="#DejaVuSans-114"/>
     <use x="3171.683594" xlink:href="#DejaVuSans-103"/>
     <use x="3235.160156" xlink:href="#DejaVuSans-121"/>
     <use x="3294.339844" xlink:href="#DejaVuSans-41"/>
    </g>
   </g>
  </g>
 </g>
 <defs>
  <clipPath id="pf9add8d416">
   <rect height="266.112" width="357.12" x="57.6" y="41.472"/>
  </clipPath>
 </defs>
</svg>
