<?xml version="1.0" encoding="utf-8" standalone="no"?>
<!DOCTYPE svg PUBLIC "-//W3C//DTD SVG 1.1//EN"
  "http://www.w3.org/Graphics/SVG/1.1/DTD/svg11.dtd">
<svg xmlns:xlink="http://www.w3.org/1999/xlink" width="432pt" height="288pt" viewBox="0 0 432 288" xmlns="http://www.w3.org/2000/svg" version="1.1">
 <metadata>
  <rdf:RDF xmlns:dc="http://purl.org/dc/elements/1.1/" xmlns:cc="http://creativecommons.org/ns#" xmlns:rdf="http://www.w3.org/1999/02/22-rdf-syntax-ns#">
   <cc:Work>
    <dc:type rdf:resource="http://purl.org/dc/dcmitype/StillImage"/>
    <dc:date>2022-03-08T07:19:20.328232</dc:date>
    <dc:format>image/svg+xml</dc:format>
    <dc:creator>
     <cc:Agent>
      <dc:title>Matplotlib v3.5.0, https://matplotlib.org/</dc:title>
     </cc:Agent>
    </dc:creator>
   </cc:Work>
  </rdf:RDF>
 </metadata>
 <defs>
  <style type="text/css">*{stroke-linejoin: round; stroke-linecap: butt}</style>
 </defs>
 <g id="figure_1">
  <g id="patch_1">
   <path d="M 0 288 
L 432 288 
L 432 0 
L 0 0 
L 0 288 
z
" style="fill: none"/>
  </g>
  <g id="axes_1">
   <g id="patch_2">
    <path d="M 54 252 
L 388.8 252 
L 388.8 34.56 
L 54 34.56 
L 54 252 
z
" style="fill: none"/>
   </g>
   <g id="matplotlib.axis_1">
    <g id="xtick_1">
     <g id="line2d_1">
      <path d="M 69.218182 252 
L 69.218182 34.56 
" clip-path="url(#p276f8c9f1a)" style="fill: none; stroke: #b0b0b0; stroke-width: 0.8; stroke-linecap: square"/>
     </g>
     <g id="line2d_2">
      <defs>
       <path id="m6198ec7a00" d="M 0 0 
L 0 3.5 
" style="stroke: #000000; stroke-width: 0.8"/>
      </defs>
      <g>
       <use xlink:href="#m6198ec7a00" x="69.218182" y="252" style="stroke: #000000; stroke-width: 0.8"/>
      </g>
     </g>
     <g id="text_1">
      <!-- −1.00 -->
      <g transform="translate(53.895526 266.598437)scale(0.1 -0.1)">
       <defs>
        <path id="DejaVuSans-2212" d="M 678 2272 
L 4684 2272 
L 4684 1741 
L 678 1741 
L 678 2272 
z
" transform="scale(0.015625)"/>
        <path id="DejaVuSans-31" d="M 794 531 
L 1825 531 
L 1825 4091 
L 703 3866 
L 703 4441 
L 1819 4666 
L 2450 4666 
L 2450 531 
L 3481 531 
L 3481 0 
L 794 0 
L 794 531 
z
" transform="scale(0.015625)"/>
        <path id="DejaVuSans-2e" d="M 684 794 
L 1344 794 
L 1344 0 
L 684 0 
L 684 794 
z
" transform="scale(0.015625)"/>
        <path id="DejaVuSans-30" d="M 2034 4250 
Q 1547 4250 1301 3770 
Q 1056 3291 1056 2328 
Q 1056 1369 1301 889 
Q 1547 409 2034 409 
Q 2525 409 2770 889 
Q 3016 1369 3016 2328 
Q 3016 3291 2770 3770 
Q 2525 4250 2034 4250 
z
M 2034 4750 
Q 2819 4750 3233 4129 
Q 3647 3509 3647 2328 
Q 3647 1150 3233 529 
Q 2819 -91 2034 -91 
Q 1250 -91 836 529 
Q 422 1150 422 2328 
Q 422 3509 836 4129 
Q 1250 4750 2034 4750 
z
" transform="scale(0.015625)"/>
       </defs>
       <use xlink:href="#DejaVuSans-2212"/>
       <use xlink:href="#DejaVuSans-31" x="83.789062"/>
       <use xlink:href="#DejaVuSans-2e" x="147.412109"/>
       <use xlink:href="#DejaVuSans-30" x="179.199219"/>
       <use xlink:href="#DejaVuSans-30" x="242.822266"/>
      </g>
     </g>
    </g>
    <g id="xtick_2">
     <g id="line2d_3">
      <path d="M 107.263636 252 
L 107.263636 34.56 
" clip-path="url(#p276f8c9f1a)" style="fill: none; stroke: #b0b0b0; stroke-width: 0.8; stroke-linecap: square"/>
     </g>
     <g id="line2d_4">
      <g>
       <use xlink:href="#m6198ec7a00" x="107.263636" y="252" style="stroke: #000000; stroke-width: 0.8"/>
      </g>
     </g>
     <g id="text_2">
      <!-- −0.75 -->
      <g transform="translate(91.94098 266.598437)scale(0.1 -0.1)">
       <defs>
        <path id="DejaVuSans-37" d="M 525 4666 
L 3525 4666 
L 3525 4397 
L 1831 0 
L 1172 0 
L 2766 4134 
L 525 4134 
L 525 4666 
z
" transform="scale(0.015625)"/>
        <path id="DejaVuSans-35" d="M 691 4666 
L 3169 4666 
L 3169 4134 
L 1269 4134 
L 1269 2991 
Q 1406 3038 1543 3061 
Q 1681 3084 1819 3084 
Q 2600 3084 3056 2656 
Q 3513 2228 3513 1497 
Q 3513 744 3044 326 
Q 2575 -91 1722 -91 
Q 1428 -91 1123 -41 
Q 819 9 494 109 
L 494 744 
Q 775 591 1075 516 
Q 1375 441 1709 441 
Q 2250 441 2565 725 
Q 2881 1009 2881 1497 
Q 2881 1984 2565 2268 
Q 2250 2553 1709 2553 
Q 1456 2553 1204 2497 
Q 953 2441 691 2322 
L 691 4666 
z
" transform="scale(0.015625)"/>
       </defs>
       <use xlink:href="#DejaVuSans-2212"/>
       <use xlink:href="#DejaVuSans-30" x="83.789062"/>
       <use xlink:href="#DejaVuSans-2e" x="147.412109"/>
       <use xlink:href="#DejaVuSans-37" x="179.199219"/>
       <use xlink:href="#DejaVuSans-35" x="242.822266"/>
      </g>
     </g>
    </g>
    <g id="xtick_3">
     <g id="line2d_5">
      <path d="M 145.309091 252 
L 145.309091 34.56 
" clip-path="url(#p276f8c9f1a)" style="fill: none; stroke: #b0b0b0; stroke-width: 0.8; stroke-linecap: square"/>
     </g>
     <g id="line2d_6">
      <g>
       <use xlink:href="#m6198ec7a00" x="145.309091" y="252" style="stroke: #000000; stroke-width: 0.8"/>
      </g>
     </g>
     <g id="text_3">
      <!-- −0.50 -->
      <g transform="translate(129.986435 266.598437)scale(0.1 -0.1)">
       <use xlink:href="#DejaVuSans-2212"/>
       <use xlink:href="#DejaVuSans-30" x="83.789062"/>
       <use xlink:href="#DejaVuSans-2e" x="147.412109"/>
       <use xlink:href="#DejaVuSans-35" x="179.199219"/>
       <use xlink:href="#DejaVuSans-30" x="242.822266"/>
      </g>
     </g>
    </g>
    <g id="xtick_4">
     <g id="line2d_7">
      <path d="M 183.354545 252 
L 183.354545 34.56 
" clip-path="url(#p276f8c9f1a)" style="fill: none; stroke: #b0b0b0; stroke-width: 0.8; stroke-linecap: square"/>
     </g>
     <g id="line2d_8">
      <g>
       <use xlink:href="#m6198ec7a00" x="183.354545" y="252" style="stroke: #000000; stroke-width: 0.8"/>
      </g>
     </g>
     <g id="text_4">
      <!-- −0.25 -->
      <g transform="translate(168.031889 266.598437)scale(0.1 -0.1)">
       <defs>
        <path id="DejaVuSans-32" d="M 1228 531 
L 3431 531 
L 3431 0 
L 469 0 
L 469 531 
Q 828 903 1448 1529 
Q 2069 2156 2228 2338 
Q 2531 2678 2651 2914 
Q 2772 3150 2772 3378 
Q 2772 3750 2511 3984 
Q 2250 4219 1831 4219 
Q 1534 4219 1204 4116 
Q 875 4013 500 3803 
L 500 4441 
Q 881 4594 1212 4672 
Q 1544 4750 1819 4750 
Q 2544 4750 2975 4387 
Q 3406 4025 3406 3419 
Q 3406 3131 3298 2873 
Q 3191 2616 2906 2266 
Q 2828 2175 2409 1742 
Q 1991 1309 1228 531 
z
" transform="scale(0.015625)"/>
       </defs>
       <use xlink:href="#DejaVuSans-2212"/>
       <use xlink:href="#DejaVuSans-30" x="83.789062"/>
       <use xlink:href="#DejaVuSans-2e" x="147.412109"/>
       <use xlink:href="#DejaVuSans-32" x="179.199219"/>
       <use xlink:href="#DejaVuSans-35" x="242.822266"/>
      </g>
     </g>
    </g>
    <g id="xtick_5">
     <g id="line2d_9">
      <path d="M 221.4 252 
L 221.4 34.56 
" clip-path="url(#p276f8c9f1a)" style="fill: none; stroke: #b0b0b0; stroke-width: 0.8; stroke-linecap: square"/>
     </g>
     <g id="line2d_10">
      <g>
       <use xlink:href="#m6198ec7a00" x="221.4" y="252" style="stroke: #000000; stroke-width: 0.8"/>
      </g>
     </g>
     <g id="text_5">
      <!-- 0.00 -->
      <g transform="translate(210.267188 266.598437)scale(0.1 -0.1)">
       <use xlink:href="#DejaVuSans-30"/>
       <use xlink:href="#DejaVuSans-2e" x="63.623047"/>
       <use xlink:href="#DejaVuSans-30" x="95.410156"/>
       <use xlink:href="#DejaVuSans-30" x="159.033203"/>
      </g>
     </g>
    </g>
    <g id="xtick_6">
     <g id="line2d_11">
      <path d="M 259.445455 252 
L 259.445455 34.56 
" clip-path="url(#p276f8c9f1a)" style="fill: none; stroke: #b0b0b0; stroke-width: 0.8; stroke-linecap: square"/>
     </g>
     <g id="line2d_12">
      <g>
       <use xlink:href="#m6198ec7a00" x="259.445455" y="252" style="stroke: #000000; stroke-width: 0.8"/>
      </g>
     </g>
     <g id="text_6">
      <!-- 0.25 -->
      <g transform="translate(248.312642 266.598437)scale(0.1 -0.1)">
       <use xlink:href="#DejaVuSans-30"/>
       <use xlink:href="#DejaVuSans-2e" x="63.623047"/>
       <use xlink:href="#DejaVuSans-32" x="95.410156"/>
       <use xlink:href="#DejaVuSans-35" x="159.033203"/>
      </g>
     </g>
    </g>
    <g id="xtick_7">
     <g id="line2d_13">
      <path d="M 297.490909 252 
L 297.490909 34.56 
" clip-path="url(#p276f8c9f1a)" style="fill: none; stroke: #b0b0b0; stroke-width: 0.8; stroke-linecap: square"/>
     </g>
     <g id="line2d_14">
      <g>
       <use xlink:href="#m6198ec7a00" x="297.490909" y="252" style="stroke: #000000; stroke-width: 0.8"/>
      </g>
     </g>
     <g id="text_7">
      <!-- 0.50 -->
      <g transform="translate(286.358097 266.598437)scale(0.1 -0.1)">
       <use xlink:href="#DejaVuSans-30"/>
       <use xlink:href="#DejaVuSans-2e" x="63.623047"/>
       <use xlink:href="#DejaVuSans-35" x="95.410156"/>
       <use xlink:href="#DejaVuSans-30" x="159.033203"/>
      </g>
     </g>
    </g>
    <g id="xtick_8">
     <g id="line2d_15">
      <path d="M 335.536364 252 
L 335.536364 34.56 
" clip-path="url(#p276f8c9f1a)" style="fill: none; stroke: #b0b0b0; stroke-width: 0.8; stroke-linecap: square"/>
     </g>
     <g id="line2d_16">
      <g>
       <use xlink:href="#m6198ec7a00" x="335.536364" y="252" style="stroke: #000000; stroke-width: 0.8"/>
      </g>
     </g>
     <g id="text_8">
      <!-- 0.75 -->
      <g transform="translate(324.403551 266.598437)scale(0.1 -0.1)">
       <use xlink:href="#DejaVuSans-30"/>
       <use xlink:href="#DejaVuSans-2e" x="63.623047"/>
       <use xlink:href="#DejaVuSans-37" x="95.410156"/>
       <use xlink:href="#DejaVuSans-35" x="159.033203"/>
      </g>
     </g>
    </g>
    <g id="xtick_9">
     <g id="line2d_17">
      <path d="M 373.581818 252 
L 373.581818 34.56 
" clip-path="url(#p276f8c9f1a)" style="fill: none; stroke: #b0b0b0; stroke-width: 0.8; stroke-linecap: square"/>
     </g>
     <g id="line2d_18">
      <g>
       <use xlink:href="#m6198ec7a00" x="373.581818" y="252" style="stroke: #000000; stroke-width: 0.8"/>
      </g>
     </g>
     <g id="text_9">
      <!-- 1.00 -->
      <g transform="translate(362.449006 266.598437)scale(0.1 -0.1)">
       <use xlink:href="#DejaVuSans-31"/>
       <use xlink:href="#DejaVuSans-2e" x="63.623047"/>
       <use xlink:href="#DejaVuSans-30" x="95.410156"/>
       <use xlink:href="#DejaVuSans-30" x="159.033203"/>
      </g>
     </g>
    </g>
    <g id="text_10">
     <!-- $x$ -->
     <g transform="translate(218.4 280.276563)scale(0.1 -0.1)">
      <defs>
       <path id="DejaVuSans-Oblique-78" d="M 3841 3500 
L 2234 1784 
L 3219 0 
L 2559 0 
L 1819 1388 
L 531 0 
L -166 0 
L 1556 1844 
L 641 3500 
L 1300 3500 
L 1972 2234 
L 3144 3500 
L 3841 3500 
z
" transform="scale(0.015625)"/>
      </defs>
      <use xlink:href="#DejaVuSans-Oblique-78" transform="translate(0 0.3125)"/>
     </g>
    </g>
   </g>
   <g id="matplotlib.axis_2">
    <g id="ytick_1">
     <g id="line2d_19">
      <path d="M 54 242.116364 
L 388.8 242.116364 
" clip-path="url(#p276f8c9f1a)" style="fill: none; stroke: #b0b0b0; stroke-width: 0.8; stroke-linecap: square"/>
     </g>
     <g id="line2d_20">
      <defs>
       <path id="mecef259b24" d="M 0 0 
L -3.5 0 
" style="stroke: #000000; stroke-width: 0.8"/>
      </defs>
      <g>
       <use xlink:href="#mecef259b24" x="54" y="242.116364" style="stroke: #000000; stroke-width: 0.8"/>
      </g>
     </g>
     <g id="text_11">
      <!-- 0.0 -->
      <g transform="translate(31.096875 245.915582)scale(0.1 -0.1)">
       <use xlink:href="#DejaVuSans-30"/>
       <use xlink:href="#DejaVuSans-2e" x="63.623047"/>
       <use xlink:href="#DejaVuSans-30" x="95.410156"/>
      </g>
     </g>
    </g>
    <g id="ytick_2">
     <g id="line2d_21">
      <path d="M 54 213.88174 
L 388.8 213.88174 
" clip-path="url(#p276f8c9f1a)" style="fill: none; stroke: #b0b0b0; stroke-width: 0.8; stroke-linecap: square"/>
     </g>
     <g id="line2d_22">
      <g>
       <use xlink:href="#mecef259b24" x="54" y="213.88174" style="stroke: #000000; stroke-width: 0.8"/>
      </g>
     </g>
     <g id="text_12">
      <!-- 0.1 -->
      <g transform="translate(31.096875 217.680959)scale(0.1 -0.1)">
       <use xlink:href="#DejaVuSans-30"/>
       <use xlink:href="#DejaVuSans-2e" x="63.623047"/>
       <use xlink:href="#DejaVuSans-31" x="95.410156"/>
      </g>
     </g>
    </g>
    <g id="ytick_3">
     <g id="line2d_23">
      <path d="M 54 185.647117 
L 388.8 185.647117 
" clip-path="url(#p276f8c9f1a)" style="fill: none; stroke: #b0b0b0; stroke-width: 0.8; stroke-linecap: square"/>
     </g>
     <g id="line2d_24">
      <g>
       <use xlink:href="#mecef259b24" x="54" y="185.647117" style="stroke: #000000; stroke-width: 0.8"/>
      </g>
     </g>
     <g id="text_13">
      <!-- 0.2 -->
      <g transform="translate(31.096875 189.446336)scale(0.1 -0.1)">
       <use xlink:href="#DejaVuSans-30"/>
       <use xlink:href="#DejaVuSans-2e" x="63.623047"/>
       <use xlink:href="#DejaVuSans-32" x="95.410156"/>
      </g>
     </g>
    </g>
    <g id="ytick_4">
     <g id="line2d_25">
      <path d="M 54 157.412494 
L 388.8 157.412494 
" clip-path="url(#p276f8c9f1a)" style="fill: none; stroke: #b0b0b0; stroke-width: 0.8; stroke-linecap: square"/>
     </g>
     <g id="line2d_26">
      <g>
       <use xlink:href="#mecef259b24" x="54" y="157.412494" style="stroke: #000000; stroke-width: 0.8"/>
      </g>
     </g>
     <g id="text_14">
      <!-- 0.3 -->
      <g transform="translate(31.096875 161.211713)scale(0.1 -0.1)">
       <defs>
        <path id="DejaVuSans-33" d="M 2597 2516 
Q 3050 2419 3304 2112 
Q 3559 1806 3559 1356 
Q 3559 666 3084 287 
Q 2609 -91 1734 -91 
Q 1441 -91 1130 -33 
Q 819 25 488 141 
L 488 750 
Q 750 597 1062 519 
Q 1375 441 1716 441 
Q 2309 441 2620 675 
Q 2931 909 2931 1356 
Q 2931 1769 2642 2001 
Q 2353 2234 1838 2234 
L 1294 2234 
L 1294 2753 
L 1863 2753 
Q 2328 2753 2575 2939 
Q 2822 3125 2822 3475 
Q 2822 3834 2567 4026 
Q 2313 4219 1838 4219 
Q 1578 4219 1281 4162 
Q 984 4106 628 3988 
L 628 4550 
Q 988 4650 1302 4700 
Q 1616 4750 1894 4750 
Q 2613 4750 3031 4423 
Q 3450 4097 3450 3541 
Q 3450 3153 3228 2886 
Q 3006 2619 2597 2516 
z
" transform="scale(0.015625)"/>
       </defs>
       <use xlink:href="#DejaVuSans-30"/>
       <use xlink:href="#DejaVuSans-2e" x="63.623047"/>
       <use xlink:href="#DejaVuSans-33" x="95.410156"/>
      </g>
     </g>
    </g>
    <g id="ytick_5">
     <g id="line2d_27">
      <path d="M 54 129.177871 
L 388.8 129.177871 
" clip-path="url(#p276f8c9f1a)" style="fill: none; stroke: #b0b0b0; stroke-width: 0.8; stroke-linecap: square"/>
     </g>
     <g id="line2d_28">
      <g>
       <use xlink:href="#mecef259b24" x="54" y="129.177871" style="stroke: #000000; stroke-width: 0.8"/>
      </g>
     </g>
     <g id="text_15">
      <!-- 0.4 -->
      <g transform="translate(31.096875 132.977089)scale(0.1 -0.1)">
       <defs>
        <path id="DejaVuSans-34" d="M 2419 4116 
L 825 1625 
L 2419 1625 
L 2419 4116 
z
M 2253 4666 
L 3047 4666 
L 3047 1625 
L 3713 1625 
L 3713 1100 
L 3047 1100 
L 3047 0 
L 2419 0 
L 2419 1100 
L 313 1100 
L 313 1709 
L 2253 4666 
z
" transform="scale(0.015625)"/>
       </defs>
       <use xlink:href="#DejaVuSans-30"/>
       <use xlink:href="#DejaVuSans-2e" x="63.623047"/>
       <use xlink:href="#DejaVuSans-34" x="95.410156"/>
      </g>
     </g>
    </g>
    <g id="ytick_6">
     <g id="line2d_29">
      <path d="M 54 100.943247 
L 388.8 100.943247 
" clip-path="url(#p276f8c9f1a)" style="fill: none; stroke: #b0b0b0; stroke-width: 0.8; stroke-linecap: square"/>
     </g>
     <g id="line2d_30">
      <g>
       <use xlink:href="#mecef259b24" x="54" y="100.943247" style="stroke: #000000; stroke-width: 0.8"/>
      </g>
     </g>
     <g id="text_16">
      <!-- 0.5 -->
      <g transform="translate(31.096875 104.742466)scale(0.1 -0.1)">
       <use xlink:href="#DejaVuSans-30"/>
       <use xlink:href="#DejaVuSans-2e" x="63.623047"/>
       <use xlink:href="#DejaVuSans-35" x="95.410156"/>
      </g>
     </g>
    </g>
    <g id="ytick_7">
     <g id="line2d_31">
      <path d="M 54 72.708624 
L 388.8 72.708624 
" clip-path="url(#p276f8c9f1a)" style="fill: none; stroke: #b0b0b0; stroke-width: 0.8; stroke-linecap: square"/>
     </g>
     <g id="line2d_32">
      <g>
       <use xlink:href="#mecef259b24" x="54" y="72.708624" style="stroke: #000000; stroke-width: 0.8"/>
      </g>
     </g>
     <g id="text_17">
      <!-- 0.6 -->
      <g transform="translate(31.096875 76.507843)scale(0.1 -0.1)">
       <defs>
        <path id="DejaVuSans-36" d="M 2113 2584 
Q 1688 2584 1439 2293 
Q 1191 2003 1191 1497 
Q 1191 994 1439 701 
Q 1688 409 2113 409 
Q 2538 409 2786 701 
Q 3034 994 3034 1497 
Q 3034 2003 2786 2293 
Q 2538 2584 2113 2584 
z
M 3366 4563 
L 3366 3988 
Q 3128 4100 2886 4159 
Q 2644 4219 2406 4219 
Q 1781 4219 1451 3797 
Q 1122 3375 1075 2522 
Q 1259 2794 1537 2939 
Q 1816 3084 2150 3084 
Q 2853 3084 3261 2657 
Q 3669 2231 3669 1497 
Q 3669 778 3244 343 
Q 2819 -91 2113 -91 
Q 1303 -91 875 529 
Q 447 1150 447 2328 
Q 447 3434 972 4092 
Q 1497 4750 2381 4750 
Q 2619 4750 2861 4703 
Q 3103 4656 3366 4563 
z
" transform="scale(0.015625)"/>
       </defs>
       <use xlink:href="#DejaVuSans-30"/>
       <use xlink:href="#DejaVuSans-2e" x="63.623047"/>
       <use xlink:href="#DejaVuSans-36" x="95.410156"/>
      </g>
     </g>
    </g>
    <g id="ytick_8">
     <g id="line2d_33">
      <path d="M 54 44.474001 
L 388.8 44.474001 
" clip-path="url(#p276f8c9f1a)" style="fill: none; stroke: #b0b0b0; stroke-width: 0.8; stroke-linecap: square"/>
     </g>
     <g id="line2d_34">
      <g>
       <use xlink:href="#mecef259b24" x="54" y="44.474001" style="stroke: #000000; stroke-width: 0.8"/>
      </g>
     </g>
     <g id="text_18">
      <!-- 0.7 -->
      <g transform="translate(31.096875 48.273219)scale(0.1 -0.1)">
       <use xlink:href="#DejaVuSans-30"/>
       <use xlink:href="#DejaVuSans-2e" x="63.623047"/>
       <use xlink:href="#DejaVuSans-37" x="95.410156"/>
      </g>
     </g>
    </g>
    <g id="text_19">
     <!-- $v$ -->
     <g transform="translate(25.017187 146.28)rotate(-90)scale(0.1 -0.1)">
      <defs>
       <path id="DejaVuSans-Oblique-76" d="M 459 3500 
L 1069 3500 
L 1581 525 
L 3256 3500 
L 3866 3500 
L 1875 0 
L 1100 0 
L 459 3500 
z
" transform="scale(0.015625)"/>
      </defs>
      <use xlink:href="#DejaVuSans-Oblique-76" transform="translate(0 0.3125)"/>
     </g>
    </g>
   </g>
   <g id="line2d_35">
    <path d="M 221.4 242.116364 
L 221.415218 242.116357 
L 221.491309 242.116118 
L 221.871764 242.109813 
L 223.774036 241.950536 
L 233.2854 237.994402 
L 241.98838 229.961576 
L 249.815444 219.511039 
L 257.642508 206.503699 
L 264.539042 193.410564 
L 271.435576 179.296507 
L 278.332111 164.689361 
L 285.228645 150.123001 
L 292.125179 136.09127 
L 299.021714 122.992981 
L 307.598553 108.374303 
L 318.726552 92.320227 
L 328.680449 80.436867 
L 338.634346 70.404265 
L 348.588243 61.790994 
L 358.54214 54.265662 
L 371.232707 45.875146 
L 373.581818 44.443636 
" clip-path="url(#p276f8c9f1a)" style="fill: none; stroke: #000000; stroke-width: 1.5; stroke-linecap: square"/>
   </g>
   <g id="line2d_36">
    <path d="M 221.4 242.116364 
L 221.384782 242.116357 
L 221.308691 242.116118 
L 220.928236 242.109813 
L 219.025964 241.950536 
L 209.5146 237.994402 
L 200.81162 229.961576 
L 192.984556 219.511039 
L 185.157492 206.503699 
L 178.260958 193.410564 
L 171.364424 179.296507 
L 164.467889 164.689361 
L 157.571355 150.123001 
L 150.674821 136.09127 
L 143.778286 122.992981 
L 135.201447 108.374303 
L 124.073448 92.320227 
L 114.119551 80.436867 
L 104.165654 70.404265 
L 94.211757 61.790994 
L 84.25786 54.265662 
L 71.567293 45.875146 
L 69.218182 44.443636 
" clip-path="url(#p276f8c9f1a)" style="fill: none; stroke: #000000; stroke-width: 1.5; stroke-linecap: square"/>
   </g>
   <g id="line2d_37">
    <path d="M 69.218182 196.297878 
L 72.261818 198.11229 
L 75.305455 199.890047 
L 78.349091 201.63115 
L 81.392727 203.335597 
L 84.436364 205.00339 
L 87.48 206.634528 
L 90.523636 208.229012 
L 93.567273 209.78684 
L 96.610909 211.308014 
L 99.654545 212.792533 
L 102.698182 214.240397 
L 105.741818 215.651606 
L 108.785455 217.026161 
L 111.829091 218.364061 
L 114.872727 219.665306 
L 117.916364 220.929896 
L 120.96 222.157831 
L 124.003636 223.349112 
L 127.047273 224.503738 
L 130.090909 225.621709 
L 133.134545 226.703025 
L 136.178182 227.747686 
L 139.221818 228.755693 
L 142.265455 229.727045 
L 145.309091 230.661742 
L 148.352727 231.559785 
L 151.396364 232.421172 
L 154.44 233.245905 
L 157.483636 234.033983 
L 160.527273 234.785406 
L 163.570909 235.500174 
L 166.614545 236.178288 
L 169.658182 236.819747 
L 172.701818 237.424551 
L 175.745455 237.9927 
L 178.789091 238.524194 
L 181.832727 239.019034 
L 184.876364 239.477219 
L 187.92 239.898749 
L 190.963636 240.283624 
L 194.007273 240.631845 
L 197.050909 240.94341 
L 200.094545 241.218321 
L 203.138182 241.456577 
L 206.181818 241.658179 
L 209.225455 241.823125 
L 212.269091 241.951417 
L 215.312727 242.043054 
L 218.356364 242.098036 
L 221.4 242.116364 
L 224.443636 242.098036 
L 227.487273 242.043054 
L 230.530909 241.951417 
L 233.574545 241.823125 
L 236.618182 241.658179 
L 239.661818 241.456577 
L 242.705455 241.218321 
L 245.749091 240.94341 
L 248.792727 240.631845 
L 251.836364 240.283624 
L 254.88 239.898749 
L 257.923636 239.477219 
L 260.967273 239.019034 
L 264.010909 238.524194 
L 267.054545 237.9927 
L 270.098182 237.424551 
L 273.141818 236.819747 
L 276.185455 236.178288 
L 279.229091 235.500174 
L 282.272727 234.785406 
L 285.316364 234.033983 
L 288.36 233.245905 
L 291.403636 232.421172 
L 294.447273 231.559785 
L 297.490909 230.661742 
L 300.534545 229.727045 
L 303.578182 228.755693 
L 306.621818 227.747686 
L 309.665455 226.703025 
L 312.709091 225.621709 
L 315.752727 224.503738 
L 318.796364 223.349112 
L 321.84 222.157831 
L 324.883636 220.929896 
L 327.927273 219.665306 
L 330.970909 218.364061 
L 334.014545 217.026161 
L 337.058182 215.651606 
L 340.101818 214.240397 
L 343.145455 212.792533 
L 346.189091 211.308014 
L 349.232727 209.78684 
L 352.276364 208.229012 
L 355.32 206.634528 
L 358.363636 205.00339 
L 361.407273 203.335597 
L 364.450909 201.63115 
L 367.494545 199.890047 
L 370.538182 198.11229 
L 373.581818 196.297878 
" clip-path="url(#p276f8c9f1a)" style="fill: none; stroke: #1f77b4; stroke-width: 1.5; stroke-linecap: square"/>
   </g>
   <g id="line2d_38">
    <path d="M 69.218182 192.227262 
L 72.261818 176.93837 
L 75.305455 163.33922 
L 78.349091 151.345268 
L 81.392727 140.873714 
L 84.436364 131.843501 
L 87.48 124.175316 
L 90.523636 117.791588 
L 93.567273 112.616488 
L 96.610909 108.575933 
L 99.654545 105.597581 
L 102.698182 103.610834 
L 105.741818 102.546838 
L 108.785455 102.33848 
L 111.829091 102.920392 
L 114.872727 104.228948 
L 117.916364 106.202267 
L 120.96 108.780209 
L 124.003636 111.904378 
L 127.047273 115.518121 
L 130.090909 119.566529 
L 133.134545 123.996436 
L 136.178182 128.756417 
L 139.221818 133.796793 
L 142.265455 139.069627 
L 145.309091 144.528725 
L 148.352727 150.129637 
L 151.396364 155.829654 
L 154.44 161.587814 
L 157.483636 167.364893 
L 160.527273 173.123415 
L 163.570909 178.827645 
L 166.614545 184.443591 
L 169.658182 189.939004 
L 172.701818 195.283379 
L 175.745455 200.447954 
L 178.789091 205.40571 
L 181.832727 210.131371 
L 184.876364 214.601404 
L 187.92 218.794021 
L 190.963636 222.689173 
L 194.007273 226.268559 
L 197.050909 229.515618 
L 200.094545 232.415534 
L 203.138182 234.955231 
L 206.181818 237.123381 
L 209.225455 238.910396 
L 212.269091 240.308431 
L 215.312727 241.311385 
L 218.356364 241.914901 
L 221.4 242.116364 
L 224.443636 241.914901 
L 227.487273 241.311385 
L 230.530909 240.308431 
L 233.574545 238.910396 
L 236.618182 237.123381 
L 239.661818 234.955231 
L 242.705455 232.415534 
L 245.749091 229.515618 
L 248.792727 226.268559 
L 251.836364 222.689173 
L 254.88 218.794021 
L 257.923636 214.601404 
L 260.967273 210.131371 
L 264.010909 205.40571 
L 267.054545 200.447954 
L 270.098182 195.283379 
L 273.141818 189.939004 
L 276.185455 184.443591 
L 279.229091 178.827645 
L 282.272727 173.123415 
L 285.316364 167.364893 
L 288.36 161.587814 
L 291.403636 155.829654 
L 294.447273 150.129637 
L 297.490909 144.528725 
L 300.534545 139.069627 
L 303.578182 133.796793 
L 306.621818 128.756417 
L 309.665455 123.996436 
L 312.709091 119.566529 
L 315.752727 115.518121 
L 318.796364 111.904378 
L 321.84 108.780209 
L 324.883636 106.202267 
L 327.927273 104.228948 
L 330.970909 102.920392 
L 334.014545 102.33848 
L 337.058182 102.546838 
L 340.101818 103.610834 
L 343.145455 105.597581 
L 346.189091 108.575933 
L 349.232727 112.616488 
L 352.276364 117.791588 
L 355.32 124.175316 
L 358.363636 131.843501 
L 361.407273 140.873714 
L 364.450909 151.345268 
L 367.494545 163.33922 
L 370.538182 176.93837 
L 373.581818 192.227262 
" clip-path="url(#p276f8c9f1a)" style="fill: none; stroke: #ff7f0e; stroke-width: 1.5; stroke-linecap: square"/>
   </g>
   <g id="line2d_39">
    <path d="M 69.218182 87.436714 
L 72.261818 88.839232 
L 75.305455 89.50668 
L 78.349091 89.613737 
L 81.392727 89.317936 
L 84.436364 88.760504 
L 87.48 88.067196 
L 90.523636 87.349106 
L 93.567273 86.703456 
L 96.610909 86.214376 
L 99.654545 85.953659 
L 102.698182 85.981502 
L 105.741818 86.347228 
L 108.785455 87.089988 
L 111.829091 88.239451 
L 114.872727 89.816468 
L 117.916364 91.833728 
L 120.96 94.296384 
L 124.003636 97.202676 
L 127.047273 100.54452 
L 130.090909 104.308094 
L 133.134545 108.474396 
L 136.178182 113.019787 
L 139.221818 117.916521 
L 142.265455 123.133248 
L 145.309091 128.635509 
L 148.352727 134.386203 
L 151.396364 140.346046 
L 154.44 146.474007 
L 157.483636 152.727725 
L 160.527273 159.063911 
L 163.570909 165.438733 
L 166.614545 171.808177 
L 169.658182 178.128401 
L 172.701818 184.356059 
L 175.745455 190.448615 
L 178.789091 196.364639 
L 181.832727 202.06408 
L 184.876364 207.508526 
L 187.92 212.661447 
L 190.963636 217.488413 
L 194.007273 221.957303 
L 197.050909 226.03849 
L 200.094545 229.705011 
L 203.138182 232.932719 
L 206.181818 235.700416 
L 209.225455 237.989969 
L 212.269091 239.78641 
L 215.312727 241.078011 
L 218.356364 241.856352 
L 221.4 242.116364 
L 224.443636 241.856352 
L 227.487273 241.078011 
L 230.530909 239.78641 
L 233.574545 237.989969 
L 236.618182 235.700416 
L 239.661818 232.932719 
L 242.705455 229.705011 
L 245.749091 226.03849 
L 248.792727 221.957303 
L 251.836364 217.488413 
L 254.88 212.661447 
L 257.923636 207.508526 
L 260.967273 202.06408 
L 264.010909 196.364639 
L 267.054545 190.448615 
L 270.098182 184.356059 
L 273.141818 178.128401 
L 276.185455 171.808177 
L 279.229091 165.438733 
L 282.272727 159.063911 
L 285.316364 152.727725 
L 288.36 146.474007 
L 291.403636 140.346046 
L 294.447273 134.386203 
L 297.490909 128.635509 
L 300.534545 123.133248 
L 303.578182 117.916521 
L 306.621818 113.019787 
L 309.665455 108.474396 
L 312.709091 104.308094 
L 315.752727 100.54452 
L 318.796364 97.202676 
L 321.84 94.296384 
L 324.883636 91.833728 
L 327.927273 89.816468 
L 330.970909 88.239451 
L 334.014545 87.089988 
L 337.058182 86.347228 
L 340.101818 85.981502 
L 343.145455 85.953659 
L 346.189091 86.214376 
L 349.232727 86.703456 
L 352.276364 87.349106 
L 355.32 88.067196 
L 358.363636 88.760504 
L 361.407273 89.317936 
L 364.450909 89.613737 
L 367.494545 89.50668 
L 370.538182 88.839232 
L 373.581818 87.436714 
" clip-path="url(#p276f8c9f1a)" style="fill: none; stroke: #2ca02c; stroke-width: 1.5; stroke-linecap: square"/>
   </g>
   <g id="line2d_40">
    <path d="M 69.218182 49.073015 
L 72.261818 50.418118 
L 75.305455 52.069377 
L 78.349091 53.937333 
L 81.392727 55.956128 
L 84.436364 58.080016 
L 87.48 60.280161 
L 90.523636 62.541728 
L 93.567273 64.86124 
L 96.610909 67.244187 
L 99.654545 69.702888 
L 102.698182 72.254573 
L 105.741818 74.919686 
L 108.785455 77.720395 
L 111.829091 80.679289 
L 114.872727 83.818257 
L 117.916364 87.157537 
L 120.96 90.714924 
L 124.003636 94.505121 
L 127.047273 98.539224 
L 130.090909 102.824344 
L 133.134545 107.363328 
L 136.178182 112.154599 
L 139.221818 117.192086 
L 142.265455 122.465245 
L 145.309091 127.959154 
L 148.352727 133.654681 
L 151.396364 139.528716 
L 154.44 145.554452 
L 157.483636 151.701714 
L 160.527273 157.937331 
L 163.570909 164.225535 
L 166.614545 170.528388 
L 169.658182 176.80623 
L 172.701818 183.018137 
L 175.745455 189.122386 
L 178.789091 195.076928 
L 181.832727 200.839854 
L 184.876364 206.369849 
L 187.92 211.626642 
L 190.963636 216.571438 
L 194.007273 221.167321 
L 197.050909 225.379647 
L 200.094545 229.176399 
L 203.138182 232.528517 
L 206.181818 235.410196 
L 209.225455 237.799144 
L 212.269091 239.676812 
L 215.312727 241.028576 
L 218.356364 241.843884 
L 221.4 242.116364 
L 224.443636 241.843884 
L 227.487273 241.028576 
L 230.530909 239.676812 
L 233.574545 237.799144 
L 236.618182 235.410196 
L 239.661818 232.528517 
L 242.705455 229.176399 
L 245.749091 225.379647 
L 248.792727 221.167321 
L 251.836364 216.571438 
L 254.88 211.626642 
L 257.923636 206.369849 
L 260.967273 200.839854 
L 264.010909 195.076928 
L 267.054545 189.122386 
L 270.098182 183.018137 
L 273.141818 176.80623 
L 276.185455 170.528388 
L 279.229091 164.225535 
L 282.272727 157.937331 
L 285.316364 151.701714 
L 288.36 145.554452 
L 291.403636 139.528716 
L 294.447273 133.654681 
L 297.490909 127.959154 
L 300.534545 122.465245 
L 303.578182 117.192086 
L 306.621818 112.154599 
L 309.665455 107.363328 
L 312.709091 102.824344 
L 315.752727 98.539224 
L 318.796364 94.505121 
L 321.84 90.714924 
L 324.883636 87.157537 
L 327.927273 83.818257 
L 330.970909 80.679289 
L 334.014545 77.720395 
L 337.058182 74.919686 
L 340.101818 72.254573 
L 343.145455 69.702888 
L 346.189091 67.244187 
L 349.232727 64.86124 
L 352.276364 62.541728 
L 355.32 60.280161 
L 358.363636 58.080016 
L 361.407273 55.956128 
L 364.450909 53.937333 
L 367.494545 52.069377 
L 370.538182 50.418118 
L 373.581818 49.073015 
" clip-path="url(#p276f8c9f1a)" style="fill: none; stroke: #d62728; stroke-width: 1.5; stroke-linecap: square"/>
   </g>
   <g id="patch_3">
    <path d="M 54 252 
L 54 34.56 
" style="fill: none; stroke: #000000; stroke-width: 0.8; stroke-linejoin: miter; stroke-linecap: square"/>
   </g>
   <g id="patch_4">
    <path d="M 388.8 252 
L 388.8 34.56 
" style="fill: none; stroke: #000000; stroke-width: 0.8; stroke-linejoin: miter; stroke-linecap: square"/>
   </g>
   <g id="patch_5">
    <path d="M 54 252 
L 388.8 252 
" style="fill: none; stroke: #000000; stroke-width: 0.8; stroke-linejoin: miter; stroke-linecap: square"/>
   </g>
   <g id="patch_6">
    <path d="M 54 34.56 
L 388.8 34.56 
" style="fill: none; stroke: #000000; stroke-width: 0.8; stroke-linejoin: miter; stroke-linecap: square"/>
   </g>
   <g id="text_20">
    <!-- Value-function lower bound -->
    <g transform="translate(139.137188 28.56)scale(0.12 -0.12)">
     <defs>
      <path id="DejaVuSans-56" d="M 1831 0 
L 50 4666 
L 709 4666 
L 2188 738 
L 3669 4666 
L 4325 4666 
L 2547 0 
L 1831 0 
z
" transform="scale(0.015625)"/>
      <path id="DejaVuSans-61" d="M 2194 1759 
Q 1497 1759 1228 1600 
Q 959 1441 959 1056 
Q 959 750 1161 570 
Q 1363 391 1709 391 
Q 2188 391 2477 730 
Q 2766 1069 2766 1631 
L 2766 1759 
L 2194 1759 
z
M 3341 1997 
L 3341 0 
L 2766 0 
L 2766 531 
Q 2569 213 2275 61 
Q 1981 -91 1556 -91 
Q 1019 -91 701 211 
Q 384 513 384 1019 
Q 384 1609 779 1909 
Q 1175 2209 1959 2209 
L 2766 2209 
L 2766 2266 
Q 2766 2663 2505 2880 
Q 2244 3097 1772 3097 
Q 1472 3097 1187 3025 
Q 903 2953 641 2809 
L 641 3341 
Q 956 3463 1253 3523 
Q 1550 3584 1831 3584 
Q 2591 3584 2966 3190 
Q 3341 2797 3341 1997 
z
" transform="scale(0.015625)"/>
      <path id="DejaVuSans-6c" d="M 603 4863 
L 1178 4863 
L 1178 0 
L 603 0 
L 603 4863 
z
" transform="scale(0.015625)"/>
      <path id="DejaVuSans-75" d="M 544 1381 
L 544 3500 
L 1119 3500 
L 1119 1403 
Q 1119 906 1312 657 
Q 1506 409 1894 409 
Q 2359 409 2629 706 
Q 2900 1003 2900 1516 
L 2900 3500 
L 3475 3500 
L 3475 0 
L 2900 0 
L 2900 538 
Q 2691 219 2414 64 
Q 2138 -91 1772 -91 
Q 1169 -91 856 284 
Q 544 659 544 1381 
z
M 1991 3584 
L 1991 3584 
z
" transform="scale(0.015625)"/>
      <path id="DejaVuSans-65" d="M 3597 1894 
L 3597 1613 
L 953 1613 
Q 991 1019 1311 708 
Q 1631 397 2203 397 
Q 2534 397 2845 478 
Q 3156 559 3463 722 
L 3463 178 
Q 3153 47 2828 -22 
Q 2503 -91 2169 -91 
Q 1331 -91 842 396 
Q 353 884 353 1716 
Q 353 2575 817 3079 
Q 1281 3584 2069 3584 
Q 2775 3584 3186 3129 
Q 3597 2675 3597 1894 
z
M 3022 2063 
Q 3016 2534 2758 2815 
Q 2500 3097 2075 3097 
Q 1594 3097 1305 2825 
Q 1016 2553 972 2059 
L 3022 2063 
z
" transform="scale(0.015625)"/>
      <path id="DejaVuSans-2d" d="M 313 2009 
L 1997 2009 
L 1997 1497 
L 313 1497 
L 313 2009 
z
" transform="scale(0.015625)"/>
      <path id="DejaVuSans-66" d="M 2375 4863 
L 2375 4384 
L 1825 4384 
Q 1516 4384 1395 4259 
Q 1275 4134 1275 3809 
L 1275 3500 
L 2222 3500 
L 2222 3053 
L 1275 3053 
L 1275 0 
L 697 0 
L 697 3053 
L 147 3053 
L 147 3500 
L 697 3500 
L 697 3744 
Q 697 4328 969 4595 
Q 1241 4863 1831 4863 
L 2375 4863 
z
" transform="scale(0.015625)"/>
      <path id="DejaVuSans-6e" d="M 3513 2113 
L 3513 0 
L 2938 0 
L 2938 2094 
Q 2938 2591 2744 2837 
Q 2550 3084 2163 3084 
Q 1697 3084 1428 2787 
Q 1159 2491 1159 1978 
L 1159 0 
L 581 0 
L 581 3500 
L 1159 3500 
L 1159 2956 
Q 1366 3272 1645 3428 
Q 1925 3584 2291 3584 
Q 2894 3584 3203 3211 
Q 3513 2838 3513 2113 
z
" transform="scale(0.015625)"/>
      <path id="DejaVuSans-63" d="M 3122 3366 
L 3122 2828 
Q 2878 2963 2633 3030 
Q 2388 3097 2138 3097 
Q 1578 3097 1268 2742 
Q 959 2388 959 1747 
Q 959 1106 1268 751 
Q 1578 397 2138 397 
Q 2388 397 2633 464 
Q 2878 531 3122 666 
L 3122 134 
Q 2881 22 2623 -34 
Q 2366 -91 2075 -91 
Q 1284 -91 818 406 
Q 353 903 353 1747 
Q 353 2603 823 3093 
Q 1294 3584 2113 3584 
Q 2378 3584 2631 3529 
Q 2884 3475 3122 3366 
z
" transform="scale(0.015625)"/>
      <path id="DejaVuSans-74" d="M 1172 4494 
L 1172 3500 
L 2356 3500 
L 2356 3053 
L 1172 3053 
L 1172 1153 
Q 1172 725 1289 603 
Q 1406 481 1766 481 
L 2356 481 
L 2356 0 
L 1766 0 
Q 1100 0 847 248 
Q 594 497 594 1153 
L 594 3053 
L 172 3053 
L 172 3500 
L 594 3500 
L 594 4494 
L 1172 4494 
z
" transform="scale(0.015625)"/>
      <path id="DejaVuSans-69" d="M 603 3500 
L 1178 3500 
L 1178 0 
L 603 0 
L 603 3500 
z
M 603 4863 
L 1178 4863 
L 1178 4134 
L 603 4134 
L 603 4863 
z
" transform="scale(0.015625)"/>
      <path id="DejaVuSans-6f" d="M 1959 3097 
Q 1497 3097 1228 2736 
Q 959 2375 959 1747 
Q 959 1119 1226 758 
Q 1494 397 1959 397 
Q 2419 397 2687 759 
Q 2956 1122 2956 1747 
Q 2956 2369 2687 2733 
Q 2419 3097 1959 3097 
z
M 1959 3584 
Q 2709 3584 3137 3096 
Q 3566 2609 3566 1747 
Q 3566 888 3137 398 
Q 2709 -91 1959 -91 
Q 1206 -91 779 398 
Q 353 888 353 1747 
Q 353 2609 779 3096 
Q 1206 3584 1959 3584 
z
" transform="scale(0.015625)"/>
      <path id="DejaVuSans-20" transform="scale(0.015625)"/>
      <path id="DejaVuSans-77" d="M 269 3500 
L 844 3500 
L 1563 769 
L 2278 3500 
L 2956 3500 
L 3675 769 
L 4391 3500 
L 4966 3500 
L 4050 0 
L 3372 0 
L 2619 2869 
L 1863 0 
L 1184 0 
L 269 3500 
z
" transform="scale(0.015625)"/>
      <path id="DejaVuSans-72" d="M 2631 2963 
Q 2534 3019 2420 3045 
Q 2306 3072 2169 3072 
Q 1681 3072 1420 2755 
Q 1159 2438 1159 1844 
L 1159 0 
L 581 0 
L 581 3500 
L 1159 3500 
L 1159 2956 
Q 1341 3275 1631 3429 
Q 1922 3584 2338 3584 
Q 2397 3584 2469 3576 
Q 2541 3569 2628 3553 
L 2631 2963 
z
" transform="scale(0.015625)"/>
      <path id="DejaVuSans-62" d="M 3116 1747 
Q 3116 2381 2855 2742 
Q 2594 3103 2138 3103 
Q 1681 3103 1420 2742 
Q 1159 2381 1159 1747 
Q 1159 1113 1420 752 
Q 1681 391 2138 391 
Q 2594 391 2855 752 
Q 3116 1113 3116 1747 
z
M 1159 2969 
Q 1341 3281 1617 3432 
Q 1894 3584 2278 3584 
Q 2916 3584 3314 3078 
Q 3713 2572 3713 1747 
Q 3713 922 3314 415 
Q 2916 -91 2278 -91 
Q 1894 -91 1617 61 
Q 1341 213 1159 525 
L 1159 0 
L 581 0 
L 581 4863 
L 1159 4863 
L 1159 2969 
z
" transform="scale(0.015625)"/>
      <path id="DejaVuSans-64" d="M 2906 2969 
L 2906 4863 
L 3481 4863 
L 3481 0 
L 2906 0 
L 2906 525 
Q 2725 213 2448 61 
Q 2172 -91 1784 -91 
Q 1150 -91 751 415 
Q 353 922 353 1747 
Q 353 2572 751 3078 
Q 1150 3584 1784 3584 
Q 2172 3584 2448 3432 
Q 2725 3281 2906 2969 
z
M 947 1747 
Q 947 1113 1208 752 
Q 1469 391 1925 391 
Q 2381 391 2643 752 
Q 2906 1113 2906 1747 
Q 2906 2381 2643 2742 
Q 2381 3103 1925 3103 
Q 1469 3103 1208 2742 
Q 947 2381 947 1747 
z
" transform="scale(0.015625)"/>
     </defs>
     <use xlink:href="#DejaVuSans-56"/>
     <use xlink:href="#DejaVuSans-61" x="60.658203"/>
     <use xlink:href="#DejaVuSans-6c" x="121.9375"/>
     <use xlink:href="#DejaVuSans-75" x="149.720703"/>
     <use xlink:href="#DejaVuSans-65" x="213.099609"/>
     <use xlink:href="#DejaVuSans-2d" x="274.623047"/>
     <use xlink:href="#DejaVuSans-66" x="310.707031"/>
     <use xlink:href="#DejaVuSans-75" x="345.912109"/>
     <use xlink:href="#DejaVuSans-6e" x="409.291016"/>
     <use xlink:href="#DejaVuSans-63" x="472.669922"/>
     <use xlink:href="#DejaVuSans-74" x="527.650391"/>
     <use xlink:href="#DejaVuSans-69" x="566.859375"/>
     <use xlink:href="#DejaVuSans-6f" x="594.642578"/>
     <use xlink:href="#DejaVuSans-6e" x="655.824219"/>
     <use xlink:href="#DejaVuSans-20" x="719.203125"/>
     <use xlink:href="#DejaVuSans-6c" x="750.990234"/>
     <use xlink:href="#DejaVuSans-6f" x="778.773438"/>
     <use xlink:href="#DejaVuSans-77" x="839.955078"/>
     <use xlink:href="#DejaVuSans-65" x="921.742188"/>
     <use xlink:href="#DejaVuSans-72" x="983.265625"/>
     <use xlink:href="#DejaVuSans-20" x="1024.378906"/>
     <use xlink:href="#DejaVuSans-62" x="1056.166016"/>
     <use xlink:href="#DejaVuSans-6f" x="1119.642578"/>
     <use xlink:href="#DejaVuSans-75" x="1180.824219"/>
     <use xlink:href="#DejaVuSans-6e" x="1244.203125"/>
     <use xlink:href="#DejaVuSans-64" x="1307.582031"/>
    </g>
   </g>
   <g id="legend_1">
    <g id="patch_7">
     <path d="M 188.939844 115.950625 
L 253.860156 115.950625 
Q 255.860156 115.950625 255.860156 113.950625 
L 255.860156 41.56 
Q 255.860156 39.56 253.860156 39.56 
L 188.939844 39.56 
Q 186.939844 39.56 186.939844 41.56 
L 186.939844 113.950625 
Q 186.939844 115.950625 188.939844 115.950625 
z
" style="fill: #ffffff; opacity: 0.8; stroke: #cccccc; stroke-linejoin: miter"/>
    </g>
    <g id="line2d_41">
     <path d="M 190.939844 47.658437 
L 200.939844 47.658437 
L 210.939844 47.658437 
" style="fill: none; stroke: #000000; stroke-width: 1.5; stroke-linecap: square"/>
    </g>
    <g id="text_21">
     <!-- J* -->
     <g transform="translate(218.939844 51.158437)scale(0.1 -0.1)">
      <defs>
       <path id="DejaVuSans-4a" d="M 628 4666 
L 1259 4666 
L 1259 325 
Q 1259 -519 939 -900 
Q 619 -1281 -91 -1281 
L -331 -1281 
L -331 -750 
L -134 -750 
Q 284 -750 456 -515 
Q 628 -281 628 325 
L 628 4666 
z
" transform="scale(0.015625)"/>
       <path id="DejaVuSans-2a" d="M 3009 3897 
L 1888 3291 
L 3009 2681 
L 2828 2375 
L 1778 3009 
L 1778 1831 
L 1422 1831 
L 1422 3009 
L 372 2375 
L 191 2681 
L 1313 3291 
L 191 3897 
L 372 4206 
L 1422 3572 
L 1422 4750 
L 1778 4750 
L 1778 3572 
L 2828 4206 
L 3009 3897 
z
" transform="scale(0.015625)"/>
      </defs>
      <use xlink:href="#DejaVuSans-4a"/>
      <use xlink:href="#DejaVuSans-2a" x="29.492188"/>
     </g>
    </g>
    <g id="line2d_42">
     <path d="M 190.939844 62.336562 
L 200.939844 62.336562 
L 210.939844 62.336562 
" style="fill: none; stroke: #1f77b4; stroke-width: 1.5; stroke-linecap: square"/>
    </g>
    <g id="text_22">
     <!-- Deg. 2 -->
     <g transform="translate(218.939844 65.836562)scale(0.1 -0.1)">
      <defs>
       <path id="DejaVuSans-44" d="M 1259 4147 
L 1259 519 
L 2022 519 
Q 2988 519 3436 956 
Q 3884 1394 3884 2338 
Q 3884 3275 3436 3711 
Q 2988 4147 2022 4147 
L 1259 4147 
z
M 628 4666 
L 1925 4666 
Q 3281 4666 3915 4102 
Q 4550 3538 4550 2338 
Q 4550 1131 3912 565 
Q 3275 0 1925 0 
L 628 0 
L 628 4666 
z
" transform="scale(0.015625)"/>
       <path id="DejaVuSans-67" d="M 2906 1791 
Q 2906 2416 2648 2759 
Q 2391 3103 1925 3103 
Q 1463 3103 1205 2759 
Q 947 2416 947 1791 
Q 947 1169 1205 825 
Q 1463 481 1925 481 
Q 2391 481 2648 825 
Q 2906 1169 2906 1791 
z
M 3481 434 
Q 3481 -459 3084 -895 
Q 2688 -1331 1869 -1331 
Q 1566 -1331 1297 -1286 
Q 1028 -1241 775 -1147 
L 775 -588 
Q 1028 -725 1275 -790 
Q 1522 -856 1778 -856 
Q 2344 -856 2625 -561 
Q 2906 -266 2906 331 
L 2906 616 
Q 2728 306 2450 153 
Q 2172 0 1784 0 
Q 1141 0 747 490 
Q 353 981 353 1791 
Q 353 2603 747 3093 
Q 1141 3584 1784 3584 
Q 2172 3584 2450 3431 
Q 2728 3278 2906 2969 
L 2906 3500 
L 3481 3500 
L 3481 434 
z
" transform="scale(0.015625)"/>
      </defs>
      <use xlink:href="#DejaVuSans-44"/>
      <use xlink:href="#DejaVuSans-65" x="77.001953"/>
      <use xlink:href="#DejaVuSans-67" x="138.525391"/>
      <use xlink:href="#DejaVuSans-2e" x="202.001953"/>
      <use xlink:href="#DejaVuSans-20" x="233.789062"/>
      <use xlink:href="#DejaVuSans-32" x="265.576172"/>
     </g>
    </g>
    <g id="line2d_43">
     <path d="M 190.939844 77.014687 
L 200.939844 77.014687 
L 210.939844 77.014687 
" style="fill: none; stroke: #ff7f0e; stroke-width: 1.5; stroke-linecap: square"/>
    </g>
    <g id="text_23">
     <!-- Deg. 4 -->
     <g transform="translate(218.939844 80.514687)scale(0.1 -0.1)">
      <use xlink:href="#DejaVuSans-44"/>
      <use xlink:href="#DejaVuSans-65" x="77.001953"/>
      <use xlink:href="#DejaVuSans-67" x="138.525391"/>
      <use xlink:href="#DejaVuSans-2e" x="202.001953"/>
      <use xlink:href="#DejaVuSans-20" x="233.789062"/>
      <use xlink:href="#DejaVuSans-34" x="265.576172"/>
     </g>
    </g>
    <g id="line2d_44">
     <path d="M 190.939844 91.692813 
L 200.939844 91.692813 
L 210.939844 91.692813 
" style="fill: none; stroke: #2ca02c; stroke-width: 1.5; stroke-linecap: square"/>
    </g>
    <g id="text_24">
     <!-- Deg. 6 -->
     <g transform="translate(218.939844 95.192813)scale(0.1 -0.1)">
      <use xlink:href="#DejaVuSans-44"/>
      <use xlink:href="#DejaVuSans-65" x="77.001953"/>
      <use xlink:href="#DejaVuSans-67" x="138.525391"/>
      <use xlink:href="#DejaVuSans-2e" x="202.001953"/>
      <use xlink:href="#DejaVuSans-20" x="233.789062"/>
      <use xlink:href="#DejaVuSans-36" x="265.576172"/>
     </g>
    </g>
    <g id="line2d_45">
     <path d="M 190.939844 106.370937 
L 200.939844 106.370937 
L 210.939844 106.370937 
" style="fill: none; stroke: #d62728; stroke-width: 1.5; stroke-linecap: square"/>
    </g>
    <g id="text_25">
     <!-- Deg. 8 -->
     <g transform="translate(218.939844 109.870937)scale(0.1 -0.1)">
      <defs>
       <path id="DejaVuSans-38" d="M 2034 2216 
Q 1584 2216 1326 1975 
Q 1069 1734 1069 1313 
Q 1069 891 1326 650 
Q 1584 409 2034 409 
Q 2484 409 2743 651 
Q 3003 894 3003 1313 
Q 3003 1734 2745 1975 
Q 2488 2216 2034 2216 
z
M 1403 2484 
Q 997 2584 770 2862 
Q 544 3141 544 3541 
Q 544 4100 942 4425 
Q 1341 4750 2034 4750 
Q 2731 4750 3128 4425 
Q 3525 4100 3525 3541 
Q 3525 3141 3298 2862 
Q 3072 2584 2669 2484 
Q 3125 2378 3379 2068 
Q 3634 1759 3634 1313 
Q 3634 634 3220 271 
Q 2806 -91 2034 -91 
Q 1263 -91 848 271 
Q 434 634 434 1313 
Q 434 1759 690 2068 
Q 947 2378 1403 2484 
z
M 1172 3481 
Q 1172 3119 1398 2916 
Q 1625 2713 2034 2713 
Q 2441 2713 2670 2916 
Q 2900 3119 2900 3481 
Q 2900 3844 2670 4047 
Q 2441 4250 2034 4250 
Q 1625 4250 1398 4047 
Q 1172 3844 1172 3481 
z
" transform="scale(0.015625)"/>
      </defs>
      <use xlink:href="#DejaVuSans-44"/>
      <use xlink:href="#DejaVuSans-65" x="77.001953"/>
      <use xlink:href="#DejaVuSans-67" x="138.525391"/>
      <use xlink:href="#DejaVuSans-2e" x="202.001953"/>
      <use xlink:href="#DejaVuSans-20" x="233.789062"/>
      <use xlink:href="#DejaVuSans-38" x="265.576172"/>
     </g>
    </g>
   </g>
  </g>
 </g>
 <defs>
  <clipPath id="p276f8c9f1a">
   <rect x="54" y="34.56" width="334.8" height="217.44"/>
  </clipPath>
 </defs>
</svg>
