<?xml version="1.0" encoding="UTF-8" standalone="no"?>
<!DOCTYPE svg PUBLIC "-//W3C//DTD SVG 1.1//EN" "http://www.w3.org/Graphics/SVG/1.1/DTD/svg11.dtd">
<svg xmlns:dc="http://purl.org/dc/elements/1.1/" version="1.1" xmlns:xl="http://www.w3.org/1999/xlink" xmlns="http://www.w3.org/2000/svg" viewBox="114.7742 192.66378 303.98056 197.59325" width="303.98056" height="197.59325">
  <defs>
    <marker orient="auto" overflow="visible" markerUnits="strokeWidth" id="FilledArrow_Marker" stroke-linejoin="miter" stroke-miterlimit="10" viewBox="-1 -3 6 6" markerWidth="6" markerHeight="6" color="#b1001c">
      <g>
        <path d="M 3.7333333 0 L 0 -1.4 L 0 1.4 Z" fill="currentColor" stroke="currentColor" stroke-width="1"/>
      </g>
    </marker>
    <marker orient="auto" overflow="visible" markerUnits="strokeWidth" id="StickArrow_Marker" stroke-linejoin="miter" stroke-miterlimit="10" viewBox="-9 -4 10 8" markerWidth="10" markerHeight="8" color="black">
      <g>
        <path d="M -8 0 L 0 0 M 0 3 L -8 0 L 0 -3" fill="none" stroke="currentColor" stroke-width="1"/>
      </g>
    </marker>
  </defs>
  <g id="Canvas_1" stroke="none" stroke-dasharray="none" fill="none" stroke-opacity="1" fill-opacity="1">
    <title>Canvas 1</title>
    <g id="Canvas_1_Layer_1">
      <title>Layer 1</title>
      <g id="Graphic_2">
        <path d="M 237.24525 289.86128 L 384.06578 352.1829 L 418.25475 271.63872 L 271.43422 209.3171 Z" stroke="black" stroke-linecap="round" stroke-linejoin="round" stroke-width="1"/>
      </g>
      <g id="Graphic_5">
        <circle cx="326.75" cy="279.75" r="3.00000479370568" fill="black"/>
        <circle cx="326.75" cy="279.75" r="3.00000479370568" stroke="black" stroke-linecap="round" stroke-linejoin="round" stroke-width="1"/>
      </g>
      <g id="Graphic_7">
        <path d="M 238.11604 201.80547 C 238.32673 210.80414 233.1314 223.04358 226.51193 229.14304 C 219.89248 235.24254 214.3556 232.89227 214.14494 223.89356 C 213.93426 214.89488 219.1296 202.65544 225.74905 196.556 C 232.3685 190.4565 237.9054 192.80676 238.11604 201.80547" stroke="black" stroke-linecap="round" stroke-linejoin="round" stroke-width="1"/>
      </g>
      <g id="Line_9">
        <path d="M 235.623 194.06527 L 267.5136 219.00882 L 257.74534 242.02144 L 219.02543 232.64716" stroke="black" stroke-linecap="round" stroke-linejoin="round" stroke-width="1"/>
      </g>
      <g id="Graphic_16">
        <path d="M 238.97272 327.5217 C 247.9714 327.311 260.21083 332.50633 266.3103 339.1258 C 272.4098 345.74525 270.05952 351.28213 261.0608 351.4928 C 252.06214 351.70346 239.8227 346.50813 233.72324 339.88867 C 227.62374 333.2692 229.974 327.73233 238.97272 327.5217" stroke="black" stroke-linecap="round" stroke-linejoin="round" stroke-width="1"/>
      </g>
      <g id="Line_15">
        <path d="M 231.23252 330.01473 L 256.17607 298.1241 L 279.1887 307.8924 L 269.8144 346.6123" stroke="black" stroke-linecap="round" stroke-linejoin="round" stroke-width="1"/>
      </g>
      <g id="Group_17">
        <g id="Graphic_20">
          <path d="M 328.94046 365.77975 C 337.93914 365.56906 350.17858 370.7644 356.27803 377.38386 C 362.37753 384.0033 360.02726 389.5402 351.02855 389.75085 C 342.02988 389.96153 329.79044 384.7662 323.691 378.14674 C 317.5915 371.5273 319.94175 365.9904 328.94046 365.77975" stroke="black" stroke-linecap="round" stroke-linejoin="round" stroke-width="1"/>
        </g>
        <g id="Line_19">
          <path d="M 321.20026 368.2728 L 346.1438 336.38218 L 369.15644 346.15045 L 359.78215 384.87036" stroke="black" stroke-linecap="round" stroke-linejoin="round" stroke-width="1"/>
        </g>
      </g>
      <g id="Graphic_24">
        <text transform="translate(376.3381 271.526)" fill="black">
          <tspan font-family="Times" font-style="italic" font-size="16" fill="black" x="0" y="15">m, I</tspan>
        </text>
      </g>
      <g id="Graphic_33">
        <text transform="translate(179.97884 271.526)" fill="black">
          <tspan font-family="Times" font-style="italic" font-size="16" fill="black" x="0" y="15">f</tspan>
          <tspan font-family="Times" font-style="italic" font-size="11" fill="black" y="20">net</tspan>
        </text>
      </g>
      <g id="Graphic_34">
        <text transform="translate(173.06808 337.2795)" fill="black">
          <tspan font-family="STIXGeneral" font-size="16" fill="black" x="4369838e-19" y="17">ğœ</tspan>
          <tspan font-family="STIXGeneral" font-size="11" fill="black" y="23">net</tspan>
        </text>
      </g>
      <g id="Line_42">
        <line x1="146.5" y1="332.5" x2="174.85002" y2="269.59272" marker-end="url(#FilledArrow_Marker)" stroke="#b1001c" stroke-linecap="round" stroke-linejoin="round" stroke-width="3"/>
      </g>
      <g id="Line_46">
        <path d="M 170.4397 346.2258 C 170.4397 346.2258 169.52278 323.899 154.17742 317.19355 C 147.05621 314.0818 138.38177 315.0132 131.12926 316.90533" marker-end="url(#FilledArrow_Marker)" stroke="#b1001c" stroke-linecap="round" stroke-linejoin="round" stroke-width="3"/>
      </g>
      <g id="Line_47">
        <line x1="156.00149" y1="329.7194" x2="323.87022" y2="280.59276" marker-start="url(#StickArrow_Marker)" stroke="black" stroke-linecap="round" stroke-linejoin="round" stroke-dasharray="4.0,4.0" stroke-width="1"/>
      </g>
      <g id="Graphic_50">
        <text transform="translate(131.72656 328.1829)" fill="black">
          <tspan font-family="Times" font-style="italic" font-size="16" fill="black" x="0" y="15">A</tspan>
        </text>
      </g>
      <g id="Graphic_51">
        <text transform="translate(372.5 315.8514)" fill="black">
          <tspan font-family="Times" font-style="italic" font-size="20" fill="black" x="0" y="19">B</tspan>
        </text>
      </g>
      <g id="Graphic_53">
        <text transform="translate(188.80217 268.91935)" fill="black">
          <tspan font-family="Times" font-style="italic" font-size="11" fill="black" x="0" y="10">A</tspan>
        </text>
      </g>
      <g id="Graphic_54">
        <text transform="translate(181.52886 339.36014)" fill="black">
          <tspan font-family="Times" font-style="italic" font-size="11" fill="black" x="0" y="10">A</tspan>
        </text>
      </g>
      <g id="Graphic_55">
        <text transform="translate(317.19226 281.75)" fill="black">
          <tspan font-family="Times" font-style="italic" font-size="16" fill="black" x="0" y="15">(x, z)</tspan>
        </text>
      </g>
    </g>
  </g>
</svg>
