<?xml version="1.0" standalone="no"?>
<!-- Creator: fig2dev Version 3.2.6a -->
<!-- CreationDate: 2020-03-29 09:30:21 -->
<!-- Magnification: 1 -->
<svg	xmlns="http://www.w3.org/2000/svg"
	xmlns:xlink="http://www.w3.org/1999/xlink"
	width="239pt" height="206pt"
	viewBox="2460 1328 3968 3418">
<g fill="none">
<!-- Arc -->
<defs>
<clipPath id="cp0">
	<path clip-rule="evenodd" d="M 2460,1328 H 6428 V 4746 H 2460 z
		M 5911,1625 5958,1588 5851,1491 5841,1499z
		M 6086,1886 6026,1894 6069,2033 6083,2031z"/>
</clipPath>
</defs>
<path d="M 6075,2025 A 849 849 0 0 0 5850 1500" clip-path="url(#cp0)"
	stroke="#000000" stroke-width="8px"/>
<!-- Forward arrow to point 5850,1500 -->
<polygon points=" 5958,1588 5860,1513 5911,1625 5958,1588"
	stroke="#000000" stroke-width="8px" stroke-miterlimit="8" fill="#000000"/>
<!-- Backward arrow to point 6075,2025 -->
<polygon points=" 6026,1894 6073,2009 6086,1886 6026,1894"
	stroke="#000000" stroke-width="8px" stroke-miterlimit="8" fill="#000000"/>
<!-- Line -->
<polyline points=" 5850,1350 3450,4125"
	stroke="#000000" stroke-width="15px"/>
<!-- Line -->
<defs>
<clipPath id="cp1">
	<path clip-rule="evenodd" d="M 2460,1328 H 6428 V 4746 H 2460 z
		M 3139,4057 3129,3998 2992,4044 2994,4058z
		M 3311,3968 3321,4027 3458,3981 3456,3967z"/>
</clipPath>
</defs>
<polyline points=" 3450,3975 3000,4050" clip-path="url(#cp1)"
	stroke="#000000" stroke-width="8px"/>
<!-- Forward arrow to point 3000,4050 -->
<polygon points=" 3129,3998 3016,4047 3139,4057 3129,3998"
	stroke="#000000" stroke-width="8px" stroke-miterlimit="8" fill="#000000"/>
<!-- Backward arrow to point 3450,3975 -->
<polygon points=" 3321,4027 3434,3978 3311,3968 3321,4027"
	stroke="#000000" stroke-width="8px" stroke-miterlimit="8" fill="#000000"/>
<!-- Line -->
<defs>
<clipPath id="cp2">
	<path clip-rule="evenodd" d="M 2460,1328 H 6428 V 4746 H 2460 z
		M 4002,1767 4039,1719 3898,1635 3885,1652z
		M 3311,3968 3321,4027 3458,3981 3456,3967z"/>
</clipPath>
</defs>
<polyline points=" 4875,2400 3900,1650" clip-path="url(#cp2)"
	stroke="#000000" stroke-width="15px"/>
<!-- Forward arrow to point 3900,1650 -->
<polygon points=" 4039,1719 3926,1670 4002,1767 4039,1719"
	stroke="#000000" stroke-width="15px" stroke-miterlimit="8" fill="#000000"/>
<!-- Line -->
<defs>
<clipPath id="cp3">
	<path clip-rule="evenodd" d="M 2460,1328 H 6428 V 4746 H 2460 z
		M 5580,4264 5520,4264 5543,4407 5557,4407z
		M 3311,3968 3321,4027 3458,3981 3456,3967z"/>
</clipPath>
</defs>
<polyline points=" 5550,3560 5550,4400" clip-path="url(#cp3)"
	stroke="#000000" stroke-width="8px"/>
<!-- Forward arrow to point 5550,4400 -->
<polygon points=" 5520,4264 5550,4384 5580,4264 5520,4264"
	stroke="#000000" stroke-width="8px" stroke-miterlimit="8" fill="#000000"/>
<!-- Line -->
<polyline points=" 5268,2001 4968,1776"
	stroke="#000000" stroke-width="8px"/>
<!-- Line -->
<defs>
<clipPath id="cp4">
	<path clip-rule="evenodd" d="M 2460,1328 H 6428 V 4746 H 2460 z
		M 4698,2102 4653,2063 4576,2186 4587,2195z
		M 4819,1872 4864,1911 4941,1788 4930,1779z"/>
</clipPath>
</defs>
<polyline points=" 4931,1789 4586,2185" clip-path="url(#cp4)"
	stroke="#000000" stroke-width="8px"/>
<!-- Forward arrow to point 4586,2185 -->
<polygon points=" 4653,2063 4597,2173 4698,2102 4653,2063"
	stroke="#000000" stroke-width="8px" stroke-miterlimit="8" fill="#000000"/>
<!-- Backward arrow to point 4931,1789 -->
<polygon points=" 4864,1911 4920,1801 4819,1872 4864,1911"
	stroke="#000000" stroke-width="8px" stroke-miterlimit="8" fill="#000000"/>
<!-- Line -->
<defs>
<clipPath id="cp5">
	<path clip-rule="evenodd" d="M 2460,1328 H 6428 V 4746 H 2460 z
		M 2873,3301 2931,3289 2878,3134 2858,3138z
		M 4819,1872 4864,1911 4941,1788 4930,1779z"/>
</clipPath>
</defs>
<polyline points=" 3095,4196 2870,3146" clip-path="url(#cp5)"
	stroke="#000000" stroke-width="15px"/>
<!-- Forward arrow to point 2870,3146 -->
<polygon points=" 2931,3289 2877,3178 2873,3301 2931,3289"
	stroke="#000000" stroke-width="15px" stroke-miterlimit="8" fill="#000000"/>
<!-- Line -->
<polyline points=" 6225,2025 5475,2025"
	stroke="#000000" stroke-width="8px"/>
<!-- Line -->
<polyline points=" 2925,4650 3300,4275"
	stroke="#000000" stroke-width="8px"/>
<!-- Line -->
<polygon points=" 4275,3000 5325,1800 5400,1875 4350,3075" fill="#8f0000"
	stroke="#000000" stroke-width="15px"/>
<!-- Line -->
<polygon points=" 3455,4074 2780,4224 2780,4299 3455,4149" fill="#8f0000"
	stroke="#000000" stroke-width="15px"/>
<!-- Line -->
<defs>
<clipPath id="cp6">
	<path clip-rule="evenodd" d="M 2460,1328 H 6428 V 4746 H 2460 z
		M 3411,3876 3365,3838 3290,3962 3301,3971z
		M 4959,1946 5005,1984 5080,1860 5069,1851z"/>
</clipPath>
</defs>
<polyline points=" 5070,1861 3300,3961" clip-path="url(#cp6)"
	stroke="#000000" stroke-width="8px"/>
<!-- Forward arrow to point 3300,3961 -->
<polygon points=" 3365,3838 3310,3949 3411,3876 3365,3838"
	stroke="#000000" stroke-width="8px" stroke-miterlimit="8" fill="#000000"/>
<!-- Backward arrow to point 5070,1861 -->
<polygon points=" 5005,1984 5060,1873 4959,1946 5005,1984"
	stroke="#000000" stroke-width="8px" stroke-miterlimit="8" fill="#000000"/>
<!-- Line -->
<polyline points=" 3375,4050 3225,3900"
	stroke="#000000" stroke-width="8px"/>
<!-- Text -->
<text xml:space="preserve" x="4050" y="1650" fill="#000000" font-family="Times" font-style="italic" font-weight="normal" font-size="216" text-anchor="start">F</text>
<!-- Text -->
<text xml:space="preserve" x="2475" y="3375" fill="#000000" font-family="Times" font-style="italic" font-weight="normal" font-size="216" text-anchor="start">F</text>
<!-- Text -->
<text xml:space="preserve" x="5700" y="3975" fill="#000000" font-family="Times" font-style="italic" font-weight="normal" font-size="216" text-anchor="start">g</text>
<!-- Text -->
<text xml:space="preserve" x="4200" y="1725" fill="#000000" font-family="Times" font-style="italic" font-weight="normal" font-size="120" text-anchor="start">w</text>
<!-- Text -->
<text xml:space="preserve" x="2625" y="3450" fill="#000000" font-family="Times" font-style="italic" font-weight="normal" font-size="120" text-anchor="start">e</text>
<!-- Text -->
<text xml:space="preserve" x="4650" y="1875" fill="#000000" font-family="Times" font-style="italic" font-weight="normal" font-size="216" text-anchor="start">l</text>
<!-- Text -->
<text xml:space="preserve" x="4710" y="1905" fill="#000000" font-family="Times" font-style="italic" font-weight="normal" font-size="120" text-anchor="start">w</text>
<!-- Text -->
<text xml:space="preserve" x="3150" y="3930" fill="#000000" font-family="Times" font-style="italic" font-weight="normal" font-size="120" text-anchor="start">e</text>
<!-- Text -->
<text xml:space="preserve" x="3090" y="3900" fill="#000000" font-family="Times" font-style="italic" font-weight="normal" font-size="216" text-anchor="start">l</text>
<!-- Text -->
<text xml:space="preserve" x="5100" y="2550" fill="#000000" font-family="Times" font-style="italic" font-weight="normal" font-size="216" text-anchor="start">m, I</text>
<!-- Text -->
<text xml:space="preserve" x="6075" y="1800" fill="#000000" font-family="Times,Symbol" font-style="normal" font-weight="normal" font-size="216" text-anchor="start">&#8722;&#952;</text>
<!-- Text -->
<text xml:space="preserve" x="5400" y="2250" fill="#000000" font-family="Times" font-style="italic" font-weight="normal" font-size="216" text-anchor="start">(x, z)</text>
<!-- Text -->
<text xml:space="preserve" x="2625" y="4650" fill="#000000" font-family="Times,Symbol" font-style="normal" font-weight="normal" font-size="216" text-anchor="start">&#981;</text>
<!-- Text -->
<text xml:space="preserve" x="3900" y="3150" fill="#000000" font-family="Times" font-style="italic" font-weight="normal" font-size="120" text-anchor="start">h</text>
<!-- Text -->
<text xml:space="preserve" x="3825" y="3075" fill="#000000" font-family="Times" font-style="italic" font-weight="normal" font-size="216" text-anchor="start">l</text>
<!-- Arc -->
<defs>
<clipPath id="cp7">
	<path clip-rule="evenodd" d="M 2460,1328 H 6428 V 4746 H 2460 z
		M 2886,4495 2863,4550 3004,4584 3009,4571z
		M 2761,4414 2821,4407 2781,4267 2767,4269z"/>
</clipPath>
</defs>
<path d="M 2775,4275 A 265 265 0 0 0 3000 4575" clip-path="url(#cp7)"
	stroke="#000000" stroke-width="8px"/>
<!-- Forward arrow to point 3000,4575 -->
<polygon points=" 2863,4550 2985,4569 2886,4495 2863,4550"
	stroke="#000000" stroke-width="8px" stroke-miterlimit="8" fill="#000000"/>
<!-- Backward arrow to point 2775,4275 -->
<polygon points=" 2821,4407 2777,4291 2761,4414 2821,4407"
	stroke="#000000" stroke-width="8px" stroke-miterlimit="8" fill="#000000"/>
<!-- Circle -->
<circle cx="5280" cy="2025" r="75" fill="#ff0000"
	stroke="#000000" stroke-width="15px"/>
</g>
</svg>
