<?xml version="1.0" encoding="utf-8" standalone="no"?>
<!DOCTYPE svg PUBLIC "-//W3C//DTD SVG 1.1//EN"
  "http://www.w3.org/Graphics/SVG/1.1/DTD/svg11.dtd">
<!-- Created with matplotlib (http://matplotlib.org/) -->
<svg height="345pt" version="1.1" viewBox="0 0 460 345" width="460pt" xmlns="http://www.w3.org/2000/svg" xmlns:xlink="http://www.w3.org/1999/xlink">
 <defs>
  <style type="text/css">
*{stroke-linecap:butt;stroke-linejoin:round;}
  </style>
 </defs>
 <g id="figure_1">
  <g id="patch_1">
   <path d="M 0 345.6 
L 460.8 345.6 
L 460.8 0 
L 0 0 
z
" style="fill:none;opacity:0;"/>
  </g>
  <g id="axes_1">
   <g id="patch_2">
    <path clip-path="url(#p5ef771abc5)" d="M 134.169456 226.406912 
L 158.716043 271.33914 
L 154.222821 273.793798 
L 129.676233 228.861571 
z
" style="stroke:#000000;stroke-linejoin:miter;"/>
   </g>
   <g id="patch_3">
    <path clip-path="url(#p5ef771abc5)" d="M 358.830592 103.673975 
L 383.377179 148.606202 
L 378.883957 151.06086 
L 354.337369 106.128633 
z
" style="stroke:#000000;stroke-linejoin:miter;"/>
   </g>
   <g id="patch_4">
    <path clip-path="url(#p5ef771abc5)" d="M 206.80989 186.723262 
L 204.949797 184.779688 
L 201.95161 183.651455 
L 197.921575 183.461456 
L 192.97516 184.303047 
L 187.231938 186.232609 
L 180.81111 189.264038 
L 173.827923 193.365527 
L 166.391135 198.458918 
L 158.601613 204.421691 
L 150.552071 211.09152 
L 142.327843 218.273151 
L 134.008551 225.747217 
L 125.670422 233.280474 
L 117.388982 240.636864 
L 109.241835 247.588733 
L 101.311205 253.927569 
L 93.685958 259.47359 
L 86.462849 264.08365 
L 79.746795 267.656997 
L 73.650045 270.138566 
L 68.290207 271.519646 
L 63.787178 271.835929 
L 60.259084 271.163105 
L 57.817452 269.610326 
L 56.561873 267.312004 
L 56.574475 264.418472 
L 57.914549 261.086154 
L 60.613689 257.467875 
L 64.671761 253.703928 
L 70.054018 249.914486 
L 76.689585 246.193809 
L 84.471479 242.606599 
L 93.258233 239.186703 
L 102.877117 235.938195 
L 113.128836 232.838719 
L 123.793505 229.844801 
L 134.637633 226.898744 
L 145.421775 223.936557 
L 155.908479 220.896359 
L 165.870133 217.726627 
L 175.09633 214.39367 
L 183.400384 210.8878 
L 190.6247 207.227695 
L 196.644748 203.462642 
L 201.371495 199.672434 
L 204.752228 195.964883 
L 206.769787 192.471068 
L 207.440339 189.338594 
z
" style="fill:#0000ff;stroke:#000000;stroke-linejoin:miter;"/>
   </g>
   <g id="patch_5">
    <path clip-path="url(#p5ef771abc5)" d="M 431.471026 63.990325 
L 429.610933 62.04675 
L 426.612746 60.918517 
L 422.582711 60.728518 
L 417.636296 61.570109 
L 411.893074 63.499671 
L 405.472245 66.5311 
L 398.489059 70.632589 
L 391.052271 75.72598 
L 383.262749 81.688753 
L 375.213207 88.358582 
L 366.988979 95.540213 
L 358.669687 103.014279 
L 350.331558 110.547537 
L 342.050118 117.903926 
L 333.902971 124.855796 
L 325.97234 131.194632 
L 318.347094 136.740652 
L 311.123985 141.350712 
L 304.407931 144.924059 
L 298.31118 147.405628 
L 292.951343 148.786709 
L 288.448314 149.102992 
L 284.92022 148.430167 
L 282.478588 146.877388 
L 281.223009 144.579066 
L 281.23561 141.685534 
L 282.575685 138.353216 
L 285.274825 134.734937 
L 289.332897 130.97099 
L 294.715154 127.181548 
L 301.350721 123.460872 
L 309.132615 119.873661 
L 317.919368 116.453765 
L 327.538253 113.205257 
L 337.789972 110.105781 
L 348.454641 107.111863 
L 359.298769 104.165806 
L 370.082911 101.203619 
L 380.569615 98.163421 
L 390.531269 94.993689 
L 399.757466 91.660733 
L 408.06152 88.154862 
L 415.285836 84.494757 
L 421.305883 80.729704 
L 426.032631 76.939496 
L 429.413364 73.231945 
L 431.430923 69.73813 
L 432.101475 66.605656 
z
" style="fill:#0000ff;stroke:#000000;stroke-linejoin:miter;"/>
   </g>
   <g id="patch_6">
    <path clip-path="url(#p5ef771abc5)" d="M 397.460035 126.32718 
L 127.866672 273.606706 
L 140.139965 296.07282 
L 409.733328 148.793294 
z
" style="fill:#999999;stroke:#000000;stroke-linejoin:miter;"/>
   </g>
   <g id="patch_7">
    <path clip-path="url(#p5ef771abc5)" d="M 320.991428 39.749574 
L 338.777227 56.287089 
L 334.284004 58.741747 
L 383.377179 148.606202 
L 378.883957 151.06086 
L 329.790781 61.196406 
L 325.297559 63.651065 
z
" style="fill:#993333;stroke:#993333;stroke-linejoin:miter;"/>
   </g>
   <g id="patch_8">
    <path clip-path="url(#p5ef771abc5)" d="M 96.330293 162.482512 
L 114.116091 179.020026 
L 109.622868 181.474685 
L 158.716043 271.33914 
L 154.222821 273.793798 
L 105.129646 183.929344 
L 100.636423 186.384003 
z
" style="fill:#993333;stroke:#993333;stroke-linejoin:miter;"/>
   </g>
   <g id="patch_9">
    <path clip-path="url(#p5ef771abc5)" d="M 12.8 222.72 
L 8.96 211.2 
L 11.52 211.2 
L 11.52 57.6 
L 14.08 57.6 
L 14.08 211.2 
L 16.64 211.2 
z
" style="stroke:#000000;stroke-linejoin:miter;"/>
   </g>
   <g id="line2d_1">
    <path clip-path="url(#p5ef771abc5)" d="M 268.8 211.2 
L 460.8 211.2 
" style="fill:none;stroke:#000000;stroke-linecap:square;"/>
   </g>
   <g id="line2d_2">
    <path clip-path="url(#p5ef771abc5)" d="M 268.8 211.2 
L 437.295852 119.150297 
" style="fill:none;stroke:#000000;stroke-linecap:square;"/>
   </g>
   <g id="line2d_3">
    <path clip-path="url(#p5ef771abc5)" d="M 364.8 211.2 
L 364.779167 209.200145 
L 364.716679 207.201157 
L 364.612561 205.203905 
L 364.46686 203.209256 
L 364.279637 201.218075 
L 364.050976 199.231226 
L 363.780975 197.249571 
L 363.46975 195.273971 
L 363.117438 193.305284 
L 362.724191 191.344362 
L 362.29018 189.392059 
L 361.815592 187.44922 
L 361.300635 185.516689 
L 360.745532 183.595306 
L 360.150523 181.685903 
L 359.515867 179.789309 
L 358.841839 177.906348 
L 358.128732 176.037837 
L 357.376855 174.184587 
L 356.586534 172.347402 
L 355.758114 170.527079 
L 354.891952 168.724409 
L 353.988425 166.940174 
L 353.047926 165.175148 
" style="fill:none;stroke:#000000;stroke-linecap:square;"/>
   </g>
   <g id="patch_10">
    <path d="M 310.357724 266.161422 
Q 290.181277 239.477423 270.67914 213.685223 
" style="fill:none;stroke:#000000;stroke-linecap:round;"/>
    <path d="M 272.640402 224.237638 
L 270.67914 213.685223 
L 280.297829 218.447663 
" style="fill:none;stroke:#000000;stroke-linecap:round;"/>
   </g>
   <g id="text_1">
    <!-- ($x$,$y$) -->
    <defs>
     <path d="M 31 75.875 
Q 24.46875 64.65625 21.28125 53.65625 
Q 18.109375 42.671875 18.109375 31.390625 
Q 18.109375 20.125 21.3125 9.0625 
Q 24.515625 -2 31 -13.1875 
L 23.1875 -13.1875 
Q 15.875 -1.703125 12.234375 9.375 
Q 8.59375 20.453125 8.59375 31.390625 
Q 8.59375 42.28125 12.203125 53.3125 
Q 15.828125 64.359375 23.1875 75.875 
z
" id="DejaVuSans-28"/>
     <path d="M 60.015625 54.6875 
L 34.90625 27.875 
L 50.296875 0 
L 39.984375 0 
L 28.421875 21.6875 
L 8.296875 0 
L -2.59375 0 
L 24.3125 28.8125 
L 10.015625 54.6875 
L 20.3125 54.6875 
L 30.8125 34.90625 
L 49.125 54.6875 
z
" id="DejaVuSans-Oblique-78"/>
     <path d="M 11.71875 12.40625 
L 22.015625 12.40625 
L 22.015625 4 
L 14.015625 -11.625 
L 7.71875 -11.625 
L 11.71875 4 
z
" id="DejaVuSans-2c"/>
     <path d="M 24.8125 -5.078125 
Q 18.5625 -15.578125 14.625 -18.1875 
Q 10.6875 -20.796875 4.59375 -20.796875 
L -2.484375 -20.796875 
L -0.984375 -13.28125 
L 4.203125 -13.28125 
Q 7.953125 -13.28125 10.59375 -11.234375 
Q 13.234375 -9.1875 16.5 -3.21875 
L 19.28125 2 
L 7.171875 54.6875 
L 16.703125 54.6875 
L 25.78125 12.796875 
L 50.875 54.6875 
L 60.296875 54.6875 
z
" id="DejaVuSans-Oblique-79"/>
     <path d="M 8.015625 75.875 
L 15.828125 75.875 
Q 23.140625 64.359375 26.78125 53.3125 
Q 30.421875 42.28125 30.421875 31.390625 
Q 30.421875 20.453125 26.78125 9.375 
Q 23.140625 -1.703125 15.828125 -13.1875 
L 8.015625 -13.1875 
Q 14.5 -2 17.703125 9.0625 
Q 20.90625 20.125 20.90625 31.390625 
Q 20.90625 42.671875 17.703125 53.65625 
Q 14.5 64.65625 8.015625 75.875 
z
" id="DejaVuSans-29"/>
    </defs>
    <g transform="translate(294.4 288)scale(0.24 -0.24)">
     <use transform="translate(0 0.125)" xlink:href="#DejaVuSans-28"/>
     <use transform="translate(39.013672 0.125)" xlink:href="#DejaVuSans-Oblique-78"/>
     <use transform="translate(98.193359 0.125)" xlink:href="#DejaVuSans-2c"/>
     <use transform="translate(129.980469 0.125)" xlink:href="#DejaVuSans-Oblique-79"/>
     <use transform="translate(189.160156 0.125)" xlink:href="#DejaVuSans-29"/>
    </g>
   </g>
   <g id="text_2">
    <!-- $\theta$ -->
    <defs>
     <path d="M 45.515625 34.671875 
L 14.453125 34.671875 
Q 12.359375 20.0625 14.5 13.875 
Q 17.1875 6.25 24.46875 6.25 
Q 31.78125 6.25 37.359375 13.921875 
Q 42.234375 20.65625 45.515625 34.671875 
z
M 47.015625 42.96875 
Q 48.34375 56.84375 46.625 61.71875 
Q 43.953125 69.4375 36.765625 69.4375 
Q 29.296875 69.4375 23.828125 61.8125 
Q 19.53125 55.671875 16.15625 42.96875 
z
M 38.1875 76.765625 
Q 49.90625 76.765625 54.59375 66.40625 
Q 59.28125 56.109375 55.71875 37.84375 
Q 52.203125 19.625 43.453125 9.28125 
Q 34.765625 -1.125 23.046875 -1.125 
Q 11.28125 -1.125 6.640625 9.28125 
Q 2 19.625 5.515625 37.84375 
Q 9.078125 56.109375 17.71875 66.40625 
Q 26.421875 76.765625 38.1875 76.765625 
z
" id="DejaVuSans-Oblique-3b8"/>
    </defs>
    <g transform="translate(368.016632 201.225835)scale(0.24 -0.24)">
     <use transform="translate(0 0.234375)" xlink:href="#DejaVuSans-Oblique-3b8"/>
    </g>
   </g>
   <g id="text_3">
    <!-- $u_1$ -->
    <defs>
     <path d="M 6.6875 21.6875 
L 13.09375 54.6875 
L 22.125 54.6875 
L 15.71875 22.015625 
Q 15.234375 19.625 15.015625 17.921875 
Q 14.796875 16.21875 14.796875 15.09375 
Q 14.796875 10.9375 17.328125 8.65625 
Q 19.875 6.390625 24.515625 6.390625 
Q 31.734375 6.390625 37 11.265625 
Q 42.28125 16.15625 43.890625 24.421875 
L 49.90625 54.6875 
L 58.890625 54.6875 
L 48.296875 0 
L 39.3125 0 
L 41.109375 8.59375 
Q 37.3125 3.8125 32.0625 1.1875 
Q 26.8125 -1.421875 20.90625 -1.421875 
Q 13.71875 -1.421875 9.71875 2.515625 
Q 5.71875 6.453125 5.71875 13.484375 
Q 5.71875 14.9375 5.953125 17.140625 
Q 6.203125 19.34375 6.6875 21.6875 
z
" id="DejaVuSans-Oblique-75"/>
     <path d="M 12.40625 8.296875 
L 28.515625 8.296875 
L 28.515625 63.921875 
L 10.984375 60.40625 
L 10.984375 69.390625 
L 28.421875 72.90625 
L 38.28125 72.90625 
L 38.28125 8.296875 
L 54.390625 8.296875 
L 54.390625 0 
L 12.40625 0 
z
" id="DejaVuSans-31"/>
    </defs>
    <g transform="translate(342.277393 49.729077)scale(0.24 -0.24)">
     <use transform="translate(0 0.3125)" xlink:href="#DejaVuSans-Oblique-75"/>
     <use transform="translate(63.378906 -16.09375)scale(0.7)" xlink:href="#DejaVuSans-31"/>
    </g>
   </g>
   <g id="text_4">
    <!-- $u_2$ -->
    <defs>
     <path d="M 19.1875 8.296875 
L 53.609375 8.296875 
L 53.609375 0 
L 7.328125 0 
L 7.328125 8.296875 
Q 12.9375 14.109375 22.625 23.890625 
Q 32.328125 33.6875 34.8125 36.53125 
Q 39.546875 41.84375 41.421875 45.53125 
Q 43.3125 49.21875 43.3125 52.78125 
Q 43.3125 58.59375 39.234375 62.25 
Q 35.15625 65.921875 28.609375 65.921875 
Q 23.96875 65.921875 18.8125 64.3125 
Q 13.671875 62.703125 7.8125 59.421875 
L 7.8125 69.390625 
Q 13.765625 71.78125 18.9375 73 
Q 24.125 74.21875 28.421875 74.21875 
Q 39.75 74.21875 46.484375 68.546875 
Q 53.21875 62.890625 53.21875 53.421875 
Q 53.21875 48.921875 51.53125 44.890625 
Q 49.859375 40.875 45.40625 35.40625 
Q 44.1875 33.984375 37.640625 27.21875 
Q 31.109375 20.453125 19.1875 8.296875 
z
" id="DejaVuSans-32"/>
    </defs>
    <g transform="translate(117.616257 172.462015)scale(0.24 -0.24)">
     <use transform="translate(0 0.3125)" xlink:href="#DejaVuSans-Oblique-75"/>
     <use transform="translate(63.378906 -16.09375)scale(0.7)" xlink:href="#DejaVuSans-32"/>
    </g>
   </g>
   <g id="text_5">
    <!-- $g$ -->
    <defs>
     <path d="M 59.625 54.6875 
L 50.296875 6.78125 
Q 47.609375 -7.125 40.015625 -13.953125 
Q 32.421875 -20.796875 19.578125 -20.796875 
Q 14.84375 -20.796875 10.78125 -20.09375 
Q 6.734375 -19.390625 3.21875 -17.921875 
L 4.890625 -9.1875 
Q 8.203125 -11.328125 11.90625 -12.34375 
Q 15.625 -13.375 19.828125 -13.375 
Q 28.375 -13.375 33.859375 -8.703125 
Q 39.359375 -4.046875 41.109375 4.6875 
L 41.890625 8.796875 
Q 38.140625 4.5 33.15625 2.25 
Q 28.171875 0 22.40625 0 
Q 14.109375 0 9.34375 5.484375 
Q 4.59375 10.984375 4.59375 20.609375 
Q 4.59375 28.171875 7.46875 35.421875 
Q 10.359375 42.671875 15.578125 48.296875 
Q 19.046875 52 23.65625 54 
Q 28.265625 56 33.296875 56 
Q 38.8125 56 42.90625 53.4375 
Q 47.015625 50.875 49.03125 46.1875 
L 50.59375 54.6875 
z
M 46.09375 34.625 
Q 46.09375 41.265625 42.96875 44.875 
Q 39.84375 48.484375 34.078125 48.484375 
Q 30.515625 48.484375 27.296875 47.0625 
Q 24.078125 45.65625 21.78125 43.109375 
Q 18.0625 38.921875 15.984375 33.234375 
Q 13.921875 27.546875 13.921875 21.484375 
Q 13.921875 14.75 17.0625 11.125 
Q 20.21875 7.515625 26.125 7.515625 
Q 34.671875 7.515625 40.375 15.25 
Q 46.09375 23 46.09375 34.625 
z
" id="DejaVuSans-Oblique-67"/>
    </defs>
    <g transform="translate(25.6 108.8)scale(0.24 -0.24)">
     <use xlink:href="#DejaVuSans-Oblique-67"/>
    </g>
   </g>
  </g>
 </g>
 <defs>
  <clipPath id="p5ef771abc5">
   <rect height="345.6" width="460.8" x="0" y="0"/>
  </clipPath>
 </defs>
</svg>
