<?xml version="1.0" encoding="utf-8" standalone="no"?>
<!DOCTYPE svg PUBLIC "-//W3C//DTD SVG 1.1//EN"
  "http://www.w3.org/Graphics/SVG/1.1/DTD/svg11.dtd">
<svg xmlns:xlink="http://www.w3.org/1999/xlink" width="432pt" height="288pt" viewBox="0 0 432 288" xmlns="http://www.w3.org/2000/svg" version="1.1">
 <metadata>
  <rdf:RDF xmlns:dc="http://purl.org/dc/elements/1.1/" xmlns:cc="http://creativecommons.org/ns#" xmlns:rdf="http://www.w3.org/1999/02/22-rdf-syntax-ns#">
   <cc:Work>
    <dc:type rdf:resource="http://purl.org/dc/dcmitype/StillImage"/>
    <dc:date>2022-03-04T06:07:14.789676</dc:date>
    <dc:format>image/svg+xml</dc:format>
    <dc:creator>
     <cc:Agent>
      <dc:title>Matplotlib v3.5.0, https://matplotlib.org/</dc:title>
     </cc:Agent>
    </dc:creator>
   </cc:Work>
  </rdf:RDF>
 </metadata>
 <defs>
  <style type="text/css">*{stroke-linejoin: round; stroke-linecap: butt}</style>
 </defs>
 <g id="figure_1">
  <g id="patch_1">
   <path d="M 0 288 
L 432 288 
L 432 0 
L 0 0 
L 0 288 
z
" style="fill: none"/>
  </g>
  <g id="axes_1">
   <g id="patch_2">
    <path d="M 54 252 
L 388.8 252 
L 388.8 34.56 
L 54 34.56 
L 54 252 
z
" style="fill: none"/>
   </g>
   <g id="matplotlib.axis_1">
    <g id="xtick_1">
     <g id="line2d_1">
      <path d="M 69.218182 252 
L 69.218182 34.56 
" clip-path="url(#p027d718348)" style="fill: none; stroke: #b0b0b0; stroke-width: 0.8; stroke-linecap: square"/>
     </g>
     <g id="line2d_2">
      <defs>
       <path id="m9a008e3ac6" d="M 0 0 
L 0 3.5 
" style="stroke: #000000; stroke-width: 0.8"/>
      </defs>
      <g>
       <use xlink:href="#m9a008e3ac6" x="69.218182" y="252" style="stroke: #000000; stroke-width: 0.8"/>
      </g>
     </g>
     <g id="text_1">
      <!-- −1.00 -->
      <g transform="translate(53.895526 266.598437)scale(0.1 -0.1)">
       <defs>
        <path id="DejaVuSans-2212" d="M 678 2272 
L 4684 2272 
L 4684 1741 
L 678 1741 
L 678 2272 
z
" transform="scale(0.015625)"/>
        <path id="DejaVuSans-31" d="M 794 531 
L 1825 531 
L 1825 4091 
L 703 3866 
L 703 4441 
L 1819 4666 
L 2450 4666 
L 2450 531 
L 3481 531 
L 3481 0 
L 794 0 
L 794 531 
z
" transform="scale(0.015625)"/>
        <path id="DejaVuSans-2e" d="M 684 794 
L 1344 794 
L 1344 0 
L 684 0 
L 684 794 
z
" transform="scale(0.015625)"/>
        <path id="DejaVuSans-30" d="M 2034 4250 
Q 1547 4250 1301 3770 
Q 1056 3291 1056 2328 
Q 1056 1369 1301 889 
Q 1547 409 2034 409 
Q 2525 409 2770 889 
Q 3016 1369 3016 2328 
Q 3016 3291 2770 3770 
Q 2525 4250 2034 4250 
z
M 2034 4750 
Q 2819 4750 3233 4129 
Q 3647 3509 3647 2328 
Q 3647 1150 3233 529 
Q 2819 -91 2034 -91 
Q 1250 -91 836 529 
Q 422 1150 422 2328 
Q 422 3509 836 4129 
Q 1250 4750 2034 4750 
z
" transform="scale(0.015625)"/>
       </defs>
       <use xlink:href="#DejaVuSans-2212"/>
       <use xlink:href="#DejaVuSans-31" x="83.789062"/>
       <use xlink:href="#DejaVuSans-2e" x="147.412109"/>
       <use xlink:href="#DejaVuSans-30" x="179.199219"/>
       <use xlink:href="#DejaVuSans-30" x="242.822266"/>
      </g>
     </g>
    </g>
    <g id="xtick_2">
     <g id="line2d_3">
      <path d="M 107.263636 252 
L 107.263636 34.56 
" clip-path="url(#p027d718348)" style="fill: none; stroke: #b0b0b0; stroke-width: 0.8; stroke-linecap: square"/>
     </g>
     <g id="line2d_4">
      <g>
       <use xlink:href="#m9a008e3ac6" x="107.263636" y="252" style="stroke: #000000; stroke-width: 0.8"/>
      </g>
     </g>
     <g id="text_2">
      <!-- −0.75 -->
      <g transform="translate(91.94098 266.598437)scale(0.1 -0.1)">
       <defs>
        <path id="DejaVuSans-37" d="M 525 4666 
L 3525 4666 
L 3525 4397 
L 1831 0 
L 1172 0 
L 2766 4134 
L 525 4134 
L 525 4666 
z
" transform="scale(0.015625)"/>
        <path id="DejaVuSans-35" d="M 691 4666 
L 3169 4666 
L 3169 4134 
L 1269 4134 
L 1269 2991 
Q 1406 3038 1543 3061 
Q 1681 3084 1819 3084 
Q 2600 3084 3056 2656 
Q 3513 2228 3513 1497 
Q 3513 744 3044 326 
Q 2575 -91 1722 -91 
Q 1428 -91 1123 -41 
Q 819 9 494 109 
L 494 744 
Q 775 591 1075 516 
Q 1375 441 1709 441 
Q 2250 441 2565 725 
Q 2881 1009 2881 1497 
Q 2881 1984 2565 2268 
Q 2250 2553 1709 2553 
Q 1456 2553 1204 2497 
Q 953 2441 691 2322 
L 691 4666 
z
" transform="scale(0.015625)"/>
       </defs>
       <use xlink:href="#DejaVuSans-2212"/>
       <use xlink:href="#DejaVuSans-30" x="83.789062"/>
       <use xlink:href="#DejaVuSans-2e" x="147.412109"/>
       <use xlink:href="#DejaVuSans-37" x="179.199219"/>
       <use xlink:href="#DejaVuSans-35" x="242.822266"/>
      </g>
     </g>
    </g>
    <g id="xtick_3">
     <g id="line2d_5">
      <path d="M 145.309091 252 
L 145.309091 34.56 
" clip-path="url(#p027d718348)" style="fill: none; stroke: #b0b0b0; stroke-width: 0.8; stroke-linecap: square"/>
     </g>
     <g id="line2d_6">
      <g>
       <use xlink:href="#m9a008e3ac6" x="145.309091" y="252" style="stroke: #000000; stroke-width: 0.8"/>
      </g>
     </g>
     <g id="text_3">
      <!-- −0.50 -->
      <g transform="translate(129.986435 266.598437)scale(0.1 -0.1)">
       <use xlink:href="#DejaVuSans-2212"/>
       <use xlink:href="#DejaVuSans-30" x="83.789062"/>
       <use xlink:href="#DejaVuSans-2e" x="147.412109"/>
       <use xlink:href="#DejaVuSans-35" x="179.199219"/>
       <use xlink:href="#DejaVuSans-30" x="242.822266"/>
      </g>
     </g>
    </g>
    <g id="xtick_4">
     <g id="line2d_7">
      <path d="M 183.354545 252 
L 183.354545 34.56 
" clip-path="url(#p027d718348)" style="fill: none; stroke: #b0b0b0; stroke-width: 0.8; stroke-linecap: square"/>
     </g>
     <g id="line2d_8">
      <g>
       <use xlink:href="#m9a008e3ac6" x="183.354545" y="252" style="stroke: #000000; stroke-width: 0.8"/>
      </g>
     </g>
     <g id="text_4">
      <!-- −0.25 -->
      <g transform="translate(168.031889 266.598437)scale(0.1 -0.1)">
       <defs>
        <path id="DejaVuSans-32" d="M 1228 531 
L 3431 531 
L 3431 0 
L 469 0 
L 469 531 
Q 828 903 1448 1529 
Q 2069 2156 2228 2338 
Q 2531 2678 2651 2914 
Q 2772 3150 2772 3378 
Q 2772 3750 2511 3984 
Q 2250 4219 1831 4219 
Q 1534 4219 1204 4116 
Q 875 4013 500 3803 
L 500 4441 
Q 881 4594 1212 4672 
Q 1544 4750 1819 4750 
Q 2544 4750 2975 4387 
Q 3406 4025 3406 3419 
Q 3406 3131 3298 2873 
Q 3191 2616 2906 2266 
Q 2828 2175 2409 1742 
Q 1991 1309 1228 531 
z
" transform="scale(0.015625)"/>
       </defs>
       <use xlink:href="#DejaVuSans-2212"/>
       <use xlink:href="#DejaVuSans-30" x="83.789062"/>
       <use xlink:href="#DejaVuSans-2e" x="147.412109"/>
       <use xlink:href="#DejaVuSans-32" x="179.199219"/>
       <use xlink:href="#DejaVuSans-35" x="242.822266"/>
      </g>
     </g>
    </g>
    <g id="xtick_5">
     <g id="line2d_9">
      <path d="M 221.4 252 
L 221.4 34.56 
" clip-path="url(#p027d718348)" style="fill: none; stroke: #b0b0b0; stroke-width: 0.8; stroke-linecap: square"/>
     </g>
     <g id="line2d_10">
      <g>
       <use xlink:href="#m9a008e3ac6" x="221.4" y="252" style="stroke: #000000; stroke-width: 0.8"/>
      </g>
     </g>
     <g id="text_5">
      <!-- 0.00 -->
      <g transform="translate(210.267188 266.598437)scale(0.1 -0.1)">
       <use xlink:href="#DejaVuSans-30"/>
       <use xlink:href="#DejaVuSans-2e" x="63.623047"/>
       <use xlink:href="#DejaVuSans-30" x="95.410156"/>
       <use xlink:href="#DejaVuSans-30" x="159.033203"/>
      </g>
     </g>
    </g>
    <g id="xtick_6">
     <g id="line2d_11">
      <path d="M 259.445455 252 
L 259.445455 34.56 
" clip-path="url(#p027d718348)" style="fill: none; stroke: #b0b0b0; stroke-width: 0.8; stroke-linecap: square"/>
     </g>
     <g id="line2d_12">
      <g>
       <use xlink:href="#m9a008e3ac6" x="259.445455" y="252" style="stroke: #000000; stroke-width: 0.8"/>
      </g>
     </g>
     <g id="text_6">
      <!-- 0.25 -->
      <g transform="translate(248.312642 266.598437)scale(0.1 -0.1)">
       <use xlink:href="#DejaVuSans-30"/>
       <use xlink:href="#DejaVuSans-2e" x="63.623047"/>
       <use xlink:href="#DejaVuSans-32" x="95.410156"/>
       <use xlink:href="#DejaVuSans-35" x="159.033203"/>
      </g>
     </g>
    </g>
    <g id="xtick_7">
     <g id="line2d_13">
      <path d="M 297.490909 252 
L 297.490909 34.56 
" clip-path="url(#p027d718348)" style="fill: none; stroke: #b0b0b0; stroke-width: 0.8; stroke-linecap: square"/>
     </g>
     <g id="line2d_14">
      <g>
       <use xlink:href="#m9a008e3ac6" x="297.490909" y="252" style="stroke: #000000; stroke-width: 0.8"/>
      </g>
     </g>
     <g id="text_7">
      <!-- 0.50 -->
      <g transform="translate(286.358097 266.598437)scale(0.1 -0.1)">
       <use xlink:href="#DejaVuSans-30"/>
       <use xlink:href="#DejaVuSans-2e" x="63.623047"/>
       <use xlink:href="#DejaVuSans-35" x="95.410156"/>
       <use xlink:href="#DejaVuSans-30" x="159.033203"/>
      </g>
     </g>
    </g>
    <g id="xtick_8">
     <g id="line2d_15">
      <path d="M 335.536364 252 
L 335.536364 34.56 
" clip-path="url(#p027d718348)" style="fill: none; stroke: #b0b0b0; stroke-width: 0.8; stroke-linecap: square"/>
     </g>
     <g id="line2d_16">
      <g>
       <use xlink:href="#m9a008e3ac6" x="335.536364" y="252" style="stroke: #000000; stroke-width: 0.8"/>
      </g>
     </g>
     <g id="text_8">
      <!-- 0.75 -->
      <g transform="translate(324.403551 266.598437)scale(0.1 -0.1)">
       <use xlink:href="#DejaVuSans-30"/>
       <use xlink:href="#DejaVuSans-2e" x="63.623047"/>
       <use xlink:href="#DejaVuSans-37" x="95.410156"/>
       <use xlink:href="#DejaVuSans-35" x="159.033203"/>
      </g>
     </g>
    </g>
    <g id="xtick_9">
     <g id="line2d_17">
      <path d="M 373.581818 252 
L 373.581818 34.56 
" clip-path="url(#p027d718348)" style="fill: none; stroke: #b0b0b0; stroke-width: 0.8; stroke-linecap: square"/>
     </g>
     <g id="line2d_18">
      <g>
       <use xlink:href="#m9a008e3ac6" x="373.581818" y="252" style="stroke: #000000; stroke-width: 0.8"/>
      </g>
     </g>
     <g id="text_9">
      <!-- 1.00 -->
      <g transform="translate(362.449006 266.598437)scale(0.1 -0.1)">
       <use xlink:href="#DejaVuSans-31"/>
       <use xlink:href="#DejaVuSans-2e" x="63.623047"/>
       <use xlink:href="#DejaVuSans-30" x="95.410156"/>
       <use xlink:href="#DejaVuSans-30" x="159.033203"/>
      </g>
     </g>
    </g>
    <g id="text_10">
     <!-- $x$ -->
     <g transform="translate(218.4 280.276563)scale(0.1 -0.1)">
      <defs>
       <path id="DejaVuSans-Oblique-78" d="M 3841 3500 
L 2234 1784 
L 3219 0 
L 2559 0 
L 1819 1388 
L 531 0 
L -166 0 
L 1556 1844 
L 641 3500 
L 1300 3500 
L 1972 2234 
L 3144 3500 
L 3841 3500 
z
" transform="scale(0.015625)"/>
      </defs>
      <use xlink:href="#DejaVuSans-Oblique-78" transform="translate(0 0.3125)"/>
     </g>
    </g>
   </g>
   <g id="matplotlib.axis_2">
    <g id="ytick_1">
     <g id="line2d_19">
      <path d="M 54 242.116364 
L 388.8 242.116364 
" clip-path="url(#p027d718348)" style="fill: none; stroke: #b0b0b0; stroke-width: 0.8; stroke-linecap: square"/>
     </g>
     <g id="line2d_20">
      <defs>
       <path id="m493d485775" d="M 0 0 
L -3.5 0 
" style="stroke: #000000; stroke-width: 0.8"/>
      </defs>
      <g>
       <use xlink:href="#m493d485775" x="54" y="242.116364" style="stroke: #000000; stroke-width: 0.8"/>
      </g>
     </g>
     <g id="text_11">
      <!-- 0.0 -->
      <g transform="translate(31.096875 245.915582)scale(0.1 -0.1)">
       <use xlink:href="#DejaVuSans-30"/>
       <use xlink:href="#DejaVuSans-2e" x="63.623047"/>
       <use xlink:href="#DejaVuSans-30" x="95.410156"/>
      </g>
     </g>
    </g>
    <g id="ytick_2">
     <g id="line2d_21">
      <path d="M 54 213.742543 
L 388.8 213.742543 
" clip-path="url(#p027d718348)" style="fill: none; stroke: #b0b0b0; stroke-width: 0.8; stroke-linecap: square"/>
     </g>
     <g id="line2d_22">
      <g>
       <use xlink:href="#m493d485775" x="54" y="213.742543" style="stroke: #000000; stroke-width: 0.8"/>
      </g>
     </g>
     <g id="text_12">
      <!-- 0.1 -->
      <g transform="translate(31.096875 217.541762)scale(0.1 -0.1)">
       <use xlink:href="#DejaVuSans-30"/>
       <use xlink:href="#DejaVuSans-2e" x="63.623047"/>
       <use xlink:href="#DejaVuSans-31" x="95.410156"/>
      </g>
     </g>
    </g>
    <g id="ytick_3">
     <g id="line2d_23">
      <path d="M 54 185.368723 
L 388.8 185.368723 
" clip-path="url(#p027d718348)" style="fill: none; stroke: #b0b0b0; stroke-width: 0.8; stroke-linecap: square"/>
     </g>
     <g id="line2d_24">
      <g>
       <use xlink:href="#m493d485775" x="54" y="185.368723" style="stroke: #000000; stroke-width: 0.8"/>
      </g>
     </g>
     <g id="text_13">
      <!-- 0.2 -->
      <g transform="translate(31.096875 189.167942)scale(0.1 -0.1)">
       <use xlink:href="#DejaVuSans-30"/>
       <use xlink:href="#DejaVuSans-2e" x="63.623047"/>
       <use xlink:href="#DejaVuSans-32" x="95.410156"/>
      </g>
     </g>
    </g>
    <g id="ytick_4">
     <g id="line2d_25">
      <path d="M 54 156.994903 
L 388.8 156.994903 
" clip-path="url(#p027d718348)" style="fill: none; stroke: #b0b0b0; stroke-width: 0.8; stroke-linecap: square"/>
     </g>
     <g id="line2d_26">
      <g>
       <use xlink:href="#m493d485775" x="54" y="156.994903" style="stroke: #000000; stroke-width: 0.8"/>
      </g>
     </g>
     <g id="text_14">
      <!-- 0.3 -->
      <g transform="translate(31.096875 160.794122)scale(0.1 -0.1)">
       <defs>
        <path id="DejaVuSans-33" d="M 2597 2516 
Q 3050 2419 3304 2112 
Q 3559 1806 3559 1356 
Q 3559 666 3084 287 
Q 2609 -91 1734 -91 
Q 1441 -91 1130 -33 
Q 819 25 488 141 
L 488 750 
Q 750 597 1062 519 
Q 1375 441 1716 441 
Q 2309 441 2620 675 
Q 2931 909 2931 1356 
Q 2931 1769 2642 2001 
Q 2353 2234 1838 2234 
L 1294 2234 
L 1294 2753 
L 1863 2753 
Q 2328 2753 2575 2939 
Q 2822 3125 2822 3475 
Q 2822 3834 2567 4026 
Q 2313 4219 1838 4219 
Q 1578 4219 1281 4162 
Q 984 4106 628 3988 
L 628 4550 
Q 988 4650 1302 4700 
Q 1616 4750 1894 4750 
Q 2613 4750 3031 4423 
Q 3450 4097 3450 3541 
Q 3450 3153 3228 2886 
Q 3006 2619 2597 2516 
z
" transform="scale(0.015625)"/>
       </defs>
       <use xlink:href="#DejaVuSans-30"/>
       <use xlink:href="#DejaVuSans-2e" x="63.623047"/>
       <use xlink:href="#DejaVuSans-33" x="95.410156"/>
      </g>
     </g>
    </g>
    <g id="ytick_5">
     <g id="line2d_27">
      <path d="M 54 128.621083 
L 388.8 128.621083 
" clip-path="url(#p027d718348)" style="fill: none; stroke: #b0b0b0; stroke-width: 0.8; stroke-linecap: square"/>
     </g>
     <g id="line2d_28">
      <g>
       <use xlink:href="#m493d485775" x="54" y="128.621083" style="stroke: #000000; stroke-width: 0.8"/>
      </g>
     </g>
     <g id="text_15">
      <!-- 0.4 -->
      <g transform="translate(31.096875 132.420301)scale(0.1 -0.1)">
       <defs>
        <path id="DejaVuSans-34" d="M 2419 4116 
L 825 1625 
L 2419 1625 
L 2419 4116 
z
M 2253 4666 
L 3047 4666 
L 3047 1625 
L 3713 1625 
L 3713 1100 
L 3047 1100 
L 3047 0 
L 2419 0 
L 2419 1100 
L 313 1100 
L 313 1709 
L 2253 4666 
z
" transform="scale(0.015625)"/>
       </defs>
       <use xlink:href="#DejaVuSans-30"/>
       <use xlink:href="#DejaVuSans-2e" x="63.623047"/>
       <use xlink:href="#DejaVuSans-34" x="95.410156"/>
      </g>
     </g>
    </g>
    <g id="ytick_6">
     <g id="line2d_29">
      <path d="M 54 100.247262 
L 388.8 100.247262 
" clip-path="url(#p027d718348)" style="fill: none; stroke: #b0b0b0; stroke-width: 0.8; stroke-linecap: square"/>
     </g>
     <g id="line2d_30">
      <g>
       <use xlink:href="#m493d485775" x="54" y="100.247262" style="stroke: #000000; stroke-width: 0.8"/>
      </g>
     </g>
     <g id="text_16">
      <!-- 0.5 -->
      <g transform="translate(31.096875 104.046481)scale(0.1 -0.1)">
       <use xlink:href="#DejaVuSans-30"/>
       <use xlink:href="#DejaVuSans-2e" x="63.623047"/>
       <use xlink:href="#DejaVuSans-35" x="95.410156"/>
      </g>
     </g>
    </g>
    <g id="ytick_7">
     <g id="line2d_31">
      <path d="M 54 71.873442 
L 388.8 71.873442 
" clip-path="url(#p027d718348)" style="fill: none; stroke: #b0b0b0; stroke-width: 0.8; stroke-linecap: square"/>
     </g>
     <g id="line2d_32">
      <g>
       <use xlink:href="#m493d485775" x="54" y="71.873442" style="stroke: #000000; stroke-width: 0.8"/>
      </g>
     </g>
     <g id="text_17">
      <!-- 0.6 -->
      <g transform="translate(31.096875 75.672661)scale(0.1 -0.1)">
       <defs>
        <path id="DejaVuSans-36" d="M 2113 2584 
Q 1688 2584 1439 2293 
Q 1191 2003 1191 1497 
Q 1191 994 1439 701 
Q 1688 409 2113 409 
Q 2538 409 2786 701 
Q 3034 994 3034 1497 
Q 3034 2003 2786 2293 
Q 2538 2584 2113 2584 
z
M 3366 4563 
L 3366 3988 
Q 3128 4100 2886 4159 
Q 2644 4219 2406 4219 
Q 1781 4219 1451 3797 
Q 1122 3375 1075 2522 
Q 1259 2794 1537 2939 
Q 1816 3084 2150 3084 
Q 2853 3084 3261 2657 
Q 3669 2231 3669 1497 
Q 3669 778 3244 343 
Q 2819 -91 2113 -91 
Q 1303 -91 875 529 
Q 447 1150 447 2328 
Q 447 3434 972 4092 
Q 1497 4750 2381 4750 
Q 2619 4750 2861 4703 
Q 3103 4656 3366 4563 
z
" transform="scale(0.015625)"/>
       </defs>
       <use xlink:href="#DejaVuSans-30"/>
       <use xlink:href="#DejaVuSans-2e" x="63.623047"/>
       <use xlink:href="#DejaVuSans-36" x="95.410156"/>
      </g>
     </g>
    </g>
    <g id="ytick_8">
     <g id="line2d_33">
      <path d="M 54 43.499622 
L 388.8 43.499622 
" clip-path="url(#p027d718348)" style="fill: none; stroke: #b0b0b0; stroke-width: 0.8; stroke-linecap: square"/>
     </g>
     <g id="line2d_34">
      <g>
       <use xlink:href="#m493d485775" x="54" y="43.499622" style="stroke: #000000; stroke-width: 0.8"/>
      </g>
     </g>
     <g id="text_18">
      <!-- 0.7 -->
      <g transform="translate(31.096875 47.298841)scale(0.1 -0.1)">
       <use xlink:href="#DejaVuSans-30"/>
       <use xlink:href="#DejaVuSans-2e" x="63.623047"/>
       <use xlink:href="#DejaVuSans-37" x="95.410156"/>
      </g>
     </g>
    </g>
    <g id="text_19">
     <!-- $v$ -->
     <g transform="translate(25.017187 146.28)rotate(-90)scale(0.1 -0.1)">
      <defs>
       <path id="DejaVuSans-Oblique-76" d="M 459 3500 
L 1069 3500 
L 1581 525 
L 3256 3500 
L 3866 3500 
L 1875 0 
L 1100 0 
L 459 3500 
z
" transform="scale(0.015625)"/>
      </defs>
      <use xlink:href="#DejaVuSans-Oblique-76" transform="translate(0 0.3125)"/>
     </g>
    </g>
   </g>
   <g id="line2d_35">
    <path d="M 69.218182 196.071992 
L 72.261818 197.895349 
L 75.305455 199.681871 
L 78.349091 201.431557 
L 81.392727 203.144408 
L 84.436364 204.820423 
L 87.48 206.459602 
L 90.523636 208.061947 
L 93.567273 209.627455 
L 96.610909 211.156128 
L 99.654545 212.647966 
L 102.698182 214.102968 
L 105.741818 215.521135 
L 108.785455 216.902466 
L 111.829091 218.246962 
L 114.872727 219.554622 
L 117.916364 220.825446 
L 120.96 222.059435 
L 124.003636 223.256589 
L 127.047273 224.416907 
L 130.090909 225.54039 
L 133.134545 226.627037 
L 136.178182 227.676849 
L 139.221818 228.689825 
L 142.265455 229.665966 
L 145.309091 230.605271 
L 148.352727 231.50774 
L 151.396364 232.373375 
L 154.44 233.202173 
L 157.483636 233.994137 
L 160.527273 234.749264 
L 163.570909 235.467556 
L 166.614545 236.149013 
L 169.658182 236.793634 
L 172.701818 237.40142 
L 175.745455 237.97237 
L 178.789091 238.506485 
L 181.832727 239.003764 
L 184.876364 239.464208 
L 187.92 239.887816 
L 190.963636 240.274589 
L 194.007273 240.624526 
L 197.050909 240.937628 
L 200.094545 241.213894 
L 203.138182 241.453325 
L 206.181818 241.65592 
L 209.225455 241.82168 
L 212.269091 241.950604 
L 215.312727 242.042693 
L 218.356364 242.097946 
L 221.4 242.116364 
L 224.443636 242.097946 
L 227.487273 242.042693 
L 230.530909 241.950604 
L 233.574545 241.82168 
L 236.618182 241.65592 
L 239.661818 241.453325 
L 242.705455 241.213894 
L 245.749091 240.937628 
L 248.792727 240.624526 
L 251.836364 240.274589 
L 254.88 239.887816 
L 257.923636 239.464208 
L 260.967273 239.003764 
L 264.010909 238.506485 
L 267.054545 237.97237 
L 270.098182 237.40142 
L 273.141818 236.793634 
L 276.185455 236.149013 
L 279.229091 235.467556 
L 282.272727 234.749264 
L 285.316364 233.994137 
L 288.36 233.202173 
L 291.403636 232.373375 
L 294.447273 231.50774 
L 297.490909 230.605271 
L 300.534545 229.665966 
L 303.578182 228.689825 
L 306.621818 227.676849 
L 309.665455 226.627037 
L 312.709091 225.54039 
L 315.752727 224.416907 
L 318.796364 223.256589 
L 321.84 222.059435 
L 324.883636 220.825446 
L 327.927273 219.554622 
L 330.970909 218.246962 
L 334.014545 216.902466 
L 337.058182 215.521135 
L 340.101818 214.102968 
L 343.145455 212.647966 
L 346.189091 211.156128 
L 349.232727 209.627455 
L 352.276364 208.061947 
L 355.32 206.459602 
L 358.363636 204.820423 
L 361.407273 203.144408 
L 364.450909 201.431557 
L 367.494545 199.681871 
L 370.538182 197.895349 
L 373.581818 196.071992 
" clip-path="url(#p027d718348)" style="fill: none; stroke: #1f77b4; stroke-width: 1.5; stroke-linecap: square"/>
   </g>
   <g id="line2d_36">
    <path d="M 69.218182 191.981308 
L 72.261818 176.617042 
L 75.305455 162.950847 
L 78.349091 150.897765 
L 81.392727 140.374587 
L 84.436364 131.299855 
L 87.48 123.593866 
L 90.523636 117.178665 
L 93.567273 111.978052 
L 96.610909 107.917577 
L 99.654545 104.924542 
L 102.698182 102.928 
L 105.741818 101.858758 
L 108.785455 101.649373 
L 111.829091 102.234154 
L 114.872727 103.549162 
L 117.916364 105.532209 
L 120.96 108.12286 
L 124.003636 111.262431 
L 127.047273 114.89399 
L 130.090909 118.962357 
L 133.134545 123.414103 
L 136.178182 128.197551 
L 139.221818 133.262776 
L 142.265455 138.561606 
L 145.309091 144.047617 
L 148.352727 149.676141 
L 151.396364 155.40426 
L 154.44 161.190807 
L 157.483636 166.996368 
L 160.527273 172.783279 
L 163.570909 178.515631 
L 166.614545 184.159263 
L 169.658182 189.681769 
L 172.701818 195.052492 
L 175.745455 200.242528 
L 178.789091 205.224726 
L 181.832727 209.973685 
L 184.876364 214.465755 
L 187.92 218.679041 
L 190.963636 222.593397 
L 194.007273 226.190429 
L 197.050909 229.453496 
L 200.094545 232.367708 
L 203.138182 234.919927 
L 206.181818 237.098766 
L 209.225455 238.894591 
L 212.269091 240.299518 
L 215.312727 241.307417 
L 218.356364 241.913908 
L 221.4 242.116364 
L 224.443636 241.913908 
L 227.487273 241.307417 
L 230.530909 240.299518 
L 233.574545 238.894591 
L 236.618182 237.098766 
L 239.661818 234.919927 
L 242.705455 232.367708 
L 245.749091 229.453496 
L 248.792727 226.190429 
L 251.836364 222.593397 
L 254.88 218.679041 
L 257.923636 214.465755 
L 260.967273 209.973685 
L 264.010909 205.224726 
L 267.054545 200.242528 
L 270.098182 195.052492 
L 273.141818 189.681769 
L 276.185455 184.159263 
L 279.229091 178.515631 
L 282.272727 172.783279 
L 285.316364 166.996368 
L 288.36 161.190807 
L 291.403636 155.40426 
L 294.447273 149.676141 
L 297.490909 144.047617 
L 300.534545 138.561606 
L 303.578182 133.262776 
L 306.621818 128.197551 
L 309.665455 123.414103 
L 312.709091 118.962357 
L 315.752727 114.89399 
L 318.796364 111.262431 
L 321.84 108.12286 
L 324.883636 105.532209 
L 327.927273 103.549162 
L 330.970909 102.234154 
L 334.014545 101.649373 
L 337.058182 101.858758 
L 340.101818 102.928 
L 343.145455 104.924542 
L 346.189091 107.917577 
L 349.232727 111.978052 
L 352.276364 117.178665 
L 355.32 123.593866 
L 358.363636 131.299855 
L 361.407273 140.374587 
L 364.450909 150.897765 
L 367.494545 162.950847 
L 370.538182 176.617042 
L 373.581818 191.981308 
" clip-path="url(#p027d718348)" style="fill: none; stroke: #ff7f0e; stroke-width: 1.5; stroke-linecap: square"/>
   </g>
   <g id="line2d_37">
    <path d="M 69.218182 86.674142 
L 72.261818 88.083574 
L 75.305455 88.754312 
L 78.349091 88.861898 
L 81.392727 88.564638 
L 84.436364 88.004458 
L 87.48 87.307732 
L 90.523636 86.586102 
L 93.567273 85.937269 
L 96.610909 85.445777 
L 99.654545 85.183775 
L 102.698182 85.211755 
L 105.741818 85.579284 
L 108.785455 86.325706 
L 111.829091 87.480836 
L 114.872727 89.065628 
L 117.916364 91.092833 
L 120.96 93.56763 
L 124.003636 96.48825 
L 127.047273 99.84657 
L 130.090909 103.628698 
L 133.134545 107.815539 
L 136.178182 112.38334 
L 139.221818 117.304214 
L 142.265455 122.54666 
L 145.309091 128.076047 
L 148.352727 133.855092 
L 151.396364 139.844317 
L 154.44 146.002489 
L 157.483636 152.287038 
L 160.527273 158.654462 
L 163.570909 165.060711 
L 166.614545 171.461557 
L 169.658182 177.81294 
L 172.701818 184.0713 
L 175.745455 190.193893 
L 178.789091 196.139082 
L 181.832727 201.866622 
L 184.876364 207.337909 
L 187.92 212.516234 
L 190.963636 217.366997 
L 194.007273 221.857919 
L 197.050909 225.959226 
L 200.094545 229.643823 
L 203.138182 232.887443 
L 206.181818 235.668785 
L 209.225455 237.969626 
L 212.269091 239.774923 
L 215.312727 241.072892 
L 218.356364 241.85507 
L 221.4 242.116364 
L 224.443636 241.85507 
L 227.487273 241.072892 
L 230.530909 239.774923 
L 233.574545 237.969626 
L 236.618182 235.668785 
L 239.661818 232.887443 
L 242.705455 229.643823 
L 245.749091 225.959226 
L 248.792727 221.857919 
L 251.836364 217.366997 
L 254.88 212.516234 
L 257.923636 207.337909 
L 260.967273 201.866622 
L 264.010909 196.139082 
L 267.054545 190.193893 
L 270.098182 184.0713 
L 273.141818 177.81294 
L 276.185455 171.461557 
L 279.229091 165.060711 
L 282.272727 158.654462 
L 285.316364 152.287038 
L 288.36 146.002489 
L 291.403636 139.844317 
L 294.447273 133.855092 
L 297.490909 128.076047 
L 300.534545 122.54666 
L 303.578182 117.304214 
L 306.621818 112.38334 
L 309.665455 107.815539 
L 312.709091 103.628698 
L 315.752727 99.84657 
L 318.796364 96.48825 
L 321.84 93.56763 
L 324.883636 91.092833 
L 327.927273 89.065628 
L 330.970909 87.480836 
L 334.014545 86.325706 
L 337.058182 85.579284 
L 340.101818 85.211755 
L 343.145455 85.183775 
L 346.189091 85.445777 
L 349.232727 85.937269 
L 352.276364 86.586102 
L 355.32 87.307732 
L 358.363636 88.004458 
L 361.407273 88.564638 
L 364.450909 88.861898 
L 367.494545 88.754312 
L 370.538182 88.083574 
L 373.581818 86.674142 
" clip-path="url(#p027d718348)" style="fill: none; stroke: #2ca02c; stroke-width: 1.5; stroke-linecap: square"/>
   </g>
   <g id="line2d_38">
    <path d="M 69.218182 48.121309 
L 72.261818 49.473043 
L 75.305455 51.132444 
L 78.349091 53.009608 
L 81.392727 55.038356 
L 84.436364 57.172715 
L 87.48 59.383707 
L 90.523636 61.656424 
L 93.567273 63.98737 
L 96.610909 66.382066 
L 99.654545 68.852888 
L 102.698182 71.417152 
L 105.741818 74.095405 
L 108.785455 76.909922 
L 111.829091 79.883403 
L 114.872727 83.037845 
L 117.916364 86.393588 
L 120.96 89.968513 
L 124.003636 93.777396 
L 127.047273 97.831388 
L 130.090909 102.137633 
L 133.134545 106.698994 
L 136.178182 111.513886 
L 139.221818 116.576208 
L 142.265455 121.875364 
L 145.309091 127.396357 
L 148.352727 133.119964 
L 151.396364 139.022958 
L 154.44 145.078401 
L 157.483636 151.255969 
L 160.527273 157.522328 
L 163.570909 163.841532 
L 166.614545 170.175459 
L 169.658182 176.484251 
L 172.701818 182.726782 
L 175.745455 188.861125 
L 178.789091 194.845023 
L 181.832727 200.63636 
L 184.876364 206.193618 
L 187.92 211.476328 
L 190.963636 216.445501 
L 194.007273 221.064042 
L 197.050909 225.297135 
L 200.094545 229.112605 
L 203.138182 232.481249 
L 206.181818 235.377134 
L 209.225455 237.77786 
L 212.269091 239.664785 
L 215.312727 241.023213 
L 218.356364 241.84254 
L 221.4 242.116364 
L 224.443636 241.84254 
L 227.487273 241.023213 
L 230.530909 239.664785 
L 233.574545 237.77786 
L 236.618182 235.377134 
L 239.661818 232.481249 
L 242.705455 229.112605 
L 245.749091 225.297135 
L 248.792727 221.064042 
L 251.836364 216.445501 
L 254.88 211.476328 
L 257.923636 206.193618 
L 260.967273 200.63636 
L 264.010909 194.845023 
L 267.054545 188.861125 
L 270.098182 182.726782 
L 273.141818 176.484251 
L 276.185455 170.175459 
L 279.229091 163.841532 
L 282.272727 157.522328 
L 285.316364 151.255969 
L 288.36 145.078401 
L 291.403636 139.022958 
L 294.447273 133.119964 
L 297.490909 127.396357 
L 300.534545 121.875364 
L 303.578182 116.576208 
L 306.621818 111.513886 
L 309.665455 106.698994 
L 312.709091 102.137633 
L 315.752727 97.831388 
L 318.796364 93.777396 
L 321.84 89.968513 
L 324.883636 86.393588 
L 327.927273 83.037845 
L 330.970909 79.883403 
L 334.014545 76.909922 
L 337.058182 74.095405 
L 340.101818 71.417152 
L 343.145455 68.852888 
L 346.189091 66.382066 
L 349.232727 63.98737 
L 352.276364 61.656424 
L 355.32 59.383707 
L 358.363636 57.172715 
L 361.407273 55.038356 
L 364.450909 53.009608 
L 367.494545 51.132444 
L 370.538182 49.473043 
L 373.581818 48.121309 
" clip-path="url(#p027d718348)" style="fill: none; stroke: #d62728; stroke-width: 1.5; stroke-linecap: square"/>
   </g>
   <g id="line2d_39">
    <path d="M 69.218182 55.764264 
L 72.261818 53.620328 
L 75.305455 52.951573 
L 78.349091 53.35366 
L 81.392727 54.513135 
L 84.436364 56.192636 
L 87.48 58.217856 
L 90.523636 60.466138 
L 93.567273 62.856519 
L 96.610909 65.341115 
L 99.654545 67.897688 
L 102.698182 70.523303 
L 105.741818 73.228937 
L 108.785455 76.034952 
L 111.829091 78.967343 
L 114.872727 82.054648 
L 117.916364 85.325469 
L 120.96 88.806509 
L 124.003636 92.521068 
L 127.047273 96.487933 
L 130.090909 100.72061 
L 133.134545 105.226838 
L 136.178182 110.008355 
L 139.221818 115.060865 
L 142.265455 120.374165 
L 145.309091 125.932416 
L 148.352727 131.714514 
L 151.396364 137.694545 
L 154.44 143.8423 
L 157.483636 150.123828 
L 160.527273 156.502017 
L 163.570909 162.937181 
L 166.614545 169.387658 
L 169.658182 175.810381 
L 172.701818 182.161449 
L 175.745455 188.396665 
L 178.789091 194.472046 
L 181.832727 200.344309 
L 184.876364 205.971316 
L 187.92 211.312489 
L 190.963636 216.329185 
L 194.007273 220.985041 
L 197.050909 225.246281 
L 200.094545 229.081986 
L 203.138182 232.464337 
L 206.181818 235.368819 
L 209.225455 237.774401 
L 212.269091 239.663677 
L 215.312727 241.022992 
L 218.356364 241.842527 
L 221.4 242.116364 
L 224.443636 241.842527 
L 227.487273 241.022992 
L 230.530909 239.663677 
L 233.574545 237.774401 
L 236.618182 235.368819 
L 239.661818 232.464337 
L 242.705455 229.081986 
L 245.749091 225.246281 
L 248.792727 220.985041 
L 251.836364 216.329185 
L 254.88 211.312489 
L 257.923636 205.971316 
L 260.967273 200.344309 
L 264.010909 194.472046 
L 267.054545 188.396665 
L 270.098182 182.161449 
L 273.141818 175.810381 
L 276.185455 169.387658 
L 279.229091 162.937181 
L 282.272727 156.502017 
L 285.316364 150.123828 
L 288.36 143.8423 
L 291.403636 137.694545 
L 294.447273 131.714514 
L 297.490909 125.932416 
L 300.534545 120.374165 
L 303.578182 115.060865 
L 306.621818 110.008355 
L 309.665455 105.226838 
L 312.709091 100.72061 
L 315.752727 96.487933 
L 318.796364 92.521068 
L 321.84 88.806509 
L 324.883636 85.325469 
L 327.927273 82.054648 
L 330.970909 78.967343 
L 334.014545 76.034952 
L 337.058182 73.228937 
L 340.101818 70.523303 
L 343.145455 67.897688 
L 346.189091 65.341115 
L 349.232727 62.856519 
L 352.276364 60.466138 
L 355.32 58.217856 
L 358.363636 56.192636 
L 361.407273 54.513135 
L 364.450909 53.35366 
L 367.494545 52.951573 
L 370.538182 53.620328 
L 373.581818 55.764264 
" clip-path="url(#p027d718348)" style="fill: none; stroke: #9467bd; stroke-width: 1.5; stroke-linecap: square"/>
   </g>
   <g id="line2d_40">
    <path d="M 69.218182 46.495048 
L 72.261818 48.154468 
L 75.305455 49.634585 
L 78.349091 51.129046 
L 81.392727 52.746176 
L 84.436364 54.53664 
L 87.48 56.514528 
L 90.523636 58.673013 
L 93.567273 60.995608 
L 96.610909 63.463902 
L 99.654545 66.062519 
L 102.698182 68.781917 
L 105.741818 71.619579 
L 108.785455 74.580028 
L 111.829091 77.674015 
L 114.872727 80.917195 
L 117.916364 84.328509 
L 120.96 87.928459 
L 124.003636 91.737409 
L 127.047273 95.774018 
L 130.090909 100.05387 
L 133.134545 104.588342 
L 136.178182 109.383737 
L 139.221818 114.440679 
L 142.265455 119.753774 
L 145.309091 125.311501 
L 148.352727 131.096327 
L 151.396364 137.085009 
L 154.44 143.249041 
L 157.483636 149.555231 
L 160.527273 155.966366 
L 163.570909 162.441933 
L 166.614545 168.938872 
L 169.658182 175.412338 
L 172.701818 181.816442 
L 175.745455 188.104963 
L 178.789091 194.23201 
L 181.832727 200.152628 
L 184.876364 205.823335 
L 187.92 211.202597 
L 190.963636 216.251233 
L 194.007273 220.932742 
L 197.050909 225.213586 
L 200.094545 229.063396 
L 203.138182 232.455141 
L 206.181818 235.365244 
L 209.225455 237.77367 
L 212.269091 239.663979 
L 215.312727 241.02336 
L 218.356364 241.842654 
L 221.4 242.116364 
L 224.443636 241.842654 
L 227.487273 241.02336 
L 230.530909 239.663979 
L 233.574545 237.77367 
L 236.618182 235.365244 
L 239.661818 232.455141 
L 242.705455 229.063396 
L 245.749091 225.213586 
L 248.792727 220.932742 
L 251.836364 216.251233 
L 254.88 211.202598 
L 257.923636 205.823335 
L 260.967273 200.152628 
L 264.010909 194.23201 
L 267.054545 188.104963 
L 270.098182 181.816442 
L 273.141818 175.412338 
L 276.185455 168.938872 
L 279.229091 162.441933 
L 282.272727 155.966366 
L 285.316364 149.555231 
L 288.36 143.249041 
L 291.403636 137.08501 
L 294.447273 131.096328 
L 297.490909 125.311501 
L 300.534545 119.753774 
L 303.578182 114.44068 
L 306.621818 109.383737 
L 309.665455 104.588342 
L 312.709091 100.05387 
L 315.752727 95.774018 
L 318.796364 91.737409 
L 321.84 87.92846 
L 324.883636 84.32851 
L 327.927273 80.917195 
L 330.970909 77.674015 
L 334.014545 74.580029 
L 337.058182 71.61958 
L 340.101818 68.781917 
L 343.145455 66.062519 
L 346.189091 63.463903 
L 349.232727 60.995608 
L 352.276364 58.673014 
L 355.32 56.514529 
L 358.363636 54.53664 
L 361.407273 52.746176 
L 364.450909 51.129047 
L 367.494545 49.634585 
L 370.538182 48.154468 
L 373.581818 46.495048 
" clip-path="url(#p027d718348)" style="fill: none; stroke: #8c564b; stroke-width: 1.5; stroke-linecap: square"/>
   </g>
   <g id="line2d_41">
    <path d="M 69.218182 46.588629 
L 72.261818 48.241153 
L 75.305455 49.709846 
L 78.349091 51.195983 
L 81.392727 52.81034 
L 84.436364 54.603176 
L 87.48 56.586847 
L 90.523636 58.752434 
L 93.567273 61.08157 
L 96.610909 63.554446 
L 99.654545 66.154856 
L 102.698182 68.872974 
L 105.741818 71.706442 
L 108.785455 74.660256 
L 111.829091 77.745839 
L 114.872727 80.979589 
L 117.916364 84.381174 
L 120.96 87.97173 
L 124.003636 91.772127 
L 127.047273 95.80137 
L 130.090909 100.075236 
L 133.134545 104.605147 
L 136.178182 109.397331 
L 139.221818 114.452243 
L 142.265455 119.764257 
L 145.309091 125.321594 
L 148.352727 131.106457 
L 151.396364 137.095358 
L 154.44 143.259586 
L 157.483636 149.565793 
L 160.527273 155.976663 
L 163.570909 162.451634 
L 166.614545 168.947648 
L 169.658182 175.419904 
L 172.701818 181.822586 
L 175.745455 188.109568 
L 178.789091 194.23506 
L 181.832727 200.154207 
L 184.876364 205.823613 
L 187.92 211.201813 
L 190.963636 216.249666 
L 194.007273 220.930689 
L 197.050909 225.211332 
L 200.094545 229.061194 
L 203.138182 232.45319 
L 206.181818 235.363678 
L 209.225455 237.77255 
L 212.269091 239.663294 
L 215.312727 241.023038 
L 218.356364 241.842571 
L 221.4 242.116364 
L 224.443636 241.842571 
L 227.487273 241.023038 
L 230.530909 239.663294 
L 233.574545 237.77255 
L 236.618182 235.363678 
L 239.661818 232.45319 
L 242.705455 229.061194 
L 245.749091 225.211332 
L 248.792727 220.930689 
L 251.836364 216.249666 
L 254.88 211.201813 
L 257.923636 205.823613 
L 260.967273 200.154207 
L 264.010909 194.23506 
L 267.054545 188.109568 
L 270.098182 181.822586 
L 273.141818 175.419904 
L 276.185455 168.947648 
L 279.229091 162.451634 
L 282.272727 155.976663 
L 285.316364 149.565793 
L 288.36 143.259586 
L 291.403636 137.095358 
L 294.447273 131.106457 
L 297.490909 125.321594 
L 300.534545 119.764257 
L 303.578182 114.452243 
L 306.621818 109.397331 
L 309.665455 104.605147 
L 312.709091 100.075236 
L 315.752727 95.80137 
L 318.796364 91.772127 
L 321.84 87.97173 
L 324.883636 84.381174 
L 327.927273 80.979589 
L 330.970909 77.745839 
L 334.014545 74.660256 
L 337.058182 71.706442 
L 340.101818 68.872974 
L 343.145455 66.154856 
L 346.189091 63.554446 
L 349.232727 61.08157 
L 352.276364 58.752434 
L 355.32 56.586847 
L 358.363636 54.603176 
L 361.407273 52.81034 
L 364.450909 51.195983 
L 367.494545 49.709846 
L 370.538182 48.241153 
L 373.581818 46.588629 
" clip-path="url(#p027d718348)" style="fill: none; stroke: #e377c2; stroke-width: 1.5; stroke-linecap: square"/>
   </g>
   <g id="line2d_42">
    <path d="M 69.218182 44.443636 
L 72.261818 45.816182 
L 75.305455 47.593974 
L 78.349091 49.561363 
L 81.392727 51.623959 
L 84.436364 53.752561 
L 87.48 55.94885 
L 90.523636 58.225853 
L 93.567273 60.598041 
L 96.610909 63.077386 
L 99.654545 65.672792 
L 102.698182 68.39116 
L 105.741818 71.238982 
L 108.785455 74.223803 
L 111.829091 77.355211 
L 114.872727 80.645234 
L 117.916364 84.10816 
L 120.96 87.759877 
L 124.003636 91.616867 
L 127.047273 95.695001 
L 130.090909 100.00827 
L 133.134545 104.56757 
L 136.178182 109.379637 
L 139.221818 114.44619 
L 142.265455 119.763315 
L 145.309091 125.321125 
L 148.352727 131.103671 
L 151.396364 137.089091 
L 154.44 143.249974 
L 157.483636 149.553891 
L 160.527273 155.96406 
L 163.570909 162.440105 
L 166.614545 168.938859 
L 169.658182 175.415194 
L 172.701818 181.822831 
L 175.745455 188.115118 
L 178.789091 194.245745 
L 181.832727 200.169392 
L 184.876364 205.842305 
L 187.92 211.222779 
L 190.963636 216.271567 
L 194.007273 220.95221 
L 197.050909 225.231298 
L 200.094545 229.078661 
L 203.138182 232.467516 
L 206.181818 235.374558 
L 209.225455 237.780025 
L 212.269091 239.667731 
L 215.312727 241.025086 
L 218.356364 241.843095 
L 221.4 242.116364 
L 224.443636 241.843095 
L 227.487273 241.025086 
L 230.530909 239.667731 
L 233.574545 237.780025 
L 236.618182 235.374558 
L 239.661818 232.467516 
L 242.705455 229.078661 
L 245.749091 225.231298 
L 248.792727 220.95221 
L 251.836364 216.271567 
L 254.88 211.222779 
L 257.923636 205.842305 
L 260.967273 200.169392 
L 264.010909 194.245745 
L 267.054545 188.115118 
L 270.098182 181.822831 
L 273.141818 175.415194 
L 276.185455 168.938859 
L 279.229091 162.440105 
L 282.272727 155.96406 
L 285.316364 149.553891 
L 288.36 143.249974 
L 291.403636 137.089091 
L 294.447273 131.103671 
L 297.490909 125.321125 
L 300.534545 119.763315 
L 303.578182 114.44619 
L 306.621818 109.379637 
L 309.665455 104.56757 
L 312.709091 100.00827 
L 315.752727 95.695002 
L 318.796364 91.616867 
L 321.84 87.759877 
L 324.883636 84.10816 
L 327.927273 80.645234 
L 330.970909 77.355211 
L 334.014545 74.223803 
L 337.058182 71.238982 
L 340.101818 68.39116 
L 343.145455 65.672792 
L 346.189091 63.077386 
L 349.232727 60.598041 
L 352.276364 58.225853 
L 355.32 55.94885 
L 358.363636 53.752561 
L 361.407273 51.623959 
L 364.450909 49.561363 
L 367.494545 47.593974 
L 370.538182 45.816182 
L 373.581818 44.443636 
" clip-path="url(#p027d718348)" style="fill: none; stroke: #7f7f7f; stroke-width: 1.5; stroke-linecap: square"/>
   </g>
   <g id="patch_3">
    <path d="M 54 252 
L 54 34.56 
" style="fill: none; stroke: #000000; stroke-width: 0.8; stroke-linejoin: miter; stroke-linecap: square"/>
   </g>
   <g id="patch_4">
    <path d="M 388.8 252 
L 388.8 34.56 
" style="fill: none; stroke: #000000; stroke-width: 0.8; stroke-linejoin: miter; stroke-linecap: square"/>
   </g>
   <g id="patch_5">
    <path d="M 54 252 
L 388.8 252 
" style="fill: none; stroke: #000000; stroke-width: 0.8; stroke-linejoin: miter; stroke-linecap: square"/>
   </g>
   <g id="patch_6">
    <path d="M 54 34.56 
L 388.8 34.56 
" style="fill: none; stroke: #000000; stroke-width: 0.8; stroke-linejoin: miter; stroke-linecap: square"/>
   </g>
   <g id="text_20">
    <!-- Value-function lower bound -->
    <g transform="translate(139.137188 28.56)scale(0.12 -0.12)">
     <defs>
      <path id="DejaVuSans-56" d="M 1831 0 
L 50 4666 
L 709 4666 
L 2188 738 
L 3669 4666 
L 4325 4666 
L 2547 0 
L 1831 0 
z
" transform="scale(0.015625)"/>
      <path id="DejaVuSans-61" d="M 2194 1759 
Q 1497 1759 1228 1600 
Q 959 1441 959 1056 
Q 959 750 1161 570 
Q 1363 391 1709 391 
Q 2188 391 2477 730 
Q 2766 1069 2766 1631 
L 2766 1759 
L 2194 1759 
z
M 3341 1997 
L 3341 0 
L 2766 0 
L 2766 531 
Q 2569 213 2275 61 
Q 1981 -91 1556 -91 
Q 1019 -91 701 211 
Q 384 513 384 1019 
Q 384 1609 779 1909 
Q 1175 2209 1959 2209 
L 2766 2209 
L 2766 2266 
Q 2766 2663 2505 2880 
Q 2244 3097 1772 3097 
Q 1472 3097 1187 3025 
Q 903 2953 641 2809 
L 641 3341 
Q 956 3463 1253 3523 
Q 1550 3584 1831 3584 
Q 2591 3584 2966 3190 
Q 3341 2797 3341 1997 
z
" transform="scale(0.015625)"/>
      <path id="DejaVuSans-6c" d="M 603 4863 
L 1178 4863 
L 1178 0 
L 603 0 
L 603 4863 
z
" transform="scale(0.015625)"/>
      <path id="DejaVuSans-75" d="M 544 1381 
L 544 3500 
L 1119 3500 
L 1119 1403 
Q 1119 906 1312 657 
Q 1506 409 1894 409 
Q 2359 409 2629 706 
Q 2900 1003 2900 1516 
L 2900 3500 
L 3475 3500 
L 3475 0 
L 2900 0 
L 2900 538 
Q 2691 219 2414 64 
Q 2138 -91 1772 -91 
Q 1169 -91 856 284 
Q 544 659 544 1381 
z
M 1991 3584 
L 1991 3584 
z
" transform="scale(0.015625)"/>
      <path id="DejaVuSans-65" d="M 3597 1894 
L 3597 1613 
L 953 1613 
Q 991 1019 1311 708 
Q 1631 397 2203 397 
Q 2534 397 2845 478 
Q 3156 559 3463 722 
L 3463 178 
Q 3153 47 2828 -22 
Q 2503 -91 2169 -91 
Q 1331 -91 842 396 
Q 353 884 353 1716 
Q 353 2575 817 3079 
Q 1281 3584 2069 3584 
Q 2775 3584 3186 3129 
Q 3597 2675 3597 1894 
z
M 3022 2063 
Q 3016 2534 2758 2815 
Q 2500 3097 2075 3097 
Q 1594 3097 1305 2825 
Q 1016 2553 972 2059 
L 3022 2063 
z
" transform="scale(0.015625)"/>
      <path id="DejaVuSans-2d" d="M 313 2009 
L 1997 2009 
L 1997 1497 
L 313 1497 
L 313 2009 
z
" transform="scale(0.015625)"/>
      <path id="DejaVuSans-66" d="M 2375 4863 
L 2375 4384 
L 1825 4384 
Q 1516 4384 1395 4259 
Q 1275 4134 1275 3809 
L 1275 3500 
L 2222 3500 
L 2222 3053 
L 1275 3053 
L 1275 0 
L 697 0 
L 697 3053 
L 147 3053 
L 147 3500 
L 697 3500 
L 697 3744 
Q 697 4328 969 4595 
Q 1241 4863 1831 4863 
L 2375 4863 
z
" transform="scale(0.015625)"/>
      <path id="DejaVuSans-6e" d="M 3513 2113 
L 3513 0 
L 2938 0 
L 2938 2094 
Q 2938 2591 2744 2837 
Q 2550 3084 2163 3084 
Q 1697 3084 1428 2787 
Q 1159 2491 1159 1978 
L 1159 0 
L 581 0 
L 581 3500 
L 1159 3500 
L 1159 2956 
Q 1366 3272 1645 3428 
Q 1925 3584 2291 3584 
Q 2894 3584 3203 3211 
Q 3513 2838 3513 2113 
z
" transform="scale(0.015625)"/>
      <path id="DejaVuSans-63" d="M 3122 3366 
L 3122 2828 
Q 2878 2963 2633 3030 
Q 2388 3097 2138 3097 
Q 1578 3097 1268 2742 
Q 959 2388 959 1747 
Q 959 1106 1268 751 
Q 1578 397 2138 397 
Q 2388 397 2633 464 
Q 2878 531 3122 666 
L 3122 134 
Q 2881 22 2623 -34 
Q 2366 -91 2075 -91 
Q 1284 -91 818 406 
Q 353 903 353 1747 
Q 353 2603 823 3093 
Q 1294 3584 2113 3584 
Q 2378 3584 2631 3529 
Q 2884 3475 3122 3366 
z
" transform="scale(0.015625)"/>
      <path id="DejaVuSans-74" d="M 1172 4494 
L 1172 3500 
L 2356 3500 
L 2356 3053 
L 1172 3053 
L 1172 1153 
Q 1172 725 1289 603 
Q 1406 481 1766 481 
L 2356 481 
L 2356 0 
L 1766 0 
Q 1100 0 847 248 
Q 594 497 594 1153 
L 594 3053 
L 172 3053 
L 172 3500 
L 594 3500 
L 594 4494 
L 1172 4494 
z
" transform="scale(0.015625)"/>
      <path id="DejaVuSans-69" d="M 603 3500 
L 1178 3500 
L 1178 0 
L 603 0 
L 603 3500 
z
M 603 4863 
L 1178 4863 
L 1178 4134 
L 603 4134 
L 603 4863 
z
" transform="scale(0.015625)"/>
      <path id="DejaVuSans-6f" d="M 1959 3097 
Q 1497 3097 1228 2736 
Q 959 2375 959 1747 
Q 959 1119 1226 758 
Q 1494 397 1959 397 
Q 2419 397 2687 759 
Q 2956 1122 2956 1747 
Q 2956 2369 2687 2733 
Q 2419 3097 1959 3097 
z
M 1959 3584 
Q 2709 3584 3137 3096 
Q 3566 2609 3566 1747 
Q 3566 888 3137 398 
Q 2709 -91 1959 -91 
Q 1206 -91 779 398 
Q 353 888 353 1747 
Q 353 2609 779 3096 
Q 1206 3584 1959 3584 
z
" transform="scale(0.015625)"/>
      <path id="DejaVuSans-20" transform="scale(0.015625)"/>
      <path id="DejaVuSans-77" d="M 269 3500 
L 844 3500 
L 1563 769 
L 2278 3500 
L 2956 3500 
L 3675 769 
L 4391 3500 
L 4966 3500 
L 4050 0 
L 3372 0 
L 2619 2869 
L 1863 0 
L 1184 0 
L 269 3500 
z
" transform="scale(0.015625)"/>
      <path id="DejaVuSans-72" d="M 2631 2963 
Q 2534 3019 2420 3045 
Q 2306 3072 2169 3072 
Q 1681 3072 1420 2755 
Q 1159 2438 1159 1844 
L 1159 0 
L 581 0 
L 581 3500 
L 1159 3500 
L 1159 2956 
Q 1341 3275 1631 3429 
Q 1922 3584 2338 3584 
Q 2397 3584 2469 3576 
Q 2541 3569 2628 3553 
L 2631 2963 
z
" transform="scale(0.015625)"/>
      <path id="DejaVuSans-62" d="M 3116 1747 
Q 3116 2381 2855 2742 
Q 2594 3103 2138 3103 
Q 1681 3103 1420 2742 
Q 1159 2381 1159 1747 
Q 1159 1113 1420 752 
Q 1681 391 2138 391 
Q 2594 391 2855 752 
Q 3116 1113 3116 1747 
z
M 1159 2969 
Q 1341 3281 1617 3432 
Q 1894 3584 2278 3584 
Q 2916 3584 3314 3078 
Q 3713 2572 3713 1747 
Q 3713 922 3314 415 
Q 2916 -91 2278 -91 
Q 1894 -91 1617 61 
Q 1341 213 1159 525 
L 1159 0 
L 581 0 
L 581 4863 
L 1159 4863 
L 1159 2969 
z
" transform="scale(0.015625)"/>
      <path id="DejaVuSans-64" d="M 2906 2969 
L 2906 4863 
L 3481 4863 
L 3481 0 
L 2906 0 
L 2906 525 
Q 2725 213 2448 61 
Q 2172 -91 1784 -91 
Q 1150 -91 751 415 
Q 353 922 353 1747 
Q 353 2572 751 3078 
Q 1150 3584 1784 3584 
Q 2172 3584 2448 3432 
Q 2725 3281 2906 2969 
z
M 947 1747 
Q 947 1113 1208 752 
Q 1469 391 1925 391 
Q 2381 391 2643 752 
Q 2906 1113 2906 1747 
Q 2906 2381 2643 2742 
Q 2381 3103 1925 3103 
Q 1469 3103 1208 2742 
Q 947 2381 947 1747 
z
" transform="scale(0.015625)"/>
     </defs>
     <use xlink:href="#DejaVuSans-56"/>
     <use xlink:href="#DejaVuSans-61" x="60.658203"/>
     <use xlink:href="#DejaVuSans-6c" x="121.9375"/>
     <use xlink:href="#DejaVuSans-75" x="149.720703"/>
     <use xlink:href="#DejaVuSans-65" x="213.099609"/>
     <use xlink:href="#DejaVuSans-2d" x="274.623047"/>
     <use xlink:href="#DejaVuSans-66" x="310.707031"/>
     <use xlink:href="#DejaVuSans-75" x="345.912109"/>
     <use xlink:href="#DejaVuSans-6e" x="409.291016"/>
     <use xlink:href="#DejaVuSans-63" x="472.669922"/>
     <use xlink:href="#DejaVuSans-74" x="527.650391"/>
     <use xlink:href="#DejaVuSans-69" x="566.859375"/>
     <use xlink:href="#DejaVuSans-6f" x="594.642578"/>
     <use xlink:href="#DejaVuSans-6e" x="655.824219"/>
     <use xlink:href="#DejaVuSans-20" x="719.203125"/>
     <use xlink:href="#DejaVuSans-6c" x="750.990234"/>
     <use xlink:href="#DejaVuSans-6f" x="778.773438"/>
     <use xlink:href="#DejaVuSans-77" x="839.955078"/>
     <use xlink:href="#DejaVuSans-65" x="921.742188"/>
     <use xlink:href="#DejaVuSans-72" x="983.265625"/>
     <use xlink:href="#DejaVuSans-20" x="1024.378906"/>
     <use xlink:href="#DejaVuSans-62" x="1056.166016"/>
     <use xlink:href="#DejaVuSans-6f" x="1119.642578"/>
     <use xlink:href="#DejaVuSans-75" x="1180.824219"/>
     <use xlink:href="#DejaVuSans-6e" x="1244.203125"/>
     <use xlink:href="#DejaVuSans-64" x="1307.582031"/>
    </g>
   </g>
   <g id="legend_1">
    <g id="patch_7">
     <path d="M 185.758594 159.985 
L 257.041406 159.985 
Q 259.041406 159.985 259.041406 157.985 
L 259.041406 41.56 
Q 259.041406 39.56 257.041406 39.56 
L 185.758594 39.56 
Q 183.758594 39.56 183.758594 41.56 
L 183.758594 157.985 
Q 183.758594 159.985 185.758594 159.985 
z
" style="fill: #ffffff; opacity: 0.8; stroke: #cccccc; stroke-linejoin: miter"/>
    </g>
    <g id="line2d_43">
     <path d="M 187.758594 47.658437 
L 197.758594 47.658437 
L 207.758594 47.658437 
" style="fill: none; stroke: #1f77b4; stroke-width: 1.5; stroke-linecap: square"/>
    </g>
    <g id="text_21">
     <!-- Deg. 2 -->
     <g transform="translate(215.758594 51.158437)scale(0.1 -0.1)">
      <defs>
       <path id="DejaVuSans-44" d="M 1259 4147 
L 1259 519 
L 2022 519 
Q 2988 519 3436 956 
Q 3884 1394 3884 2338 
Q 3884 3275 3436 3711 
Q 2988 4147 2022 4147 
L 1259 4147 
z
M 628 4666 
L 1925 4666 
Q 3281 4666 3915 4102 
Q 4550 3538 4550 2338 
Q 4550 1131 3912 565 
Q 3275 0 1925 0 
L 628 0 
L 628 4666 
z
" transform="scale(0.015625)"/>
       <path id="DejaVuSans-67" d="M 2906 1791 
Q 2906 2416 2648 2759 
Q 2391 3103 1925 3103 
Q 1463 3103 1205 2759 
Q 947 2416 947 1791 
Q 947 1169 1205 825 
Q 1463 481 1925 481 
Q 2391 481 2648 825 
Q 2906 1169 2906 1791 
z
M 3481 434 
Q 3481 -459 3084 -895 
Q 2688 -1331 1869 -1331 
Q 1566 -1331 1297 -1286 
Q 1028 -1241 775 -1147 
L 775 -588 
Q 1028 -725 1275 -790 
Q 1522 -856 1778 -856 
Q 2344 -856 2625 -561 
Q 2906 -266 2906 331 
L 2906 616 
Q 2728 306 2450 153 
Q 2172 0 1784 0 
Q 1141 0 747 490 
Q 353 981 353 1791 
Q 353 2603 747 3093 
Q 1141 3584 1784 3584 
Q 2172 3584 2450 3431 
Q 2728 3278 2906 2969 
L 2906 3500 
L 3481 3500 
L 3481 434 
z
" transform="scale(0.015625)"/>
      </defs>
      <use xlink:href="#DejaVuSans-44"/>
      <use xlink:href="#DejaVuSans-65" x="77.001953"/>
      <use xlink:href="#DejaVuSans-67" x="138.525391"/>
      <use xlink:href="#DejaVuSans-2e" x="202.001953"/>
      <use xlink:href="#DejaVuSans-20" x="233.789062"/>
      <use xlink:href="#DejaVuSans-32" x="265.576172"/>
     </g>
    </g>
    <g id="line2d_44">
     <path d="M 187.758594 62.336563 
L 197.758594 62.336563 
L 207.758594 62.336563 
" style="fill: none; stroke: #ff7f0e; stroke-width: 1.5; stroke-linecap: square"/>
    </g>
    <g id="text_22">
     <!-- Deg. 4 -->
     <g transform="translate(215.758594 65.836563)scale(0.1 -0.1)">
      <use xlink:href="#DejaVuSans-44"/>
      <use xlink:href="#DejaVuSans-65" x="77.001953"/>
      <use xlink:href="#DejaVuSans-67" x="138.525391"/>
      <use xlink:href="#DejaVuSans-2e" x="202.001953"/>
      <use xlink:href="#DejaVuSans-20" x="233.789062"/>
      <use xlink:href="#DejaVuSans-34" x="265.576172"/>
     </g>
    </g>
    <g id="line2d_45">
     <path d="M 187.758594 77.014687 
L 197.758594 77.014687 
L 207.758594 77.014687 
" style="fill: none; stroke: #2ca02c; stroke-width: 1.5; stroke-linecap: square"/>
    </g>
    <g id="text_23">
     <!-- Deg. 6 -->
     <g transform="translate(215.758594 80.514687)scale(0.1 -0.1)">
      <use xlink:href="#DejaVuSans-44"/>
      <use xlink:href="#DejaVuSans-65" x="77.001953"/>
      <use xlink:href="#DejaVuSans-67" x="138.525391"/>
      <use xlink:href="#DejaVuSans-2e" x="202.001953"/>
      <use xlink:href="#DejaVuSans-20" x="233.789062"/>
      <use xlink:href="#DejaVuSans-36" x="265.576172"/>
     </g>
    </g>
    <g id="line2d_46">
     <path d="M 187.758594 91.692813 
L 197.758594 91.692813 
L 207.758594 91.692813 
" style="fill: none; stroke: #d62728; stroke-width: 1.5; stroke-linecap: square"/>
    </g>
    <g id="text_24">
     <!-- Deg. 8 -->
     <g transform="translate(215.758594 95.192813)scale(0.1 -0.1)">
      <defs>
       <path id="DejaVuSans-38" d="M 2034 2216 
Q 1584 2216 1326 1975 
Q 1069 1734 1069 1313 
Q 1069 891 1326 650 
Q 1584 409 2034 409 
Q 2484 409 2743 651 
Q 3003 894 3003 1313 
Q 3003 1734 2745 1975 
Q 2488 2216 2034 2216 
z
M 1403 2484 
Q 997 2584 770 2862 
Q 544 3141 544 3541 
Q 544 4100 942 4425 
Q 1341 4750 2034 4750 
Q 2731 4750 3128 4425 
Q 3525 4100 3525 3541 
Q 3525 3141 3298 2862 
Q 3072 2584 2669 2484 
Q 3125 2378 3379 2068 
Q 3634 1759 3634 1313 
Q 3634 634 3220 271 
Q 2806 -91 2034 -91 
Q 1263 -91 848 271 
Q 434 634 434 1313 
Q 434 1759 690 2068 
Q 947 2378 1403 2484 
z
M 1172 3481 
Q 1172 3119 1398 2916 
Q 1625 2713 2034 2713 
Q 2441 2713 2670 2916 
Q 2900 3119 2900 3481 
Q 2900 3844 2670 4047 
Q 2441 4250 2034 4250 
Q 1625 4250 1398 4047 
Q 1172 3844 1172 3481 
z
" transform="scale(0.015625)"/>
      </defs>
      <use xlink:href="#DejaVuSans-44"/>
      <use xlink:href="#DejaVuSans-65" x="77.001953"/>
      <use xlink:href="#DejaVuSans-67" x="138.525391"/>
      <use xlink:href="#DejaVuSans-2e" x="202.001953"/>
      <use xlink:href="#DejaVuSans-20" x="233.789062"/>
      <use xlink:href="#DejaVuSans-38" x="265.576172"/>
     </g>
    </g>
    <g id="line2d_47">
     <path d="M 187.758594 106.370937 
L 197.758594 106.370937 
L 207.758594 106.370937 
" style="fill: none; stroke: #9467bd; stroke-width: 1.5; stroke-linecap: square"/>
    </g>
    <g id="text_25">
     <!-- Deg. 10 -->
     <g transform="translate(215.758594 109.870937)scale(0.1 -0.1)">
      <use xlink:href="#DejaVuSans-44"/>
      <use xlink:href="#DejaVuSans-65" x="77.001953"/>
      <use xlink:href="#DejaVuSans-67" x="138.525391"/>
      <use xlink:href="#DejaVuSans-2e" x="202.001953"/>
      <use xlink:href="#DejaVuSans-20" x="233.789062"/>
      <use xlink:href="#DejaVuSans-31" x="265.576172"/>
      <use xlink:href="#DejaVuSans-30" x="329.199219"/>
     </g>
    </g>
    <g id="line2d_48">
     <path d="M 187.758594 121.049062 
L 197.758594 121.049062 
L 207.758594 121.049062 
" style="fill: none; stroke: #8c564b; stroke-width: 1.5; stroke-linecap: square"/>
    </g>
    <g id="text_26">
     <!-- Deg. 12 -->
     <g transform="translate(215.758594 124.549062)scale(0.1 -0.1)">
      <use xlink:href="#DejaVuSans-44"/>
      <use xlink:href="#DejaVuSans-65" x="77.001953"/>
      <use xlink:href="#DejaVuSans-67" x="138.525391"/>
      <use xlink:href="#DejaVuSans-2e" x="202.001953"/>
      <use xlink:href="#DejaVuSans-20" x="233.789062"/>
      <use xlink:href="#DejaVuSans-31" x="265.576172"/>
      <use xlink:href="#DejaVuSans-32" x="329.199219"/>
     </g>
    </g>
    <g id="line2d_49">
     <path d="M 187.758594 135.727187 
L 197.758594 135.727187 
L 207.758594 135.727187 
" style="fill: none; stroke: #e377c2; stroke-width: 1.5; stroke-linecap: square"/>
    </g>
    <g id="text_27">
     <!-- Deg. 14 -->
     <g transform="translate(215.758594 139.227187)scale(0.1 -0.1)">
      <use xlink:href="#DejaVuSans-44"/>
      <use xlink:href="#DejaVuSans-65" x="77.001953"/>
      <use xlink:href="#DejaVuSans-67" x="138.525391"/>
      <use xlink:href="#DejaVuSans-2e" x="202.001953"/>
      <use xlink:href="#DejaVuSans-20" x="233.789062"/>
      <use xlink:href="#DejaVuSans-31" x="265.576172"/>
      <use xlink:href="#DejaVuSans-34" x="329.199219"/>
     </g>
    </g>
    <g id="line2d_50">
     <path d="M 187.758594 150.405312 
L 197.758594 150.405312 
L 207.758594 150.405312 
" style="fill: none; stroke: #7f7f7f; stroke-width: 1.5; stroke-linecap: square"/>
    </g>
    <g id="text_28">
     <!-- Deg. 16 -->
     <g transform="translate(215.758594 153.905312)scale(0.1 -0.1)">
      <use xlink:href="#DejaVuSans-44"/>
      <use xlink:href="#DejaVuSans-65" x="77.001953"/>
      <use xlink:href="#DejaVuSans-67" x="138.525391"/>
      <use xlink:href="#DejaVuSans-2e" x="202.001953"/>
      <use xlink:href="#DejaVuSans-20" x="233.789062"/>
      <use xlink:href="#DejaVuSans-31" x="265.576172"/>
      <use xlink:href="#DejaVuSans-36" x="329.199219"/>
     </g>
    </g>
   </g>
  </g>
 </g>
 <defs>
  <clipPath id="p027d718348">
   <rect x="54" y="34.56" width="334.8" height="217.44"/>
  </clipPath>
 </defs>
</svg>
